<svg xmlns="http://www.w3.org/2000/svg" width="40" height="40" viewBox="0 0 40 40">
  <defs>
    <style>
      .cls-1 {
        fill: #fff;
        fill-rule: evenodd;
      }
    </style>
  </defs>
  <path id="Forma_1" data-name="Forma 1" class="cls-1" d="M956.284,4747.57a16.193,16.193,0,0,0,10.57-3.92l10.981,10.98a1.27,1.27,0,0,0,2.167-.9,1.236,1.236,0,0,0-.373-0.89l-10.982-10.99A16.265,16.265,0,1,0,956.284,4747.57Zm0-30.04a13.75,13.75,0,1,1-13.748,13.75A13.767,13.767,0,0,1,956.284,4717.53Zm-4.9,15.02h3.189v3.19a1.269,1.269,0,1,0,2.538,0v-3.19H960.3a1.27,1.27,0,0,0,0-2.54h-3.191v-3.19a1.269,1.269,0,0,0-2.538,0v3.19h-3.189A1.27,1.27,0,1,0,951.384,4732.55Z" transform="translate(-940 -4715)"/>
</svg>
