<?xml version="1.0" standalone="no"?>
<!DOCTYPE svg PUBLIC "-//W3C//DTD SVG 1.1//EN" "http://www.w3.org/Graphics/SVG/1.1/DTD/svg11.dtd" >
<svg xmlns="http://www.w3.org/2000/svg" xmlns:xlink="http://www.w3.org/1999/xlink" version="1.1">
<metadata>
Created by FontForge 20190801 at Thu Nov  1 01:55:13 2012
 By Jimmy Wärting
Copyright (c) 2010-2012 by Claus Eggers Sorensen (es@forthehearts.net), with Reserved Font Name 'Playfair'.
</metadata>
<defs>
<font id="PlayfairDisplaySC-Bold" horiz-adv-x="1364" >
  <font-face 
    font-family="Playfair Display SC"
    font-weight="700"
    font-stretch="normal"
    units-per-em="2048"
    panose-1="0 0 8 0 0 0 0 0 0 0"
    ascent="1638"
    descent="-410"
    x-height="1245"
    cap-height="1450"
    bbox="-553 -498 2249 2029"
    underline-thickness="20"
    underline-position="-110"
    unicode-range="U+000D-25CA"
  />
<missing-glyph horiz-adv-x="1151" 
d="M123 0v1581h905v-1581h-905zM197 61h757v1459h-757v-1459z" />
    <glyph glyph-name=".notdef" horiz-adv-x="1151" 
d="M123 0v1581h905v-1581h-905zM197 61h757v1459h-757v-1459z" />
    <glyph glyph-name="space" unicode=" " horiz-adv-x="477" 
 />
    <glyph glyph-name="A" unicode="A" horiz-adv-x="1366" 
d="M1312 73.5q34 -30.5 68 -32.5v-41q-123 6 -311 6q-210 0 -311 -6v41q77 3 110.5 19t33.5 56q0 31 -25 97l-123 336h-446l-54 -141q-56 -144 -56 -228q0 -76 45 -106t136 -33v-41q-138 6 -254 6q-94 0 -156 -6v41q102 17 176 215l467 1198q33 -3 71 -3q40 0 71 3
l497 -1282q27 -68 61 -98.5zM536 1143l-212 -553h415z" />
    <glyph glyph-name="Aacute" unicode="&#xc1;" horiz-adv-x="1366" 
d="M1312 73.5q34 -30.5 68 -32.5v-41q-123 6 -311 6q-210 0 -311 -6v41q77 3 110.5 19t33.5 56q0 31 -25 97l-123 336h-446l-54 -141q-56 -144 -56 -228q0 -76 45 -106t136 -33v-41q-138 6 -254 6q-94 0 -156 -6v41q102 17 176 215l467 1198q33 -3 71 -3q40 0 71 3
l497 -1282q27 -68 61 -98.5zM536 1143l-212 -553h415zM640.5 1703q44.5 44 110 114.5t112.5 95.5q32 16 63 16q32 0 60 -16t43 -45q12 -22 12 -47q0 -31 -18 -59t-51 -46q-45 -25 -120.5 -44t-143.5 -37t-162 -54l-15 25q65 53 109.5 97z" />
    <glyph glyph-name="Abreve" unicode="&#x102;" horiz-adv-x="1366" 
d="M1312 73.5q34 -30.5 68 -32.5v-41q-123 6 -311 6q-210 0 -311 -6v41q77 3 110.5 19t33.5 56q0 31 -25 97l-123 336h-446l-54 -141q-56 -144 -56 -228q0 -76 45 -106t136 -33v-41q-138 6 -254 6q-94 0 -156 -6v41q102 17 176 215l467 1198q33 -3 71 -3q40 0 71 3
l497 -1282q27 -68 61 -98.5zM536 1143l-212 -553h415zM1031.5 1722.5q-61.5 -62.5 -154.5 -103t-210 -40.5t-209.5 40.5t-154 103t-92.5 130.5l24 21q69 -51 176 -87t256 -36q265 0 433 125l24 -23q-31 -68 -92.5 -130.5z" />
    <glyph glyph-name="Acircumflex" unicode="&#xc2;" horiz-adv-x="1366" 
d="M1312 73.5q34 -30.5 68 -32.5v-41q-123 6 -311 6q-210 0 -311 -6v41q77 3 110.5 19t33.5 56q0 31 -25 97l-123 336h-446l-54 -141q-56 -144 -56 -228q0 -76 45 -106t136 -33v-41q-138 6 -254 6q-94 0 -156 -6v41q102 17 176 215l467 1198q33 -3 71 -3q40 0 71 3
l497 -1282q27 -68 61 -98.5zM536 1143l-212 -553h415zM875.5 1747q111.5 -86 242.5 -141l-10 -31q-134 25 -263 61.5t-206 71.5q-64 -35 -170.5 -71.5t-216.5 -61.5l-10 31q131 55 242.5 140.5t177.5 178.5h37q65 -92 176.5 -178z" />
    <glyph glyph-name="Adieresis" unicode="&#xc4;" horiz-adv-x="1366" 
d="M1312 73.5q34 -30.5 68 -32.5v-41q-123 6 -311 6q-210 0 -311 -6v41q77 3 110.5 19t33.5 56q0 31 -25 97l-123 336h-446l-54 -141q-56 -144 -56 -228q0 -76 45 -106t136 -33v-41q-138 6 -254 6q-94 0 -156 -6v41q102 17 176 215l467 1198q33 -3 71 -3q40 0 71 3
l497 -1282q27 -68 61 -98.5zM536 1143l-212 -553h415zM510 1856q36 -22 58 -58t22 -76q0 -41 -22 -76t-58 -56t-76 -21q-41 0 -76.5 20.5t-56 56t-20.5 76.5q0 40 21 76t56 58t76 22q40 0 76 -22zM1001.5 1856q35.5 -22 56.5 -58t21 -76q0 -41 -21 -76.5t-56.5 -56
t-75.5 -20.5q-42 0 -78 20.5t-57 56t-21 76.5t21 77t57 57.5t78 21.5q40 0 75.5 -22z" />
    <glyph glyph-name="Agrave" unicode="&#xc0;" horiz-adv-x="1366" 
d="M1312 73.5q34 -30.5 68 -32.5v-41q-123 6 -311 6q-210 0 -311 -6v41q77 3 110.5 19t33.5 56q0 31 -25 97l-123 336h-446l-54 -141q-56 -144 -56 -228q0 -76 45 -106t136 -33v-41q-138 6 -254 6q-94 0 -156 -6v41q102 17 176 215l467 1198q33 -3 71 -3q40 0 71 3
l497 -1282q27 -68 61 -98.5zM536 1143l-212 -553h415zM667.5 1627q-59.5 17 -152.5 40.5t-138 48.5q-33 18 -51 45.5t-18 58.5q0 26 12 48q15 29 42.5 45t60.5 16q32 0 62 -16q32 -17 59 -41.5t102 -105.5t171 -160l-14 -25q-76 29 -135.5 46z" />
    <glyph glyph-name="Amacron" unicode="&#x100;" horiz-adv-x="1366" 
d="M1312 73.5q34 -30.5 68 -32.5v-41q-123 6 -311 6q-210 0 -311 -6v41q77 3 110.5 19t33.5 56q0 31 -25 97l-123 336h-446l-54 -141q-56 -144 -56 -228q0 -76 45 -106t136 -33v-41q-138 6 -254 6q-94 0 -156 -6v41q102 17 176 215l467 1198q33 -3 71 -3q40 0 71 3
l497 -1282q27 -68 61 -98.5zM536 1143l-212 -553h415zM270 1677v52h819v-52h-819z" />
    <glyph glyph-name="Aogonek" unicode="&#x104;" horiz-adv-x="1366" 
d="M1312 73.5q34 -30.5 68 -32.5v-41q-123 6 -311 6q-210 0 -311 -6v41q77 3 110.5 19t33.5 56q0 31 -25 97l-123 336h-446l-54 -141q-56 -144 -56 -228q0 -76 45 -106t136 -33v-41q-138 6 -254 6q-94 0 -156 -6v41q102 17 176 215l467 1198q33 -3 71 -3q40 0 71 3
l497 -1282q27 -68 61 -98.5zM536 1143l-212 -553h415zM1185.5 -82.5q-54.5 -53.5 -54.5 -105.5q0 -84 86 -84q35 0 71.5 15.5t59.5 39.5l27 -29q-54 -73 -121 -106t-160 -33q-88 0 -137 37.5t-49 103.5q0 84 96.5 148.5t272.5 101.5h77q-114 -35 -168.5 -88.5z" />
    <glyph glyph-name="Aring" unicode="&#xc5;" horiz-adv-x="1366" 
d="M1312 73.5q34 -30.5 68 -32.5v-41q-123 6 -311 6q-210 0 -311 -6v41q77 3 110.5 19t33.5 56q0 31 -25 97l-123 336h-446l-54 -141q-56 -144 -56 -228q0 -76 45 -106t136 -33v-41q-138 6 -254 6q-94 0 -156 -6v41q102 17 176 215l467 1198q33 -3 71 -3q40 0 71 3
l497 -1282q27 -68 61 -98.5zM536 1143l-212 -553h415zM792.5 1894.5q51.5 -24.5 82 -69.5t30.5 -105t-30.5 -105.5t-82 -70t-111.5 -24.5q-59 0 -109.5 24.5t-81 70t-30.5 105.5q0 59 30.5 104.5t81 70t109.5 24.5q60 0 111.5 -24.5zM603 1857.5q-38 -18.5 -62 -54.5
t-24 -85t24 -84.5t61.5 -53t78.5 -17.5q42 0 80 17.5t62 53t24 84.5t-24 85t-62.5 54.5t-79.5 18.5q-40 0 -78 -18.5z" />
    <glyph glyph-name="Atilde" unicode="&#xc3;" horiz-adv-x="1366" 
d="M1312 73.5q34 -30.5 68 -32.5v-41q-123 6 -311 6q-210 0 -311 -6v41q77 3 110.5 19t33.5 56q0 31 -25 97l-123 336h-446l-54 -141q-56 -144 -56 -228q0 -76 45 -106t136 -33v-41q-138 6 -254 6q-94 0 -156 -6v41q102 17 176 215l467 1198q33 -3 71 -3q40 0 71 3
l497 -1282q27 -68 61 -98.5zM536 1143l-212 -553h415zM329.5 1822q74.5 70 171.5 70q67 0 118 -19.5t143 -72.5t169 -53q109 0 170 111l29 -11q-27 -135 -101 -204.5t-171 -69.5q-67 0 -117.5 19.5t-143.5 72.5t-172 53q-106 0 -170 -112l-28 10q28 136 102.5 206z" />
    <glyph glyph-name="AE" unicode="&#xc6;" horiz-adv-x="1821" 
d="M1714 287q0 -156 15 -287q-136 6 -453 6q-391 0 -590 -6v41q62 4 89.5 16.5t37.5 47.5t10 112v492h-343l-290 -496q-37 -62 -37 -100q0 -36 34.5 -52.5t107.5 -19.5v-41q-61 6 -186 6q-88 0 -138 -6v41q34 2 67 31.5t75 99.5l695 1182q-13 30 -43.5 41t-94.5 14v41
q83 -2 193 -3l79 134h49l-79 -135q144 -2 364 -2q289 0 412 6q-15 -151 -15 -279q0 -89 6 -139h-47q-17 138 -51 219.5t-85.5 116.5t-125.5 35h-67q-68 0 -99.5 -12t-43 -46.5t-11.5 -111.5v-483h108q65 0 101 38.5t47.5 76.5t30.5 126h47q-7 -91 -7 -174l1 -88
q0 -93 12 -262h-47q-12 76 -28 125.5t-53.5 83t-103.5 33.5h-108v-492q0 -77 11.5 -111.5t43 -46.5t99.5 -12h100q112 0 180 94.5t90 317.5h47q-6 -67 -6 -172zM823 1233q0 35 -2 58l-317 -541h319v483z" />
    <glyph glyph-name="B" unicode="B" horiz-adv-x="1376" 
d="M1096.5 694.5q115.5 -53.5 167 -131t51.5 -166.5q0 -127 -68 -216.5t-195 -135t-302 -45.5q-44 0 -150.5 3t-214.5 3q-211 0 -315 -6v41q68 3 99 16t42.5 48t11.5 112v1016q0 77 -11.5 112t-42.5 48t-99 16v41q103 -6 311 -6q82 0 182 2t139 2q165 0 278.5 -40.5
t170.5 -113t57 -168.5q0 -76 -44 -149t-136.5 -129.5t-228.5 -81.5v-4q182 -14 297.5 -67.5zM823.5 861q53.5 91 53.5 243q0 154 -48 229.5t-153 75.5q-55 0 -81.5 -14.5t-36 -51t-9.5 -110.5v-463h88q133 0 186.5 91zM559.5 108q10.5 -35 39.5 -48t91 -13q285 0 285 359
q0 161 -81.5 245t-258.5 84h-86v-518q0 -74 10.5 -109z" />
    <glyph glyph-name="C" unicode="C" horiz-adv-x="1444" 
d="M1265.5 92.5q-11.5 28.5 -33.5 28.5q-16 0 -42 -17q-60 -42 -111.5 -70t-118 -45.5t-149.5 -17.5q-217 0 -380.5 88t-253 255.5t-89.5 398.5q0 226 92 400t257 270t376 96q122 0 208.5 -35t168.5 -98q23 -18 40 -18q42 0 52 122h47q-8 -139 -8 -496h-47
q-13 103 -28.5 167.5t-45 113.5t-80.5 90q-51 49 -119 74.5t-141 25.5q-141 0 -232 -97t-133 -256t-42 -351t44 -351t137.5 -254.5t233.5 -95.5q71 0 139 26t115 75q52 40 81.5 92.5t44 121.5t26.5 181h47q0 -371 8 -516h-47q-5 64 -16.5 92.5z" />
    <glyph glyph-name="Cacute" unicode="&#x106;" horiz-adv-x="1444" 
d="M1266.5 92.5q-11.5 28.5 -33.5 28.5q-16 0 -42 -17q-60 -42 -111.5 -70t-118 -45.5t-149.5 -17.5q-217 0 -380.5 88t-253 255.5t-89.5 398.5q0 226 92 400t257 270t376 96q122 0 208.5 -35t168.5 -98q23 -18 40 -18q42 0 52 122h47q-8 -139 -8 -496h-47
q-13 103 -28.5 167.5t-45 113.5t-80.5 90q-51 49 -119 74.5t-141 25.5q-141 0 -232 -97t-133 -256t-42 -351t44 -351t137.5 -254.5t233.5 -95.5q71 0 139 26t115 75q52 40 81.5 92.5t44 121.5t26.5 181h47q0 -371 8 -516h-47q-5 64 -16.5 92.5zM736.5 1703
q44.5 44 110 114.5t112.5 95.5q32 16 63 16q32 0 60 -16t43 -45q12 -22 12 -47q0 -31 -18 -59t-51 -46q-45 -25 -120.5 -44t-143.5 -37t-162 -54l-15 25q65 53 109.5 97z" />
    <glyph glyph-name="Ccaron" unicode="&#x10c;" horiz-adv-x="1444" 
d="M1266.5 92.5q-11.5 28.5 -33.5 28.5q-16 0 -42 -17q-60 -42 -111.5 -70t-118 -45.5t-149.5 -17.5q-217 0 -380.5 88t-253 255.5t-89.5 398.5q0 226 92 400t257 270t376 96q122 0 208.5 -35t168.5 -98q23 -18 40 -18q42 0 52 122h47q-8 -139 -8 -496h-47
q-13 103 -28.5 167.5t-45 113.5t-80.5 90q-51 49 -119 74.5t-141 25.5q-141 0 -232 -97t-133 -256t-42 -351t44 -351t137.5 -254.5t233.5 -95.5q71 0 139 26t115 75q52 40 81.5 92.5t44 121.5t26.5 181h47q0 -371 8 -516h-47q-5 64 -16.5 92.5zM967 1751q-111 -86 -178 -180
h-37q-64 93 -175.5 178.5t-244.5 140.5l10 31q134 -23 263.5 -60t205.5 -73q64 36 170.5 73t216.5 60l10 -31q-130 -53 -241 -139z" />
    <glyph glyph-name="Ccedilla" unicode="&#xc7;" horiz-adv-x="1444" 
d="M1266.5 92.5q-11.5 28.5 -33.5 28.5q-16 0 -42 -17q-60 -42 -111.5 -70t-118 -45.5t-149.5 -17.5q-217 0 -380.5 88t-253 255.5t-89.5 398.5q0 226 92 400t257 270t376 96q122 0 208.5 -35t168.5 -98q23 -18 40 -18q42 0 52 122h47q-8 -139 -8 -496h-47
q-13 103 -28.5 167.5t-45 113.5t-80.5 90q-51 49 -119 74.5t-141 25.5q-141 0 -232 -97t-133 -256t-42 -351t44 -351t137.5 -254.5t233.5 -95.5q71 0 139 26t115 75q52 40 81.5 92.5t44 121.5t26.5 181h47q0 -371 8 -516h-47q-5 64 -16.5 92.5zM958 -109q73 0 113 -30
t40 -80q0 -83 -91.5 -124.5t-231.5 -41.5q-119 0 -191 25l11 36q72 -8 102 -8q75 0 130.5 20.5t55.5 63.5q0 53 -94 53q-48 0 -80 -14l68 219h55l-45 -143q70 24 158 24z" />
    <glyph glyph-name="Ccircumflex" unicode="&#x108;" horiz-adv-x="1444" 
d="M1266.5 92.5q-11.5 28.5 -33.5 28.5q-16 0 -42 -17q-60 -42 -111.5 -70t-118 -45.5t-149.5 -17.5q-217 0 -380.5 88t-253 255.5t-89.5 398.5q0 226 92 400t257 270t376 96q122 0 208.5 -35t168.5 -98q23 -18 40 -18q42 0 52 122h47q-8 -139 -8 -496h-47
q-13 103 -28.5 167.5t-45 113.5t-80.5 90q-51 49 -119 74.5t-141 25.5q-141 0 -232 -97t-133 -256t-42 -351t44 -351t137.5 -254.5t233.5 -95.5q71 0 139 26t115 75q52 40 81.5 92.5t44 121.5t26.5 181h47q0 -371 8 -516h-47q-5 64 -16.5 92.5zM971.5 1747
q111.5 -86 242.5 -141l-10 -31q-134 25 -263 61.5t-206 71.5q-64 -35 -170.5 -71.5t-216.5 -61.5l-10 31q131 55 242.5 140.5t177.5 178.5h37q65 -92 176.5 -178z" />
    <glyph glyph-name="Cdotaccent" unicode="&#x10a;" horiz-adv-x="1444" 
d="M1266.5 92.5q-11.5 28.5 -33.5 28.5q-16 0 -42 -17q-60 -42 -111.5 -70t-118 -45.5t-149.5 -17.5q-217 0 -380.5 88t-253 255.5t-89.5 398.5q0 226 92 400t257 270t376 96q122 0 208.5 -35t168.5 -98q23 -18 40 -18q42 0 52 122h47q-8 -139 -8 -496h-47
q-13 103 -28.5 167.5t-45 113.5t-80.5 90q-51 49 -119 74.5t-141 25.5q-141 0 -232 -97t-133 -256t-42 -351t44 -351t137.5 -254.5t233.5 -95.5q71 0 139 26t115 75q52 40 81.5 92.5t44 121.5t26.5 181h47q0 -371 8 -516h-47q-5 64 -16.5 92.5zM917 1840q47 -42 47 -116
q0 -73 -47 -115t-127 -42q-82 0 -128 41.5t-46 115.5t46 116t128 42q80 0 127 -42z" />
    <glyph glyph-name="D" unicode="D" horiz-adv-x="1589" 
d="M317 1443l64 1q288 6 321 6q400 0 598.5 -181t198.5 -528q0 -223 -97 -390.5t-281 -259t-437 -91.5q-30 0 -140.5 3t-158.5 3q-211 0 -315 -6v41q68 3 99 16t42.5 48t11.5 112v1016q0 77 -11.5 112t-42.5 48t-99 16v41q131 -7 247 -7zM561 102.5q12 -36.5 44 -51
t97 -14.5q169 0 269.5 79.5t144 232t43.5 384.5q0 233 -46.5 382.5t-147.5 223.5t-265 74q-64 0 -95.5 -14.5t-43.5 -51.5t-12 -110v-1024q0 -74 12 -110.5z" />
    <glyph glyph-name="Eth" unicode="&#xd0;" horiz-adv-x="1589" 
d="M318 1443l64 1q288 6 321 6q400 0 598.5 -181t198.5 -528q0 -223 -97 -390.5t-281 -259t-437 -91.5q-30 0 -140.5 3t-158.5 3q-211 0 -315 -6v41q68 3 99 16t42.5 48t11.5 112v492h-154v41h154v483q0 77 -11.5 112t-42.5 48t-99 16v41q131 -7 247 -7zM562 102.5
q12 -36.5 44 -51t97 -14.5q169 0 269.5 79.5t144 232t43.5 384.5q0 233 -46.5 382.5t-147.5 223.5t-265 74q-64 0 -95.5 -14.5t-43.5 -51.5t-12 -110v-487h253v-41h-253v-496q0 -74 12 -110.5z" />
    <glyph glyph-name="Dcaron" unicode="&#x10e;" horiz-adv-x="1589" 
d="M318 1443l64 1q288 6 321 6q400 0 598.5 -181t198.5 -528q0 -223 -97 -390.5t-281 -259t-437 -91.5q-30 0 -140.5 3t-158.5 3q-211 0 -315 -6v41q68 3 99 16t42.5 48t11.5 112v1016q0 77 -11.5 112t-42.5 48t-99 16v41q131 -7 247 -7zM562 102.5q12 -36.5 44 -51
t97 -14.5q169 0 269.5 79.5t144 232t43.5 384.5q0 233 -46.5 382.5t-147.5 223.5t-265 74q-64 0 -95.5 -14.5t-43.5 -51.5t-12 -110v-1024q0 -74 12 -110.5zM893 1751q-111 -86 -178 -180h-37q-64 93 -175.5 178.5t-244.5 140.5l10 31q134 -23 263.5 -60t205.5 -73
q64 36 170.5 73t216.5 60l10 -31q-130 -53 -241 -139z" />
    <glyph glyph-name="Dcroat" unicode="&#x110;" horiz-adv-x="1589" 
d="M318 1443l64 1q288 6 321 6q400 0 598.5 -181t198.5 -528q0 -223 -97 -390.5t-281 -259t-437 -91.5q-30 0 -140.5 3t-158.5 3q-211 0 -315 -6v41q68 3 99 16t42.5 48t11.5 112v492h-154v41h154v483q0 77 -11.5 112t-42.5 48t-99 16v41q131 -7 247 -7zM562 102.5
q12 -36.5 44 -51t97 -14.5q169 0 269.5 79.5t144 232t43.5 384.5q0 233 -46.5 382.5t-147.5 223.5t-265 74q-64 0 -95.5 -14.5t-43.5 -51.5t-12 -110v-487h253v-41h-253v-496q0 -74 12 -110.5z" />
    <glyph glyph-name="E" unicode="E" horiz-adv-x="1298" 
d="M1192 311q0 -188 14 -311q-139 6 -469 6q-446 0 -667 -6v41q68 3 99 16t42.5 48t11.5 112v1016q0 77 -11.5 112t-42.5 48t-99 16v41q221 -6 667 -6q301 0 428 6q-14 -169 -14 -303q0 -91 6 -139h-47q-21 149 -64 235t-109 123t-163 37h-84q-64 0 -92.5 -10.5t-38.5 -40
t-10 -95.5v-507h65q110 0 166 80t78 190h47q-7 -101 -7 -193l1 -98q0 -104 12 -291h-47q-41 271 -250 271h-65v-516q0 -66 10 -95.5t38.5 -40t92.5 -10.5h101q144 0 233.5 100t126.5 336h47q-6 -67 -6 -172z" />
    <glyph glyph-name="Eacute" unicode="&#xc9;" horiz-adv-x="1298" 
d="M1193 311q0 -188 14 -311q-139 6 -469 6q-446 0 -667 -6v41q68 3 99 16t42.5 48t11.5 112v1016q0 77 -11.5 112t-42.5 48t-99 16v41q221 -6 667 -6q301 0 428 6q-14 -169 -14 -303q0 -91 6 -139h-47q-21 149 -64 235t-109 123t-163 37h-84q-64 0 -92.5 -10.5t-38.5 -40
t-10 -95.5v-507h65q110 0 166 80t78 190h47q-7 -101 -7 -193l1 -98q0 -104 12 -291h-47q-41 271 -250 271h-65v-516q0 -66 10 -95.5t38.5 -40t92.5 -10.5h101q144 0 233.5 100t126.5 336h47q-6 -67 -6 -172zM604.5 1703q44.5 44 110 114.5t112.5 95.5q32 16 63 16
q32 0 60 -16t43 -45q12 -22 12 -47q0 -31 -18 -59t-51 -46q-45 -25 -120.5 -44t-143.5 -37t-162 -54l-15 25q65 53 109.5 97z" />
    <glyph glyph-name="Ebreve" unicode="&#x114;" horiz-adv-x="1298" 
d="M1193 311q0 -188 14 -311q-139 6 -469 6q-446 0 -667 -6v41q68 3 99 16t42.5 48t11.5 112v1016q0 77 -11.5 112t-42.5 48t-99 16v41q221 -6 667 -6q301 0 428 6q-14 -169 -14 -303q0 -91 6 -139h-47q-21 149 -64 235t-109 123t-163 37h-84q-64 0 -92.5 -10.5t-38.5 -40
t-10 -95.5v-507h65q110 0 166 80t78 190h47q-7 -101 -7 -193l1 -98q0 -104 12 -291h-47q-41 271 -250 271h-65v-516q0 -66 10 -95.5t38.5 -40t92.5 -10.5h101q144 0 233.5 100t126.5 336h47q-6 -67 -6 -172zM995.5 1722.5q-61.5 -62.5 -154.5 -103t-210 -40.5t-209.5 40.5
t-154 103t-92.5 130.5l24 21q69 -51 176 -87t256 -36q265 0 433 125l24 -23q-31 -68 -92.5 -130.5z" />
    <glyph glyph-name="Ecaron" unicode="&#x11a;" horiz-adv-x="1298" 
d="M1193 311q0 -188 14 -311q-139 6 -469 6q-446 0 -667 -6v41q68 3 99 16t42.5 48t11.5 112v1016q0 77 -11.5 112t-42.5 48t-99 16v41q221 -6 667 -6q301 0 428 6q-14 -169 -14 -303q0 -91 6 -139h-47q-21 149 -64 235t-109 123t-163 37h-84q-64 0 -92.5 -10.5t-38.5 -40
t-10 -95.5v-507h65q110 0 166 80t78 190h47q-7 -101 -7 -193l1 -98q0 -104 12 -291h-47q-41 271 -250 271h-65v-516q0 -66 10 -95.5t38.5 -40t92.5 -10.5h101q144 0 233.5 100t126.5 336h47q-6 -67 -6 -172zM835 1751q-111 -86 -178 -180h-37q-64 93 -175.5 178.5
t-244.5 140.5l10 31q134 -23 263.5 -60t205.5 -73q64 36 170.5 73t216.5 60l10 -31q-130 -53 -241 -139z" />
    <glyph glyph-name="Ecircumflex" unicode="&#xca;" horiz-adv-x="1298" 
d="M1193 311q0 -188 14 -311q-139 6 -469 6q-446 0 -667 -6v41q68 3 99 16t42.5 48t11.5 112v1016q0 77 -11.5 112t-42.5 48t-99 16v41q221 -6 667 -6q301 0 428 6q-14 -169 -14 -303q0 -91 6 -139h-47q-21 149 -64 235t-109 123t-163 37h-84q-64 0 -92.5 -10.5t-38.5 -40
t-10 -95.5v-507h65q110 0 166 80t78 190h47q-7 -101 -7 -193l1 -98q0 -104 12 -291h-47q-41 271 -250 271h-65v-516q0 -66 10 -95.5t38.5 -40t92.5 -10.5h101q144 0 233.5 100t126.5 336h47q-6 -67 -6 -172zM839.5 1747q111.5 -86 242.5 -141l-10 -31q-134 25 -263 61.5
t-206 71.5q-64 -35 -170.5 -71.5t-216.5 -61.5l-10 31q131 55 242.5 140.5t177.5 178.5h37q65 -92 176.5 -178z" />
    <glyph glyph-name="Edieresis" unicode="&#xcb;" horiz-adv-x="1298" 
d="M1193 311q0 -188 14 -311q-139 6 -469 6q-446 0 -667 -6v41q68 3 99 16t42.5 48t11.5 112v1016q0 77 -11.5 112t-42.5 48t-99 16v41q221 -6 667 -6q301 0 428 6q-14 -169 -14 -303q0 -91 6 -139h-47q-21 149 -64 235t-109 123t-163 37h-84q-64 0 -92.5 -10.5t-38.5 -40
t-10 -95.5v-507h65q110 0 166 80t78 190h47q-7 -101 -7 -193l1 -98q0 -104 12 -291h-47q-41 271 -250 271h-65v-516q0 -66 10 -95.5t38.5 -40t92.5 -10.5h101q144 0 233.5 100t126.5 336h47q-6 -67 -6 -172zM474 1856q36 -22 58 -58t22 -76q0 -41 -22 -76t-58 -56t-76 -21
q-41 0 -76.5 20.5t-56 56t-20.5 76.5q0 40 21 76t56 58t76 22q40 0 76 -22zM965.5 1856q35.5 -22 56.5 -58t21 -76q0 -41 -21 -76.5t-56.5 -56t-75.5 -20.5q-42 0 -78 20.5t-57 56t-21 76.5t21 77t57 57.5t78 21.5q40 0 75.5 -22z" />
    <glyph glyph-name="Edotaccent" unicode="&#x116;" horiz-adv-x="1298" 
d="M1193 311q0 -188 14 -311q-139 6 -469 6q-446 0 -667 -6v41q68 3 99 16t42.5 48t11.5 112v1016q0 77 -11.5 112t-42.5 48t-99 16v41q221 -6 667 -6q301 0 428 6q-14 -169 -14 -303q0 -91 6 -139h-47q-21 149 -64 235t-109 123t-163 37h-84q-64 0 -92.5 -10.5t-38.5 -40
t-10 -95.5v-507h65q110 0 166 80t78 190h47q-7 -101 -7 -193l1 -98q0 -104 12 -291h-47q-41 271 -250 271h-65v-516q0 -66 10 -95.5t38.5 -40t92.5 -10.5h101q144 0 233.5 100t126.5 336h47q-6 -67 -6 -172zM785 1840q47 -42 47 -116q0 -73 -47 -115t-127 -42
q-82 0 -128 41.5t-46 115.5t46 116t128 42q80 0 127 -42z" />
    <glyph glyph-name="Egrave" unicode="&#xc8;" horiz-adv-x="1298" 
d="M1193 311q0 -188 14 -311q-139 6 -469 6q-446 0 -667 -6v41q68 3 99 16t42.5 48t11.5 112v1016q0 77 -11.5 112t-42.5 48t-99 16v41q221 -6 667 -6q301 0 428 6q-14 -169 -14 -303q0 -91 6 -139h-47q-21 149 -64 235t-109 123t-163 37h-84q-64 0 -92.5 -10.5t-38.5 -40
t-10 -95.5v-507h65q110 0 166 80t78 190h47q-7 -101 -7 -193l1 -98q0 -104 12 -291h-47q-41 271 -250 271h-65v-516q0 -66 10 -95.5t38.5 -40t92.5 -10.5h101q144 0 233.5 100t126.5 336h47q-6 -67 -6 -172zM631.5 1627q-59.5 17 -152.5 40.5t-138 48.5q-33 18 -51 45.5
t-18 58.5q0 26 12 48q15 29 42.5 45t60.5 16q32 0 62 -16q32 -17 59 -41.5t102 -105.5t171 -160l-14 -25q-76 29 -135.5 46z" />
    <glyph glyph-name="Emacron" unicode="&#x112;" horiz-adv-x="1298" 
d="M1193 311q0 -188 14 -311q-139 6 -469 6q-446 0 -667 -6v41q68 3 99 16t42.5 48t11.5 112v1016q0 77 -11.5 112t-42.5 48t-99 16v41q221 -6 667 -6q301 0 428 6q-14 -169 -14 -303q0 -91 6 -139h-47q-21 149 -64 235t-109 123t-163 37h-84q-64 0 -92.5 -10.5t-38.5 -40
t-10 -95.5v-507h65q110 0 166 80t78 190h47q-7 -101 -7 -193l1 -98q0 -104 12 -291h-47q-41 271 -250 271h-65v-516q0 -66 10 -95.5t38.5 -40t92.5 -10.5h101q144 0 233.5 100t126.5 336h47q-6 -67 -6 -172zM234 1677v52h819v-52h-819z" />
    <glyph glyph-name="Eogonek" unicode="&#x118;" horiz-adv-x="1298" 
d="M1193 311q0 -188 14 -311q-139 6 -469 6q-446 0 -667 -6v41q68 3 99 16t42.5 48t11.5 112v1016q0 77 -11.5 112t-42.5 48t-99 16v41q221 -6 667 -6q301 0 428 6q-14 -169 -14 -303q0 -91 6 -139h-47q-21 149 -64 235t-109 123t-163 37h-84q-64 0 -92.5 -10.5t-38.5 -40
t-10 -95.5v-507h65q110 0 166 80t78 190h47q-7 -101 -7 -193l1 -98q0 -104 12 -291h-47q-41 271 -250 271h-65v-516q0 -66 10 -95.5t38.5 -40t92.5 -10.5h101q144 0 233.5 100t126.5 336h47q-6 -67 -6 -172zM1030.5 -82.5q-54.5 -53.5 -54.5 -105.5q0 -84 86 -84
q35 0 71.5 15.5t59.5 39.5l27 -29q-54 -73 -121 -106t-160 -33q-88 0 -137 37.5t-49 103.5q0 84 96.5 148.5t272.5 101.5h77q-114 -35 -168.5 -88.5z" />
    <glyph glyph-name="F" unicode="F" horiz-adv-x="1212" 
d="M737 1444q301 0 428 6q-14 -175 -14 -311q0 -97 6 -156h-47q-27 157 -73 249t-113.5 131.5t-165.5 39.5h-68q-64 0 -92.5 -10.5t-38.5 -40t-10 -95.5v-516h72q109 0 165 80.5t78 190.5h47q-7 -101 -7 -193l1 -98q0 -107 13 -291h-48q-42 270 -249 270h-72v-471
q0 -82 17 -119.5t61.5 -50.5t140.5 -14v-45q-252 6 -375 6q-59 0 -323 -6v41q68 3 99 16t42.5 48t11.5 112v1016q0 77 -11.5 112t-42.5 48t-99 16v41q221 -6 667 -6z" />
    <glyph glyph-name="G" unicode="G" horiz-adv-x="1505" 
d="M1308 80q-15 37 -42 37q-34 0 -111 -43q-178 -103 -336 -103q-236 0 -400 87.5t-247.5 253t-83.5 397.5q0 229 94.5 403.5t263 270.5t383.5 96q126 0 213.5 -34.5t171.5 -98.5q25 -19 41 -19q21 0 33 29t19 94h47q-8 -139 -8 -496h-48q-15 138 -47 224.5t-106 146.5
q-49 47 -121 73.5t-147 26.5q-143 0 -238 -97.5t-140.5 -257.5t-45.5 -349q0 -709 393 -709q89 0 145 41q27 18 38 43t11 64v200q0 96 -16 140.5t-57.5 61t-132.5 20.5v41q118 -7 350 -7q189 0 274 7v-41q-42 -4 -60 -16.5t-25 -47t-7 -112.5v-406h-41q-2 43 -17 80z" />
    <glyph glyph-name="Gacute" unicode="&#x1f4;" horiz-adv-x="1505" 
d="M1309 80q-15 37 -42 37q-34 0 -111 -43q-178 -103 -336 -103q-236 0 -400 87.5t-247.5 253t-83.5 397.5q0 229 94.5 403.5t263 270.5t383.5 96q126 0 213.5 -34.5t171.5 -98.5q25 -19 41 -19q21 0 33 29t19 94h47q-8 -139 -8 -496h-48q-15 138 -47 224.5t-106 146.5
q-49 47 -121 73.5t-147 26.5q-143 0 -238 -97.5t-140.5 -257.5t-45.5 -349q0 -709 393 -709q89 0 145 41q27 18 38 43t11 64v200q0 96 -16 140.5t-57.5 61t-132.5 20.5v41q118 -7 350 -7q189 0 274 7v-41q-42 -4 -60 -16.5t-25 -47t-7 -112.5v-406h-41q-2 43 -17 80z
M751.5 1703q44.5 44 110 114.5t112.5 95.5q32 16 63 16q32 0 60 -16t43 -45q12 -22 12 -47q0 -31 -18 -59t-51 -46q-45 -25 -120.5 -44t-143.5 -37t-162 -54l-15 25q65 53 109.5 97z" />
    <glyph glyph-name="Gbreve" unicode="&#x11e;" horiz-adv-x="1505" 
d="M1309 80q-15 37 -42 37q-34 0 -111 -43q-178 -103 -336 -103q-236 0 -400 87.5t-247.5 253t-83.5 397.5q0 229 94.5 403.5t263 270.5t383.5 96q126 0 213.5 -34.5t171.5 -98.5q25 -19 41 -19q21 0 33 29t19 94h47q-8 -139 -8 -496h-48q-15 138 -47 224.5t-106 146.5
q-49 47 -121 73.5t-147 26.5q-143 0 -238 -97.5t-140.5 -257.5t-45.5 -349q0 -709 393 -709q89 0 145 41q27 18 38 43t11 64v200q0 96 -16 140.5t-57.5 61t-132.5 20.5v41q118 -7 350 -7q189 0 274 7v-41q-42 -4 -60 -16.5t-25 -47t-7 -112.5v-406h-41q-2 43 -17 80z
M1142.5 1722.5q-61.5 -62.5 -154.5 -103t-210 -40.5t-209.5 40.5t-154 103t-92.5 130.5l24 21q69 -51 176 -87t256 -36q265 0 433 125l24 -23q-31 -68 -92.5 -130.5z" />
    <glyph glyph-name="Gcircumflex" unicode="&#x11c;" horiz-adv-x="1505" 
d="M1309 80q-15 37 -42 37q-34 0 -111 -43q-178 -103 -336 -103q-236 0 -400 87.5t-247.5 253t-83.5 397.5q0 229 94.5 403.5t263 270.5t383.5 96q126 0 213.5 -34.5t171.5 -98.5q25 -19 41 -19q21 0 33 29t19 94h47q-8 -139 -8 -496h-48q-15 138 -47 224.5t-106 146.5
q-49 47 -121 73.5t-147 26.5q-143 0 -238 -97.5t-140.5 -257.5t-45.5 -349q0 -709 393 -709q89 0 145 41q27 18 38 43t11 64v200q0 96 -16 140.5t-57.5 61t-132.5 20.5v41q118 -7 350 -7q189 0 274 7v-41q-42 -4 -60 -16.5t-25 -47t-7 -112.5v-406h-41q-2 43 -17 80z
M986.5 1747q111.5 -86 242.5 -141l-10 -31q-134 25 -263 61.5t-206 71.5q-64 -35 -170.5 -71.5t-216.5 -61.5l-10 31q131 55 242.5 140.5t177.5 178.5h37q65 -92 176.5 -178z" />
    <glyph glyph-name="Gcommaaccent" unicode="&#x122;" horiz-adv-x="1505" 
d="M1309 80q-15 37 -42 37q-34 0 -111 -43q-178 -103 -336 -103q-236 0 -400 87.5t-247.5 253t-83.5 397.5q0 229 94.5 403.5t263 270.5t383.5 96q126 0 213.5 -34.5t171.5 -98.5q25 -19 41 -19q21 0 33 29t19 94h47q-8 -139 -8 -496h-48q-15 138 -47 224.5t-106 146.5
q-49 47 -121 73.5t-147 26.5q-143 0 -238 -97.5t-140.5 -257.5t-45.5 -349q0 -709 393 -709q89 0 145 41q27 18 38 43t11 64v200q0 96 -16 140.5t-57.5 61t-132.5 20.5v41q118 -7 350 -7q189 0 274 7v-41q-42 -4 -60 -16.5t-25 -47t-7 -112.5v-406h-41q-2 43 -17 80z
M909 -344q-34 -31 -100 -31q-68 0 -107 33t-39 96q0 61 42 97t114 36q76 0 122 -42t46 -115q0 -95 -57.5 -154t-176.5 -74l-8 41q150 27 164 113z" />
    <glyph glyph-name="Gdotaccent" unicode="&#x120;" horiz-adv-x="1505" 
d="M1309 80q-15 37 -42 37q-34 0 -111 -43q-178 -103 -336 -103q-236 0 -400 87.5t-247.5 253t-83.5 397.5q0 229 94.5 403.5t263 270.5t383.5 96q126 0 213.5 -34.5t171.5 -98.5q25 -19 41 -19q21 0 33 29t19 94h47q-8 -139 -8 -496h-48q-15 138 -47 224.5t-106 146.5
q-49 47 -121 73.5t-147 26.5q-143 0 -238 -97.5t-140.5 -257.5t-45.5 -349q0 -709 393 -709q89 0 145 41q27 18 38 43t11 64v200q0 96 -16 140.5t-57.5 61t-132.5 20.5v41q118 -7 350 -7q189 0 274 7v-41q-42 -4 -60 -16.5t-25 -47t-7 -112.5v-406h-41q-2 43 -17 80z
M932 1840q47 -42 47 -116q0 -73 -47 -115t-127 -42q-82 0 -128 41.5t-46 115.5t46 116t128 42q80 0 127 -42z" />
    <glyph glyph-name="H" unicode="H" horiz-adv-x="1638" 
d="M1471 1393q-31 -13 -42.5 -48t-11.5 -112v-1016q0 -77 11.5 -112t42.5 -48t100 -16v-41q-102 6 -311 6q-208 0 -322 -6v41q68 3 99.5 16t43 48t11.5 112v492h-543v-492q0 -77 11 -112t42 -48t100 -16v-41q-109 6 -309 6q-219 0 -323 -6v41q68 3 99 16t42.5 48t11.5 112
v1016q0 77 -11.5 112t-42.5 48t-99 16v41q103 -6 323 -6q200 0 309 6v-41q-69 -3 -100 -16t-42 -48t-11 -112v-483h543v483q0 77 -11.5 112t-43 48t-99.5 16v41q114 -6 322 -6q209 0 311 6v-41q-69 -3 -100 -16z" />
    <glyph glyph-name="Hbar" unicode="&#x126;" horiz-adv-x="1638" 
d="M1471 1393q-31 -13 -42.5 -48t-11.5 -112v-141h154v-41h-154v-834q0 -77 11.5 -112t42.5 -48t100 -16v-41q-102 6 -311 6q-208 0 -322 -6v41q68 3 99.5 16t43 48t11.5 112v492h-543v-492q0 -77 11 -112t42 -48t100 -16v-41q-109 6 -309 6q-219 0 -323 -6v41q68 3 99 16
t42.5 48t11.5 112v834h-153v41h153v141q0 77 -11.5 112t-42.5 48t-99 16v41q103 -6 323 -6q200 0 309 6v-41q-69 -3 -100 -16t-42 -48t-11 -112v-141h543v141q0 77 -11.5 112t-43 48t-99.5 16v41q114 -6 322 -6q209 0 311 6v-41q-69 -3 -100 -16zM549 1051v-301h543v301
h-543z" />
    <glyph glyph-name="Hcircumflex" unicode="&#x124;" horiz-adv-x="1638" 
d="M1472 1393q-31 -13 -42.5 -48t-11.5 -112v-1016q0 -77 11.5 -112t42.5 -48t100 -16v-41q-102 6 -311 6q-208 0 -322 -6v41q68 3 99.5 16t43 48t11.5 112v492h-543v-492q0 -77 11 -112t42 -48t100 -16v-41q-109 6 -309 6q-219 0 -323 -6v41q68 3 99 16t42.5 48t11.5 112
v1016q0 77 -11.5 112t-42.5 48t-99 16v41q103 -6 323 -6q200 0 309 6v-41q-69 -3 -100 -16t-42 -48t-11 -112v-483h543v483q0 77 -11.5 112t-43 48t-99.5 16v41q114 -6 322 -6q209 0 311 6v-41q-69 -3 -100 -16zM1020.5 1747q111.5 -86 242.5 -141l-10 -31
q-134 25 -263 61.5t-206 71.5q-64 -35 -170.5 -71.5t-216.5 -61.5l-10 31q131 55 242.5 140.5t177.5 178.5h37q65 -92 176.5 -178z" />
    <glyph glyph-name="I" unicode="I" horiz-adv-x="770" 
d="M602 1393q-31 -13 -42 -48t-11 -112v-1016q0 -77 11 -112t42 -48t100 -16v-41q-109 6 -309 6q-219 0 -323 -6v41q68 3 99 16t42.5 48t11.5 112v1016q0 77 -11.5 112t-42.5 48t-99 16v41q103 -6 323 -6q200 0 309 6v-41q-69 -3 -100 -16z" />
    <glyph glyph-name="IJ" unicode="&#x132;" horiz-adv-x="1511" 
d="M603 1393q-31 -13 -42 -48t-11 -112v-1016q0 -77 11 -112t42 -48t100 -16v-41q-109 6 -309 6q-219 0 -323 -6v41q68 3 99 16t42.5 48t11.5 112v1016q0 77 -11.5 112t-42.5 48t-99 16v41q103 -6 323 -6q200 0 309 6v-41q-69 -3 -100 -16zM1354 1393q-31 -13 -42 -48
t-11 -112v-750v-122q0 -137 -6.5 -238t-28.5 -174q-28 -96 -98.5 -171.5t-178 -119t-241.5 -43.5q-130 0 -207 39q-101 50 -101 147q0 63 45 101.5t119 38.5q72 0 114 -35.5t42 -100.5q0 -46 -27 -82t-78 -53q20 -14 74 -14q75 0 129 40t78 107q18 53 26.5 112t10.5 140
t2 242v936q0 77 -11.5 112t-43 48t-99.5 16v41q102 -6 312 -6q207 0 321 6v-41q-69 -3 -100 -16z" />
    <glyph glyph-name="Iacute" unicode="&#xcd;" horiz-adv-x="770" 
d="M603 1393q-31 -13 -42 -48t-11 -112v-1016q0 -77 11 -112t42 -48t100 -16v-41q-109 6 -309 6q-219 0 -323 -6v41q68 3 99 16t42.5 48t11.5 112v1016q0 77 -11.5 112t-42.5 48t-99 16v41q103 -6 323 -6q200 0 309 6v-41q-69 -3 -100 -16zM352.5 1703q44.5 44 110 114.5
t112.5 95.5q32 16 63 16q32 0 60 -16t43 -45q12 -22 12 -47q0 -31 -18 -59t-51 -46q-45 -25 -120.5 -44t-143.5 -37t-162 -54l-15 25q65 53 109.5 97z" />
    <glyph glyph-name="Ibreve" unicode="&#x12c;" horiz-adv-x="770" 
d="M603 1393q-31 -13 -42 -48t-11 -112v-1016q0 -77 11 -112t42 -48t100 -16v-41q-109 6 -309 6q-219 0 -323 -6v41q68 3 99 16t42.5 48t11.5 112v1016q0 77 -11.5 112t-42.5 48t-99 16v41q103 -6 323 -6q200 0 309 6v-41q-69 -3 -100 -16zM744.5 1722.5
q-61.5 -62.5 -154.5 -103t-210 -40.5t-209.5 40.5t-154 103t-92.5 130.5l24 21q69 -51 176 -87t256 -36q265 0 433 125l24 -23q-31 -68 -92.5 -130.5z" />
    <glyph glyph-name="Icircumflex" unicode="&#xce;" horiz-adv-x="770" 
d="M603 1393q-31 -13 -42 -48t-11 -112v-1016q0 -77 11 -112t42 -48t100 -16v-41q-109 6 -309 6q-219 0 -323 -6v41q68 3 99 16t42.5 48t11.5 112v1016q0 77 -11.5 112t-42.5 48t-99 16v41q103 -6 323 -6q200 0 309 6v-41q-69 -3 -100 -16zM588.5 1747q111.5 -86 242.5 -141
l-10 -31q-134 25 -263 61.5t-206 71.5q-64 -35 -170.5 -71.5t-216.5 -61.5l-10 31q131 55 242.5 140.5t177.5 178.5h37q65 -92 176.5 -178z" />
    <glyph glyph-name="Idieresis" unicode="&#xcf;" horiz-adv-x="770" 
d="M603 1393q-31 -13 -42 -48t-11 -112v-1016q0 -77 11 -112t42 -48t100 -16v-41q-109 6 -309 6q-219 0 -323 -6v41q68 3 99 16t42.5 48t11.5 112v1016q0 77 -11.5 112t-42.5 48t-99 16v41q103 -6 323 -6q200 0 309 6v-41q-69 -3 -100 -16zM222 1856q36 -22 58 -58t22 -76
q0 -41 -22 -76t-58 -56t-76 -21q-41 0 -76.5 20.5t-56 56t-20.5 76.5q0 40 21 76t56 58t76 22q40 0 76 -22zM713.5 1856q35.5 -22 56.5 -58t21 -76q0 -41 -21 -76.5t-56.5 -56t-75.5 -20.5q-42 0 -78 20.5t-57 56t-21 76.5t21 77t57 57.5t78 21.5q40 0 75.5 -22z" />
    <glyph glyph-name="Idotaccent" unicode="&#x130;" horiz-adv-x="770" 
d="M603 1393q-31 -13 -42 -48t-11 -112v-1016q0 -77 11 -112t42 -48t100 -16v-41q-109 6 -309 6q-219 0 -323 -6v41q68 3 99 16t42.5 48t11.5 112v1016q0 77 -11.5 112t-42.5 48t-99 16v41q103 -6 323 -6q200 0 309 6v-41q-69 -3 -100 -16zM528.5 1942q50.5 -42 50.5 -115
q0 -74 -50.5 -116t-135.5 -42q-87 0 -137 42t-50 116q0 73 50 115t137 42q85 0 135.5 -42z" />
    <glyph glyph-name="Igrave" unicode="&#xcc;" horiz-adv-x="770" 
d="M603 1393q-31 -13 -42 -48t-11 -112v-1016q0 -77 11 -112t42 -48t100 -16v-41q-109 6 -309 6q-219 0 -323 -6v41q68 3 99 16t42.5 48t11.5 112v1016q0 77 -11.5 112t-42.5 48t-99 16v41q103 -6 323 -6q200 0 309 6v-41q-69 -3 -100 -16zM379.5 1627q-59.5 17 -152.5 40.5
t-138 48.5q-33 18 -51 45.5t-18 58.5q0 26 12 48q15 29 42.5 45t60.5 16q32 0 62 -16q32 -17 59 -41.5t102 -105.5t171 -160l-14 -25q-76 29 -135.5 46z" />
    <glyph glyph-name="Imacron" unicode="&#x12a;" horiz-adv-x="770" 
d="M603 1393q-31 -13 -42 -48t-11 -112v-1016q0 -77 11 -112t42 -48t100 -16v-41q-109 6 -309 6q-219 0 -323 -6v41q68 3 99 16t42.5 48t11.5 112v1016q0 77 -11.5 112t-42.5 48t-99 16v41q103 -6 323 -6q200 0 309 6v-41q-69 -3 -100 -16zM-17 1677v52h819v-52h-819z" />
    <glyph glyph-name="Iogonek" unicode="&#x12e;" horiz-adv-x="770" 
d="M603 1393q-31 -13 -42 -48t-11 -112v-1016q0 -77 11 -112t42 -48t100 -16v-41q-109 6 -309 6q-219 0 -323 -6v41q68 3 99 16t42.5 48t11.5 112v1016q0 77 -11.5 112t-42.5 48t-99 16v41q103 -6 323 -6q200 0 309 6v-41q-69 -3 -100 -16zM508.5 -82.5
q-54.5 -53.5 -54.5 -105.5q0 -84 86 -84q35 0 71.5 15.5t59.5 39.5l27 -29q-54 -73 -121 -106t-160 -33q-88 0 -137 37.5t-49 103.5q0 84 96.5 148.5t272.5 101.5h77q-114 -35 -168.5 -88.5z" />
    <glyph glyph-name="Itilde" unicode="&#x128;" horiz-adv-x="770" 
d="M603 1393q-31 -13 -42 -48t-11 -112v-1016q0 -77 11 -112t42 -48t100 -16v-41q-109 6 -309 6q-219 0 -323 -6v41q68 3 99 16t42.5 48t11.5 112v1016q0 77 -11.5 112t-42.5 48t-99 16v41q103 -6 323 -6q200 0 309 6v-41q-69 -3 -100 -16zM42.5 1822q74.5 70 171.5 70
q67 0 118 -19.5t143 -72.5t169 -53q109 0 170 111l29 -11q-27 -135 -101 -204.5t-171 -69.5q-67 0 -117.5 19.5t-143.5 72.5t-172 53q-106 0 -170 -112l-28 10q28 136 102.5 206z" />
    <glyph glyph-name="J" unicode="J" horiz-adv-x="745" 
d="M590 1393q-31 -13 -42 -48t-11 -112v-750v-122q0 -137 -6.5 -238t-28.5 -174q-28 -96 -98.5 -171.5t-178 -119t-241.5 -43.5q-130 0 -207 39q-101 50 -101 147q0 63 45 101.5t119 38.5q72 0 114 -35.5t42 -100.5q0 -46 -27 -82t-78 -53q20 -14 74 -14q75 0 129 40t78 107
q18 53 26.5 112t10.5 140t2 242v936q0 77 -11.5 112t-43 48t-99.5 16v41q102 -6 312 -6q207 0 321 6v-41q-69 -3 -100 -16z" />
    <glyph glyph-name="Jcircumflex" unicode="&#x134;" horiz-adv-x="745" 
d="M590 1393q-31 -13 -42 -48t-11 -112v-750v-122q0 -137 -6.5 -238t-28.5 -174q-28 -96 -98.5 -171.5t-178 -119t-241.5 -43.5q-130 0 -207 39q-101 50 -101 147q0 63 45 101.5t119 38.5q72 0 114 -35.5t42 -100.5q0 -46 -27 -82t-78 -53q20 -14 74 -14q75 0 129 40t78 107
q18 53 26.5 112t10.5 140t2 242v936q0 77 -11.5 112t-43 48t-99.5 16v41q102 -6 312 -6q207 0 321 6v-41q-69 -3 -100 -16zM565.5 1747q111.5 -86 242.5 -141l-10 -31q-134 25 -263 61.5t-206 71.5q-64 -35 -170.5 -71.5t-216.5 -61.5l-10 31q131 55 242.5 140.5
t177.5 178.5h37q65 -92 176.5 -178z" />
    <glyph glyph-name="K" unicode="K" horiz-adv-x="1462" 
d="M1397.5 90q32.5 -28 85.5 -49v-41q-146 6 -320 6q-135 0 -260 -6v41q58 3 83 12t25 28q0 17 -22 52l-297 481q-28 45 -48.5 68.5t-41.5 33t-53 12.5v-511q0 -77 11 -112t42 -48t100 -16v-41q-110 6 -309 6q-220 0 -323 -6v41q68 3 99 16t42.5 48t11.5 112v1016
q0 77 -11.5 112t-42.5 48t-99 16v41q103 -6 323 -6q199 0 309 6v-41q-69 -3 -100 -16t-42 -48t-11 -112v-461q81 5 149 50t154 143l121 145q93 110 93 189q0 51 -39.5 80t-111.5 32v39q151 -6 304 -6q118 0 192 6v-39q-162 -37 -297 -197l-256 -304l477 -744
q30 -48 62.5 -76z" />
    <glyph glyph-name="Kcommaaccent" unicode="&#x136;" horiz-adv-x="1462" 
d="M1398.5 90q32.5 -28 85.5 -49v-41q-146 6 -320 6q-135 0 -260 -6v41q58 3 83 12t25 28q0 17 -22 52l-297 481q-28 45 -48.5 68.5t-41.5 33t-53 12.5v-511q0 -77 11 -112t42 -48t100 -16v-41q-110 6 -309 6q-220 0 -323 -6v41q68 3 99 16t42.5 48t11.5 112v1016
q0 77 -11.5 112t-42.5 48t-99 16v41q103 -6 323 -6q199 0 309 6v-41q-69 -3 -100 -16t-42 -48t-11 -112v-461q81 5 149 50t154 143l121 145q93 110 93 189q0 51 -39.5 80t-111.5 32v39q151 -6 304 -6q118 0 192 6v-39q-162 -37 -297 -197l-256 -304l477 -744
q30 -48 62.5 -76zM899 -344q-34 -31 -100 -31q-68 0 -107 33t-39 96q0 61 42 97t114 36q76 0 122 -42t46 -115q0 -95 -57.5 -154t-176.5 -74l-8 41q150 27 164 113z" />
    <glyph glyph-name="L" unicode="L" horiz-adv-x="1251" 
d="M607.5 1393q-33.5 -13 -46 -48t-12.5 -112v-1040q0 -66 9.5 -95.5t36 -40t83.5 -10.5h100q93 0 170.5 57t130 160.5t72.5 239.5h47q-6 -70 -6 -180q0 -197 14 -324q-139 6 -469 6q-446 0 -667 -6v41q68 3 99 16t42.5 48t11.5 112v1016q0 77 -11.5 112t-42.5 48t-99 16v41
q103 -6 323 -6q208 0 322 6v-41q-74 -3 -107.5 -16z" />
    <glyph glyph-name="Lacute" unicode="&#x139;" horiz-adv-x="1251" 
d="M608.5 1393q-33.5 -13 -46 -48t-12.5 -112v-1040q0 -66 9.5 -95.5t36 -40t83.5 -10.5h100q93 0 170.5 57t130 160.5t72.5 239.5h47q-6 -70 -6 -180q0 -197 14 -324q-139 6 -469 6q-446 0 -667 -6v41q68 3 99 16t42.5 48t11.5 112v1016q0 77 -11.5 112t-42.5 48t-99 16v41
q103 -6 323 -6q208 0 322 6v-41q-74 -3 -107.5 -16zM352.5 1703q44.5 44 110 114.5t112.5 95.5q32 16 63 16q32 0 60 -16t43 -45q12 -22 12 -47q0 -31 -18 -59t-51 -46q-45 -25 -120.5 -44t-143.5 -37t-162 -54l-15 25q65 53 109.5 97z" />
    <glyph glyph-name="Lcaron" unicode="&#x13d;" horiz-adv-x="1251" 
d="M608.5 1393q-33.5 -13 -46 -48t-12.5 -112v-1040q0 -66 9.5 -95.5t36 -40t83.5 -10.5h100q93 0 170.5 57t130 160.5t72.5 239.5h47q-6 -70 -6 -180q0 -197 14 -324q-139 6 -469 6q-446 0 -667 -6v41q68 3 99 16t42.5 48t11.5 112v1016q0 77 -11.5 112t-42.5 48t-99 16v41
q103 -6 323 -6q208 0 322 6v-41q-74 -3 -107.5 -16zM833 1446q87 0 170 16q10 -23 10 -73q0 -42 -27.5 -98t-71.5 -118.5t-140 -193.5l-29 8q41 260 41 338q0 43 -12.5 62.5t-48.5 19.5v43q56 -4 108 -4z" />
    <glyph glyph-name="Lcommaaccent" unicode="&#x13b;" horiz-adv-x="1251" 
d="M608.5 1393q-33.5 -13 -46 -48t-12.5 -112v-1040q0 -66 9.5 -95.5t36 -40t83.5 -10.5h100q93 0 170.5 57t130 160.5t72.5 239.5h47q-6 -70 -6 -180q0 -197 14 -324q-139 6 -469 6q-446 0 -667 -6v41q68 3 99 16t42.5 48t11.5 112v1016q0 77 -11.5 112t-42.5 48t-99 16v41
q103 -6 323 -6q208 0 322 6v-41q-74 -3 -107.5 -16zM809 -344q-34 -31 -100 -31q-68 0 -107 33t-39 96q0 61 42 97t114 36q76 0 122 -42t46 -115q0 -95 -57.5 -154t-176.5 -74l-8 41q150 27 164 113z" />
    <glyph glyph-name="Ldot" unicode="&#x13f;" horiz-adv-x="1346" 
d="M608.5 1393q-33.5 -13 -46 -48t-12.5 -112v-1040q0 -66 9.5 -95.5t36 -40t83.5 -10.5h100q93 0 170.5 57t130 160.5t72.5 239.5h47q-6 -70 -6 -180q0 -197 14 -324q-139 6 -469 6q-446 0 -667 -6v41q68 3 99 16t42.5 48t11.5 112v1016q0 77 -11.5 112t-42.5 48t-99 16v41
q103 -6 323 -6q208 0 322 6v-41q-74 -3 -107.5 -16zM1255 871.5q47 -42.5 47 -115.5t-47 -115.5t-128 -42.5q-80 0 -127 42.5t-47 115.5t47 115.5t127 42.5q81 0 128 -42.5z" />
    <glyph glyph-name="Lslash" unicode="&#x141;" horiz-adv-x="1251" 
d="M1192 324q0 -197 14 -324q-139 6 -469 6q-446 0 -667 -6v41q68 3 99 16t42.5 48t11.5 112v292l-153 -89v47l153 89v677q0 77 -11.5 112t-42.5 48t-99 16v41q103 -6 323 -6q208 0 322 6v-41q-74 -3 -107.5 -16t-46 -48t-12.5 -112v-508l420 244v-47l-420 -244v-485
q0 -66 9.5 -95.5t36 -40t83.5 -10.5h100q93 0 170.5 57t130 160.5t72.5 239.5h47q-6 -70 -6 -180z" />
    <glyph glyph-name="M" unicode="M" horiz-adv-x="1898" 
d="M1731 1393q-31 -13 -42.5 -48t-11.5 -112v-1016q0 -77 11.5 -112t43 -48t99.5 -16v-41q-114 6 -322 6q-219 0 -323 -6v41q74 3 107.5 16t46 48t12.5 112v1071l-494 -1290h-33l-553 1319v-981q0 -121 13 -177.5t53.5 -82.5t132.5 -35v-41q-79 6 -221 6q-113 0 -178 -6v41
q67 9 98.5 34.5t43 78t11.5 157.5v922q0 77 -11.5 112t-42.5 48t-99 16v41q65 -6 178 -6q188 0 323 6l413 -995l378 989h145q208 0 322 6v-41q-69 -3 -100 -16z" />
    <glyph glyph-name="N" unicode="N" horiz-adv-x="1479" 
d="M1320.5 1374.5q-31.5 -25.5 -43 -78t-11.5 -157.5v-1143q-15 1 -50 1q-36 0 -55 -1l-889 1126v-786q0 -121 13 -177.5t53.5 -82.5t132.5 -35v-41q-79 6 -221 6q-113 0 -178 -6v41q67 9 98.5 34.5t43 78t11.5 157.5v922q0 77 -11.5 112t-42.5 48t-99 16v41q65 -6 178 -6
q103 0 176 6l793 -977v641q0 121 -13 177.5t-53.5 82.5t-132.5 35v41q79 -6 221 -6q114 0 178 6v-41q-67 -9 -98.5 -34.5z" />
    <glyph glyph-name="Nacute" unicode="&#x143;" horiz-adv-x="1479" 
d="M1321.5 1374.5q-31.5 -25.5 -43 -78t-11.5 -157.5v-1143q-15 1 -50 1q-36 0 -55 -1l-889 1126v-786q0 -121 13 -177.5t53.5 -82.5t132.5 -35v-41q-79 6 -221 6q-113 0 -178 -6v41q67 9 98.5 34.5t43 78t11.5 157.5v922q0 77 -11.5 112t-42.5 48t-99 16v41q65 -6 178 -6
q103 0 176 6l793 -977v641q0 121 -13 177.5t-53.5 82.5t-132.5 35v41q79 -6 221 -6q114 0 178 6v-41q-67 -9 -98.5 -34.5zM736.5 1703q44.5 44 110 114.5t112.5 95.5q32 16 63 16q32 0 60 -16t43 -45q12 -22 12 -47q0 -31 -18 -59t-51 -46q-45 -25 -120.5 -44t-143.5 -37
t-162 -54l-15 25q65 53 109.5 97z" />
    <glyph glyph-name="Ncaron" unicode="&#x147;" horiz-adv-x="1479" 
d="M1321.5 1374.5q-31.5 -25.5 -43 -78t-11.5 -157.5v-1143q-15 1 -50 1q-36 0 -55 -1l-889 1126v-786q0 -121 13 -177.5t53.5 -82.5t132.5 -35v-41q-79 6 -221 6q-113 0 -178 -6v41q67 9 98.5 34.5t43 78t11.5 157.5v922q0 77 -11.5 112t-42.5 48t-99 16v41q65 -6 178 -6
q103 0 176 6l793 -977v641q0 121 -13 177.5t-53.5 82.5t-132.5 35v41q79 -6 221 -6q114 0 178 6v-41q-67 -9 -98.5 -34.5zM967 1751q-111 -86 -178 -180h-37q-64 93 -175.5 178.5t-244.5 140.5l10 31q134 -23 263.5 -60t205.5 -73q64 36 170.5 73t216.5 60l10 -31
q-130 -53 -241 -139z" />
    <glyph glyph-name="Ncommaaccent" unicode="&#x145;" horiz-adv-x="1479" 
d="M1321.5 1374.5q-31.5 -25.5 -43 -78t-11.5 -157.5v-1143q-15 1 -50 1q-36 0 -55 -1l-889 1126v-786q0 -121 13 -177.5t53.5 -82.5t132.5 -35v-41q-79 6 -221 6q-113 0 -178 -6v41q67 9 98.5 34.5t43 78t11.5 157.5v922q0 77 -11.5 112t-42.5 48t-99 16v41q65 -6 178 -6
q103 0 176 6l793 -977v641q0 121 -13 177.5t-53.5 82.5t-132.5 35v41q79 -6 221 -6q114 0 178 6v-41q-67 -9 -98.5 -34.5zM846 -344q-34 -31 -100 -31q-68 0 -107 33t-39 96q0 61 42 97t114 36q76 0 122 -42t46 -115q0 -95 -57.5 -154t-176.5 -74l-8 41q150 27 164 113z" />
    <glyph glyph-name="Eng" unicode="&#x14a;" horiz-adv-x="1473" 
d="M1239 1444q113 0 178 6v-41q-69 -3 -100 -16t-42 -48t-11 -112v-1102q0 -204 -35.5 -317t-99.5 -156t-162 -43q-106 0 -172 41t-66 123q0 63 44 100t114 37q68 0 109.5 -34.5t41.5 -92.5q0 -42 -23 -78t-69 -55q12 -2 41 -2q108 0 163 85.5t65 258.5q-32 0 -58 -2
l-887 1126v-905q0 -77 12.5 -112t46 -48t107.5 -16v-41q-74 6 -188 6q-117 0 -178 -6v41q68 3 99 16t42.5 48t11.5 112v1016q0 77 -11.5 112t-42.5 48t-99 16v41q61 -6 178 -6q112 0 188 6l781 -961v744q0 77 -12.5 112t-46 48t-107.5 16v41q73 -6 188 -6z" />
    <glyph glyph-name="Ntilde" unicode="&#xd1;" horiz-adv-x="1479" 
d="M1321.5 1374.5q-31.5 -25.5 -43 -78t-11.5 -157.5v-1143q-15 1 -50 1q-36 0 -55 -1l-889 1126v-786q0 -121 13 -177.5t53.5 -82.5t132.5 -35v-41q-79 6 -221 6q-113 0 -178 -6v41q67 9 98.5 34.5t43 78t11.5 157.5v922q0 77 -11.5 112t-42.5 48t-99 16v41q65 -6 178 -6
q103 0 176 6l793 -977v641q0 121 -13 177.5t-53.5 82.5t-132.5 35v41q79 -6 221 -6q114 0 178 6v-41q-67 -9 -98.5 -34.5zM425.5 1822q74.5 70 171.5 70q67 0 118 -19.5t143 -72.5t169 -53q109 0 170 111l29 -11q-27 -135 -101 -204.5t-171 -69.5q-67 0 -117.5 19.5
t-143.5 72.5t-172 53q-106 0 -170 -112l-28 10q28 136 102.5 206z" />
    <glyph glyph-name="O" unicode="O" horiz-adv-x="1624" 
d="M1192.5 1391q163.5 -88 253.5 -255.5t90 -398.5q0 -226 -92.5 -400t-257.5 -270t-375 -96q-217 0 -380.5 88t-253 255.5t-89.5 398.5q0 226 92 400t257 270t376 96q216 0 379.5 -88zM606.5 1350.5q-85.5 -91.5 -132 -255t-46.5 -374.5q0 -213 52 -375t141 -250t198 -88
q113 0 198.5 91.5t132 255t46.5 374.5q0 212 -52 374.5t-141.5 250.5t-197.5 88q-113 0 -198.5 -91.5z" />
    <glyph glyph-name="Oacute" unicode="&#xd3;" horiz-adv-x="1624" 
d="M1193.5 1391q163.5 -88 253.5 -255.5t90 -398.5q0 -226 -92.5 -400t-257.5 -270t-375 -96q-217 0 -380.5 88t-253 255.5t-89.5 398.5q0 226 92 400t257 270t376 96q216 0 379.5 -88zM607.5 1350.5q-85.5 -91.5 -132 -255t-46.5 -374.5q0 -213 52 -375t141 -250t198 -88
q113 0 198.5 91.5t132 255t46.5 374.5q0 212 -52 374.5t-141.5 250.5t-197.5 88q-113 0 -198.5 -91.5zM769.5 1703q44.5 44 110 114.5t112.5 95.5q32 16 63 16q32 0 60 -16t43 -45q12 -22 12 -47q0 -31 -18 -59t-51 -46q-45 -25 -120.5 -44t-143.5 -37t-162 -54l-15 25
q65 53 109.5 97z" />
    <glyph glyph-name="Obreve" unicode="&#x14e;" horiz-adv-x="1624" 
d="M1193.5 1391q163.5 -88 253.5 -255.5t90 -398.5q0 -226 -92.5 -400t-257.5 -270t-375 -96q-217 0 -380.5 88t-253 255.5t-89.5 398.5q0 226 92 400t257 270t376 96q216 0 379.5 -88zM607.5 1350.5q-85.5 -91.5 -132 -255t-46.5 -374.5q0 -213 52 -375t141 -250t198 -88
q113 0 198.5 91.5t132 255t46.5 374.5q0 212 -52 374.5t-141.5 250.5t-197.5 88q-113 0 -198.5 -91.5zM1160.5 1722.5q-61.5 -62.5 -154.5 -103t-210 -40.5t-209.5 40.5t-154 103t-92.5 130.5l24 21q69 -51 176 -87t256 -36q265 0 433 125l24 -23q-31 -68 -92.5 -130.5z" />
    <glyph glyph-name="Ocircumflex" unicode="&#xd4;" horiz-adv-x="1624" 
d="M1193.5 1391q163.5 -88 253.5 -255.5t90 -398.5q0 -226 -92.5 -400t-257.5 -270t-375 -96q-217 0 -380.5 88t-253 255.5t-89.5 398.5q0 226 92 400t257 270t376 96q216 0 379.5 -88zM607.5 1350.5q-85.5 -91.5 -132 -255t-46.5 -374.5q0 -213 52 -375t141 -250t198 -88
q113 0 198.5 91.5t132 255t46.5 374.5q0 212 -52 374.5t-141.5 250.5t-197.5 88q-113 0 -198.5 -91.5zM1004.5 1747q111.5 -86 242.5 -141l-10 -31q-134 25 -263 61.5t-206 71.5q-64 -35 -170.5 -71.5t-216.5 -61.5l-10 31q131 55 242.5 140.5t177.5 178.5h37
q65 -92 176.5 -178z" />
    <glyph glyph-name="Odieresis" unicode="&#xd6;" horiz-adv-x="1624" 
d="M1193.5 1391q163.5 -88 253.5 -255.5t90 -398.5q0 -226 -92.5 -400t-257.5 -270t-375 -96q-217 0 -380.5 88t-253 255.5t-89.5 398.5q0 226 92 400t257 270t376 96q216 0 379.5 -88zM607.5 1350.5q-85.5 -91.5 -132 -255t-46.5 -374.5q0 -213 52 -375t141 -250t198 -88
q113 0 198.5 91.5t132 255t46.5 374.5q0 212 -52 374.5t-141.5 250.5t-197.5 88q-113 0 -198.5 -91.5zM639 1856q36 -22 58 -58t22 -76q0 -41 -22 -76t-58 -56t-76 -21q-41 0 -76.5 20.5t-56 56t-20.5 76.5q0 40 21 76t56 58t76 22q40 0 76 -22zM1130.5 1856
q35.5 -22 56.5 -58t21 -76q0 -41 -21 -76.5t-56.5 -56t-75.5 -20.5q-42 0 -78 20.5t-57 56t-21 76.5t21 77t57 57.5t78 21.5q40 0 75.5 -22z" />
    <glyph glyph-name="Ograve" unicode="&#xd2;" horiz-adv-x="1624" 
d="M1193.5 1391q163.5 -88 253.5 -255.5t90 -398.5q0 -226 -92.5 -400t-257.5 -270t-375 -96q-217 0 -380.5 88t-253 255.5t-89.5 398.5q0 226 92 400t257 270t376 96q216 0 379.5 -88zM607.5 1350.5q-85.5 -91.5 -132 -255t-46.5 -374.5q0 -213 52 -375t141 -250t198 -88
q113 0 198.5 91.5t132 255t46.5 374.5q0 212 -52 374.5t-141.5 250.5t-197.5 88q-113 0 -198.5 -91.5zM796.5 1627q-59.5 17 -152.5 40.5t-138 48.5q-33 18 -51 45.5t-18 58.5q0 26 12 48q15 29 42.5 45t60.5 16q32 0 62 -16q32 -17 59 -41.5t102 -105.5t171 -160l-14 -25
q-76 29 -135.5 46z" />
    <glyph glyph-name="Ohungarumlaut" unicode="&#x150;" horiz-adv-x="1624" 
d="M1193.5 1391q163.5 -88 253.5 -255.5t90 -398.5q0 -226 -92.5 -400t-257.5 -270t-375 -96q-217 0 -380.5 88t-253 255.5t-89.5 398.5q0 226 92 400t257 270t376 96q216 0 379.5 -88zM607.5 1350.5q-85.5 -91.5 -132 -255t-46.5 -374.5q0 -213 52 -375t141 -250t198 -88
q113 0 198.5 91.5t132 255t46.5 374.5q0 212 -52 374.5t-141.5 250.5t-197.5 88q-113 0 -198.5 -91.5zM586 1741.5q47 70.5 75 109t59 64.5q33 26 75 26q59 0 93 -49q21 -30 21 -62q0 -55 -56 -97q-28 -20 -62.5 -35t-125.5 -48t-165 -69l-20 23q59 67 106 137.5z
M1018 1741.5q47 70.5 75 109t59 64.5q33 26 75 26q59 0 93 -49q22 -29 22 -62q0 -54 -57 -97q-28 -20 -62.5 -35t-125 -48t-164.5 -69l-21 23q59 67 106 137.5z" />
    <glyph glyph-name="Omacron" unicode="&#x14c;" horiz-adv-x="1624" 
d="M1193.5 1391q163.5 -88 253.5 -255.5t90 -398.5q0 -226 -92.5 -400t-257.5 -270t-375 -96q-217 0 -380.5 88t-253 255.5t-89.5 398.5q0 226 92 400t257 270t376 96q216 0 379.5 -88zM607.5 1350.5q-85.5 -91.5 -132 -255t-46.5 -374.5q0 -213 52 -375t141 -250t198 -88
q113 0 198.5 91.5t132 255t46.5 374.5q0 212 -52 374.5t-141.5 250.5t-197.5 88q-113 0 -198.5 -91.5zM399 1677v52h819v-52h-819z" />
    <glyph glyph-name="Oslash" unicode="&#xd8;" horiz-adv-x="1624" 
d="M1462 1103.5q74 -157.5 74 -366.5q0 -226 -92.5 -400t-257.5 -270t-375 -96q-242 0 -416 109l-170 -242l-43 29l171 242q-128 95 -196.5 249t-68.5 355q0 226 92 400t257 270t376 96q229 0 398 -98l147 214l39 -26l-145 -214q136 -94 210 -251.5zM965 1385.5
q-75 56.5 -160 56.5q-113 0 -198.5 -91.5t-132 -255t-46.5 -374.5q0 -248 71 -429l595 933q-54 104 -129 160.5zM653.5 67q76.5 -59 165.5 -59q113 0 198.5 91.5t132 255t46.5 374.5q0 258 -78 444l-594 -937q53 -110 129.5 -169z" />
    <glyph glyph-name="Otilde" unicode="&#xd5;" horiz-adv-x="1624" 
d="M1193.5 1391q163.5 -88 253.5 -255.5t90 -398.5q0 -226 -92.5 -400t-257.5 -270t-375 -96q-217 0 -380.5 88t-253 255.5t-89.5 398.5q0 226 92 400t257 270t376 96q216 0 379.5 -88zM607.5 1350.5q-85.5 -91.5 -132 -255t-46.5 -374.5q0 -213 52 -375t141 -250t198 -88
q113 0 198.5 91.5t132 255t46.5 374.5q0 212 -52 374.5t-141.5 250.5t-197.5 88q-113 0 -198.5 -91.5zM458.5 1822q74.5 70 171.5 70q67 0 118 -19.5t143 -72.5t169 -53q109 0 170 111l29 -11q-27 -135 -101 -204.5t-171 -69.5q-67 0 -117.5 19.5t-143.5 72.5t-172 53
q-106 0 -170 -112l-28 10q28 136 102.5 206z" />
    <glyph glyph-name="OE" unicode="&#x152;" horiz-adv-x="2038" 
d="M1931 287q0 -157 15 -287q-134 6 -453 6q-324 0 -520 -2q-84 -33 -174 -33q-213 0 -373.5 88t-249 255.5t-88.5 398.5q0 226 91 400t253 270t369 96q87 0 178 -33q197 -2 514 -2q291 0 412 6q-15 -151 -15 -279q0 -89 6 -139h-47q-18 140 -54 220.5t-92 115.5t-140 35
h-43q-67 0 -98.5 -12t-43.5 -47t-12 -111v-483h84q93 0 130 58t49.5 113.5t15.5 69.5h47q-7 -86 -7 -166l1 -96q0 -93 12 -262h-47q-14 79 -30.5 127t-56.5 81.5t-114 33.5h-84v-492q0 -76 12 -111t43.5 -47t98.5 -12h59q131 0 209.5 94.5t101.5 317.5h47q-6 -67 -6 -172z
M1002.5 1361q-37.5 44 -93.5 62.5t-116 18.5q-110 0 -193 -91.5t-127.5 -255t-44.5 -374.5q0 -213 50 -375t136.5 -250t192.5 -88q53 0 107 20t90 61.5t36 103.5v1052q0 72 -37.5 116z" />
    <glyph glyph-name="P" unicode="P" horiz-adv-x="1313" 
d="M549 229q0 -82 17 -119.5t61.5 -50.5t140.5 -14v-45q-252 6 -375 6q-59 0 -323 -6v41q68 3 99 16t42.5 48t11.5 112v1016q0 77 -11.5 112t-42.5 48t-99 16v41q103 -6 311 -6q82 0 182 2t139 2q186 0 313.5 -50.5t191 -141.5t63.5 -212q0 -112 -57 -216t-194 -173
t-362 -69h-108v-357zM867 733.5q63 106.5 63 288.5q0 199 -59 293t-195 94q-55 0 -81.5 -14.5t-36 -51t-9.5 -110.5v-606h88q167 0 230 106.5z" />
    <glyph glyph-name="Thorn" unicode="&#xde;" horiz-adv-x="1272" 
d="M549 217q0 -77 11 -112t42 -48t100 -16v-41q-109 6 -309 6q-219 0 -323 -6v41q68 3 99 16t42.5 48t11.5 112v1016q0 77 -11.5 112t-42.5 48t-99 16v41q104 -6 323 -6q200 0 309 6v-41q-69 -3 -100 -16t-42 -48t-11 -112v-74l115 2q281 0 424 -101.5t143 -291.5
q0 -128 -56 -232.5t-192.5 -170.5t-364.5 -66h-69v-82zM828 450q63 110 63 300q0 188 -64.5 280t-214.5 92l-63 -1v-781h49q167 0 230 110z" />
    <glyph glyph-name="Q" unicode="Q" horiz-adv-x="1624" 
d="M1460 -305q-44 -37 -113 -58.5t-151 -21.5q-111 0 -216 33.5t-247.5 96t-208.5 87.5q-31 11 -49 14q-88 -43 -172 -43q-43 0 -69.5 13.5t-26.5 40.5q0 26 28.5 40.5t83.5 14.5q78 0 156 -29q40 10 73.5 23t85 36t82.5 34q-191 18 -332.5 111t-218.5 252.5t-77 373.5
q0 226 92 400t257 270t376 96q216 0 379.5 -88t253.5 -255.5t90 -398.5q0 -218 -86.5 -388t-241.5 -268.5t-354 -108.5q-49 -6 -87.5 -18.5t-104.5 -39.5t-115 -41q71 -6 188.5 -16t200.5 -15t151 -5q94 0 154 9q127 14 200.5 55t123.5 124l37 -11q-35 -232 -142 -319z
M480 346q52 -162 141 -250t198 -88q113 0 198.5 91.5t132 255t46.5 374.5q0 212 -52 374.5t-141.5 250.5t-197.5 88q-113 0 -198.5 -91.5t-132 -255t-46.5 -374.5q0 -213 52 -375z" />
    <glyph glyph-name="R" unicode="R" horiz-adv-x="1417" 
d="M1338.5 -1q-63.5 -28 -152.5 -28q-118 0 -187 50t-90 172l-37 204q-18 99 -37.5 159.5t-56 96t-96.5 35.5h-133v-471q0 -77 11 -112t42 -48t100 -16v-41q-109 6 -309 6q-219 0 -323 -6v41q68 3 99 16t42.5 48t11.5 112v1016q0 77 -11.5 112t-42.5 48t-99 16v41
q104 -6 311 -6q82 0 182 2t139 2q282 0 425 -92.5t143 -263.5q0 -91 -43 -173t-146 -142.5t-272 -80.5h2q124 -11 203.5 -42t124.5 -86.5t63 -141.5l47 -211q17 -83 38.5 -115t60.5 -32q24 1 42 12t40 35l28 -25q-56 -63 -119.5 -91zM816.5 773q64.5 44 89 118t24.5 178
q0 168 -59.5 254t-194.5 86q-55 0 -81.5 -14.5t-36 -51t-9.5 -110.5v-504h88q115 0 179.5 44z" />
    <glyph glyph-name="Racute" unicode="&#x154;" horiz-adv-x="1417" 
d="M1339.5 -1q-63.5 -28 -152.5 -28q-118 0 -187 50t-90 172l-37 204q-18 99 -37.5 159.5t-56 96t-96.5 35.5h-133v-471q0 -77 11 -112t42 -48t100 -16v-41q-109 6 -309 6q-219 0 -323 -6v41q68 3 99 16t42.5 48t11.5 112v1016q0 77 -11.5 112t-42.5 48t-99 16v41
q104 -6 311 -6q82 0 182 2t139 2q282 0 425 -92.5t143 -263.5q0 -91 -43 -173t-146 -142.5t-272 -80.5h2q124 -11 203.5 -42t124.5 -86.5t63 -141.5l47 -211q17 -83 38.5 -115t60.5 -32q24 1 42 12t40 35l28 -25q-56 -63 -119.5 -91zM817.5 773q64.5 44 89 118t24.5 178
q0 168 -59.5 254t-194.5 86q-55 0 -81.5 -14.5t-36 -51t-9.5 -110.5v-504h88q115 0 179.5 44zM623.5 1703q44.5 44 110 114.5t112.5 95.5q32 16 63 16q32 0 60 -16t43 -45q12 -22 12 -47q0 -31 -18 -59t-51 -46q-45 -25 -120.5 -44t-143.5 -37t-162 -54l-15 25
q65 53 109.5 97z" />
    <glyph glyph-name="Rcaron" unicode="&#x158;" horiz-adv-x="1417" 
d="M1339.5 -1q-63.5 -28 -152.5 -28q-118 0 -187 50t-90 172l-37 204q-18 99 -37.5 159.5t-56 96t-96.5 35.5h-133v-471q0 -77 11 -112t42 -48t100 -16v-41q-109 6 -309 6q-219 0 -323 -6v41q68 3 99 16t42.5 48t11.5 112v1016q0 77 -11.5 112t-42.5 48t-99 16v41
q104 -6 311 -6q82 0 182 2t139 2q282 0 425 -92.5t143 -263.5q0 -91 -43 -173t-146 -142.5t-272 -80.5h2q124 -11 203.5 -42t124.5 -86.5t63 -141.5l47 -211q17 -83 38.5 -115t60.5 -32q24 1 42 12t40 35l28 -25q-56 -63 -119.5 -91zM817.5 773q64.5 44 89 118t24.5 178
q0 168 -59.5 254t-194.5 86q-55 0 -81.5 -14.5t-36 -51t-9.5 -110.5v-504h88q115 0 179.5 44zM854 1751q-111 -86 -178 -180h-37q-64 93 -175.5 178.5t-244.5 140.5l10 31q134 -23 263.5 -60t205.5 -73q64 36 170.5 73t216.5 60l10 -31q-130 -53 -241 -139z" />
    <glyph glyph-name="Rcommaaccent" unicode="&#x156;" horiz-adv-x="1417" 
d="M1339.5 -1q-63.5 -28 -152.5 -28q-118 0 -187 50t-90 172l-37 204q-18 99 -37.5 159.5t-56 96t-96.5 35.5h-133v-471q0 -77 11 -112t42 -48t100 -16v-41q-109 6 -309 6q-219 0 -323 -6v41q68 3 99 16t42.5 48t11.5 112v1016q0 77 -11.5 112t-42.5 48t-99 16v41
q104 -6 311 -6q82 0 182 2t139 2q282 0 425 -92.5t143 -263.5q0 -91 -43 -173t-146 -142.5t-272 -80.5h2q124 -11 203.5 -42t124.5 -86.5t63 -141.5l47 -211q17 -83 38.5 -115t60.5 -32q24 1 42 12t40 35l28 -25q-56 -63 -119.5 -91zM817.5 773q64.5 44 89 118t24.5 178
q0 168 -59.5 254t-194.5 86q-55 0 -81.5 -14.5t-36 -51t-9.5 -110.5v-504h88q115 0 179.5 44zM832 -344q-34 -31 -100 -31q-68 0 -107 33t-39 96q0 61 42 97t114 36q76 0 122 -42t46 -115q0 -95 -57.5 -154t-176.5 -74l-8 41q150 27 164 113z" />
    <glyph glyph-name="S" unicode="S" horiz-adv-x="1196" 
d="M269.5 167.5q88.5 -142.5 271.5 -142.5q72 0 129.5 25.5t91 77.5t33.5 126q0 80 -37.5 143.5t-101 116t-169.5 121.5q-124 80 -196.5 139t-120 140t-47.5 188q0 124 63 208.5t167 125.5t229 41q74 0 128.5 -11t91 -27.5t79.5 -41.5q49 -29 69 -29q19 0 29 21.5t16 68.5
h47q-10 -137 -10 -467h-47q-7 111 -49.5 211t-119 162.5t-179.5 62.5q-65 0 -116.5 -25t-80 -72.5t-28.5 -110.5q0 -102 61 -167t159 -131.5t132 -89.5q120 -80 190 -139t114 -138t44 -183q0 -131 -68 -221t-183 -134.5t-257 -44.5q-115 0 -190.5 20.5t-139.5 55.5
q-44 29 -69 29q-19 0 -29 -21.5t-16 -68.5h-47q8 128 8 553h47q13 -229 101.5 -371.5z" />
    <glyph glyph-name="Sacute" unicode="&#x15a;" horiz-adv-x="1196" 
d="M270.5 167.5q88.5 -142.5 271.5 -142.5q72 0 129.5 25.5t91 77.5t33.5 126q0 80 -37.5 143.5t-101 116t-169.5 121.5q-124 80 -196.5 139t-120 140t-47.5 188q0 124 63 208.5t167 125.5t229 41q74 0 128.5 -11t91 -27.5t79.5 -41.5q49 -29 69 -29q19 0 29 21.5t16 68.5
h47q-10 -137 -10 -467h-47q-7 111 -49.5 211t-119 162.5t-179.5 62.5q-65 0 -116.5 -25t-80 -72.5t-28.5 -110.5q0 -102 61 -167t159 -131.5t132 -89.5q120 -80 190 -139t114 -138t44 -183q0 -131 -68 -221t-183 -134.5t-257 -44.5q-115 0 -190.5 20.5t-139.5 55.5
q-44 29 -69 29q-19 0 -29 -21.5t-16 -68.5h-47q8 128 8 553h47q13 -229 101.5 -371.5zM570.5 1703q44.5 44 110 114.5t112.5 95.5q32 16 63 16q32 0 60 -16t43 -45q12 -22 12 -47q0 -31 -18 -59t-51 -46q-45 -25 -120.5 -44t-143.5 -37t-162 -54l-15 25q65 53 109.5 97z" />
    <glyph glyph-name="Scaron" unicode="&#x160;" horiz-adv-x="1196" 
d="M270.5 167.5q88.5 -142.5 271.5 -142.5q72 0 129.5 25.5t91 77.5t33.5 126q0 80 -37.5 143.5t-101 116t-169.5 121.5q-124 80 -196.5 139t-120 140t-47.5 188q0 124 63 208.5t167 125.5t229 41q74 0 128.5 -11t91 -27.5t79.5 -41.5q49 -29 69 -29q19 0 29 21.5t16 68.5
h47q-10 -137 -10 -467h-47q-7 111 -49.5 211t-119 162.5t-179.5 62.5q-65 0 -116.5 -25t-80 -72.5t-28.5 -110.5q0 -102 61 -167t159 -131.5t132 -89.5q120 -80 190 -139t114 -138t44 -183q0 -131 -68 -221t-183 -134.5t-257 -44.5q-115 0 -190.5 20.5t-139.5 55.5
q-44 29 -69 29q-19 0 -29 -21.5t-16 -68.5h-47q8 128 8 553h47q13 -229 101.5 -371.5zM801 1751q-111 -86 -178 -180h-37q-64 93 -175.5 178.5t-244.5 140.5l10 31q134 -23 263.5 -60t205.5 -73q64 36 170.5 73t216.5 60l10 -31q-130 -53 -241 -139z" />
    <glyph glyph-name="Scedilla" unicode="&#x15e;" horiz-adv-x="1196" 
d="M270.5 167.5q88.5 -142.5 271.5 -142.5q72 0 129.5 25.5t91 77.5t33.5 126q0 80 -37.5 143.5t-101 116t-169.5 121.5q-124 80 -196.5 139t-120 140t-47.5 188q0 124 63 208.5t167 125.5t229 41q74 0 128.5 -11t91 -27.5t79.5 -41.5q49 -29 69 -29q19 0 29 21.5t16 68.5
h47q-10 -137 -10 -467h-47q-7 111 -49.5 211t-119 162.5t-179.5 62.5q-65 0 -116.5 -25t-80 -72.5t-28.5 -110.5q0 -102 61 -167t159 -131.5t132 -89.5q120 -80 190 -139t114 -138t44 -183q0 -131 -68 -221t-183 -134.5t-257 -44.5q-115 0 -190.5 20.5t-139.5 55.5
q-44 29 -69 29q-19 0 -29 -21.5t-16 -68.5h-47q8 128 8 553h47q13 -229 101.5 -371.5zM757 -109q73 0 113 -30t40 -80q0 -83 -91.5 -124.5t-231.5 -41.5q-119 0 -191 25l11 36q72 -8 102 -8q75 0 130.5 20.5t55.5 63.5q0 53 -94 53q-48 0 -80 -14l68 219h55l-45 -143
q70 24 158 24z" />
    <glyph glyph-name="Scircumflex" unicode="&#x15c;" horiz-adv-x="1196" 
d="M270.5 167.5q88.5 -142.5 271.5 -142.5q72 0 129.5 25.5t91 77.5t33.5 126q0 80 -37.5 143.5t-101 116t-169.5 121.5q-124 80 -196.5 139t-120 140t-47.5 188q0 124 63 208.5t167 125.5t229 41q74 0 128.5 -11t91 -27.5t79.5 -41.5q49 -29 69 -29q19 0 29 21.5t16 68.5
h47q-10 -137 -10 -467h-47q-7 111 -49.5 211t-119 162.5t-179.5 62.5q-65 0 -116.5 -25t-80 -72.5t-28.5 -110.5q0 -102 61 -167t159 -131.5t132 -89.5q120 -80 190 -139t114 -138t44 -183q0 -131 -68 -221t-183 -134.5t-257 -44.5q-115 0 -190.5 20.5t-139.5 55.5
q-44 29 -69 29q-19 0 -29 -21.5t-16 -68.5h-47q8 128 8 553h47q13 -229 101.5 -371.5zM805.5 1747q111.5 -86 242.5 -141l-10 -31q-134 25 -263 61.5t-206 71.5q-64 -35 -170.5 -71.5t-216.5 -61.5l-10 31q131 55 242.5 140.5t177.5 178.5h37q65 -92 176.5 -178z" />
    <glyph glyph-name="Scommaaccent" unicode="&#x218;" horiz-adv-x="1196" 
d="M270.5 167.5q88.5 -142.5 271.5 -142.5q72 0 129.5 25.5t91 77.5t33.5 126q0 80 -37.5 143.5t-101 116t-169.5 121.5q-124 80 -196.5 139t-120 140t-47.5 188q0 124 63 208.5t167 125.5t229 41q74 0 128.5 -11t91 -27.5t79.5 -41.5q49 -29 69 -29q19 0 29 21.5t16 68.5
h47q-10 -137 -10 -467h-47q-7 111 -49.5 211t-119 162.5t-179.5 62.5q-65 0 -116.5 -25t-80 -72.5t-28.5 -110.5q0 -102 61 -167t159 -131.5t132 -89.5q120 -80 190 -139t114 -138t44 -183q0 -131 -68 -221t-183 -134.5t-257 -44.5q-115 0 -190.5 20.5t-139.5 55.5
q-44 29 -69 29q-19 0 -29 -21.5t-16 -68.5h-47q8 128 8 553h47q13 -229 101.5 -371.5zM703 -344q-34 -31 -100 -31q-68 0 -107 33t-39 96q0 61 42 97t114 36q76 0 122 -42t46 -115q0 -95 -57.5 -154t-176.5 -74l-8 41q150 27 164 113z" />
    <glyph glyph-name="uni1E9E" unicode="&#x1e9e;" horiz-adv-x="1548" 
d="M346 1302q174 177 500 177q160 0 297.5 -42.5t245.5 -115.5l-357 -490q227 -51 346 -163t119 -269q0 -125 -72 -222.5t-198 -151.5t-283 -54q-135 0 -221 39q-60 28 -89.5 78.5t-29.5 114.5q0 52 20.5 91.5t56 61t79.5 21.5q66 0 107.5 -45t41.5 -117q0 -65 -34 -111
t-89 -69q16 -10 43.5 -15.5t51.5 -5.5q78 0 141 42.5t99 124t36 194.5q0 195 -112.5 320.5t-333.5 187.5l356 522q-31 19 -81.5 28t-100.5 9q-118 0 -203.5 -49.5t-134.5 -172.5t-49 -335v-668q0 -73 6.5 -108.5t25 -51t56.5 -16.5v-41q-31 0 -109 3t-166 3q-188 0 -293 -6
v41q68 3 99.5 16t43 48t11.5 112v543q0 365 174 542z" />
    <glyph glyph-name="T" unicode="T" horiz-adv-x="1368" 
d="M66 1102q0 140 -15 348q187 -6 633 -6t631 6q-15 -208 -15 -348q0 -88 7 -156h-47q-34 171 -83 270.5t-117.5 143t-166.5 43.5h-47v-1170q0 -85 17.5 -124t62 -53t139.5 -15v-41q-258 6 -389 6q-129 0 -375 -6v41q96 1 140.5 15t61.5 53t17 124v1170h-45
q-99 0 -167.5 -43t-117.5 -142.5t-84 -271.5h-47q7 68 7 156z" />
    <glyph glyph-name="Tbar" unicode="&#x166;" horiz-adv-x="1372" 
d="M68 1102q0 139 -15 348q187 -6 633 -6t631 6q-15 -208 -15 -348q0 -88 7 -156h-47q-34 171 -83 270.5t-117.5 143t-166.5 43.5h-47v-653h272v-41h-272v-476q0 -85 17.5 -124t62 -53t139.5 -15v-41q-258 6 -389 6q-129 0 -375 -6v41q96 1 140.5 15t61.5 53t17 124v476
h-286v41h286v653h-45q-99 0 -167.5 -43t-117.5 -142.5t-84 -271.5h-47q7 68 7 156z" />
    <glyph glyph-name="Tcaron" unicode="&#x164;" horiz-adv-x="1368" 
d="M67 1102q0 140 -15 348q187 -6 633 -6t631 6q-15 -208 -15 -348q0 -88 7 -156h-47q-34 171 -83 270.5t-117.5 143t-166.5 43.5h-47v-1170q0 -85 17.5 -124t62 -53t139.5 -15v-41q-258 6 -389 6q-129 0 -375 -6v41q96 1 140.5 15t61.5 53t17 124v1170h-45
q-99 0 -167.5 -43t-117.5 -142.5t-84 -271.5h-47q7 68 7 156zM876 1751q-111 -86 -178 -180h-37q-64 93 -175.5 178.5t-244.5 140.5l10 31q134 -23 263.5 -60t205.5 -73q64 36 170.5 73t216.5 60l10 -31q-130 -53 -241 -139z" />
    <glyph glyph-name="Tcedilla" unicode="&#x162;" horiz-adv-x="1368" 
d="M67 1102q0 140 -15 348q187 -6 633 -6t631 6q-15 -208 -15 -348q0 -88 7 -156h-47q-34 171 -83 270.5t-117.5 143t-166.5 43.5h-47v-1170q0 -85 17.5 -124t62 -53t139.5 -15v-41q-258 6 -389 6q-129 0 -375 -6v41q96 1 140.5 15t61.5 53t17 124v1170h-45
q-99 0 -167.5 -43t-117.5 -142.5t-84 -271.5h-47q7 68 7 156zM819 -109q73 0 113 -30t40 -80q0 -83 -91.5 -124.5t-231.5 -41.5q-119 0 -191 25l11 36q72 -8 102 -8q75 0 130.5 20.5t55.5 63.5q0 53 -94 53q-48 0 -80 -14l68 219h55l-45 -143q70 24 158 24z" />
    <glyph glyph-name="uni021A" unicode="&#x21a;" horiz-adv-x="1368" 
d="M67 1102q0 140 -15 348q187 -6 633 -6t631 6q-15 -208 -15 -348q0 -88 7 -156h-47q-34 171 -83 270.5t-117.5 143t-166.5 43.5h-47v-1170q0 -85 17.5 -124t62 -53t139.5 -15v-41q-258 6 -389 6q-129 0 -375 -6v41q96 1 140.5 15t61.5 53t17 124v1170h-45
q-99 0 -167.5 -43t-117.5 -142.5t-84 -271.5h-47q7 68 7 156zM765 -344q-34 -31 -100 -31q-68 0 -107 33t-39 96q0 61 42 97t114 36q76 0 122 -42t46 -115q0 -95 -57.5 -154t-176.5 -74l-8 41q150 27 164 113z" />
    <glyph glyph-name="U" unicode="U" horiz-adv-x="1411" 
d="M1275.5 1374.5q-31.5 -25.5 -43 -78t-11.5 -157.5v-543q0 -293 -84 -434q-56 -91 -160 -141t-256 -50q-236 0 -369 103q-65 52 -99.5 121t-47 161.5t-12.5 233.5v643q0 77 -11.5 112t-43 48t-99.5 16v41q105 -6 319 -6q212 0 326 6v-41q-74 -3 -107.5 -16t-46 -48
t-12.5 -112v-772q0 -144 26 -234.5t87.5 -137t169.5 -46.5q204 0 288.5 138t84.5 392v541q0 119 -14.5 176.5t-55.5 83.5t-129 35v41q77 -6 221 -6q114 0 178 6v-41q-67 -9 -98.5 -34.5z" />
    <glyph glyph-name="Uacute" unicode="&#xda;" horiz-adv-x="1411" 
d="M1276.5 1374.5q-31.5 -25.5 -43 -78t-11.5 -157.5v-543q0 -293 -84 -434q-56 -91 -160 -141t-256 -50q-236 0 -369 103q-65 52 -99.5 121t-47 161.5t-12.5 233.5v643q0 77 -11.5 112t-43 48t-99.5 16v41q105 -6 319 -6q212 0 326 6v-41q-74 -3 -107.5 -16t-46 -48
t-12.5 -112v-772q0 -144 26 -234.5t87.5 -137t169.5 -46.5q204 0 288.5 138t84.5 392v541q0 119 -14.5 176.5t-55.5 83.5t-129 35v41q77 -6 221 -6q114 0 178 6v-41q-67 -9 -98.5 -34.5zM692.5 1703q44.5 44 110 114.5t112.5 95.5q32 16 63 16q32 0 60 -16t43 -45
q12 -22 12 -47q0 -31 -18 -59t-51 -46q-45 -25 -120.5 -44t-143.5 -37t-162 -54l-15 25q65 53 109.5 97z" />
    <glyph glyph-name="Ubreve" unicode="&#x16c;" horiz-adv-x="1411" 
d="M1276.5 1374.5q-31.5 -25.5 -43 -78t-11.5 -157.5v-543q0 -293 -84 -434q-56 -91 -160 -141t-256 -50q-236 0 -369 103q-65 52 -99.5 121t-47 161.5t-12.5 233.5v643q0 77 -11.5 112t-43 48t-99.5 16v41q105 -6 319 -6q212 0 326 6v-41q-74 -3 -107.5 -16t-46 -48
t-12.5 -112v-772q0 -144 26 -234.5t87.5 -137t169.5 -46.5q204 0 288.5 138t84.5 392v541q0 119 -14.5 176.5t-55.5 83.5t-129 35v41q77 -6 221 -6q114 0 178 6v-41q-67 -9 -98.5 -34.5zM1083.5 1722.5q-61.5 -62.5 -154.5 -103t-210 -40.5t-209.5 40.5t-154 103
t-92.5 130.5l24 21q69 -51 176 -87t256 -36q265 0 433 125l24 -23q-31 -68 -92.5 -130.5z" />
    <glyph glyph-name="Ucircumflex" unicode="&#xdb;" horiz-adv-x="1411" 
d="M1276.5 1374.5q-31.5 -25.5 -43 -78t-11.5 -157.5v-543q0 -293 -84 -434q-56 -91 -160 -141t-256 -50q-236 0 -369 103q-65 52 -99.5 121t-47 161.5t-12.5 233.5v643q0 77 -11.5 112t-43 48t-99.5 16v41q105 -6 319 -6q212 0 326 6v-41q-74 -3 -107.5 -16t-46 -48
t-12.5 -112v-772q0 -144 26 -234.5t87.5 -137t169.5 -46.5q204 0 288.5 138t84.5 392v541q0 119 -14.5 176.5t-55.5 83.5t-129 35v41q77 -6 221 -6q114 0 178 6v-41q-67 -9 -98.5 -34.5zM927.5 1747q111.5 -86 242.5 -141l-10 -31q-134 25 -263 61.5t-206 71.5
q-64 -35 -170.5 -71.5t-216.5 -61.5l-10 31q131 55 242.5 140.5t177.5 178.5h37q65 -92 176.5 -178z" />
    <glyph glyph-name="Udieresis" unicode="&#xdc;" horiz-adv-x="1411" 
d="M1276.5 1374.5q-31.5 -25.5 -43 -78t-11.5 -157.5v-543q0 -293 -84 -434q-56 -91 -160 -141t-256 -50q-236 0 -369 103q-65 52 -99.5 121t-47 161.5t-12.5 233.5v643q0 77 -11.5 112t-43 48t-99.5 16v41q105 -6 319 -6q212 0 326 6v-41q-74 -3 -107.5 -16t-46 -48
t-12.5 -112v-772q0 -144 26 -234.5t87.5 -137t169.5 -46.5q204 0 288.5 138t84.5 392v541q0 119 -14.5 176.5t-55.5 83.5t-129 35v41q77 -6 221 -6q114 0 178 6v-41q-67 -9 -98.5 -34.5zM562 1856q36 -22 58 -58t22 -76q0 -41 -22 -76t-58 -56t-76 -21q-41 0 -76.5 20.5
t-56 56t-20.5 76.5q0 40 21 76t56 58t76 22q40 0 76 -22zM1053.5 1856q35.5 -22 56.5 -58t21 -76q0 -41 -21 -76.5t-56.5 -56t-75.5 -20.5q-42 0 -78 20.5t-57 56t-21 76.5t21 77t57 57.5t78 21.5q40 0 75.5 -22z" />
    <glyph glyph-name="Ugrave" unicode="&#xd9;" horiz-adv-x="1411" 
d="M1276.5 1374.5q-31.5 -25.5 -43 -78t-11.5 -157.5v-543q0 -293 -84 -434q-56 -91 -160 -141t-256 -50q-236 0 -369 103q-65 52 -99.5 121t-47 161.5t-12.5 233.5v643q0 77 -11.5 112t-43 48t-99.5 16v41q105 -6 319 -6q212 0 326 6v-41q-74 -3 -107.5 -16t-46 -48
t-12.5 -112v-772q0 -144 26 -234.5t87.5 -137t169.5 -46.5q204 0 288.5 138t84.5 392v541q0 119 -14.5 176.5t-55.5 83.5t-129 35v41q77 -6 221 -6q114 0 178 6v-41q-67 -9 -98.5 -34.5zM719.5 1627q-59.5 17 -152.5 40.5t-138 48.5q-33 18 -51 45.5t-18 58.5q0 26 12 48
q15 29 42.5 45t60.5 16q32 0 62 -16q32 -17 59 -41.5t102 -105.5t171 -160l-14 -25q-76 29 -135.5 46z" />
    <glyph glyph-name="Uhungarumlaut" unicode="&#x170;" horiz-adv-x="1411" 
d="M1276.5 1374.5q-31.5 -25.5 -43 -78t-11.5 -157.5v-543q0 -293 -84 -434q-56 -91 -160 -141t-256 -50q-236 0 -369 103q-65 52 -99.5 121t-47 161.5t-12.5 233.5v643q0 77 -11.5 112t-43 48t-99.5 16v41q105 -6 319 -6q212 0 326 6v-41q-74 -3 -107.5 -16t-46 -48
t-12.5 -112v-772q0 -144 26 -234.5t87.5 -137t169.5 -46.5q204 0 288.5 138t84.5 392v541q0 119 -14.5 176.5t-55.5 83.5t-129 35v41q77 -6 221 -6q114 0 178 6v-41q-67 -9 -98.5 -34.5zM509 1741.5q47 70.5 75 109t59 64.5q33 26 75 26q59 0 93 -49q21 -30 21 -62
q0 -55 -56 -97q-28 -20 -62.5 -35t-125.5 -48t-165 -69l-20 23q59 67 106 137.5zM941 1741.5q47 70.5 75 109t59 64.5q33 26 75 26q59 0 93 -49q22 -29 22 -62q0 -54 -57 -97q-28 -20 -62.5 -35t-125 -48t-164.5 -69l-21 23q59 67 106 137.5z" />
    <glyph glyph-name="Umacron" unicode="&#x16a;" horiz-adv-x="1411" 
d="M1276.5 1374.5q-31.5 -25.5 -43 -78t-11.5 -157.5v-543q0 -293 -84 -434q-56 -91 -160 -141t-256 -50q-236 0 -369 103q-65 52 -99.5 121t-47 161.5t-12.5 233.5v643q0 77 -11.5 112t-43 48t-99.5 16v41q105 -6 319 -6q212 0 326 6v-41q-74 -3 -107.5 -16t-46 -48
t-12.5 -112v-772q0 -144 26 -234.5t87.5 -137t169.5 -46.5q204 0 288.5 138t84.5 392v541q0 119 -14.5 176.5t-55.5 83.5t-129 35v41q77 -6 221 -6q114 0 178 6v-41q-67 -9 -98.5 -34.5zM322 1677v52h819v-52h-819z" />
    <glyph glyph-name="Uogonek" unicode="&#x172;" horiz-adv-x="1411" 
d="M1276.5 1374.5q-31.5 -25.5 -43 -78t-11.5 -157.5v-543q0 -293 -84 -434q-56 -91 -160 -141t-256 -50q-236 0 -369 103q-65 52 -99.5 121t-47 161.5t-12.5 233.5v643q0 77 -11.5 112t-43 48t-99.5 16v41q105 -6 319 -6q212 0 326 6v-41q-74 -3 -107.5 -16t-46 -48
t-12.5 -112v-772q0 -144 26 -234.5t87.5 -137t169.5 -46.5q204 0 288.5 138t84.5 392v541q0 119 -14.5 176.5t-55.5 83.5t-129 35v41q77 -6 221 -6q114 0 178 6v-41q-67 -9 -98.5 -34.5zM770.5 -82.5q-54.5 -53.5 -54.5 -105.5q0 -84 86 -84q35 0 71.5 15.5t59.5 39.5
l27 -29q-54 -73 -121 -106t-160 -33q-88 0 -137 37.5t-49 103.5q0 84 96.5 148.5t272.5 101.5h77q-114 -35 -168.5 -88.5z" />
    <glyph glyph-name="Uring" unicode="&#x16e;" horiz-adv-x="1411" 
d="M1276.5 1374.5q-31.5 -25.5 -43 -78t-11.5 -157.5v-543q0 -293 -84 -434q-56 -91 -160 -141t-256 -50q-236 0 -369 103q-65 52 -99.5 121t-47 161.5t-12.5 233.5v643q0 77 -11.5 112t-43 48t-99.5 16v41q105 -6 319 -6q212 0 326 6v-41q-74 -3 -107.5 -16t-46 -48
t-12.5 -112v-772q0 -144 26 -234.5t87.5 -137t169.5 -46.5q204 0 288.5 138t84.5 392v541q0 119 -14.5 176.5t-55.5 83.5t-129 35v41q77 -6 221 -6q114 0 178 6v-41q-67 -9 -98.5 -34.5zM844.5 2004.5q51.5 -24.5 82 -69.5t30.5 -104q0 -60 -30.5 -106t-82 -70.5
t-111.5 -24.5q-59 0 -109.5 24.5t-81 70.5t-30.5 106q0 59 30.5 104t81 69.5t109.5 24.5q60 0 111.5 -24.5zM655 1967.5q-38 -18.5 -62 -54t-24 -84.5q0 -50 24 -85t61.5 -53t78.5 -18q42 0 80 17.5t62 53t24 85.5q0 49 -24 84.5t-62.5 54t-79.5 18.5q-40 0 -78 -18.5z" />
    <glyph glyph-name="Utilde" unicode="&#x168;" horiz-adv-x="1411" 
d="M1276.5 1374.5q-31.5 -25.5 -43 -78t-11.5 -157.5v-543q0 -293 -84 -434q-56 -91 -160 -141t-256 -50q-236 0 -369 103q-65 52 -99.5 121t-47 161.5t-12.5 233.5v643q0 77 -11.5 112t-43 48t-99.5 16v41q105 -6 319 -6q212 0 326 6v-41q-74 -3 -107.5 -16t-46 -48
t-12.5 -112v-772q0 -144 26 -234.5t87.5 -137t169.5 -46.5q204 0 288.5 138t84.5 392v541q0 119 -14.5 176.5t-55.5 83.5t-129 35v41q77 -6 221 -6q114 0 178 6v-41q-67 -9 -98.5 -34.5zM381.5 1822q74.5 70 171.5 70q67 0 118 -19.5t143 -72.5t169 -53q109 0 170 111
l29 -11q-27 -135 -101 -204.5t-171 -69.5q-67 0 -117.5 19.5t-143.5 72.5t-172 53q-106 0 -170 -112l-28 10q28 136 102.5 206z" />
    <glyph glyph-name="V" unicode="V" horiz-adv-x="1368" 
d="M1233 1444q94 0 156 6v-41q-51 -20 -101 -78.5t-88 -165.5l-432 -1169q-23 2 -72 2q-47 0 -69 -2l-523 1282q-26 68 -60.5 98.5t-68.5 32.5v41q123 -6 312 -6q209 0 311 6v-41q-77 -3 -110.5 -18.5t-33.5 -57.5q0 -32 25 -96l361 -917l252 679q57 161 57 250
q0 82 -43.5 119.5t-128.5 40.5v41q138 -6 256 -6z" />
    <glyph glyph-name="W" unicode="W" horiz-adv-x="1982" 
d="M1837 1444q97 0 158 6v-41q-120 -46 -180 -244l-361 -1169q-22 2 -72 2q-49 0 -71 -2l-302 913l-302 -913q-23 2 -72 2t-72 -2l-459 1282q-23 67 -58.5 98t-70.5 33v41q123 -6 306 -6q172 0 251 6v-41q-71 -9 -71 -80q0 -38 18 -92l299 -864l208 608l-105 317
q-20 60 -48 84t-65 27v41q114 -6 293 -6q199 0 295 6v-41q-75 -2 -107 -17t-32 -59q0 -33 20 -96l280 -857l195 619q46 150 46 239t-43.5 128.5t-131.5 42.5v41q138 -6 254 -6z" />
    <glyph glyph-name="Wacute" unicode="&#x1e82;" horiz-adv-x="1982" 
d="M1837 1444q97 0 158 6v-41q-120 -46 -180 -244l-361 -1169q-22 2 -72 2q-49 0 -71 -2l-302 913l-302 -913q-23 2 -72 2t-72 -2l-459 1282q-23 67 -58.5 98t-70.5 33v41q123 -6 306 -6q172 0 251 6v-41q-71 -9 -71 -80q0 -38 18 -92l299 -864l208 608l-105 317
q-20 60 -48 84t-65 27v41q114 -6 293 -6q199 0 295 6v-41q-75 -2 -107 -17t-32 -59q0 -33 20 -96l280 -857l195 619q46 150 46 239t-43.5 128.5t-131.5 42.5v41q138 -6 254 -6zM985.5 1703q44.5 44 110 114.5t112.5 95.5q32 16 63 16q32 0 60 -16t43 -45q12 -22 12 -47
q0 -31 -18 -59t-51 -46q-45 -25 -120.5 -44t-143.5 -37t-162 -54l-15 25q65 53 109.5 97z" />
    <glyph glyph-name="Wcircumflex" unicode="&#x174;" horiz-adv-x="1982" 
d="M1837 1444q97 0 158 6v-41q-120 -46 -180 -244l-361 -1169q-22 2 -72 2q-49 0 -71 -2l-302 913l-302 -913q-23 2 -72 2t-72 -2l-459 1282q-23 67 -58.5 98t-70.5 33v41q123 -6 306 -6q172 0 251 6v-41q-71 -9 -71 -80q0 -38 18 -92l299 -864l208 608l-105 317
q-20 60 -48 84t-65 27v41q114 -6 293 -6q199 0 295 6v-41q-75 -2 -107 -17t-32 -59q0 -33 20 -96l280 -857l195 619q46 150 46 239t-43.5 128.5t-131.5 42.5v41q138 -6 254 -6zM1220.5 1747q111.5 -86 242.5 -141l-10 -31q-134 25 -263 61.5t-206 71.5q-64 -35 -170.5 -71.5
t-216.5 -61.5l-10 31q131 55 242.5 140.5t177.5 178.5h37q65 -92 176.5 -178z" />
    <glyph glyph-name="Wdieresis" unicode="&#x1e84;" horiz-adv-x="1982" 
d="M1837 1444q97 0 158 6v-41q-120 -46 -180 -244l-361 -1169q-22 2 -72 2q-49 0 -71 -2l-302 913l-302 -913q-23 2 -72 2t-72 -2l-459 1282q-23 67 -58.5 98t-70.5 33v41q123 -6 306 -6q172 0 251 6v-41q-71 -9 -71 -80q0 -38 18 -92l299 -864l208 608l-105 317
q-20 60 -48 84t-65 27v41q114 -6 293 -6q199 0 295 6v-41q-75 -2 -107 -17t-32 -59q0 -33 20 -96l280 -857l195 619q46 150 46 239t-43.5 128.5t-131.5 42.5v41q138 -6 254 -6zM855 1856q36 -22 58 -58t22 -76q0 -41 -22 -76t-58 -56t-76 -21q-41 0 -76.5 20.5t-56 56
t-20.5 76.5q0 40 21 76t56 58t76 22q40 0 76 -22zM1346.5 1856q35.5 -22 56.5 -58t21 -76q0 -41 -21 -76.5t-56.5 -56t-75.5 -20.5q-42 0 -78 20.5t-57 56t-21 76.5t21 77t57 57.5t78 21.5q40 0 75.5 -22z" />
    <glyph glyph-name="Wgrave" unicode="&#x1e80;" horiz-adv-x="1982" 
d="M1837 1444q97 0 158 6v-41q-120 -46 -180 -244l-361 -1169q-22 2 -72 2q-49 0 -71 -2l-302 913l-302 -913q-23 2 -72 2t-72 -2l-459 1282q-23 67 -58.5 98t-70.5 33v41q123 -6 306 -6q172 0 251 6v-41q-71 -9 -71 -80q0 -38 18 -92l299 -864l208 608l-105 317
q-20 60 -48 84t-65 27v41q114 -6 293 -6q199 0 295 6v-41q-75 -2 -107 -17t-32 -59q0 -33 20 -96l280 -857l195 619q46 150 46 239t-43.5 128.5t-131.5 42.5v41q138 -6 254 -6zM1012.5 1627q-59.5 17 -152.5 40.5t-138 48.5q-33 18 -51 45.5t-18 58.5q0 26 12 48
q15 29 42.5 45t60.5 16q32 0 62 -16q32 -17 59 -41.5t102 -105.5t171 -160l-14 -25q-76 29 -135.5 46z" />
    <glyph glyph-name="X" unicode="X" horiz-adv-x="1415" 
d="M1355.5 83.5q18.5 -20.5 37.5 -29.5t47 -11v-43q-216 8 -281 8q-74 0 -330 -8v43q72 0 104 7.5t32 26.5q0 14 -15 36l-345 506l-163 -224q-94 -126 -94 -215q0 -63 46 -98.5t128 -40.5v-41q-117 6 -323 6q-124 0 -189 -6v41q143 46 297 250l272 367l-442 649
q-29 42 -46.5 62t-36.5 29t-48 11v43q228 -8 293 -8q179 0 313 8v-43q-68 0 -99 -9t-31 -30q0 -16 16 -39l305 -445l151 204q97 125 97 206q0 51 -38.5 79.5t-111.5 33.5v41q117 -6 258 -6q124 0 189 6v-41q-65 -19 -131.5 -76.5t-126.5 -138.5l-261 -347l480 -702
q28 -41 46.5 -61.5z" />
    <glyph glyph-name="Y" unicode="Y" horiz-adv-x="1276" 
d="M1108 1446q94 0 156 6v-41q-47 -20 -94.5 -75.5t-102.5 -161.5l-242 -479v-478q0 -77 11.5 -112t42.5 -48t100 -16v-41q-111 6 -315 6q-219 0 -318 -6v41q68 3 99.5 16t43 48t11.5 112v346l-396 731q-63 115 -118 115v43q89 -10 241 -10q192 0 385 10v-43
q-72 0 -113.5 -12.5t-41.5 -47.5q0 -21 14 -46l312 -600l159 319q81 162 81 253q0 69 -44 101t-127 35v41q138 -6 256 -6z" />
    <glyph glyph-name="Yacute" unicode="&#xdd;" horiz-adv-x="1276" 
d="M1108 1446q94 0 156 6v-41q-47 -20 -94.5 -75.5t-102.5 -161.5l-242 -479v-478q0 -77 11.5 -112t42.5 -48t100 -16v-41q-111 6 -315 6q-219 0 -318 -6v41q68 3 99.5 16t43 48t11.5 112v346l-396 731q-63 115 -118 115v43q89 -10 241 -10q192 0 385 10v-43
q-72 0 -113.5 -12.5t-41.5 -47.5q0 -21 14 -46l312 -600l159 319q81 162 81 253q0 69 -44 101t-127 35v41q138 -6 256 -6zM637.5 1703q44.5 44 110 114.5t112.5 95.5q32 16 63 16q32 0 60 -16t43 -45q12 -22 12 -47q0 -31 -18 -59t-51 -46q-45 -25 -120.5 -44t-143.5 -37
t-162 -54l-15 25q65 53 109.5 97z" />
    <glyph glyph-name="Ycircumflex" unicode="&#x176;" horiz-adv-x="1276" 
d="M1108 1446q94 0 156 6v-41q-47 -20 -94.5 -75.5t-102.5 -161.5l-242 -479v-478q0 -77 11.5 -112t42.5 -48t100 -16v-41q-111 6 -315 6q-219 0 -318 -6v41q68 3 99.5 16t43 48t11.5 112v346l-396 731q-63 115 -118 115v43q89 -10 241 -10q192 0 385 10v-43
q-72 0 -113.5 -12.5t-41.5 -47.5q0 -21 14 -46l312 -600l159 319q81 162 81 253q0 69 -44 101t-127 35v41q138 -6 256 -6zM872.5 1747q111.5 -86 242.5 -141l-10 -31q-134 25 -263 61.5t-206 71.5q-64 -35 -170.5 -71.5t-216.5 -61.5l-10 31q131 55 242.5 140.5t177.5 178.5
h37q65 -92 176.5 -178z" />
    <glyph glyph-name="Ydieresis" unicode="&#x178;" horiz-adv-x="1276" 
d="M1108 1446q94 0 156 6v-41q-47 -20 -94.5 -75.5t-102.5 -161.5l-242 -479v-478q0 -77 11.5 -112t42.5 -48t100 -16v-41q-111 6 -315 6q-219 0 -318 -6v41q68 3 99.5 16t43 48t11.5 112v346l-396 731q-63 115 -118 115v43q89 -10 241 -10q192 0 385 10v-43
q-72 0 -113.5 -12.5t-41.5 -47.5q0 -21 14 -46l312 -600l159 319q81 162 81 253q0 69 -44 101t-127 35v41q138 -6 256 -6zM507 1856q36 -22 58 -58t22 -76q0 -41 -22 -76t-58 -56t-76 -21q-41 0 -76.5 20.5t-56 56t-20.5 76.5q0 40 21 76t56 58t76 22q40 0 76 -22z
M998.5 1856q35.5 -22 56.5 -58t21 -76q0 -41 -21 -76.5t-56.5 -56t-75.5 -20.5q-42 0 -78 20.5t-57 56t-21 76.5t21 77t57 57.5t78 21.5q40 0 75.5 -22z" />
    <glyph glyph-name="Ygrave" unicode="&#x1ef2;" horiz-adv-x="1276" 
d="M1108 1446q94 0 156 6v-41q-47 -20 -94.5 -75.5t-102.5 -161.5l-242 -479v-478q0 -77 11.5 -112t42.5 -48t100 -16v-41q-111 6 -315 6q-219 0 -318 -6v41q68 3 99.5 16t43 48t11.5 112v346l-396 731q-63 115 -118 115v43q89 -10 241 -10q192 0 385 10v-43
q-72 0 -113.5 -12.5t-41.5 -47.5q0 -21 14 -46l312 -600l159 319q81 162 81 253q0 69 -44 101t-127 35v41q138 -6 256 -6zM664.5 1627q-59.5 17 -152.5 40.5t-138 48.5q-33 18 -51 45.5t-18 58.5q0 26 12 48q15 29 42.5 45t60.5 16q32 0 62 -16q32 -17 59 -41.5t102 -105.5
t171 -160l-14 -25q-76 29 -135.5 46z" />
    <glyph glyph-name="Z" unicode="Z" horiz-adv-x="1233" 
d="M428 47h225q102 0 193 43.5t156.5 143t82.5 258.5h48q-7 -67 -7 -181q0 -188 15 -311q-152 6 -510 6q-381 0 -551 -6v41l715 1362h-234q-169 0 -275.5 -96t-133.5 -324h-48q7 55 7 156q0 124 -15 311q135 -6 461 -6q404 0 584 6v-41z" />
    <glyph glyph-name="Zacute" unicode="&#x179;" horiz-adv-x="1233" 
d="M429 47h225q102 0 193 43.5t156.5 143t82.5 258.5h48q-7 -67 -7 -181q0 -188 15 -311q-152 6 -510 6q-381 0 -551 -6v41l715 1362h-234q-169 0 -275.5 -96t-133.5 -324h-48q7 55 7 156q0 124 -15 311q135 -6 461 -6q404 0 584 6v-41zM578.5 1703q44.5 44 110 114.5
t112.5 95.5q32 16 63 16q32 0 60 -16t43 -45q12 -22 12 -47q0 -31 -18 -59t-51 -46q-45 -25 -120.5 -44t-143.5 -37t-162 -54l-15 25q65 53 109.5 97z" />
    <glyph glyph-name="Zcaron" unicode="&#x17d;" horiz-adv-x="1233" 
d="M429 47h225q102 0 193 43.5t156.5 143t82.5 258.5h48q-7 -67 -7 -181q0 -188 15 -311q-152 6 -510 6q-381 0 -551 -6v41l715 1362h-234q-169 0 -275.5 -96t-133.5 -324h-48q7 55 7 156q0 124 -15 311q135 -6 461 -6q404 0 584 6v-41zM809 1751q-111 -86 -178 -180h-37
q-64 93 -175.5 178.5t-244.5 140.5l10 31q134 -23 263.5 -60t205.5 -73q64 36 170.5 73t216.5 60l10 -31q-130 -53 -241 -139z" />
    <glyph glyph-name="Zdotaccent" unicode="&#x17b;" horiz-adv-x="1233" 
d="M429 47h225q102 0 193 43.5t156.5 143t82.5 258.5h48q-7 -67 -7 -181q0 -188 15 -311q-152 6 -510 6q-381 0 -551 -6v41l715 1362h-234q-169 0 -275.5 -96t-133.5 -324h-48q7 55 7 156q0 124 -15 311q135 -6 461 -6q404 0 584 6v-41zM754.5 1942q50.5 -42 50.5 -115
q0 -74 -50.5 -116t-135.5 -42q-87 0 -137 42t-50 116q0 73 50 115t137 42q85 0 135.5 -42z" />
    <glyph glyph-name="dotlessi" unicode="&#x131;" horiz-adv-x="645" 
d="M488 101q13 -32 41 -45t77 -13v-43q-204 8 -272 8q-65 0 -285 -8v43q49 0 77.5 13t41 45t12.5 89v646q0 95 -29 137.5t-102 42.5v43q65 -6 127 -6q181 0 299 28v-891q0 -57 13 -89z" />
    <glyph glyph-name="dotlessj" unicode="&#x237;" horiz-adv-x="608" 
d="M438 -90q-29 -110 -102 -184q-111 -111 -332 -111q-109 0 -182 37q-38 19 -59 53.5t-21 75.5q0 62 44 99.5t118 37.5q71 0 112 -33.5t41 -97.5q0 -43 -25.5 -78t-76.5 -53q32 -4 47 -4q87 0 129 57q24 37 32.5 110.5t8.5 225.5v791q0 94 -29.5 137t-101.5 43v43
q65 -6 127 -6q179 0 299 28v-888q0 -173 -29 -283z" />
    <glyph glyph-name="kgreenlandic" unicode="&#x138;" horiz-adv-x="1210" 
d="M1206 43v-43q-164 8 -215 8q-56 0 -252 -8v43q29 0 46 10.5t17 28.5q0 14 -11 31l-230 344q-37 55 -86 59v-326q0 -57 12 -89t38.5 -45t72.5 -13v-43q-196 8 -264 8q-65 0 -285 -8v43q49 0 77.5 13t41 45t12.5 89v646q0 95 -29 137.5t-102 42.5v43q65 -6 127 -6
q181 0 299 28v-523q59 5 99 28.5t81 70.5l191 217q31 37 31 70t-31.5 53t-89.5 21v41q107 -6 211 -6q116 0 186 6v-41q-71 -6 -114.5 -27t-86.5 -71l-213 -244l348 -524q61 -99 119 -109z" />
    <glyph glyph-name="Cacute.loclPLK" horiz-adv-x="1444" 
d="M1266.5 92.5q-11.5 28.5 -33.5 28.5q-16 0 -42 -17q-60 -42 -111.5 -70t-118 -45.5t-149.5 -17.5q-217 0 -380.5 88t-253 255.5t-89.5 398.5q0 226 92 400t257 270t376 96q122 0 208.5 -35t168.5 -98q23 -18 40 -18q42 0 52 122h47q-8 -139 -8 -496h-47
q-13 103 -28.5 167.5t-45 113.5t-80.5 90q-51 49 -119 74.5t-141 25.5q-141 0 -232 -97t-133 -256t-42 -351t44 -351t137.5 -254.5t233.5 -95.5q71 0 139 26t115 75q52 40 81.5 92.5t44 121.5t26.5 181h47q0 -371 8 -516h-47q-5 64 -16.5 92.5zM734.5 1719q1.5 70 4 107
t15.5 68q15 33 41 51.5t58 18.5q25 0 48 -10q32 -13 49.5 -39t17.5 -57q0 -23 -11 -50q-11 -26 -29.5 -48.5t-75.5 -81t-106 -124.5l-27 13q14 82 15.5 152z" />
    <glyph glyph-name="Nacute.loclPLK" horiz-adv-x="1479" 
d="M1321.5 1374.5q-31.5 -25.5 -43 -78t-11.5 -157.5v-1143q-15 1 -50 1q-36 0 -55 -1l-889 1126v-786q0 -121 13 -177.5t53.5 -82.5t132.5 -35v-41q-79 6 -221 6q-113 0 -178 -6v41q67 9 98.5 34.5t43 78t11.5 157.5v922q0 77 -11.5 112t-42.5 48t-99 16v41q65 -6 178 -6
q103 0 176 6l793 -977v641q0 121 -13 177.5t-53.5 82.5t-132.5 35v41q79 -6 221 -6q114 0 178 6v-41q-67 -9 -98.5 -34.5zM734.5 1719q1.5 70 4 107t15.5 68q15 33 41 51.5t58 18.5q25 0 48 -10q32 -13 49.5 -39t17.5 -57q0 -23 -11 -50q-11 -26 -29.5 -48.5t-75.5 -81
t-106 -124.5l-27 13q14 82 15.5 152z" />
    <glyph glyph-name="Oacute.loclPLK" horiz-adv-x="1624" 
d="M1193.5 1391q163.5 -88 253.5 -255.5t90 -398.5q0 -226 -92.5 -400t-257.5 -270t-375 -96q-217 0 -380.5 88t-253 255.5t-89.5 398.5q0 226 92 400t257 270t376 96q216 0 379.5 -88zM607.5 1350.5q-85.5 -91.5 -132 -255t-46.5 -374.5q0 -213 52 -375t141 -250t198 -88
q113 0 198.5 91.5t132 255t46.5 374.5q0 212 -52 374.5t-141.5 250.5t-197.5 88q-113 0 -198.5 -91.5zM767.5 1719q1.5 70 4 107t15.5 68q15 33 41 51.5t58 18.5q25 0 48 -10q32 -13 49.5 -39t17.5 -57q0 -23 -11 -50q-11 -26 -29.5 -48.5t-75.5 -81t-106 -124.5l-27 13
q14 82 15.5 152z" />
    <glyph glyph-name="Sacute.loclPLK" horiz-adv-x="1196" 
d="M270.5 167.5q88.5 -142.5 271.5 -142.5q72 0 129.5 25.5t91 77.5t33.5 126q0 80 -37.5 143.5t-101 116t-169.5 121.5q-124 80 -196.5 139t-120 140t-47.5 188q0 124 63 208.5t167 125.5t229 41q74 0 128.5 -11t91 -27.5t79.5 -41.5q49 -29 69 -29q19 0 29 21.5t16 68.5
h47q-10 -137 -10 -467h-47q-7 111 -49.5 211t-119 162.5t-179.5 62.5q-65 0 -116.5 -25t-80 -72.5t-28.5 -110.5q0 -102 61 -167t159 -131.5t132 -89.5q120 -80 190 -139t114 -138t44 -183q0 -131 -68 -221t-183 -134.5t-257 -44.5q-115 0 -190.5 20.5t-139.5 55.5
q-44 29 -69 29q-19 0 -29 -21.5t-16 -68.5h-47q8 128 8 553h47q13 -229 101.5 -371.5zM568.5 1719q1.5 70 4 107t15.5 68q15 33 41 51.5t58 18.5q25 0 48 -10q32 -13 49.5 -39t17.5 -57q0 -23 -11 -50q-11 -26 -29.5 -48.5t-75.5 -81t-106 -124.5l-27 13q14 82 15.5 152z
" />
    <glyph glyph-name="Zacute.loclPLK" horiz-adv-x="1233" 
d="M429 47h225q102 0 193 43.5t156.5 143t82.5 258.5h48q-7 -67 -7 -181q0 -188 15 -311q-152 6 -510 6q-381 0 -551 -6v41l715 1362h-234q-169 0 -275.5 -96t-133.5 -324h-48q7 55 7 156q0 124 -15 311q135 -6 461 -6q404 0 584 6v-41zM576.5 1719q1.5 70 4 107t15.5 68
q15 33 41 51.5t58 18.5q25 0 48 -10q32 -13 49.5 -39t17.5 -57q0 -23 -11 -50q-11 -26 -29.5 -48.5t-75.5 -81t-106 -124.5l-27 13q14 82 15.5 152z" />
    <glyph glyph-name="cacute.loclPLK" horiz-adv-x="1346" 
d="M1144 124q-16 0 -41 -20q-76 -63 -158.5 -98t-195.5 -35q-195 0 -344 75.5t-232.5 219.5t-83.5 344q0 195 85.5 346t235 234.5t334.5 83.5q83 0 145 -17.5t105.5 -45t93.5 -70.5q25 -20 40 -20q41 0 53 124h47q-8 -123 -8 -430h-48q-20 110 -40.5 161t-61.5 101
q-59 68 -131 106t-150 38q-113 0 -197 -72.5t-129.5 -208.5t-45.5 -322q0 -188 50.5 -322t138.5 -202.5t198 -68.5q81 0 157.5 37.5t131.5 105.5q40 51 59 110t35 173h47q0 -323 8 -451h-47q-10 124 -51 124zM659.5 1596q1.5 70 4 107.5t15.5 68.5q15 32 41 50.5t58 18.5
q24 0 48 -10q32 -13 49.5 -39t17.5 -57q0 -24 -11 -49q-11 -27 -29.5 -49.5t-75.5 -81t-106 -123.5l-27 12q14 82 15.5 152z" />
    <glyph glyph-name="nacute.loclPLK" horiz-adv-x="1413" 
d="M1256 1173.5q-32 -21.5 -43.5 -66.5t-11.5 -136v-975q-18 1 -55 1q-36 0 -53 -1l-820 1018v-740q0 -91 16 -136t59.5 -66.5t135.5 -30.5v-41q-91 6 -233 6q-113 0 -178 -6v41q67 9 99 30.5t43 66.5t11 136v754q0 77 -11.5 112t-42 48t-99.5 16v41q65 -6 178 -6
q145 0 250 6l653 -811v537q0 90 -16.5 135.5t-60 67t-134.5 30.5v41q89 -6 234 -6q114 0 178 6v-41q-67 -9 -99 -30.5zM699.5 1596q1.5 70 4 107.5t15.5 68.5q15 32 41 50.5t58 18.5q24 0 48 -10q32 -13 49.5 -39t17.5 -57q0 -24 -11 -49q-11 -27 -29.5 -49.5t-75.5 -81
t-106 -123.5l-27 12q14 82 15.5 152z" />
    <glyph glyph-name="oacute.loclPLK" horiz-adv-x="1554" 
d="M1142 1198.5q156 -75.5 241.5 -219.5t85.5 -344q0 -196 -88 -346.5t-245.5 -234t-358.5 -83.5q-207 0 -363 75.5t-241.5 219.5t-85.5 344q0 196 88 347t245.5 234t358.5 83q207 0 363 -75.5zM583.5 1158.5q-80.5 -78.5 -124.5 -219t-44 -321.5q0 -182 49.5 -320.5
t134 -214t186.5 -75.5q107 0 188 78.5t125 219t44 321.5q0 182 -49.5 321t-134 214t-187.5 75q-107 0 -187.5 -78.5zM713.5 1596q1.5 70 4 107.5t15.5 68.5q15 32 41 50.5t58 18.5q24 0 48 -10q32 -13 49.5 -39t17.5 -57q0 -24 -11 -49q-11 -27 -29.5 -49.5t-75.5 -81
t-106 -123.5l-27 12q14 82 15.5 152z" />
    <glyph glyph-name="sacute.loclPLK" horiz-adv-x="1184" 
d="M284 142.5q103 -124.5 292 -124.5q59 0 111 20t84.5 62t32.5 105q0 57 -31.5 102.5t-88 86.5t-161.5 102q-126 71 -210.5 133.5t-137.5 140.5t-53 172q0 107 61.5 182t168 112.5t241.5 37.5q94 0 160.5 -20.5t126.5 -55.5q29 -17 43 -23t26 -6q19 0 28.5 22t16.5 69h47
q-10 -123 -10 -426h-47q-22 184 -118.5 289.5t-252.5 105.5q-68 0 -119.5 -20.5t-79.5 -57t-28 -84.5q0 -61 40 -109.5t95 -85t195 -120.5q122 -69 200.5 -126t129.5 -133.5t51 -173.5q0 -112 -64.5 -190.5t-179 -118t-262.5 -39.5q-99 0 -170 22t-146 58q-50 25 -71 25
q-19 0 -29 -21.5t-16 -68.5h-47q8 115 8 499h47q14 -218 117 -342.5zM544.5 1596q1.5 70 4 107.5t15.5 68.5q15 32 41 50.5t58 18.5q24 0 48 -10q32 -13 49.5 -39t17.5 -57q0 -24 -11 -49q-11 -27 -29.5 -49.5t-75.5 -81t-106 -123.5l-27 12q14 82 15.5 152z" />
    <glyph glyph-name="zacute.loclPLK" horiz-adv-x="1186" 
d="M437 47h217q108 0 183 40.5t124 132t74 243.5h47q-6 -76 -6 -193q0 -121 15 -270q-142 6 -484 6q-352 0 -514 -6v41l643 1157h-215q-104 0 -176 -38t-119.5 -124t-72.5 -229h-48q7 60 7 180q0 105 -15 258q154 -6 514 -6q324 0 469 6v-41zM537.5 1596q1.5 70 4 107.5
t15.5 68.5q15 32 41 50.5t58 18.5q24 0 48 -10q32 -13 49.5 -39t17.5 -57q0 -24 -11 -49q-11 -27 -29.5 -49.5t-75.5 -81t-106 -123.5l-27 12q14 82 15.5 152z" />
    <glyph glyph-name="a" unicode="a" horiz-adv-x="1284" 
d="M1300 41v-41q-97 6 -268 6q-219 0 -323 -6v41q67 3 99.5 21t32.5 58q0 37 -26 93l-102 233h-431l-24 -55q-58 -132 -58 -211q0 -71 45 -102t134 -37v-41q-117 6 -236 6q-111 0 -166 -6v41q50 10 91.5 61.5t89.5 157.5l432 989q24 -3 47 -3q25 0 47 3l487 -1077
q60 -128 129 -131zM498 936l-198 -449h395z" />
    <glyph glyph-name="aacute" unicode="&#xe1;" horiz-adv-x="1284" 
d="M1300 41v-41q-97 6 -268 6q-219 0 -323 -6v41q67 3 99.5 21t32.5 58q0 37 -26 93l-102 233h-431l-24 -55q-58 -132 -58 -211q0 -71 45 -102t134 -37v-41q-117 6 -236 6q-111 0 -166 -6v41q50 10 91.5 61.5t89.5 157.5l432 989q24 -3 47 -3q25 0 47 3l487 -1077
q60 -128 129 -131zM498 936l-198 -449h395zM567.5 1535q44.5 44 110 114.5t112.5 95.5q30 16 62 16t60.5 -16t43.5 -45q11 -24 11 -47q0 -31 -17.5 -59t-51.5 -46q-46 -25 -121 -44t-142.5 -37t-162.5 -54l-14 25q65 53 109.5 97z" />
    <glyph glyph-name="abreve" unicode="&#x103;" horiz-adv-x="1284" 
d="M1300 41v-41q-97 6 -268 6q-219 0 -323 -6v41q67 3 99.5 21t32.5 58q0 37 -26 93l-102 233h-431l-24 -55q-58 -132 -58 -211q0 -71 45 -102t134 -37v-41q-117 6 -236 6q-111 0 -166 -6v41q50 10 91.5 61.5t89.5 157.5l432 989q24 -3 47 -3q25 0 47 3l487 -1077
q60 -128 129 -131zM498 936l-198 -449h395zM992 1544q-60 -62 -150.5 -102.5t-206.5 -40.5t-206.5 40.5t-150.5 102.5t-92 131l25 21q65 -51 171 -87t253 -36t252 36.5t172 88.5l24 -23q-31 -69 -91 -131z" />
    <glyph glyph-name="acircumflex" unicode="&#xe2;" horiz-adv-x="1284" 
d="M1300 41v-41q-97 6 -268 6q-219 0 -323 -6v41q67 3 99.5 21t32.5 58q0 37 -26 93l-102 233h-431l-24 -55q-58 -132 -58 -211q0 -71 45 -102t134 -37v-41q-117 6 -236 6q-111 0 -166 -6v41q50 10 91.5 61.5t89.5 157.5l432 989q24 -3 47 -3q25 0 47 3l487 -1077
q60 -128 129 -131zM498 936l-198 -449h395zM830 1571.5q110 -86.5 239 -141.5l-10 -31q-132 25 -258.5 61.5t-202.5 71.5q-63 -35 -167 -71.5t-212 -61.5l-10 31q129 55 238.5 141t173.5 178h37q62 -91 172 -177.5z" />
    <glyph glyph-name="adieresis" unicode="&#xe4;" horiz-adv-x="1284" 
d="M1300 41v-41q-97 6 -268 6q-219 0 -323 -6v41q67 3 99.5 21t32.5 58q0 37 -26 93l-102 233h-431l-24 -55q-58 -132 -58 -211q0 -71 45 -102t134 -37v-41q-117 6 -236 6q-111 0 -166 -6v41q50 10 91.5 61.5t89.5 157.5l432 989q24 -3 47 -3q25 0 47 3l487 -1077
q60 -128 129 -131zM498 936l-198 -449h395zM467 1719q36 -22 58 -58t22 -76q0 -41 -22 -76t-58 -56t-76 -21q-41 0 -76.5 20.5t-56 56t-20.5 76.5q0 40 21 76t56 58t76 22q40 0 76 -22zM958.5 1719q35.5 -22 56.5 -58t21 -76q0 -41 -21 -76.5t-56.5 -56t-75.5 -20.5
q-42 0 -78 20.5t-57 56t-21 76.5t21 77t57 57.5t78 21.5q40 0 75.5 -22z" />
    <glyph glyph-name="agrave" unicode="&#xe0;" horiz-adv-x="1284" 
d="M1300 41v-41q-97 6 -268 6q-219 0 -323 -6v41q67 3 99.5 21t32.5 58q0 37 -26 93l-102 233h-431l-24 -55q-58 -132 -58 -211q0 -71 45 -102t134 -37v-41q-117 6 -236 6q-111 0 -166 -6v41q50 10 91.5 61.5t89.5 157.5l432 989q24 -3 47 -3q25 0 47 3l487 -1077
q60 -128 129 -131zM498 936l-198 -449h395zM620.5 1459q-59.5 17 -152.5 40.5t-138 48.5q-33 18 -51 45.5t-18 58.5q0 26 12 48q15 29 42.5 45t60.5 16q32 0 62 -16q32 -17 59 -41.5t102 -105.5t171 -160l-14 -25q-76 29 -135.5 46z" />
    <glyph glyph-name="amacron" unicode="&#x101;" horiz-adv-x="1284" 
d="M1300 41v-41q-97 6 -268 6q-219 0 -323 -6v41q67 3 99.5 21t32.5 58q0 37 -26 93l-102 233h-431l-24 -55q-58 -132 -58 -211q0 -71 45 -102t134 -37v-41q-117 6 -236 6q-111 0 -166 -6v41q50 10 91.5 61.5t89.5 157.5l432 989q24 -3 47 -3q25 0 47 3l487 -1077
q60 -128 129 -131zM498 936l-198 -449h395zM223 1530v51h819v-51h-819z" />
    <glyph glyph-name="aogonek" unicode="&#x105;" horiz-adv-x="1284" 
d="M1300 41v-41q-97 6 -268 6q-219 0 -323 -6v41q67 3 99.5 21t32.5 58q0 37 -26 93l-102 233h-431l-24 -55q-58 -132 -58 -211q0 -71 45 -102t134 -37v-41q-117 6 -236 6q-111 0 -166 -6v41q50 10 91.5 61.5t89.5 157.5l432 989q24 -3 47 -3q25 0 47 3l487 -1077
q60 -128 129 -131zM498 936l-198 -449h395zM1055.5 -82.5q-54.5 -53.5 -54.5 -105.5q0 -84 86 -84q35 0 71.5 15.5t59.5 39.5l27 -29q-54 -73 -121 -106t-159 -33q-89 0 -138 37.5t-49 103.5q0 84 96.5 148.5t272.5 101.5h78q-115 -35 -169.5 -88.5z" />
    <glyph glyph-name="aring" unicode="&#xe5;" horiz-adv-x="1284" 
d="M1300 41v-41q-97 6 -268 6q-219 0 -323 -6v41q67 3 99.5 21t32.5 58q0 37 -26 93l-102 233h-431l-24 -55q-58 -132 -58 -211q0 -71 45 -102t134 -37v-41q-117 6 -236 6q-111 0 -166 -6v41q50 10 91.5 61.5t89.5 157.5l432 989q24 -3 47 -3q25 0 47 3l487 -1077
q60 -128 129 -131zM498 936l-198 -449h395zM749.5 1759.5q51.5 -24.5 82 -69.5t30.5 -105t-30.5 -106t-82 -70.5t-111.5 -24.5q-59 0 -109.5 24.5t-81 70.5t-30.5 106q0 59 30.5 104.5t81 70t109.5 24.5q60 0 111.5 -24.5zM560 1722.5q-38 -18.5 -62 -54.5t-24 -85t24 -84.5
t61.5 -53.5t78.5 -18q42 0 80 18t62 53.5t24 84.5t-24 85t-62.5 54.5t-79.5 18.5q-40 0 -78 -18.5z" />
    <glyph glyph-name="atilde" unicode="&#xe3;" horiz-adv-x="1284" 
d="M1300 41v-41q-97 6 -268 6q-219 0 -323 -6v41q67 3 99.5 21t32.5 58q0 37 -26 93l-102 233h-431l-24 -55q-58 -132 -58 -211q0 -71 45 -102t134 -37v-41q-117 6 -236 6q-111 0 -166 -6v41q50 10 91.5 61.5t89.5 157.5l432 989q24 -3 47 -3q25 0 47 3l487 -1077
q60 -128 129 -131zM498 936l-198 -449h395zM284.5 1672q72.5 69 168.5 69q67 0 118.5 -19.5t143.5 -72t168 -52.5q111 0 177 113l30 -14q-33 -136 -105 -205.5t-167 -69.5q-67 0 -118 19.5t-144 73t-170 53.5q-111 0 -176 -113l-31 12q33 137 105.5 206z" />
    <glyph glyph-name="ae" unicode="&#xe6;" horiz-adv-x="1702" 
d="M1593 266q0 -121 15 -266q-129 6 -432 6q-373 0 -566 -6v41q62 3 90 16t38 48t10 112v389h-320l-231 -393q-36 -62 -36 -98t35 -53.5t107 -20.5v-41q-62 6 -186 6q-86 0 -137 -6v41q33 2 66.5 32.5t74.5 98.5l593 1004q-16 14 -44 20t-76 8v41l159 -3l64 108h47l-64 -109
q147 -2 376 -2q274 0 391 6q-15 -134 -15 -246q0 -84 7 -127h-48q-16 121 -46.5 192t-79.5 102.5t-123 31.5h-60q-58 0 -87 -11.5t-41.5 -47.5t-12.5 -111v-381h76q75 0 104 42.5t40 94t17 72.5h48q-8 -96 -8 -157l1 -72q0 -82 13 -230h-47q-3 12 -17.5 79.5t-51.5 98.5
t-99 31h-76v-389q0 -75 12.5 -110.5t41.5 -47.5t87 -12h80q91 0 143 34.5t80 112t47 220.5h47q-6 -58 -6 -148zM748 1028q0 74 -10 107l-286 -488h296v381z" />
    <glyph glyph-name="b" unicode="b" horiz-adv-x="1329" 
d="M1155 551q107 -86 107 -215q0 -105 -63 -180.5t-185.5 -115.5t-296.5 -40q-43 0 -151 3t-218 3q-183 0 -278 -6v41q69 3 100 16t42 48t11 112v811q0 78 -11.5 113t-42 47.5t-99.5 15.5v41q94 -6 274 -6q83 0 185 2t141 2q246 0 365.5 -72.5t119.5 -207.5
q0 -105 -86 -179.5t-278 -115.5v-4q257 -27 364 -113zM785.5 739.5q50.5 71.5 50.5 200.5q0 133 -45.5 198.5t-147.5 65.5q-45 0 -67 -14.5t-30.5 -51.5t-8.5 -110v-360h67q131 0 181.5 71.5zM545.5 108q8.5 -35 30.5 -48t69 -13q149 0 219 75t70 222q0 142 -70.5 215.5
t-224.5 73.5h-102v-416q0 -74 8.5 -109z" />
    <glyph glyph-name="c" unicode="c" horiz-adv-x="1346" 
d="M1143 124q-16 0 -41 -20q-76 -63 -158.5 -98t-195.5 -35q-195 0 -344 75.5t-232.5 219.5t-83.5 344q0 195 85.5 346t235 234.5t334.5 83.5q83 0 145 -17.5t105.5 -45t93.5 -70.5q25 -20 40 -20q41 0 53 124h47q-8 -123 -8 -430h-48q-20 110 -40.5 161t-61.5 101
q-59 68 -131 106t-150 38q-113 0 -197 -72.5t-129.5 -208.5t-45.5 -322q0 -188 50.5 -322t138.5 -202.5t198 -68.5q81 0 157.5 37.5t131.5 105.5q40 51 59 110t35 173h47q0 -323 8 -451h-47q-10 124 -51 124z" />
    <glyph glyph-name="cacute" unicode="&#x107;" horiz-adv-x="1346" 
d="M1144 124q-16 0 -41 -20q-76 -63 -158.5 -98t-195.5 -35q-195 0 -344 75.5t-232.5 219.5t-83.5 344q0 195 85.5 346t235 234.5t334.5 83.5q83 0 145 -17.5t105.5 -45t93.5 -70.5q25 -20 40 -20q41 0 53 124h47q-8 -123 -8 -430h-48q-20 110 -40.5 161t-61.5 101
q-59 68 -131 106t-150 38q-113 0 -197 -72.5t-129.5 -208.5t-45.5 -322q0 -188 50.5 -322t138.5 -202.5t198 -68.5q81 0 157.5 37.5t131.5 105.5q40 51 59 110t35 173h47q0 -323 8 -451h-47q-10 124 -51 124zM651.5 1535q44.5 44 110 114.5t112.5 95.5q30 16 62 16t60.5 -16
t43.5 -45q11 -24 11 -47q0 -31 -17.5 -59t-51.5 -46q-46 -25 -121 -44t-142.5 -37t-162.5 -54l-14 25q65 53 109.5 97z" />
    <glyph glyph-name="ccaron" unicode="&#x10d;" horiz-adv-x="1346" 
d="M1144 124q-16 0 -41 -20q-76 -63 -158.5 -98t-195.5 -35q-195 0 -344 75.5t-232.5 219.5t-83.5 344q0 195 85.5 346t235 234.5t334.5 83.5q83 0 145 -17.5t105.5 -45t93.5 -70.5q25 -20 40 -20q41 0 53 124h47q-8 -123 -8 -430h-48q-20 110 -40.5 161t-61.5 101
q-59 68 -131 106t-150 38q-113 0 -197 -72.5t-129.5 -208.5t-45.5 -322q0 -188 50.5 -322t138.5 -202.5t198 -68.5q81 0 157.5 37.5t131.5 105.5q40 51 59 110t35 173h47q0 -323 8 -451h-47q-10 124 -51 124zM912 1561.5q-109 -86.5 -174 -179.5h-37q-62 92 -172 178
t-240 142l10 31q133 -23 260 -60t201 -74q62 37 166.5 74t212.5 60l10 -31q-128 -54 -237 -140.5z" />
    <glyph glyph-name="ccedilla" unicode="&#xe7;" horiz-adv-x="1346" 
d="M1144 124q-16 0 -41 -20q-76 -63 -158.5 -98t-195.5 -35q-195 0 -344 75.5t-232.5 219.5t-83.5 344q0 195 85.5 346t235 234.5t334.5 83.5q83 0 145 -17.5t105.5 -45t93.5 -70.5q25 -20 40 -20q41 0 53 124h47q-8 -123 -8 -430h-48q-20 110 -40.5 161t-61.5 101
q-59 68 -131 106t-150 38q-113 0 -197 -72.5t-129.5 -208.5t-45.5 -322q0 -188 50.5 -322t138.5 -202.5t198 -68.5q81 0 157.5 37.5t131.5 105.5q40 51 59 110t35 173h47q0 -323 8 -451h-47q-10 124 -51 124zM889 -109q73 0 113 -30t40 -80q0 -83 -91.5 -124.5t-231.5 -41.5
q-119 0 -191 25l11 36q72 -8 102 -8q75 0 130.5 20.5t55.5 63.5q0 53 -94 53q-48 0 -80 -14l66 219h55l-43 -143q70 24 158 24z" />
    <glyph glyph-name="ccircumflex" unicode="&#x109;" horiz-adv-x="1346" 
d="M1144 124q-16 0 -41 -20q-76 -63 -158.5 -98t-195.5 -35q-195 0 -344 75.5t-232.5 219.5t-83.5 344q0 195 85.5 346t235 234.5t334.5 83.5q83 0 145 -17.5t105.5 -45t93.5 -70.5q25 -20 40 -20q41 0 53 124h47q-8 -123 -8 -430h-48q-20 110 -40.5 161t-61.5 101
q-59 68 -131 106t-150 38q-113 0 -197 -72.5t-129.5 -208.5t-45.5 -322q0 -188 50.5 -322t138.5 -202.5t198 -68.5q81 0 157.5 37.5t131.5 105.5q40 51 59 110t35 173h47q0 -323 8 -451h-47q-10 124 -51 124zM914 1571.5q110 -86.5 239 -141.5l-10 -31q-132 25 -258.5 61.5
t-202.5 71.5q-63 -35 -167 -71.5t-212 -61.5l-10 31q129 55 238.5 141t173.5 178h37q62 -91 172 -177.5z" />
    <glyph glyph-name="cdotaccent" unicode="&#x10b;" horiz-adv-x="1346" 
d="M1144 124q-16 0 -41 -20q-76 -63 -158.5 -98t-195.5 -35q-195 0 -344 75.5t-232.5 219.5t-83.5 344q0 195 85.5 346t235 234.5t334.5 83.5q83 0 145 -17.5t105.5 -45t93.5 -70.5q25 -20 40 -20q41 0 53 124h47q-8 -123 -8 -430h-48q-20 110 -40.5 161t-61.5 101
q-59 68 -131 106t-150 38q-113 0 -197 -72.5t-129.5 -208.5t-45.5 -322q0 -188 50.5 -322t138.5 -202.5t198 -68.5q81 0 157.5 37.5t131.5 105.5q40 51 59 110t35 173h47q0 -323 8 -451h-47q-10 124 -51 124zM847 1702.5q47 -42.5 47 -117.5q0 -73 -47 -115.5t-127 -42.5
q-82 0 -128 42t-46 116q0 76 46 118t128 42q80 0 127 -42.5z" />
    <glyph glyph-name="d" unicode="d" horiz-adv-x="1495" 
d="M288 1238l56 1q321 6 346 6q358 0 536.5 -154t178.5 -452q0 -193 -86.5 -337t-251.5 -223t-395 -79q-58 0 -163.5 3t-160.5 3q-183 0 -278 -6v41q69 3 100 16t42 48t11 112v811q0 78 -11.5 113t-42 47.5t-99.5 15.5v41q119 -7 218 -7zM547 102.5q10 -36.5 37 -51
t82 -14.5q157 0 247 67t127 196t37 331q0 199 -39.5 325t-130 189t-243.5 63q-54 0 -80.5 -14.5t-36.5 -51t-10 -110.5v-819q0 -74 10 -110.5z" />
    <glyph glyph-name="eth" unicode="&#xf0;" horiz-adv-x="1497" 
d="M289 1238l56 1q321 6 346 6q358 0 536.5 -154t178.5 -452q0 -193 -86.5 -337t-251.5 -223t-395 -79q-58 0 -163.5 3t-160.5 3q-183 0 -278 -6v41q69 3 100 16t42 48t11 112v389h-152v41h152v381q0 78 -11.5 113t-42 47.5t-99.5 15.5v41q119 -7 218 -7zM548 102.5
q10 -36.5 37 -51t82 -14.5q157 0 247 67t127 196t37 331q0 199 -39.5 325t-130 189t-243.5 63q-54 0 -80.5 -14.5t-36.5 -51t-10 -110.5v-385h265v-41h-265v-393q0 -74 10 -110.5z" />
    <glyph glyph-name="dcaron" unicode="&#x10f;" horiz-adv-x="1495" 
d="M289 1238l56 1q321 6 346 6q358 0 536.5 -154t178.5 -452q0 -193 -86.5 -337t-251.5 -223t-395 -79q-58 0 -163.5 3t-160.5 3q-183 0 -278 -6v41q69 3 100 16t42 48t11 112v811q0 78 -11.5 113t-42 47.5t-99.5 15.5v41q119 -7 218 -7zM548 102.5q10 -36.5 37 -51
t82 -14.5q157 0 247 67t127 196t37 331q0 199 -39.5 325t-130 189t-243.5 63q-54 0 -80.5 -14.5t-36.5 -51t-10 -110.5v-819q0 -74 10 -110.5zM882 1561.5q-109 -86.5 -174 -179.5h-37q-62 92 -172 178t-240 142l10 31q133 -23 260 -60t201 -74q62 37 166.5 74t212.5 60
l10 -31q-128 -54 -237 -140.5z" />
    <glyph glyph-name="dcroat" unicode="&#x111;" horiz-adv-x="1497" 
d="M289 1238l56 1q321 6 346 6q358 0 536.5 -154t178.5 -452q0 -193 -86.5 -337t-251.5 -223t-395 -79q-58 0 -163.5 3t-160.5 3q-183 0 -278 -6v41q69 3 100 16t42 48t11 112v389h-152v41h152v381q0 78 -11.5 113t-42 47.5t-99.5 15.5v41q119 -7 218 -7zM548 102.5
q10 -36.5 37 -51t82 -14.5q157 0 247 67t127 196t37 331q0 199 -39.5 325t-130 189t-243.5 63q-54 0 -80.5 -14.5t-36.5 -51t-10 -110.5v-385h265v-41h-265v-393q0 -74 10 -110.5z" />
    <glyph glyph-name="e" unicode="e" horiz-adv-x="1247" 
d="M1139 266q0 -118 14 -266q-133 6 -448 6q-422 0 -635 -6v41q69 3 100 16t42 48t11 112v811q0 77 -11.5 112t-42 48t-99.5 16v41q213 -6 635 -6q286 0 407 6q-14 -137 -14 -246q0 -80 6 -127h-47q-21 120 -62 191.5t-103.5 103t-150.5 31.5h-75q-53 0 -79.5 -9.5t-38 -37
t-11.5 -86.5v-418h96q95 0 142.5 66.5t64.5 154.5h47q-7 -80 -7 -159l1 -82q0 -92 12 -242h-47q-15 97 -65 159t-148 62h-96v-426q0 -59 11.5 -86.5t38 -37t79.5 -9.5h88q97 0 165 35.5t112.5 116t66.5 215.5h47q-6 -58 -6 -148z" />
    <glyph glyph-name="eacute" unicode="&#xe9;" horiz-adv-x="1247" 
d="M1140 266q0 -118 14 -266q-133 6 -448 6q-422 0 -635 -6v41q69 3 100 16t42 48t11 112v811q0 77 -11.5 112t-42 48t-99.5 16v41q213 -6 635 -6q286 0 407 6q-14 -137 -14 -246q0 -80 6 -127h-47q-21 120 -62 191.5t-103.5 103t-150.5 31.5h-75q-53 0 -79.5 -9.5t-38 -37
t-11.5 -86.5v-418h96q95 0 142.5 66.5t64.5 154.5h47q-7 -80 -7 -159l1 -82q0 -92 12 -242h-47q-15 97 -65 159t-148 62h-96v-426q0 -59 11.5 -86.5t38 -37t79.5 -9.5h88q97 0 165 35.5t112.5 116t66.5 215.5h47q-6 -58 -6 -148zM551.5 1535q44.5 44 110 114.5t112.5 95.5
q30 16 62 16t60.5 -16t43.5 -45q11 -24 11 -47q0 -31 -17.5 -59t-51.5 -46q-46 -25 -121 -44t-142.5 -37t-162.5 -54l-14 25q65 53 109.5 97z" />
    <glyph glyph-name="ebreve" unicode="&#x115;" horiz-adv-x="1247" 
d="M1140 266q0 -118 14 -266q-133 6 -448 6q-422 0 -635 -6v41q69 3 100 16t42 48t11 112v811q0 77 -11.5 112t-42 48t-99.5 16v41q213 -6 635 -6q286 0 407 6q-14 -137 -14 -246q0 -80 6 -127h-47q-21 120 -62 191.5t-103.5 103t-150.5 31.5h-75q-53 0 -79.5 -9.5t-38 -37
t-11.5 -86.5v-418h96q95 0 142.5 66.5t64.5 154.5h47q-7 -80 -7 -159l1 -82q0 -92 12 -242h-47q-15 97 -65 159t-148 62h-96v-426q0 -59 11.5 -86.5t38 -37t79.5 -9.5h88q97 0 165 35.5t112.5 116t66.5 215.5h47q-6 -58 -6 -148zM976 1544q-60 -62 -150.5 -102.5
t-206.5 -40.5t-206.5 40.5t-150.5 102.5t-92 131l25 21q65 -51 171 -87t253 -36t252 36.5t172 88.5l24 -23q-31 -69 -91 -131z" />
    <glyph glyph-name="ecaron" unicode="&#x11b;" horiz-adv-x="1247" 
d="M1140 266q0 -118 14 -266q-133 6 -448 6q-422 0 -635 -6v41q69 3 100 16t42 48t11 112v811q0 77 -11.5 112t-42 48t-99.5 16v41q213 -6 635 -6q286 0 407 6q-14 -137 -14 -246q0 -80 6 -127h-47q-21 120 -62 191.5t-103.5 103t-150.5 31.5h-75q-53 0 -79.5 -9.5t-38 -37
t-11.5 -86.5v-418h96q95 0 142.5 66.5t64.5 154.5h47q-7 -80 -7 -159l1 -82q0 -92 12 -242h-47q-15 97 -65 159t-148 62h-96v-426q0 -59 11.5 -86.5t38 -37t79.5 -9.5h88q97 0 165 35.5t112.5 116t66.5 215.5h47q-6 -58 -6 -148zM812 1561.5q-109 -86.5 -174 -179.5h-37
q-62 92 -172 178t-240 142l10 31q133 -23 260 -60t201 -74q62 37 166.5 74t212.5 60l10 -31q-128 -54 -237 -140.5z" />
    <glyph glyph-name="ecircumflex" unicode="&#xea;" horiz-adv-x="1247" 
d="M1140 266q0 -118 14 -266q-133 6 -448 6q-422 0 -635 -6v41q69 3 100 16t42 48t11 112v811q0 77 -11.5 112t-42 48t-99.5 16v41q213 -6 635 -6q286 0 407 6q-14 -137 -14 -246q0 -80 6 -127h-47q-21 120 -62 191.5t-103.5 103t-150.5 31.5h-75q-53 0 -79.5 -9.5t-38 -37
t-11.5 -86.5v-418h96q95 0 142.5 66.5t64.5 154.5h47q-7 -80 -7 -159l1 -82q0 -92 12 -242h-47q-15 97 -65 159t-148 62h-96v-426q0 -59 11.5 -86.5t38 -37t79.5 -9.5h88q97 0 165 35.5t112.5 116t66.5 215.5h47q-6 -58 -6 -148zM814 1571.5q110 -86.5 239 -141.5l-10 -31
q-132 25 -258.5 61.5t-202.5 71.5q-63 -35 -167 -71.5t-212 -61.5l-10 31q129 55 238.5 141t173.5 178h37q62 -91 172 -177.5z" />
    <glyph glyph-name="edieresis" unicode="&#xeb;" horiz-adv-x="1247" 
d="M1140 266q0 -118 14 -266q-133 6 -448 6q-422 0 -635 -6v41q69 3 100 16t42 48t11 112v811q0 77 -11.5 112t-42 48t-99.5 16v41q213 -6 635 -6q286 0 407 6q-14 -137 -14 -246q0 -80 6 -127h-47q-21 120 -62 191.5t-103.5 103t-150.5 31.5h-75q-53 0 -79.5 -9.5t-38 -37
t-11.5 -86.5v-418h96q95 0 142.5 66.5t64.5 154.5h47q-7 -80 -7 -159l1 -82q0 -92 12 -242h-47q-15 97 -65 159t-148 62h-96v-426q0 -59 11.5 -86.5t38 -37t79.5 -9.5h88q97 0 165 35.5t112.5 116t66.5 215.5h47q-6 -58 -6 -148zM451 1719q36 -22 58 -58t22 -76
q0 -41 -22 -76t-58 -56t-76 -21q-41 0 -76.5 20.5t-56 56t-20.5 76.5q0 40 21 76t56 58t76 22q40 0 76 -22zM942.5 1719q35.5 -22 56.5 -58t21 -76q0 -41 -21 -76.5t-56.5 -56t-75.5 -20.5q-42 0 -78 20.5t-57 56t-21 76.5t21 77t57 57.5t78 21.5q40 0 75.5 -22z" />
    <glyph glyph-name="edotaccent" unicode="&#x117;" horiz-adv-x="1247" 
d="M1140 266q0 -118 14 -266q-133 6 -448 6q-422 0 -635 -6v41q69 3 100 16t42 48t11 112v811q0 77 -11.5 112t-42 48t-99.5 16v41q213 -6 635 -6q286 0 407 6q-14 -137 -14 -246q0 -80 6 -127h-47q-21 120 -62 191.5t-103.5 103t-150.5 31.5h-75q-53 0 -79.5 -9.5t-38 -37
t-11.5 -86.5v-418h96q95 0 142.5 66.5t64.5 154.5h47q-7 -80 -7 -159l1 -82q0 -92 12 -242h-47q-15 97 -65 159t-148 62h-96v-426q0 -59 11.5 -86.5t38 -37t79.5 -9.5h88q97 0 165 35.5t112.5 116t66.5 215.5h47q-6 -58 -6 -148zM747 1702.5q47 -42.5 47 -117.5
q0 -73 -47 -115.5t-127 -42.5q-82 0 -128 42t-46 116q0 76 46 118t128 42q80 0 127 -42.5z" />
    <glyph glyph-name="egrave" unicode="&#xe8;" horiz-adv-x="1247" 
d="M1140 266q0 -118 14 -266q-133 6 -448 6q-422 0 -635 -6v41q69 3 100 16t42 48t11 112v811q0 77 -11.5 112t-42 48t-99.5 16v41q213 -6 635 -6q286 0 407 6q-14 -137 -14 -246q0 -80 6 -127h-47q-21 120 -62 191.5t-103.5 103t-150.5 31.5h-75q-53 0 -79.5 -9.5t-38 -37
t-11.5 -86.5v-418h96q95 0 142.5 66.5t64.5 154.5h47q-7 -80 -7 -159l1 -82q0 -92 12 -242h-47q-15 97 -65 159t-148 62h-96v-426q0 -59 11.5 -86.5t38 -37t79.5 -9.5h88q97 0 165 35.5t112.5 116t66.5 215.5h47q-6 -58 -6 -148zM604.5 1459q-59.5 17 -152.5 40.5t-138 48.5
q-33 18 -51 45.5t-18 58.5q0 26 12 48q15 29 42.5 45t60.5 16q32 0 62 -16q32 -17 59 -41.5t102 -105.5t171 -160l-14 -25q-76 29 -135.5 46z" />
    <glyph glyph-name="emacron" unicode="&#x113;" horiz-adv-x="1247" 
d="M1140 266q0 -118 14 -266q-133 6 -448 6q-422 0 -635 -6v41q69 3 100 16t42 48t11 112v811q0 77 -11.5 112t-42 48t-99.5 16v41q213 -6 635 -6q286 0 407 6q-14 -137 -14 -246q0 -80 6 -127h-47q-21 120 -62 191.5t-103.5 103t-150.5 31.5h-75q-53 0 -79.5 -9.5t-38 -37
t-11.5 -86.5v-418h96q95 0 142.5 66.5t64.5 154.5h47q-7 -80 -7 -159l1 -82q0 -92 12 -242h-47q-15 97 -65 159t-148 62h-96v-426q0 -59 11.5 -86.5t38 -37t79.5 -9.5h88q97 0 165 35.5t112.5 116t66.5 215.5h47q-6 -58 -6 -148zM207 1530v51h819v-51h-819z" />
    <glyph glyph-name="eogonek" unicode="&#x119;" horiz-adv-x="1247" 
d="M1140 266q0 -118 14 -266q-133 6 -448 6q-422 0 -635 -6v41q69 3 100 16t42 48t11 112v811q0 77 -11.5 112t-42 48t-99.5 16v41q213 -6 635 -6q286 0 407 6q-14 -137 -14 -246q0 -80 6 -127h-47q-21 120 -62 191.5t-103.5 103t-150.5 31.5h-75q-53 0 -79.5 -9.5t-38 -37
t-11.5 -86.5v-418h96q95 0 142.5 66.5t64.5 154.5h47q-7 -80 -7 -159l1 -82q0 -92 12 -242h-47q-15 97 -65 159t-148 62h-96v-426q0 -59 11.5 -86.5t38 -37t79.5 -9.5h88q97 0 165 35.5t112.5 116t66.5 215.5h47q-6 -58 -6 -148zM958.5 -82.5q-54.5 -53.5 -54.5 -105.5
q0 -84 86 -84q35 0 71.5 15.5t59.5 39.5l27 -29q-54 -73 -121 -106t-159 -33q-89 0 -138 37.5t-49 103.5q0 84 96.5 148.5t272.5 101.5h78q-115 -35 -169.5 -88.5z" />
    <glyph glyph-name="f" unicode="f" horiz-adv-x="1159" 
d="M705 1239q286 0 407 6q-14 -137 -14 -246q0 -80 6 -127h-47q-21 120 -62 191.5t-103.5 103t-150.5 31.5h-75q-53 0 -79.5 -9.5t-38 -37t-11.5 -86.5v-418h96q95 0 142.5 66.5t64.5 154.5h47q-7 -80 -7 -159l1 -82q0 -92 12 -242h-47q-15 97 -65 159t-148 62h-96v-377
q0 -77 19 -115.5t64.5 -54t135.5 -18.5v-41q-126 6 -363 6q-219 0 -323 -6v41q69 3 100 16t42 48t11 112v811q0 77 -11.5 112t-42 48t-99.5 16v41q213 -6 635 -6z" />
    <glyph glyph-name="g" unicode="g" horiz-adv-x="1436" 
d="M1212 76q-30 0 -102 -37q-56 -25 -138.5 -46.5t-176.5 -21.5q-222 0 -381 74.5t-242.5 215.5t-83.5 337q0 205 90 358t251 235.5t368 82.5q85 0 148 -17.5t107.5 -44t104.5 -71.5q25 -20 41 -20q40 0 51 124h47q-8 -117 -8 -409h-47q-32 158 -102 241q-64 69 -129 106.5
t-156 37.5q-134 0 -233 -74t-152 -209.5t-53 -316.5q0 -314 102 -461.5t305 -147.5q67 0 117 29q43 25 43 88v190q0 85 -15 124.5t-54.5 54.5t-125.5 18v41q134 -6 338 -6q173 0 263 6v-41q-43 -3 -61.5 -15.5t-25 -47t-6.5 -113.5v-340h-41q-8 76 -43 76z" />
    <glyph glyph-name="gacute" unicode="&#x1f5;" horiz-adv-x="1436" 
d="M1213 76q-30 0 -102 -37q-56 -25 -138.5 -46.5t-176.5 -21.5q-222 0 -381 74.5t-242.5 215.5t-83.5 337q0 205 90 358t251 235.5t368 82.5q85 0 148 -17.5t107.5 -44t104.5 -71.5q25 -20 41 -20q40 0 51 124h47q-8 -117 -8 -409h-47q-32 158 -102 241q-64 69 -129 106.5
t-156 37.5q-134 0 -233 -74t-152 -209.5t-53 -316.5q0 -314 102 -461.5t305 -147.5q67 0 117 29q43 25 43 88v190q0 85 -15 124.5t-54.5 54.5t-125.5 18v41q134 -6 338 -6q173 0 263 6v-41q-43 -3 -61.5 -15.5t-25 -47t-6.5 -113.5v-340h-41q-8 76 -43 76zM712.5 1535
q44.5 44 110 114.5t112.5 95.5q30 16 62 16t60.5 -16t43.5 -45q11 -24 11 -47q0 -31 -17.5 -59t-51.5 -46q-46 -25 -121 -44t-142.5 -37t-162.5 -54l-14 25q65 53 109.5 97z" />
    <glyph glyph-name="gbreve" unicode="&#x11f;" horiz-adv-x="1436" 
d="M1213 76q-30 0 -102 -37q-56 -25 -138.5 -46.5t-176.5 -21.5q-222 0 -381 74.5t-242.5 215.5t-83.5 337q0 205 90 358t251 235.5t368 82.5q85 0 148 -17.5t107.5 -44t104.5 -71.5q25 -20 41 -20q40 0 51 124h47q-8 -117 -8 -409h-47q-32 158 -102 241q-64 69 -129 106.5
t-156 37.5q-134 0 -233 -74t-152 -209.5t-53 -316.5q0 -314 102 -461.5t305 -147.5q67 0 117 29q43 25 43 88v190q0 85 -15 124.5t-54.5 54.5t-125.5 18v41q134 -6 338 -6q173 0 263 6v-41q-43 -3 -61.5 -15.5t-25 -47t-6.5 -113.5v-340h-41q-8 76 -43 76zM1137 1544
q-60 -62 -150.5 -102.5t-206.5 -40.5t-206.5 40.5t-150.5 102.5t-92 131l25 21q65 -51 171 -87t253 -36t252 36.5t172 88.5l24 -23q-31 -69 -91 -131z" />
    <glyph glyph-name="gcircumflex" unicode="&#x11d;" horiz-adv-x="1436" 
d="M1213 76q-30 0 -102 -37q-56 -25 -138.5 -46.5t-176.5 -21.5q-222 0 -381 74.5t-242.5 215.5t-83.5 337q0 205 90 358t251 235.5t368 82.5q85 0 148 -17.5t107.5 -44t104.5 -71.5q25 -20 41 -20q40 0 51 124h47q-8 -117 -8 -409h-47q-32 158 -102 241q-64 69 -129 106.5
t-156 37.5q-134 0 -233 -74t-152 -209.5t-53 -316.5q0 -314 102 -461.5t305 -147.5q67 0 117 29q43 25 43 88v190q0 85 -15 124.5t-54.5 54.5t-125.5 18v41q134 -6 338 -6q173 0 263 6v-41q-43 -3 -61.5 -15.5t-25 -47t-6.5 -113.5v-340h-41q-8 76 -43 76zM975 1571.5
q110 -86.5 239 -141.5l-10 -31q-132 25 -258.5 61.5t-202.5 71.5q-63 -35 -167 -71.5t-212 -61.5l-10 31q129 55 238.5 141t173.5 178h37q62 -91 172 -177.5z" />
    <glyph glyph-name="gcommaaccent" unicode="&#x123;" horiz-adv-x="1436" 
d="M1213 76q-30 0 -102 -37q-56 -25 -138.5 -46.5t-176.5 -21.5q-222 0 -381 74.5t-242.5 215.5t-83.5 337q0 205 90 358t251 235.5t368 82.5q85 0 148 -17.5t107.5 -44t104.5 -71.5q25 -20 41 -20q40 0 51 124h47q-8 -117 -8 -409h-47q-32 158 -102 241q-64 69 -129 106.5
t-156 37.5q-134 0 -233 -74t-152 -209.5t-53 -316.5q0 -314 102 -461.5t305 -147.5q67 0 117 29q43 25 43 88v190q0 85 -15 124.5t-54.5 54.5t-125.5 18v41q134 -6 338 -6q173 0 263 6v-41q-43 -3 -61.5 -15.5t-25 -47t-6.5 -113.5v-340h-41q-8 76 -43 76zM899 -342
q-37 -33 -100 -33q-67 0 -106.5 33.5t-39.5 95.5q0 63 42 98t114 35q74 0 121 -42t47 -115q0 -93 -58 -152t-176 -76l-8 43q152 24 164 113z" />
    <glyph glyph-name="gdotaccent" unicode="&#x121;" horiz-adv-x="1436" 
d="M1213 76q-30 0 -102 -37q-56 -25 -138.5 -46.5t-176.5 -21.5q-222 0 -381 74.5t-242.5 215.5t-83.5 337q0 205 90 358t251 235.5t368 82.5q85 0 148 -17.5t107.5 -44t104.5 -71.5q25 -20 41 -20q40 0 51 124h47q-8 -117 -8 -409h-47q-32 158 -102 241q-64 69 -129 106.5
t-156 37.5q-134 0 -233 -74t-152 -209.5t-53 -316.5q0 -314 102 -461.5t305 -147.5q67 0 117 29q43 25 43 88v190q0 85 -15 124.5t-54.5 54.5t-125.5 18v41q134 -6 338 -6q173 0 263 6v-41q-43 -3 -61.5 -15.5t-25 -47t-6.5 -113.5v-340h-41q-8 76 -43 76zM940 1702.5
q47 -42.5 47 -117.5q0 -73 -47 -115.5t-127 -42.5q-82 0 -128 42t-46 116q0 76 46 118t128 42q80 0 127 -42.5z" />
    <glyph glyph-name="h" unicode="h" horiz-adv-x="1599" 
d="M1429.5 1188q-30.5 -13 -42 -47.5t-11.5 -112.5v-811q0 -77 11.5 -112t43 -48t99.5 -16v-41q-96 6 -299 6q-208 0 -322 -6v41q69 3 100 16t42.5 48t11.5 112v397h-526v-397q0 -77 11.5 -112t42.5 -48t99 -16v-41q-114 6 -321 6q-201 0 -299 -6v41q69 3 100 16t42 48
t11 112v811q0 77 -11.5 112t-42 48t-99.5 16v41q98 -6 299 -6q207 0 321 6v-41q-70 -3 -100.5 -16t-41.5 -47.5t-11 -112.5v-373h526v373q0 77 -11.5 112t-42.5 48t-100 16v41q114 -6 322 -6q203 0 299 6v-41q-70 -3 -100.5 -16z" />
    <glyph glyph-name="hbar" unicode="&#x127;" horiz-adv-x="1599" 
d="M1429.5 1188q-30.5 -13 -42 -47.5t-11.5 -112.5v-80h154v-41h-154v-690q0 -77 11.5 -112t43 -48t99.5 -16v-41q-96 6 -299 6q-208 0 -322 -6v41q69 3 100 16t42.5 48t11.5 112v397h-526v-397q0 -77 11.5 -112t42.5 -48t99 -16v-41q-114 6 -321 6q-201 0 -299 -6v41
q69 3 100 16t42 48t11 112v690h-153v41h153v80q0 77 -11.5 112t-42 48t-99.5 16v41q98 -6 299 -6q207 0 321 6v-41q-70 -3 -100.5 -16t-41.5 -47.5t-11 -112.5v-80h526v80q0 77 -11.5 112t-42.5 48t-100 16v41q114 -6 322 -6q203 0 299 6v-41q-70 -3 -100.5 -16zM537 907
v-252h526v252h-526z" />
    <glyph glyph-name="hcircumflex" unicode="&#x125;" horiz-adv-x="1599" 
d="M1430.5 1188q-30.5 -13 -42 -47.5t-11.5 -112.5v-811q0 -77 11.5 -112t43 -48t99.5 -16v-41q-96 6 -299 6q-208 0 -322 -6v41q69 3 100 16t42.5 48t11.5 112v397h-526v-397q0 -77 11.5 -112t42.5 -48t99 -16v-41q-114 6 -321 6q-201 0 -299 -6v41q69 3 100 16t42 48
t11 112v811q0 77 -11.5 112t-42 48t-99.5 16v41q98 -6 299 -6q207 0 321 6v-41q-70 -3 -100.5 -16t-41.5 -47.5t-11 -112.5v-373h526v373q0 77 -11.5 112t-42.5 48t-100 16v41q114 -6 322 -6q203 0 299 6v-41q-70 -3 -100.5 -16zM1000 1571.5q110 -86.5 239 -141.5l-10 -31
q-132 25 -258.5 61.5t-202.5 71.5q-63 -35 -167 -71.5t-212 -61.5l-10 31q129 55 238.5 141t173.5 178h37q62 -91 172 -177.5z" />
    <glyph glyph-name="i" unicode="i" horiz-adv-x="760" 
d="M589.5 1188q-30.5 -13 -41.5 -47.5t-11 -112.5v-811q0 -77 11 -112t42 -48t100 -16v-41q-103 6 -303 6q-216 0 -317 -6v41q69 3 100 16t42 48t11 112v811q0 77 -11.5 112t-42 48t-99.5 16v41q100 -6 317 -6q200 0 303 6v-41q-70 -3 -100.5 -16z" />
    <glyph glyph-name="iacute" unicode="&#xed;" horiz-adv-x="760" 
d="M590.5 1188q-30.5 -13 -41.5 -47.5t-11 -112.5v-811q0 -77 11 -112t42 -48t100 -16v-41q-103 6 -303 6q-216 0 -317 -6v41q69 3 100 16t42 48t11 112v811q0 77 -11.5 112t-42 48t-99.5 16v41q100 -6 317 -6q200 0 303 6v-41q-70 -3 -100.5 -16zM311.5 1535
q44.5 44 110 114.5t112.5 95.5q30 16 62 16t60.5 -16t43.5 -45q11 -24 11 -47q0 -31 -17.5 -59t-51.5 -46q-46 -25 -121 -44t-142.5 -37t-162.5 -54l-14 25q65 53 109.5 97z" />
    <glyph glyph-name="ibreve" unicode="&#x12d;" horiz-adv-x="760" 
d="M590.5 1188q-30.5 -13 -41.5 -47.5t-11 -112.5v-811q0 -77 11 -112t42 -48t100 -16v-41q-103 6 -303 6q-216 0 -317 -6v41q69 3 100 16t42 48t11 112v811q0 77 -11.5 112t-42 48t-99.5 16v41q100 -6 317 -6q200 0 303 6v-41q-70 -3 -100.5 -16zM737 1544
q-60 -62 -150.5 -102.5t-206.5 -40.5t-206.5 40.5t-150.5 102.5t-92 131l25 21q65 -51 171 -87t253 -36t252 36.5t172 88.5l24 -23q-31 -69 -91 -131z" />
    <glyph glyph-name="icircumflex" unicode="&#xee;" horiz-adv-x="760" 
d="M590.5 1188q-30.5 -13 -41.5 -47.5t-11 -112.5v-811q0 -77 11 -112t42 -48t100 -16v-41q-103 6 -303 6q-216 0 -317 -6v41q69 3 100 16t42 48t11 112v811q0 77 -11.5 112t-42 48t-99.5 16v41q100 -6 317 -6q200 0 303 6v-41q-70 -3 -100.5 -16zM575 1571.5
q110 -86.5 239 -141.5l-10 -31q-132 25 -258.5 61.5t-202.5 71.5q-63 -35 -167 -71.5t-212 -61.5l-10 31q129 55 238.5 141t173.5 178h37q62 -91 172 -177.5z" />
    <glyph glyph-name="idieresis" unicode="&#xef;" horiz-adv-x="760" 
d="M590.5 1188q-30.5 -13 -41.5 -47.5t-11 -112.5v-811q0 -77 11 -112t42 -48t100 -16v-41q-103 6 -303 6q-216 0 -317 -6v41q69 3 100 16t42 48t11 112v811q0 77 -11.5 112t-42 48t-99.5 16v41q100 -6 317 -6q200 0 303 6v-41q-70 -3 -100.5 -16zM212 1719q36 -22 58 -58
t22 -76q0 -41 -22 -76t-58 -56t-76 -21q-41 0 -76.5 20.5t-56 56t-20.5 76.5q0 40 21 76t56 58t76 22q40 0 76 -22zM703.5 1719q35.5 -22 56.5 -58t21 -76q0 -41 -21 -76.5t-56.5 -56t-75.5 -20.5q-42 0 -78 20.5t-57 56t-21 76.5t21 77t57 57.5t78 21.5q40 0 75.5 -22z" />
    <glyph glyph-name="i.loclTRK" horiz-adv-x="760" 
d="M590.5 1188q-30.5 -13 -41.5 -47.5t-11 -112.5v-811q0 -77 11 -112t42 -48t100 -16v-41q-103 6 -303 6q-216 0 -317 -6v41q69 3 100 16t42 48t11 112v811q0 77 -11.5 112t-42 48t-99.5 16v41q100 -6 317 -6q200 0 303 6v-41q-70 -3 -100.5 -16zM507 1702.5
q47 -42.5 47 -117.5q0 -73 -47 -115.5t-127 -42.5q-82 0 -128 42t-46 116q0 76 46 118t128 42q80 0 127 -42.5z" />
    <glyph glyph-name="igrave" unicode="&#xec;" horiz-adv-x="760" 
d="M590.5 1188q-30.5 -13 -41.5 -47.5t-11 -112.5v-811q0 -77 11 -112t42 -48t100 -16v-41q-103 6 -303 6q-216 0 -317 -6v41q69 3 100 16t42 48t11 112v811q0 77 -11.5 112t-42 48t-99.5 16v41q100 -6 317 -6q200 0 303 6v-41q-70 -3 -100.5 -16zM365.5 1459
q-59.5 17 -152.5 40.5t-138 48.5q-33 18 -51 45.5t-18 58.5q0 26 12 48q15 29 42.5 45t60.5 16q32 0 62 -16q32 -17 59 -41.5t102 -105.5t171 -160l-14 -25q-76 29 -135.5 46z" />
    <glyph glyph-name="ij" unicode="&#x133;" horiz-adv-x="1477" 
d="M590.5 1188q-30.5 -13 -41.5 -47.5t-11 -112.5v-811q0 -77 11 -112t42 -48t100 -16v-41q-103 6 -303 6q-216 0 -317 -6v41q69 3 100 16t42 48t11 112v811q0 77 -11.5 112t-42 48t-99.5 16v41q100 -6 317 -6q200 0 303 6v-41q-70 -3 -100.5 -16zM1320.5 1188
q-30.5 -13 -42 -47.5t-11.5 -112.5v-545v-91q0 -146 -6.5 -256t-28.5 -187q-27 -96 -93 -171t-167 -118t-229 -43q-124 0 -193 37q-83 42 -83 131q0 60 44 96.5t115 36.5q69 0 110.5 -34t41.5 -95q0 -40 -24 -74.5t-68 -54.5q28 -4 55 -4q102 0 158 106q30 49 42.5 131.5
t12.5 239.5v895q0 77 -11.5 112t-42.5 48t-100 16v41q99 -6 299 -6q208 0 322 6v-41q-70 -3 -100.5 -16z" />
    <glyph glyph-name="imacron" unicode="&#x12b;" horiz-adv-x="760" 
d="M590.5 1188q-30.5 -13 -41.5 -47.5t-11 -112.5v-811q0 -77 11 -112t42 -48t100 -16v-41q-103 6 -303 6q-216 0 -317 -6v41q69 3 100 16t42 48t11 112v811q0 77 -11.5 112t-42 48t-99.5 16v41q100 -6 317 -6q200 0 303 6v-41q-70 -3 -100.5 -16zM-32 1530v51h819v-51h-819
z" />
    <glyph glyph-name="iogonek" unicode="&#x12f;" horiz-adv-x="760" 
d="M590.5 1188q-30.5 -13 -41.5 -47.5t-11 -112.5v-811q0 -77 11 -112t42 -48t100 -16v-41q-103 6 -303 6q-216 0 -317 -6v41q69 3 100 16t42 48t11 112v811q0 77 -11.5 112t-42 48t-99.5 16v41q100 -6 317 -6q200 0 303 6v-41q-70 -3 -100.5 -16zM496.5 -82.5
q-54.5 -53.5 -54.5 -105.5q0 -84 86 -84q35 0 71.5 15.5t59.5 39.5l27 -29q-54 -73 -121 -106t-159 -33q-89 0 -138 37.5t-49 103.5q0 84 96.5 148.5t272.5 101.5h78q-115 -35 -169.5 -88.5z" />
    <glyph glyph-name="itilde" unicode="&#x129;" horiz-adv-x="760" 
d="M590.5 1188q-30.5 -13 -41.5 -47.5t-11 -112.5v-811q0 -77 11 -112t42 -48t100 -16v-41q-103 6 -303 6q-216 0 -317 -6v41q69 3 100 16t42 48t11 112v811q0 77 -11.5 112t-42 48t-99.5 16v41q100 -6 317 -6q200 0 303 6v-41q-70 -3 -100.5 -16zM29.5 1672
q72.5 69 168.5 69q67 0 118.5 -19.5t143.5 -72t168 -52.5q111 0 177 113l30 -14q-33 -136 -105 -205.5t-167 -69.5q-67 0 -118 19.5t-144 73t-170 53.5q-111 0 -176 -113l-31 12q33 137 105.5 206z" />
    <glyph glyph-name="j" unicode="j" horiz-adv-x="733" 
d="M577.5 1188q-30.5 -13 -42 -47.5t-11.5 -112.5v-545v-91q0 -146 -6.5 -256t-28.5 -187q-27 -96 -93 -171t-167 -118t-229 -43q-124 0 -193 37q-83 42 -83 131q0 60 44 96.5t115 36.5q69 0 110.5 -34t41.5 -95q0 -40 -24 -74.5t-68 -54.5q28 -4 55 -4q102 0 158 106
q30 49 42.5 131.5t12.5 239.5v895q0 77 -11.5 112t-42.5 48t-100 16v41q99 -6 299 -6q208 0 322 6v-41q-70 -3 -100.5 -16z" />
    <glyph glyph-name="jcircumflex" unicode="&#x135;" horiz-adv-x="733" 
d="M577.5 1188q-30.5 -13 -42 -47.5t-11.5 -112.5v-545v-91q0 -146 -6.5 -256t-28.5 -187q-27 -96 -93 -171t-167 -118t-229 -43q-124 0 -193 37q-83 42 -83 131q0 60 44 96.5t115 36.5q69 0 110.5 -34t41.5 -95q0 -40 -24 -74.5t-68 -54.5q28 -4 55 -4q102 0 158 106
q30 49 42.5 131.5t12.5 239.5v895q0 77 -11.5 112t-42.5 48t-100 16v41q99 -6 299 -6q208 0 322 6v-41q-70 -3 -100.5 -16zM545 1571.5q110 -86.5 239 -141.5l-10 -31q-132 25 -258.5 61.5t-202.5 71.5q-63 -35 -167 -71.5t-212 -61.5l-10 31q129 55 238.5 141t173.5 178h37
q62 -91 172 -177.5z" />
    <glyph glyph-name="k" unicode="k" horiz-adv-x="1458" 
d="M1391.5 88.5q28.5 -27.5 70.5 -47.5v-41q-141 6 -313 6q-145 0 -279 -6v41q66 3 93 11.5t27 27.5q0 17 -23 53l-269 385q-36 51 -70.5 75.5t-90.5 27.5v-404q0 -77 11 -112t42 -48t100 -16v-41q-104 6 -303 6q-214 0 -317 -6v41q69 3 100 16t42 48t11 112v811
q0 77 -11.5 112t-42 48t-99.5 16v41q103 -6 317 -6q199 0 303 6v-41q-70 -3 -100.5 -16t-41.5 -47.5t-11 -112.5v-365q88 7 161 43.5t158 116.5l125 127q79 73 79 142q0 49 -42 80t-111 34v39q149 -6 316 -6q109 0 182 6v-39q-72 -17 -137.5 -56t-141.5 -112l-251 -248
l448 -624q40 -50 68.5 -77.5z" />
    <glyph glyph-name="kcommaaccent" unicode="&#x137;" horiz-adv-x="1458" 
d="M1392.5 88.5q28.5 -27.5 70.5 -47.5v-41q-141 6 -313 6q-145 0 -279 -6v41q66 3 93 11.5t27 27.5q0 17 -23 53l-269 385q-36 51 -70.5 75.5t-90.5 27.5v-404q0 -77 11 -112t42 -48t100 -16v-41q-104 6 -303 6q-214 0 -317 -6v41q69 3 100 16t42 48t11 112v811
q0 77 -11.5 112t-42 48t-99.5 16v41q103 -6 317 -6q199 0 303 6v-41q-70 -3 -100.5 -16t-41.5 -47.5t-11 -112.5v-365q88 7 161 43.5t158 116.5l125 127q79 73 79 142q0 49 -42 80t-111 34v39q149 -6 316 -6q109 0 182 6v-39q-72 -17 -137.5 -56t-141.5 -112l-251 -248
l448 -624q40 -50 68.5 -77.5zM880 -342q-37 -33 -100 -33q-67 0 -106.5 33.5t-39.5 95.5q0 63 42 98t114 35q74 0 121 -42t47 -115q0 -93 -58 -152t-176 -76l-8 43q152 24 164 113z" />
    <glyph glyph-name="l" unicode="l" horiz-adv-x="1206" 
d="M589.5 1188q-30.5 -13 -41.5 -47.5t-11 -112.5v-835q0 -64 11.5 -94.5t38 -41t79.5 -10.5h79q136 0 228.5 97.5t124.5 314.5h47q-6 -67 -6 -168q0 -127 14 -291q-133 6 -448 6q-422 0 -635 -6v41q69 3 100 16t42 48t11 112v811q0 77 -11.5 112t-42 48t-99.5 16v41
q103 -6 323 -6q194 0 297 6v-41q-70 -3 -100.5 -16z" />
    <glyph glyph-name="lacute" unicode="&#x13a;" horiz-adv-x="1206" 
d="M590.5 1188q-30.5 -13 -41.5 -47.5t-11 -112.5v-835q0 -64 11.5 -94.5t38 -41t79.5 -10.5h79q136 0 228.5 97.5t124.5 314.5h47q-6 -67 -6 -168q0 -127 14 -291q-133 6 -448 6q-422 0 -635 -6v41q69 3 100 16t42 48t11 112v811q0 77 -11.5 112t-42 48t-99.5 16v41
q103 -6 323 -6q194 0 297 6v-41q-70 -3 -100.5 -16zM324.5 1535q44.5 44 110 114.5t112.5 95.5q30 16 62 16t60.5 -16t43.5 -45q11 -24 11 -47q0 -31 -17.5 -59t-51.5 -46q-46 -25 -121 -44t-142.5 -37t-162.5 -54l-14 25q65 53 109.5 97z" />
    <glyph glyph-name="lcaron" unicode="&#x13e;" horiz-adv-x="1206" 
d="M590.5 1188q-30.5 -13 -41.5 -47.5t-11 -112.5v-835q0 -64 11.5 -94.5t38 -41t79.5 -10.5h79q136 0 228.5 97.5t124.5 314.5h47q-6 -67 -6 -168q0 -127 14 -291q-133 6 -448 6q-422 0 -635 -6v41q69 3 100 16t42 48t11 112v811q0 77 -11.5 112t-42 48t-99.5 16v41
q103 -6 323 -6q194 0 297 6v-41q-70 -3 -100.5 -16zM870 1241q88 0 168 16q11 -22 11 -73q0 -41 -27.5 -95.5t-69.5 -114.5t-139 -192l-28 9q41 261 41 329q0 43 -13 62.5t-49 19.5v43q55 -4 106 -4z" />
    <glyph glyph-name="lcommaaccent" unicode="&#x13c;" horiz-adv-x="1206" 
d="M590.5 1188q-30.5 -13 -41.5 -47.5t-11 -112.5v-835q0 -64 11.5 -94.5t38 -41t79.5 -10.5h79q136 0 228.5 97.5t124.5 314.5h47q-6 -67 -6 -168q0 -127 14 -291q-133 6 -448 6q-422 0 -635 -6v41q69 3 100 16t42 48t11 112v811q0 77 -11.5 112t-42 48t-99.5 16v41
q103 -6 323 -6q194 0 297 6v-41q-70 -3 -100.5 -16zM753 -342q-37 -33 -100 -33q-67 0 -106.5 33.5t-39.5 95.5q0 63 42 98t114 35q74 0 121 -42t47 -115q0 -93 -58 -152t-176 -76l-8 43q152 24 164 113z" />
    <glyph glyph-name="ldot" unicode="&#x140;" horiz-adv-x="1231" 
d="M589.5 1188q-30.5 -13 -41.5 -47.5t-11 -112.5v-835q0 -64 11.5 -94.5t38 -41t79.5 -10.5h79q136 0 228.5 97.5t124.5 314.5h47q-6 -67 -6 -168q0 -127 14 -291q-133 6 -448 6q-422 0 -635 -6v41q69 3 100 16t42 48t11 112v811q0 77 -11.5 112t-42 48t-99.5 16v41
q103 -6 323 -6q194 0 297 6v-41q-70 -3 -100.5 -16zM1135 849.5q47 -42.5 47 -115.5t-47 -115.5t-128 -42.5q-80 0 -127 42.5t-47 115.5t47 115.5t127 42.5q81 0 128 -42.5z" />
    <glyph glyph-name="lslash" unicode="&#x142;" horiz-adv-x="1206" 
d="M1140 291q0 -127 14 -291q-133 6 -448 6q-422 0 -635 -6v41q69 3 100 16t42 48t11 112v207l-152 -86v47l152 86v557q0 77 -11.5 112t-42 48t-99.5 16v41q103 -6 323 -6q193 0 297 6v-41q-70 -3 -100.5 -16t-41.5 -47.5t-11 -112.5v-424l355 201v-47l-355 -201v-364
q0 -64 11.5 -94.5t38 -41t79.5 -10.5h79q136 0 228.5 97.5t124.5 314.5h47q-6 -67 -6 -168z" />
    <glyph glyph-name="m" unicode="m" horiz-adv-x="1806" 
d="M1635.5 1188q-33.5 -13 -46 -48t-12.5 -112v-811q0 -77 12.5 -112t46 -48t107.5 -16v-41q-111 6 -309 6q-238 0 -349 -6v41q74 3 107.5 16t46 48t12.5 112v899l-469 -1126h-32l-476 1124v-840q0 -90 16.5 -135.5t60 -67t134.5 -30.5v-41q-88 6 -233 6q-113 0 -178 -6v41
q67 9 99 30.5t43 66.5t11 136v754q0 77 -12.5 112t-46 48t-107.5 16v41q108 -6 326 -6q105 0 182 6l340 -817l342 811h183q198 0 309 6v-41q-74 -3 -107.5 -16z" />
    <glyph glyph-name="n" unicode="n" horiz-adv-x="1413" 
d="M1255 1173.5q-32 -21.5 -43.5 -66.5t-11.5 -136v-975q-18 1 -55 1q-36 0 -53 -1l-820 1018v-740q0 -91 16 -136t59.5 -66.5t135.5 -30.5v-41q-91 6 -233 6q-113 0 -178 -6v41q67 9 99 30.5t43 66.5t11 136v754q0 77 -11.5 112t-42 48t-99.5 16v41q65 -6 178 -6
q145 0 250 6l653 -811v537q0 90 -16.5 135.5t-60 67t-134.5 30.5v41q89 -6 234 -6q114 0 178 6v-41q-67 -9 -99 -30.5z" />
    <glyph glyph-name="nacute" unicode="&#x144;" horiz-adv-x="1413" 
d="M1256 1173.5q-32 -21.5 -43.5 -66.5t-11.5 -136v-975q-18 1 -55 1q-36 0 -53 -1l-820 1018v-740q0 -91 16 -136t59.5 -66.5t135.5 -30.5v-41q-91 6 -233 6q-113 0 -178 -6v41q67 9 99 30.5t43 66.5t11 136v754q0 77 -11.5 112t-42 48t-99.5 16v41q65 -6 178 -6
q145 0 250 6l653 -811v537q0 90 -16.5 135.5t-60 67t-134.5 30.5v41q89 -6 234 -6q114 0 178 6v-41q-67 -9 -99 -30.5zM691.5 1535q44.5 44 110 114.5t112.5 95.5q30 16 62 16t60.5 -16t43.5 -45q11 -24 11 -47q0 -31 -17.5 -59t-51.5 -46q-46 -25 -121 -44t-142.5 -37
t-162.5 -54l-14 25q65 53 109.5 97z" />
    <glyph glyph-name="ncaron" unicode="&#x148;" horiz-adv-x="1413" 
d="M1256 1173.5q-32 -21.5 -43.5 -66.5t-11.5 -136v-975q-18 1 -55 1q-36 0 -53 -1l-820 1018v-740q0 -91 16 -136t59.5 -66.5t135.5 -30.5v-41q-91 6 -233 6q-113 0 -178 -6v41q67 9 99 30.5t43 66.5t11 136v754q0 77 -11.5 112t-42 48t-99.5 16v41q65 -6 178 -6
q145 0 250 6l653 -811v537q0 90 -16.5 135.5t-60 67t-134.5 30.5v41q89 -6 234 -6q114 0 178 6v-41q-67 -9 -99 -30.5zM952 1561.5q-109 -86.5 -174 -179.5h-37q-62 92 -172 178t-240 142l10 31q133 -23 260 -60t201 -74q62 37 166.5 74t212.5 60l10 -31
q-128 -54 -237 -140.5z" />
    <glyph glyph-name="ncommaaccent" unicode="&#x146;" horiz-adv-x="1413" 
d="M1256 1173.5q-32 -21.5 -43.5 -66.5t-11.5 -136v-975q-18 1 -55 1q-36 0 -53 -1l-820 1018v-740q0 -91 16 -136t59.5 -66.5t135.5 -30.5v-41q-91 6 -233 6q-113 0 -178 -6v41q67 9 99 30.5t43 66.5t11 136v754q0 77 -11.5 112t-42 48t-99.5 16v41q65 -6 178 -6
q145 0 250 6l653 -811v537q0 90 -16.5 135.5t-60 67t-134.5 30.5v41q89 -6 234 -6q114 0 178 6v-41q-67 -9 -99 -30.5zM816 -342q-37 -33 -100 -33q-67 0 -106.5 33.5t-39.5 95.5q0 63 42 98t114 35q74 0 121 -42t47 -115q0 -93 -58 -152t-176 -76l-8 43q152 24 164 113z
" />
    <glyph glyph-name="eng" unicode="&#x14b;" horiz-adv-x="1409" 
d="M1174 1239q113 0 178 6v-41q-69 -3 -100 -16t-42.5 -48t-11.5 -112v-897q0 -205 -35 -318t-99 -155.5t-163 -42.5q-105 0 -171 41t-66 123q0 64 43.5 100.5t115.5 36.5q68 0 110 -34.5t42 -92.5q0 -41 -24 -77t-68 -56q12 -2 41 -2q107 0 161.5 86t63.5 261
q-40 -2 -59 -5l-820 1018v-797q0 -77 12.5 -112t46 -48t107.5 -16v-41q-74 6 -188 6q-113 0 -178 -6v41q69 3 100 16t42 48t11 112v811q0 77 -11.5 112t-42 48t-99.5 16v41q65 -6 178 -6q145 0 250 6l653 -811v594q0 77 -12.5 112t-46 48t-107.5 16v41q73 -6 189 -6z" />
    <glyph glyph-name="ntilde" unicode="&#xf1;" horiz-adv-x="1413" 
d="M1256 1173.5q-32 -21.5 -43.5 -66.5t-11.5 -136v-975q-18 1 -55 1q-36 0 -53 -1l-820 1018v-740q0 -91 16 -136t59.5 -66.5t135.5 -30.5v-41q-91 6 -233 6q-113 0 -178 -6v41q67 9 99 30.5t43 66.5t11 136v754q0 77 -11.5 112t-42 48t-99.5 16v41q65 -6 178 -6
q145 0 250 6l653 -811v537q0 90 -16.5 135.5t-60 67t-134.5 30.5v41q89 -6 234 -6q114 0 178 6v-41q-67 -9 -99 -30.5zM408.5 1672q72.5 69 168.5 69q67 0 118.5 -19.5t143.5 -72t168 -52.5q111 0 177 113l30 -14q-33 -136 -105 -205.5t-167 -69.5q-67 0 -118 19.5t-144 73
t-170 53.5q-111 0 -176 -113l-31 12q33 137 105.5 206z" />
    <glyph glyph-name="o" unicode="o" horiz-adv-x="1554" 
d="M1141 1198.5q156 -75.5 241.5 -219.5t85.5 -344q0 -196 -88 -346.5t-245.5 -234t-358.5 -83.5q-207 0 -363 75.5t-241.5 219.5t-85.5 344q0 196 88 347t245.5 234t358.5 83q207 0 363 -75.5zM582.5 1158.5q-80.5 -78.5 -124.5 -219t-44 -321.5q0 -182 49.5 -320.5
t134 -214t186.5 -75.5q107 0 188 78.5t125 219t44 321.5q0 182 -49.5 321t-134 214t-187.5 75q-107 0 -187.5 -78.5z" />
    <glyph glyph-name="oacute" unicode="&#xf3;" horiz-adv-x="1554" 
d="M1142 1198.5q156 -75.5 241.5 -219.5t85.5 -344q0 -196 -88 -346.5t-245.5 -234t-358.5 -83.5q-207 0 -363 75.5t-241.5 219.5t-85.5 344q0 196 88 347t245.5 234t358.5 83q207 0 363 -75.5zM583.5 1158.5q-80.5 -78.5 -124.5 -219t-44 -321.5q0 -182 49.5 -320.5
t134 -214t186.5 -75.5q107 0 188 78.5t125 219t44 321.5q0 182 -49.5 321t-134 214t-187.5 75q-107 0 -187.5 -78.5zM705.5 1535q44.5 44 110 114.5t112.5 95.5q30 16 62 16t60.5 -16t43.5 -45q11 -24 11 -47q0 -31 -17.5 -59t-51.5 -46q-46 -25 -121 -44t-142.5 -37
t-162.5 -54l-14 25q65 53 109.5 97z" />
    <glyph glyph-name="obreve" unicode="&#x14f;" horiz-adv-x="1554" 
d="M1142 1198.5q156 -75.5 241.5 -219.5t85.5 -344q0 -196 -88 -346.5t-245.5 -234t-358.5 -83.5q-207 0 -363 75.5t-241.5 219.5t-85.5 344q0 196 88 347t245.5 234t358.5 83q207 0 363 -75.5zM583.5 1158.5q-80.5 -78.5 -124.5 -219t-44 -321.5q0 -182 49.5 -320.5
t134 -214t186.5 -75.5q107 0 188 78.5t125 219t44 321.5q0 182 -49.5 321t-134 214t-187.5 75q-107 0 -187.5 -78.5zM1130 1544q-60 -62 -150.5 -102.5t-206.5 -40.5t-206.5 40.5t-150.5 102.5t-92 131l25 21q65 -51 171 -87t253 -36t252 36.5t172 88.5l24 -23
q-31 -69 -91 -131z" />
    <glyph glyph-name="ocircumflex" unicode="&#xf4;" horiz-adv-x="1554" 
d="M1142 1198.5q156 -75.5 241.5 -219.5t85.5 -344q0 -196 -88 -346.5t-245.5 -234t-358.5 -83.5q-207 0 -363 75.5t-241.5 219.5t-85.5 344q0 196 88 347t245.5 234t358.5 83q207 0 363 -75.5zM583.5 1158.5q-80.5 -78.5 -124.5 -219t-44 -321.5q0 -182 49.5 -320.5
t134 -214t186.5 -75.5q107 0 188 78.5t125 219t44 321.5q0 182 -49.5 321t-134 214t-187.5 75q-107 0 -187.5 -78.5zM968 1571.5q110 -86.5 239 -141.5l-10 -31q-132 25 -258.5 61.5t-202.5 71.5q-63 -35 -167 -71.5t-212 -61.5l-10 31q129 55 238.5 141t173.5 178h37
q62 -91 172 -177.5z" />
    <glyph glyph-name="odieresis" unicode="&#xf6;" horiz-adv-x="1554" 
d="M1142 1198.5q156 -75.5 241.5 -219.5t85.5 -344q0 -196 -88 -346.5t-245.5 -234t-358.5 -83.5q-207 0 -363 75.5t-241.5 219.5t-85.5 344q0 196 88 347t245.5 234t358.5 83q207 0 363 -75.5zM583.5 1158.5q-80.5 -78.5 -124.5 -219t-44 -321.5q0 -182 49.5 -320.5
t134 -214t186.5 -75.5q107 0 188 78.5t125 219t44 321.5q0 182 -49.5 321t-134 214t-187.5 75q-107 0 -187.5 -78.5zM605 1719q36 -22 58 -58t22 -76q0 -41 -22 -76t-58 -56t-76 -21q-41 0 -76.5 20.5t-56 56t-20.5 76.5q0 40 21 76t56 58t76 22q40 0 76 -22zM1096.5 1719
q35.5 -22 56.5 -58t21 -76q0 -41 -21 -76.5t-56.5 -56t-75.5 -20.5q-42 0 -78 20.5t-57 56t-21 76.5t21 77t57 57.5t78 21.5q40 0 75.5 -22z" />
    <glyph glyph-name="ograve" unicode="&#xf2;" horiz-adv-x="1554" 
d="M1142 1198.5q156 -75.5 241.5 -219.5t85.5 -344q0 -196 -88 -346.5t-245.5 -234t-358.5 -83.5q-207 0 -363 75.5t-241.5 219.5t-85.5 344q0 196 88 347t245.5 234t358.5 83q207 0 363 -75.5zM583.5 1158.5q-80.5 -78.5 -124.5 -219t-44 -321.5q0 -182 49.5 -320.5
t134 -214t186.5 -75.5q107 0 188 78.5t125 219t44 321.5q0 182 -49.5 321t-134 214t-187.5 75q-107 0 -187.5 -78.5zM758.5 1459q-59.5 17 -152.5 40.5t-138 48.5q-33 18 -51 45.5t-18 58.5q0 26 12 48q15 29 42.5 45t60.5 16q32 0 62 -16q32 -17 59 -41.5t102 -105.5
t171 -160l-14 -25q-76 29 -135.5 46z" />
    <glyph glyph-name="ohungarumlaut" unicode="&#x151;" horiz-adv-x="1554" 
d="M1142 1198.5q156 -75.5 241.5 -219.5t85.5 -344q0 -196 -88 -346.5t-245.5 -234t-358.5 -83.5q-207 0 -363 75.5t-241.5 219.5t-85.5 344q0 196 88 347t245.5 234t358.5 83q207 0 363 -75.5zM583.5 1158.5q-80.5 -78.5 -124.5 -219t-44 -321.5q0 -182 49.5 -320.5
t134 -214t186.5 -75.5q107 0 188 78.5t125 219t44 321.5q0 182 -49.5 321t-134 214t-187.5 75q-107 0 -187.5 -78.5zM567 1609.5q52 73.5 79.5 110.5t58.5 62q33 26 75 26q59 0 93 -47q21 -30 21 -62q0 -56 -56 -97q-27 -20 -59.5 -35t-128.5 -52.5t-189 -84.5l-21 22
q75 84 127 157.5zM999 1609q52 74 79.5 111t58.5 62q33 26 75 26q59 0 93 -47q22 -29 22 -62q0 -55 -57 -97q-27 -20 -59.5 -35t-128.5 -52.5t-189 -84.5l-20 22q74 83 126 157z" />
    <glyph glyph-name="omacron" unicode="&#x14d;" horiz-adv-x="1554" 
d="M1142 1198.5q156 -75.5 241.5 -219.5t85.5 -344q0 -196 -88 -346.5t-245.5 -234t-358.5 -83.5q-207 0 -363 75.5t-241.5 219.5t-85.5 344q0 196 88 347t245.5 234t358.5 83q207 0 363 -75.5zM583.5 1158.5q-80.5 -78.5 -124.5 -219t-44 -321.5q0 -182 49.5 -320.5
t134 -214t186.5 -75.5q107 0 188 78.5t125 219t44 321.5q0 182 -49.5 321t-134 214t-187.5 75q-107 0 -187.5 -78.5zM361 1530v51h819v-51h-819z" />
    <glyph glyph-name="oslash" unicode="&#xf8;" horiz-adv-x="1554" 
d="M1396.5 955.5q72.5 -136.5 72.5 -320.5q0 -196 -88 -346.5t-245.5 -234t-358.5 -83.5q-205 0 -360 74l-141 -192l-40 28l136 187q-136 80 -210.5 218t-74.5 324q0 196 88 347t245.5 234t358.5 83q212 0 369 -78l136 197l39 -27l-132 -194q133 -80 205.5 -216.5z
M922.5 1190q-70.5 47 -151.5 47q-107 0 -187.5 -78.5t-124.5 -219t-44 -321.5q0 -232 80 -395l549 832q-51 88 -121.5 135zM641.5 50.5q67.5 -42.5 143.5 -42.5q107 0 188 78.5t125 219t44 321.5q0 220 -72 378l-546 -832q50 -80 117.5 -122.5z" />
    <glyph glyph-name="otilde" unicode="&#xf5;" horiz-adv-x="1554" 
d="M1142 1198.5q156 -75.5 241.5 -219.5t85.5 -344q0 -196 -88 -346.5t-245.5 -234t-358.5 -83.5q-207 0 -363 75.5t-241.5 219.5t-85.5 344q0 196 88 347t245.5 234t358.5 83q207 0 363 -75.5zM583.5 1158.5q-80.5 -78.5 -124.5 -219t-44 -321.5q0 -182 49.5 -320.5
t134 -214t186.5 -75.5q107 0 188 78.5t125 219t44 321.5q0 182 -49.5 321t-134 214t-187.5 75q-107 0 -187.5 -78.5zM422.5 1672q72.5 69 168.5 69q67 0 118.5 -19.5t143.5 -72t168 -52.5q111 0 177 113l30 -14q-33 -136 -105 -205.5t-167 -69.5q-67 0 -118 19.5t-144 73
t-170 53.5q-111 0 -176 -113l-31 12q33 137 105.5 206z" />
    <glyph glyph-name="oe" unicode="&#x153;" horiz-adv-x="1946" 
d="M1837 266q0 -118 14 -266q-131 6 -440 6q-326 0 -510 -4q-88 -31 -164 -31q-206 0 -351.5 75t-221.5 218.5t-76 345.5q0 197 81 347.5t228.5 233.5t341.5 83q90 0 181 -31q182 -4 491 -4q281 0 399 6q-14 -137 -14 -246q0 -80 6 -127h-47q-24 176 -88.5 251t-177.5 75
h-51q-58 0 -87 -12t-42 -47.5t-13 -110.5v-381h60q79 0 110.5 47t43.5 97.5t16 64.5h47q-7 -80 -7 -152l1 -77q0 -80 12 -230h-47q-15 73 -30 114t-49.5 68t-96.5 27h-60v-389q0 -74 13 -110t42 -48t87 -12h63q94 0 151.5 35t91 114t52.5 218h47q-6 -58 -6 -148zM946.5 1149
q-36.5 47 -93.5 67.5t-122 20.5q-96 0 -167 -74t-109.5 -213.5t-38.5 -331.5q0 -193 43.5 -331t118 -208.5t167.5 -70.5q57 0 112 23t90.5 70.5t35.5 115.5v811q0 74 -36.5 121z" />
    <glyph glyph-name="p" unicode="p" horiz-adv-x="1262" 
d="M537 217q0 -77 12.5 -112t45.5 -48t107 -16v-41q-118 6 -346 6q-191 0 -286 -6v41q69 3 100 16t42 48t11 112v811q0 77 -11.5 112t-42 48t-99.5 16v41q94 -6 274 -6q88 0 196.5 2t149.5 2q267 0 397 -89t130 -253q0 -104 -54 -193t-186.5 -146.5t-351.5 -57.5h-88v-287z
M828 634.5q61 89.5 61 244.5q0 166 -52 245.5t-173 79.5q-54 0 -80.5 -14.5t-36.5 -51.5t-10 -110v-483h67q163 0 224 89.5z" />
    <glyph glyph-name="thorn" unicode="&#xfe;" horiz-adv-x="1229" 
d="M537 217q0 -77 11 -112t42 -48t100 -16v-41q-104 6 -303 6q-217 0 -317 -6v41q69 3 100 16t42 48t11 112v811q0 77 -11.5 112t-42 48t-99.5 16v41q100 -6 317 -6q199 0 303 6v-41q-70 -3 -100.5 -16t-41.5 -47.5t-11 -112.5v-26l122 2q173 0 291.5 -43t177 -120
t58.5 -179q0 -99 -54.5 -189t-187 -149.5t-350.5 -59.5h-57v-47zM790.5 398q67.5 93 67.5 241q0 326 -250 326h-71v-660h36q150 0 217.5 93z" />
    <glyph glyph-name="q" unicode="q" horiz-adv-x="1556" 
d="M1566.5 -306.5q-109.5 -78.5 -282.5 -78.5q-146 0 -287 40t-310 104.5t-234 86.5q-89 -43 -172 -43q-44 0 -70.5 13.5t-26.5 40.5q0 55 113 55q77 0 156 -29q40 10 73 23t84 35.5t81 33.5q-183 15 -319 94.5t-210 217t-74 323.5q0 196 88 347t245.5 234t358.5 83
q207 0 363 -75.5t241.5 -219.5t85.5 -344q0 -186 -79.5 -331.5t-222.5 -231.5t-328 -99q-50 -5 -90.5 -18t-112 -43t-125.5 -43q16 -2 57 -2q39 0 136 5t143 5q23 0 59 -2q94 -4 197 -21t167.5 -26.5t127.5 -9.5q84 0 138.5 12t89.5 38t61 69l30 -15q-42 -150 -151.5 -228.5
zM465.5 297.5q49.5 -138.5 134 -214t186.5 -75.5q107 0 188 78.5t125 219t44 321.5q0 182 -49.5 321t-134 214t-187.5 75q-107 0 -187.5 -78.5t-124.5 -219t-44 -321.5q0 -182 49.5 -320.5z" />
    <glyph glyph-name="r" unicode="r" 
d="M1283.5 0q-61.5 -29 -153.5 -29q-115 0 -179 45.5t-83 120.5l-59 242q-16 78 -42 119t-64 56t-99 15h-67v-352q0 -77 11.5 -112t42.5 -48t99 -16v-41q-117 6 -334 6q-192 0 -286 -6v41q69 3 100 16t42 48t11 112v811q0 78 -11.5 113t-42 47.5t-99.5 15.5v41q94 -6 274 -6
q83 0 185 2t141 2q275 0 411 -83t136 -230q0 -80 -43.5 -151.5t-149 -124t-279.5 -69.5q30 -2 60 -7q147 -18 232.5 -66t111.5 -156l43 -182q13 -58 33.5 -82t52.5 -24q43 0 88 45l29 -27q-50 -57 -111.5 -86zM787.5 648q58.5 38 80 102.5t21.5 156.5q0 149 -57 223t-189 74
q-45 0 -67 -14.5t-30.5 -51.5t-8.5 -110v-418h88q104 0 162.5 38z" />
    <glyph glyph-name="racute" unicode="&#x155;" 
d="M1284.5 0q-61.5 -29 -153.5 -29q-115 0 -179 45.5t-83 120.5l-59 242q-16 78 -42 119t-64 56t-99 15h-67v-352q0 -77 11.5 -112t42.5 -48t99 -16v-41q-117 6 -334 6q-192 0 -286 -6v41q69 3 100 16t42 48t11 112v811q0 78 -11.5 113t-42 47.5t-99.5 15.5v41q94 -6 274 -6
q83 0 185 2t141 2q275 0 411 -83t136 -230q0 -80 -43.5 -151.5t-149 -124t-279.5 -69.5q30 -2 60 -7q147 -18 232.5 -66t111.5 -156l43 -182q13 -58 33.5 -82t52.5 -24q43 0 88 45l29 -27q-50 -57 -111.5 -86zM788.5 648q58.5 38 80 102.5t21.5 156.5q0 149 -57 223t-189 74
q-45 0 -67 -14.5t-30.5 -51.5t-8.5 -110v-418h88q104 0 162.5 38zM619.5 1535q44.5 44 110 114.5t112.5 95.5q30 16 62 16t60.5 -16t43.5 -45q11 -24 11 -47q0 -31 -17.5 -59t-51.5 -46q-46 -25 -121 -44t-142.5 -37t-162.5 -54l-14 25q65 53 109.5 97z" />
    <glyph glyph-name="rcaron" unicode="&#x159;" 
d="M1284.5 0q-61.5 -29 -153.5 -29q-115 0 -179 45.5t-83 120.5l-59 242q-16 78 -42 119t-64 56t-99 15h-67v-352q0 -77 11.5 -112t42.5 -48t99 -16v-41q-117 6 -334 6q-192 0 -286 -6v41q69 3 100 16t42 48t11 112v811q0 78 -11.5 113t-42 47.5t-99.5 15.5v41q94 -6 274 -6
q83 0 185 2t141 2q275 0 411 -83t136 -230q0 -80 -43.5 -151.5t-149 -124t-279.5 -69.5q30 -2 60 -7q147 -18 232.5 -66t111.5 -156l43 -182q13 -58 33.5 -82t52.5 -24q43 0 88 45l29 -27q-50 -57 -111.5 -86zM788.5 648q58.5 38 80 102.5t21.5 156.5q0 149 -57 223t-189 74
q-45 0 -67 -14.5t-30.5 -51.5t-8.5 -110v-418h88q104 0 162.5 38zM880 1561.5q-109 -86.5 -174 -179.5h-37q-62 92 -172 178t-240 142l10 31q133 -23 260 -60t201 -74q62 37 166.5 74t212.5 60l10 -31q-128 -54 -237 -140.5z" />
    <glyph glyph-name="rcommaaccent" unicode="&#x157;" 
d="M1284.5 0q-61.5 -29 -153.5 -29q-115 0 -179 45.5t-83 120.5l-59 242q-16 78 -42 119t-64 56t-99 15h-67v-352q0 -77 11.5 -112t42.5 -48t99 -16v-41q-117 6 -334 6q-192 0 -286 -6v41q69 3 100 16t42 48t11 112v811q0 78 -11.5 113t-42 47.5t-99.5 15.5v41q94 -6 274 -6
q83 0 185 2t141 2q275 0 411 -83t136 -230q0 -80 -43.5 -151.5t-149 -124t-279.5 -69.5q30 -2 60 -7q147 -18 232.5 -66t111.5 -156l43 -182q13 -58 33.5 -82t52.5 -24q43 0 88 45l29 -27q-50 -57 -111.5 -86zM788.5 648q58.5 38 80 102.5t21.5 156.5q0 149 -57 223t-189 74
q-45 0 -67 -14.5t-30.5 -51.5t-8.5 -110v-418h88q104 0 162.5 38zM810 -342q-37 -33 -100 -33q-67 0 -106.5 33.5t-39.5 95.5q0 63 42 98t114 35q74 0 121 -42t47 -115q0 -93 -58 -152t-176 -76l-8 43q152 24 164 113z" />
    <glyph glyph-name="s" unicode="s" horiz-adv-x="1184" 
d="M283 142.5q103 -124.5 292 -124.5q59 0 111 20t84.5 62t32.5 105q0 57 -31.5 102.5t-88 86.5t-161.5 102q-126 71 -210.5 133.5t-137.5 140.5t-53 172q0 107 61.5 182t168 112.5t241.5 37.5q94 0 160.5 -20.5t126.5 -55.5q29 -17 43 -23t26 -6q19 0 28.5 22t16.5 69h47
q-10 -123 -10 -426h-47q-22 184 -118.5 289.5t-252.5 105.5q-68 0 -119.5 -20.5t-79.5 -57t-28 -84.5q0 -61 40 -109.5t95 -85t195 -120.5q122 -69 200.5 -126t129.5 -133.5t51 -173.5q0 -112 -64.5 -190.5t-179 -118t-262.5 -39.5q-99 0 -170 22t-146 58q-50 25 -71 25
q-19 0 -29 -21.5t-16 -68.5h-47q8 115 8 499h47q14 -218 117 -342.5z" />
    <glyph glyph-name="sacute" unicode="&#x15b;" horiz-adv-x="1184" 
d="M284 142.5q103 -124.5 292 -124.5q59 0 111 20t84.5 62t32.5 105q0 57 -31.5 102.5t-88 86.5t-161.5 102q-126 71 -210.5 133.5t-137.5 140.5t-53 172q0 107 61.5 182t168 112.5t241.5 37.5q94 0 160.5 -20.5t126.5 -55.5q29 -17 43 -23t26 -6q19 0 28.5 22t16.5 69h47
q-10 -123 -10 -426h-47q-22 184 -118.5 289.5t-252.5 105.5q-68 0 -119.5 -20.5t-79.5 -57t-28 -84.5q0 -61 40 -109.5t95 -85t195 -120.5q122 -69 200.5 -126t129.5 -133.5t51 -173.5q0 -112 -64.5 -190.5t-179 -118t-262.5 -39.5q-99 0 -170 22t-146 58q-50 25 -71 25
q-19 0 -29 -21.5t-16 -68.5h-47q8 115 8 499h47q14 -218 117 -342.5zM536.5 1535q44.5 44 110 114.5t112.5 95.5q30 16 62 16t60.5 -16t43.5 -45q11 -24 11 -47q0 -31 -17.5 -59t-51.5 -46q-46 -25 -121 -44t-142.5 -37t-162.5 -54l-14 25q65 53 109.5 97z" />
    <glyph glyph-name="scaron" unicode="&#x161;" horiz-adv-x="1184" 
d="M284 142.5q103 -124.5 292 -124.5q59 0 111 20t84.5 62t32.5 105q0 57 -31.5 102.5t-88 86.5t-161.5 102q-126 71 -210.5 133.5t-137.5 140.5t-53 172q0 107 61.5 182t168 112.5t241.5 37.5q94 0 160.5 -20.5t126.5 -55.5q29 -17 43 -23t26 -6q19 0 28.5 22t16.5 69h47
q-10 -123 -10 -426h-47q-22 184 -118.5 289.5t-252.5 105.5q-68 0 -119.5 -20.5t-79.5 -57t-28 -84.5q0 -61 40 -109.5t95 -85t195 -120.5q122 -69 200.5 -126t129.5 -133.5t51 -173.5q0 -112 -64.5 -190.5t-179 -118t-262.5 -39.5q-99 0 -170 22t-146 58q-50 25 -71 25
q-19 0 -29 -21.5t-16 -68.5h-47q8 115 8 499h47q14 -218 117 -342.5zM797 1561.5q-109 -86.5 -174 -179.5h-37q-62 92 -172 178t-240 142l10 31q133 -23 260 -60t201 -74q62 37 166.5 74t212.5 60l10 -31q-128 -54 -237 -140.5z" />
    <glyph glyph-name="scedilla" unicode="&#x15f;" horiz-adv-x="1184" 
d="M284 142.5q103 -124.5 292 -124.5q59 0 111 20t84.5 62t32.5 105q0 57 -31.5 102.5t-88 86.5t-161.5 102q-126 71 -210.5 133.5t-137.5 140.5t-53 172q0 107 61.5 182t168 112.5t241.5 37.5q94 0 160.5 -20.5t126.5 -55.5q29 -17 43 -23t26 -6q19 0 28.5 22t16.5 69h47
q-10 -123 -10 -426h-47q-22 184 -118.5 289.5t-252.5 105.5q-68 0 -119.5 -20.5t-79.5 -57t-28 -84.5q0 -61 40 -109.5t95 -85t195 -120.5q122 -69 200.5 -126t129.5 -133.5t51 -173.5q0 -112 -64.5 -190.5t-179 -118t-262.5 -39.5q-99 0 -170 22t-146 58q-50 25 -71 25
q-19 0 -29 -21.5t-16 -68.5h-47q8 115 8 499h47q14 -218 117 -342.5zM723 -109q73 0 113 -30t40 -80q0 -83 -91.5 -124.5t-231.5 -41.5q-119 0 -191 25l11 36q72 -8 102 -8q75 0 130.5 20.5t55.5 63.5q0 53 -94 53q-48 0 -80 -14l66 219h55l-43 -143q70 24 158 24z" />
    <glyph glyph-name="scircumflex" unicode="&#x15d;" horiz-adv-x="1184" 
d="M284 142.5q103 -124.5 292 -124.5q59 0 111 20t84.5 62t32.5 105q0 57 -31.5 102.5t-88 86.5t-161.5 102q-126 71 -210.5 133.5t-137.5 140.5t-53 172q0 107 61.5 182t168 112.5t241.5 37.5q94 0 160.5 -20.5t126.5 -55.5q29 -17 43 -23t26 -6q19 0 28.5 22t16.5 69h47
q-10 -123 -10 -426h-47q-22 184 -118.5 289.5t-252.5 105.5q-68 0 -119.5 -20.5t-79.5 -57t-28 -84.5q0 -61 40 -109.5t95 -85t195 -120.5q122 -69 200.5 -126t129.5 -133.5t51 -173.5q0 -112 -64.5 -190.5t-179 -118t-262.5 -39.5q-99 0 -170 22t-146 58q-50 25 -71 25
q-19 0 -29 -21.5t-16 -68.5h-47q8 115 8 499h47q14 -218 117 -342.5zM799 1571.5q110 -86.5 239 -141.5l-10 -31q-132 25 -258.5 61.5t-202.5 71.5q-63 -35 -167 -71.5t-212 -61.5l-10 31q129 55 238.5 141t173.5 178h37q62 -91 172 -177.5z" />
    <glyph glyph-name="scommaaccent" unicode="&#x219;" horiz-adv-x="1184" 
d="M284 142.5q103 -124.5 292 -124.5q59 0 111 20t84.5 62t32.5 105q0 57 -31.5 102.5t-88 86.5t-161.5 102q-126 71 -210.5 133.5t-137.5 140.5t-53 172q0 107 61.5 182t168 112.5t241.5 37.5q94 0 160.5 -20.5t126.5 -55.5q29 -17 43 -23t26 -6q19 0 28.5 22t16.5 69h47
q-10 -123 -10 -426h-47q-22 184 -118.5 289.5t-252.5 105.5q-68 0 -119.5 -20.5t-79.5 -57t-28 -84.5q0 -61 40 -109.5t95 -85t195 -120.5q122 -69 200.5 -126t129.5 -133.5t51 -173.5q0 -112 -64.5 -190.5t-179 -118t-262.5 -39.5q-99 0 -170 22t-146 58q-50 25 -71 25
q-19 0 -29 -21.5t-16 -68.5h-47q8 115 8 499h47q14 -218 117 -342.5zM687 -342q-37 -33 -100 -33q-67 0 -106.5 33.5t-39.5 95.5q0 63 42 98t114 35q74 0 121 -42t47 -115q0 -93 -58 -152t-176 -76l-8 43q152 24 164 113z" />
    <glyph glyph-name="germandbls" unicode="&#xdf;" horiz-adv-x="1497" 
d="M337.5 1110q165.5 164 475.5 164q334 0 543 -158l-295 -397q177 -57 276 -151t99 -228q0 -106 -65.5 -190t-181 -131.5t-259.5 -47.5q-136 0 -219 39q-60 28 -89.5 78.5t-29.5 114.5q0 52 21 91.5t56.5 61t78.5 21.5q66 0 107.5 -45t41.5 -117q0 -65 -34.5 -111
t-88.5 -69q14 -10 42.5 -15.5t51.5 -5.5q65 0 116.5 38.5t81.5 114t30 181.5q0 330 -344 436l288 414q-31 20 -84.5 29.5t-103.5 9.5q-109 0 -186.5 -44.5t-122.5 -155.5t-45 -304v-516q0 -73 6.5 -108.5t25 -51t56.5 -16.5v-41q-31 0 -109 3t-166 3q-188 0 -293 -6v41
q68 3 99.5 16t43 48t11.5 112v391q0 338 165.5 502z" />
    <glyph glyph-name="t" unicode="t" horiz-adv-x="1329" 
d="M72 967q0 128 -15 278q179 -6 602 -6q433 0 613 6q-15 -165 -15 -278q0 -106 7 -181h-47q-29 155 -69 244t-102.5 128.5t-160.5 39.5h-64v-960q0 -85 16 -124.5t58 -54.5t133 -18v-41q-111 6 -369 6q-259 0 -358 -6v41q91 3 133 18t58 54.5t16 124.5v960h-64
q-98 0 -160.5 -39.5t-102.5 -128.5t-68 -244h-47q6 65 6 181z" />
    <glyph glyph-name="tbar" unicode="&#x167;" horiz-adv-x="1331" 
d="M73 967q0 128 -15 278q179 -6 602 -6q433 0 613 6q-15 -165 -15 -278q0 -106 7 -181h-47q-29 155 -69 244t-102.5 128.5t-160.5 39.5h-64v-551h212v-41h-212v-368q0 -85 16 -124.5t58 -54.5t133 -18v-41q-111 6 -369 6q-259 0 -358 -6v41q91 3 133 18t58 54.5t16 124.5
v368h-239v41h239v551h-64q-98 0 -160.5 -39.5t-102.5 -128.5t-68 -244h-47q6 65 6 181z" />
    <glyph glyph-name="tcaron" unicode="&#x165;" horiz-adv-x="1329" 
d="M73 967q0 128 -15 278q179 -6 602 -6q433 0 613 6q-15 -165 -15 -278q0 -106 7 -181h-47q-29 155 -69 244t-102.5 128.5t-160.5 39.5h-64v-960q0 -85 16 -124.5t58 -54.5t133 -18v-41q-111 6 -369 6q-259 0 -358 -6v41q91 3 133 18t58 54.5t16 124.5v960h-64
q-98 0 -160.5 -39.5t-102.5 -128.5t-68 -244h-47q6 65 6 181zM857 1561.5q-109 -86.5 -174 -179.5h-37q-62 92 -172 178t-240 142l10 31q133 -23 260 -60t201 -74q62 37 166.5 74t212.5 60l10 -31q-128 -54 -237 -140.5z" />
    <glyph glyph-name="tcedilla" unicode="&#x163;" horiz-adv-x="1329" 
d="M73 967q0 128 -15 278q179 -6 602 -6q433 0 613 6q-15 -165 -15 -278q0 -106 7 -181h-47q-29 155 -69 244t-102.5 128.5t-160.5 39.5h-64v-960q0 -85 16 -124.5t58 -54.5t133 -18v-41q-111 6 -369 6q-259 0 -358 -6v41q91 3 133 18t58 54.5t16 124.5v960h-64
q-98 0 -160.5 -39.5t-102.5 -128.5t-68 -244h-47q6 65 6 181zM812 -109q73 0 113 -30t40 -80q0 -83 -91.5 -124.5t-231.5 -41.5q-119 0 -191 25l11 36q72 -8 102 -8q75 0 130.5 20.5t55.5 63.5q0 53 -94 53q-48 0 -80 -14l66 219h55l-43 -143q70 24 158 24z" />
    <glyph glyph-name="uni021B" unicode="&#x21b;" horiz-adv-x="1329" 
d="M73 967q0 128 -15 278q179 -6 602 -6q433 0 613 6q-15 -165 -15 -278q0 -106 7 -181h-47q-29 155 -69 244t-102.5 128.5t-160.5 39.5h-64v-960q0 -85 16 -124.5t58 -54.5t133 -18v-41q-111 6 -369 6q-259 0 -358 -6v41q91 3 133 18t58 54.5t16 124.5v960h-64
q-98 0 -160.5 -39.5t-102.5 -128.5t-68 -244h-47q6 65 6 181zM747 -342q-37 -33 -100 -33q-67 0 -106.5 33.5t-39.5 95.5q0 63 42 98t114 35q74 0 121 -42t47 -115q0 -93 -58 -152t-176 -76l-8 43q152 24 164 113z" />
    <glyph glyph-name="u" unicode="u" 
d="M1232.5 1169.5q-34.5 -25.5 -46.5 -78t-12 -157.5v-379q0 -140 -19.5 -240t-64.5 -174q-50 -78 -147.5 -124t-219.5 -46q-229 0 -361 90q-71 54 -108.5 115.5t-52.5 148t-15 224.5v479q0 77 -11.5 112t-42 48t-99.5 16v41q100 -6 311 -6q200 0 309 6v-41
q-70 -3 -100.5 -16t-41.5 -47.5t-11 -112.5v-514q0 -148 19.5 -244.5t83.5 -155.5t188 -59q185 0 260 126t75 351v377q0 119 -14 176.5t-55 83.5t-129 35v41q80 -6 221 -6q122 0 190 6v-41q-72 -9 -106.5 -34.5z" />
    <glyph glyph-name="uacute" unicode="&#xfa;" 
d="M1233.5 1169.5q-34.5 -25.5 -46.5 -78t-12 -157.5v-379q0 -140 -19.5 -240t-64.5 -174q-50 -78 -147.5 -124t-219.5 -46q-229 0 -361 90q-71 54 -108.5 115.5t-52.5 148t-15 224.5v479q0 77 -11.5 112t-42 48t-99.5 16v41q100 -6 311 -6q200 0 309 6v-41
q-70 -3 -100.5 -16t-41.5 -47.5t-11 -112.5v-514q0 -148 19.5 -244.5t83.5 -155.5t188 -59q185 0 260 126t75 351v377q0 119 -14 176.5t-55 83.5t-129 35v41q80 -6 221 -6q122 0 190 6v-41q-72 -9 -106.5 -34.5zM631.5 1535q44.5 44 110 114.5t112.5 95.5q30 16 62 16
t60.5 -16t43.5 -45q11 -24 11 -47q0 -31 -17.5 -59t-51.5 -46q-46 -25 -121 -44t-142.5 -37t-162.5 -54l-14 25q65 53 109.5 97z" />
    <glyph glyph-name="ubreve" unicode="&#x16d;" 
d="M1233.5 1169.5q-34.5 -25.5 -46.5 -78t-12 -157.5v-379q0 -140 -19.5 -240t-64.5 -174q-50 -78 -147.5 -124t-219.5 -46q-229 0 -361 90q-71 54 -108.5 115.5t-52.5 148t-15 224.5v479q0 77 -11.5 112t-42 48t-99.5 16v41q100 -6 311 -6q200 0 309 6v-41
q-70 -3 -100.5 -16t-41.5 -47.5t-11 -112.5v-514q0 -148 19.5 -244.5t83.5 -155.5t188 -59q185 0 260 126t75 351v377q0 119 -14 176.5t-55 83.5t-129 35v41q80 -6 221 -6q122 0 190 6v-41q-72 -9 -106.5 -34.5zM1056 1544q-60 -62 -150.5 -102.5t-206.5 -40.5t-206.5 40.5
t-150.5 102.5t-92 131l25 21q65 -51 171 -87t253 -36t252 36.5t172 88.5l24 -23q-31 -69 -91 -131z" />
    <glyph glyph-name="ucircumflex" unicode="&#xfb;" 
d="M1233.5 1169.5q-34.5 -25.5 -46.5 -78t-12 -157.5v-379q0 -140 -19.5 -240t-64.5 -174q-50 -78 -147.5 -124t-219.5 -46q-229 0 -361 90q-71 54 -108.5 115.5t-52.5 148t-15 224.5v479q0 77 -11.5 112t-42 48t-99.5 16v41q100 -6 311 -6q200 0 309 6v-41
q-70 -3 -100.5 -16t-41.5 -47.5t-11 -112.5v-514q0 -148 19.5 -244.5t83.5 -155.5t188 -59q185 0 260 126t75 351v377q0 119 -14 176.5t-55 83.5t-129 35v41q80 -6 221 -6q122 0 190 6v-41q-72 -9 -106.5 -34.5zM894 1571.5q110 -86.5 239 -141.5l-10 -31
q-132 25 -258.5 61.5t-202.5 71.5q-63 -35 -167 -71.5t-212 -61.5l-10 31q129 55 238.5 141t173.5 178h37q62 -91 172 -177.5z" />
    <glyph glyph-name="udieresis" unicode="&#xfc;" 
d="M1233.5 1169.5q-34.5 -25.5 -46.5 -78t-12 -157.5v-379q0 -140 -19.5 -240t-64.5 -174q-50 -78 -147.5 -124t-219.5 -46q-229 0 -361 90q-71 54 -108.5 115.5t-52.5 148t-15 224.5v479q0 77 -11.5 112t-42 48t-99.5 16v41q100 -6 311 -6q200 0 309 6v-41
q-70 -3 -100.5 -16t-41.5 -47.5t-11 -112.5v-514q0 -148 19.5 -244.5t83.5 -155.5t188 -59q185 0 260 126t75 351v377q0 119 -14 176.5t-55 83.5t-129 35v41q80 -6 221 -6q122 0 190 6v-41q-72 -9 -106.5 -34.5zM531 1719q36 -22 58 -58t22 -76q0 -41 -22 -76t-58 -56
t-76 -21q-41 0 -76.5 20.5t-56 56t-20.5 76.5q0 40 21 76t56 58t76 22q40 0 76 -22zM1022.5 1719q35.5 -22 56.5 -58t21 -76q0 -41 -21 -76.5t-56.5 -56t-75.5 -20.5q-42 0 -78 20.5t-57 56t-21 76.5t21 77t57 57.5t78 21.5q40 0 75.5 -22z" />
    <glyph glyph-name="ugrave" unicode="&#xf9;" 
d="M1233.5 1169.5q-34.5 -25.5 -46.5 -78t-12 -157.5v-379q0 -140 -19.5 -240t-64.5 -174q-50 -78 -147.5 -124t-219.5 -46q-229 0 -361 90q-71 54 -108.5 115.5t-52.5 148t-15 224.5v479q0 77 -11.5 112t-42 48t-99.5 16v41q100 -6 311 -6q200 0 309 6v-41
q-70 -3 -100.5 -16t-41.5 -47.5t-11 -112.5v-514q0 -148 19.5 -244.5t83.5 -155.5t188 -59q185 0 260 126t75 351v377q0 119 -14 176.5t-55 83.5t-129 35v41q80 -6 221 -6q122 0 190 6v-41q-72 -9 -106.5 -34.5zM684.5 1459q-59.5 17 -152.5 40.5t-138 48.5q-33 18 -51 45.5
t-18 58.5q0 26 12 48q15 29 42.5 45t60.5 16q32 0 62 -16q32 -17 59 -41.5t102 -105.5t171 -160l-14 -25q-76 29 -135.5 46z" />
    <glyph glyph-name="uhungarumlaut" unicode="&#x171;" 
d="M1233.5 1169.5q-34.5 -25.5 -46.5 -78t-12 -157.5v-379q0 -140 -19.5 -240t-64.5 -174q-50 -78 -147.5 -124t-219.5 -46q-229 0 -361 90q-71 54 -108.5 115.5t-52.5 148t-15 224.5v479q0 77 -11.5 112t-42 48t-99.5 16v41q100 -6 311 -6q200 0 309 6v-41
q-70 -3 -100.5 -16t-41.5 -47.5t-11 -112.5v-514q0 -148 19.5 -244.5t83.5 -155.5t188 -59q185 0 260 126t75 351v377q0 119 -14 176.5t-55 83.5t-129 35v41q80 -6 221 -6q122 0 190 6v-41q-72 -9 -106.5 -34.5zM493 1609.5q52 73.5 79.5 110.5t58.5 62q33 26 75 26
q59 0 93 -47q21 -30 21 -62q0 -56 -56 -97q-27 -20 -59.5 -35t-128.5 -52.5t-189 -84.5l-21 22q75 84 127 157.5zM925 1609q52 74 79.5 111t58.5 62q33 26 75 26q59 0 93 -47q22 -29 22 -62q0 -55 -57 -97q-27 -20 -59.5 -35t-128.5 -52.5t-189 -84.5l-20 22q74 83 126 157z
" />
    <glyph glyph-name="umacron" unicode="&#x16b;" 
d="M1233.5 1169.5q-34.5 -25.5 -46.5 -78t-12 -157.5v-379q0 -140 -19.5 -240t-64.5 -174q-50 -78 -147.5 -124t-219.5 -46q-229 0 -361 90q-71 54 -108.5 115.5t-52.5 148t-15 224.5v479q0 77 -11.5 112t-42 48t-99.5 16v41q100 -6 311 -6q200 0 309 6v-41
q-70 -3 -100.5 -16t-41.5 -47.5t-11 -112.5v-514q0 -148 19.5 -244.5t83.5 -155.5t188 -59q185 0 260 126t75 351v377q0 119 -14 176.5t-55 83.5t-129 35v41q80 -6 221 -6q122 0 190 6v-41q-72 -9 -106.5 -34.5zM287 1530v51h819v-51h-819z" />
    <glyph glyph-name="uogonek" unicode="&#x173;" 
d="M1233.5 1169.5q-34.5 -25.5 -46.5 -78t-12 -157.5v-379q0 -140 -19.5 -240t-64.5 -174q-50 -78 -147.5 -124t-219.5 -46q-229 0 -361 90q-71 54 -108.5 115.5t-52.5 148t-15 224.5v479q0 77 -11.5 112t-42 48t-99.5 16v41q100 -6 311 -6q200 0 309 6v-41
q-70 -3 -100.5 -16t-41.5 -47.5t-11 -112.5v-514q0 -148 19.5 -244.5t83.5 -155.5t188 -59q185 0 260 126t75 351v377q0 119 -14 176.5t-55 83.5t-129 35v41q80 -6 221 -6q122 0 190 6v-41q-72 -9 -106.5 -34.5zM740.5 -82.5q-54.5 -53.5 -54.5 -105.5q0 -84 86 -84
q35 0 71.5 15.5t59.5 39.5l27 -29q-54 -73 -121 -106t-159 -33q-89 0 -138 37.5t-49 103.5q0 84 96.5 148.5t272.5 101.5h78q-115 -35 -169.5 -88.5z" />
    <glyph glyph-name="uring" unicode="&#x16f;" 
d="M1233.5 1169.5q-34.5 -25.5 -46.5 -78t-12 -157.5v-379q0 -140 -19.5 -240t-64.5 -174q-50 -78 -147.5 -124t-219.5 -46q-229 0 -361 90q-71 54 -108.5 115.5t-52.5 148t-15 224.5v479q0 77 -11.5 112t-42 48t-99.5 16v41q100 -6 311 -6q200 0 309 6v-41
q-70 -3 -100.5 -16t-41.5 -47.5t-11 -112.5v-514q0 -148 19.5 -244.5t83.5 -155.5t188 -59q185 0 260 126t75 351v377q0 119 -14 176.5t-55 83.5t-129 35v41q80 -6 221 -6q122 0 190 6v-41q-72 -9 -106.5 -34.5zM813.5 1759.5q51.5 -24.5 82 -69.5t30.5 -105t-30.5 -106
t-82 -70.5t-111.5 -24.5q-59 0 -109.5 24.5t-81 70.5t-30.5 106q0 59 30.5 104.5t81 70t109.5 24.5q60 0 111.5 -24.5zM624 1722.5q-38 -18.5 -62 -54.5t-24 -85t24 -84.5t61.5 -53.5t78.5 -18q42 0 80 18t62 53.5t24 84.5t-24 85t-62.5 54.5t-79.5 18.5q-40 0 -78 -18.5z
" />
    <glyph glyph-name="utilde" unicode="&#x169;" 
d="M1233.5 1169.5q-34.5 -25.5 -46.5 -78t-12 -157.5v-379q0 -140 -19.5 -240t-64.5 -174q-50 -78 -147.5 -124t-219.5 -46q-229 0 -361 90q-71 54 -108.5 115.5t-52.5 148t-15 224.5v479q0 77 -11.5 112t-42 48t-99.5 16v41q100 -6 311 -6q200 0 309 6v-41
q-70 -3 -100.5 -16t-41.5 -47.5t-11 -112.5v-514q0 -148 19.5 -244.5t83.5 -155.5t188 -59q185 0 260 126t75 351v377q0 119 -14 176.5t-55 83.5t-129 35v41q80 -6 221 -6q122 0 190 6v-41q-72 -9 -106.5 -34.5zM348.5 1672q72.5 69 168.5 69q67 0 118.5 -19.5t143.5 -72
t168 -52.5q111 0 177 113l30 -14q-33 -136 -105 -205.5t-167 -69.5q-67 0 -118 19.5t-144 73t-170 53.5q-111 0 -176 -113l-31 12q33 137 105.5 206z" />
    <glyph glyph-name="v" unicode="v" horiz-adv-x="1284" 
d="M1149 1239q92 0 149 6v-41q-53 -20 -98.5 -79t-93.5 -173l-401 -956q-24 3 -48 3q-23 0 -47 -3l-506 1077q-58 127 -129 131v41q96 -6 269 -6q219 0 323 6v-41q-68 -3 -100.5 -20.5t-32.5 -57.5q0 -35 27 -94l331 -717l205 482q66 160 66 253q0 78 -42.5 114.5
t-123.5 39.5v41q117 -6 252 -6z" />
    <glyph glyph-name="w" unicode="w" horiz-adv-x="1880" 
d="M1726 1239q107 0 166 6v-41q-112 -40 -190 -254l-344 -954q-22 3 -47 3q-23 0 -47 -3l-307 754l-302 -754q-24 3 -47 3t-47 -3l-457 1077q-56 127 -129 131v41q96 -6 269 -6q200 0 299 6v-41q-103 -6 -103 -84q0 -34 21 -88l278 -696l194 473l-108 264q-27 66 -61.5 97.5
t-67.5 33.5v41q96 -6 269 -6q209 0 311 6v-41q-68 -3 -98 -21t-30 -59q0 -35 21 -92l261 -700l161 456q59 164 59 258q0 81 -40.5 118t-118.5 40v41q117 -6 235 -6z" />
    <glyph glyph-name="wacute" unicode="&#x1e83;" horiz-adv-x="1880" 
d="M1726 1239q107 0 166 6v-41q-112 -40 -190 -254l-344 -954q-22 3 -47 3q-23 0 -47 -3l-307 754l-302 -754q-24 3 -47 3t-47 -3l-457 1077q-56 127 -129 131v41q96 -6 269 -6q200 0 299 6v-41q-103 -6 -103 -84q0 -34 21 -88l278 -696l194 473l-108 264q-27 66 -61.5 97.5
t-67.5 33.5v41q96 -6 269 -6q209 0 311 6v-41q-68 -3 -98 -21t-30 -59q0 -35 21 -92l261 -700l161 456q59 164 59 258q0 81 -40.5 118t-118.5 40v41q117 -6 235 -6zM907.5 1535q44.5 44 110 114.5t112.5 95.5q30 16 62 16t60.5 -16t43.5 -45q11 -24 11 -47q0 -31 -17.5 -59
t-51.5 -46q-46 -25 -121 -44t-142.5 -37t-162.5 -54l-14 25q65 53 109.5 97z" />
    <glyph glyph-name="wcircumflex" unicode="&#x175;" horiz-adv-x="1880" 
d="M1726 1239q107 0 166 6v-41q-112 -40 -190 -254l-344 -954q-22 3 -47 3q-23 0 -47 -3l-307 754l-302 -754q-24 3 -47 3t-47 -3l-457 1077q-56 127 -129 131v41q96 -6 269 -6q200 0 299 6v-41q-103 -6 -103 -84q0 -34 21 -88l278 -696l194 473l-108 264q-27 66 -61.5 97.5
t-67.5 33.5v41q96 -6 269 -6q209 0 311 6v-41q-68 -3 -98 -21t-30 -59q0 -35 21 -92l261 -700l161 456q59 164 59 258q0 81 -40.5 118t-118.5 40v41q117 -6 235 -6zM1170 1571.5q110 -86.5 239 -141.5l-10 -31q-132 25 -258.5 61.5t-202.5 71.5q-63 -35 -167 -71.5
t-212 -61.5l-10 31q129 55 238.5 141t173.5 178h37q62 -91 172 -177.5z" />
    <glyph glyph-name="wdieresis" unicode="&#x1e85;" horiz-adv-x="1880" 
d="M1726 1239q107 0 166 6v-41q-112 -40 -190 -254l-344 -954q-22 3 -47 3q-23 0 -47 -3l-307 754l-302 -754q-24 3 -47 3t-47 -3l-457 1077q-56 127 -129 131v41q96 -6 269 -6q200 0 299 6v-41q-103 -6 -103 -84q0 -34 21 -88l278 -696l194 473l-108 264q-27 66 -61.5 97.5
t-67.5 33.5v41q96 -6 269 -6q209 0 311 6v-41q-68 -3 -98 -21t-30 -59q0 -35 21 -92l261 -700l161 456q59 164 59 258q0 81 -40.5 118t-118.5 40v41q117 -6 235 -6zM807 1719q36 -22 58 -58t22 -76q0 -41 -22 -76t-58 -56t-76 -21q-41 0 -76.5 20.5t-56 56t-20.5 76.5
q0 40 21 76t56 58t76 22q40 0 76 -22zM1298.5 1719q35.5 -22 56.5 -58t21 -76q0 -41 -21 -76.5t-56.5 -56t-75.5 -20.5q-42 0 -78 20.5t-57 56t-21 76.5t21 77t57 57.5t78 21.5q40 0 75.5 -22z" />
    <glyph glyph-name="wgrave" unicode="&#x1e81;" horiz-adv-x="1880" 
d="M1726 1239q107 0 166 6v-41q-112 -40 -190 -254l-344 -954q-22 3 -47 3q-23 0 -47 -3l-307 754l-302 -754q-24 3 -47 3t-47 -3l-457 1077q-56 127 -129 131v41q96 -6 269 -6q200 0 299 6v-41q-103 -6 -103 -84q0 -34 21 -88l278 -696l194 473l-108 264q-27 66 -61.5 97.5
t-67.5 33.5v41q96 -6 269 -6q209 0 311 6v-41q-68 -3 -98 -21t-30 -59q0 -35 21 -92l261 -700l161 456q59 164 59 258q0 81 -40.5 118t-118.5 40v41q117 -6 235 -6zM960.5 1459q-59.5 17 -152.5 40.5t-138 48.5q-33 18 -51 45.5t-18 58.5q0 26 12 48q15 29 42.5 45t60.5 16
q32 0 62 -16q32 -17 59 -41.5t102 -105.5t171 -160l-14 -25q-76 29 -135.5 46z" />
    <glyph glyph-name="x" unicode="x" horiz-adv-x="1319" 
d="M1265.5 67q24.5 -20 61.5 -24v-43q-196 8 -264 8q-70 0 -326 -8v43q67 0 98 7.5t31 26.5q0 14 -16 36l-289 404l-164 -204q-69 -83 -69 -150q0 -54 46 -86t126 -36v-41q-117 6 -305 6q-100 0 -175 -6v41q62 25 135.5 83.5t123.5 119.5l254 312l-390 546
q-29 42 -46.5 61.5t-35.5 29t-45 11.5v43q208 -8 265 -8q81 0 325 8v-43q-66 0 -96.5 -7.5t-30.5 -26.5q0 -14 15 -35l262 -367l129 160q76 91 76 165q0 48 -34.5 77.5t-99.5 33.5v41q117 -6 256 -6q117 0 174 6v-41q-52 -16 -111.5 -61.5t-111.5 -106.5l-251 -306l417 -585
q41 -58 65.5 -78z" />
    <glyph glyph-name="y" unicode="y" horiz-adv-x="1227" 
d="M1055 1239q103 0 157 6v-41q-41 -18 -83 -68.5t-99 -150.5l-233 -429v-327q0 -82 14.5 -119.5t52.5 -51.5t123 -17v-41q-108 6 -352 6q-250 0 -342 -6v41q84 3 122.5 17t53 51.5t14.5 119.5v221l-366 637q-35 60 -61.5 84.5t-57.5 30.5v43q127 -10 242 -10q162 0 360 10
v-43q-61 0 -96 -11t-35 -44q0 -25 23 -64l277 -484l132 239q79 148 79 236q0 122 -155 130v41q126 -6 230 -6z" />
    <glyph glyph-name="yacute" unicode="&#xfd;" horiz-adv-x="1227" 
d="M1055 1239q103 0 157 6v-41q-41 -18 -83 -68.5t-99 -150.5l-233 -429v-327q0 -82 14.5 -119.5t52.5 -51.5t123 -17v-41q-108 6 -352 6q-250 0 -342 -6v41q84 3 122.5 17t53 51.5t14.5 119.5v221l-366 637q-35 60 -61.5 84.5t-57.5 30.5v43q127 -10 242 -10q162 0 360 10
v-43q-61 0 -96 -11t-35 -44q0 -25 23 -64l277 -484l132 239q79 148 79 236q0 122 -155 130v41q126 -6 230 -6zM559.5 1535q44.5 44 110 114.5t112.5 95.5q30 16 62 16t60.5 -16t43.5 -45q11 -24 11 -47q0 -31 -17.5 -59t-51.5 -46q-46 -25 -121 -44t-142.5 -37t-162.5 -54
l-14 25q65 53 109.5 97z" />
    <glyph glyph-name="ycircumflex" unicode="&#x177;" horiz-adv-x="1227" 
d="M1055 1239q103 0 157 6v-41q-41 -18 -83 -68.5t-99 -150.5l-233 -429v-327q0 -82 14.5 -119.5t52.5 -51.5t123 -17v-41q-108 6 -352 6q-250 0 -342 -6v41q84 3 122.5 17t53 51.5t14.5 119.5v221l-366 637q-35 60 -61.5 84.5t-57.5 30.5v43q127 -10 242 -10q162 0 360 10
v-43q-61 0 -96 -11t-35 -44q0 -25 23 -64l277 -484l132 239q79 148 79 236q0 122 -155 130v41q126 -6 230 -6zM822 1571.5q110 -86.5 239 -141.5l-10 -31q-132 25 -258.5 61.5t-202.5 71.5q-63 -35 -167 -71.5t-212 -61.5l-10 31q129 55 238.5 141t173.5 178h37
q62 -91 172 -177.5z" />
    <glyph glyph-name="ydieresis" unicode="&#xff;" horiz-adv-x="1227" 
d="M1055 1239q103 0 157 6v-41q-41 -18 -83 -68.5t-99 -150.5l-233 -429v-327q0 -82 14.5 -119.5t52.5 -51.5t123 -17v-41q-108 6 -352 6q-250 0 -342 -6v41q84 3 122.5 17t53 51.5t14.5 119.5v221l-366 637q-35 60 -61.5 84.5t-57.5 30.5v43q127 -10 242 -10q162 0 360 10
v-43q-61 0 -96 -11t-35 -44q0 -25 23 -64l277 -484l132 239q79 148 79 236q0 122 -155 130v41q126 -6 230 -6zM459 1719q36 -22 58 -58t22 -76q0 -41 -22 -76t-58 -56t-76 -21q-41 0 -76.5 20.5t-56 56t-20.5 76.5q0 40 21 76t56 58t76 22q40 0 76 -22zM950.5 1719
q35.5 -22 56.5 -58t21 -76q0 -41 -21 -76.5t-56.5 -56t-75.5 -20.5q-42 0 -78 20.5t-57 56t-21 76.5t21 77t57 57.5t78 21.5q40 0 75.5 -22z" />
    <glyph glyph-name="ygrave" unicode="&#x1ef3;" horiz-adv-x="1227" 
d="M1055 1239q103 0 157 6v-41q-41 -18 -83 -68.5t-99 -150.5l-233 -429v-327q0 -82 14.5 -119.5t52.5 -51.5t123 -17v-41q-108 6 -352 6q-250 0 -342 -6v41q84 3 122.5 17t53 51.5t14.5 119.5v221l-366 637q-35 60 -61.5 84.5t-57.5 30.5v43q127 -10 242 -10q162 0 360 10
v-43q-61 0 -96 -11t-35 -44q0 -25 23 -64l277 -484l132 239q79 148 79 236q0 122 -155 130v41q126 -6 230 -6zM612.5 1459q-59.5 17 -152.5 40.5t-138 48.5q-33 18 -51 45.5t-18 58.5q0 26 12 48q15 29 42.5 45t60.5 16q32 0 62 -16q32 -17 59 -41.5t102 -105.5t171 -160
l-14 -25q-76 29 -135.5 46z" />
    <glyph glyph-name="z" unicode="z" horiz-adv-x="1186" 
d="M436 47h217q108 0 183 40.5t124 132t74 243.5h47q-6 -76 -6 -193q0 -121 15 -270q-142 6 -484 6q-352 0 -514 -6v41l643 1157h-215q-104 0 -176 -38t-119.5 -124t-72.5 -229h-48q7 60 7 180q0 105 -15 258q154 -6 514 -6q324 0 469 6v-41z" />
    <glyph glyph-name="zacute" unicode="&#x17a;" horiz-adv-x="1186" 
d="M437 47h217q108 0 183 40.5t124 132t74 243.5h47q-6 -76 -6 -193q0 -121 15 -270q-142 6 -484 6q-352 0 -514 -6v41l643 1157h-215q-104 0 -176 -38t-119.5 -124t-72.5 -229h-48q7 60 7 180q0 105 -15 258q154 -6 514 -6q324 0 469 6v-41zM529.5 1535q44.5 44 110 114.5
t112.5 95.5q30 16 62 16t60.5 -16t43.5 -45q11 -24 11 -47q0 -31 -17.5 -59t-51.5 -46q-46 -25 -121 -44t-142.5 -37t-162.5 -54l-14 25q65 53 109.5 97z" />
    <glyph glyph-name="zcaron" unicode="&#x17e;" horiz-adv-x="1186" 
d="M437 47h217q108 0 183 40.5t124 132t74 243.5h47q-6 -76 -6 -193q0 -121 15 -270q-142 6 -484 6q-352 0 -514 -6v41l643 1157h-215q-104 0 -176 -38t-119.5 -124t-72.5 -229h-48q7 60 7 180q0 105 -15 258q154 -6 514 -6q324 0 469 6v-41zM790 1561.5
q-109 -86.5 -174 -179.5h-37q-62 92 -172 178t-240 142l10 31q133 -23 260 -60t201 -74q62 37 166.5 74t212.5 60l10 -31q-128 -54 -237 -140.5z" />
    <glyph glyph-name="zdotaccent" unicode="&#x17c;" horiz-adv-x="1186" 
d="M437 47h217q108 0 183 40.5t124 132t74 243.5h47q-6 -76 -6 -193q0 -121 15 -270q-142 6 -484 6q-352 0 -514 -6v41l643 1157h-215q-104 0 -176 -38t-119.5 -124t-72.5 -229h-48q7 60 7 180q0 105 -15 258q154 -6 514 -6q324 0 469 6v-41zM725 1702.5q47 -42.5 47 -117.5
q0 -73 -47 -115.5t-127 -42.5q-82 0 -128 42t-46 116q0 76 46 118t128 42q80 0 127 -42.5z" />
    <glyph glyph-name="uni0410" unicode="&#x410;" horiz-adv-x="1366" 
d="M1312 73.5q34 -30.5 68 -32.5v-41q-123 6 -311 6q-210 0 -311 -6v41q77 3 110.5 19t33.5 56q0 31 -25 97l-123 336h-446l-54 -141q-56 -144 -56 -228q0 -76 45 -106t136 -33v-41q-138 6 -254 6q-94 0 -156 -6v41q102 17 176 215l467 1198q33 -3 71 -3q40 0 71 3
l497 -1282q27 -68 61 -98.5zM536 1143l-212 -553h415z" />
    <glyph glyph-name="uni0411" unicode="&#x411;" horiz-adv-x="1327" 
d="M670 864q211 0 344 -59.5t191.5 -157t58.5 -217.5q0 -123 -61 -219t-191.5 -152.5t-331.5 -56.5q-44 0 -132.5 2t-178.5 2q-195 0 -299 -6v41q68 3 99 16t42.5 48t11.5 112v1016q0 77 -11.5 112t-42.5 48t-99 16v41q221 -6 667 -6q283 0 404 6q-15 -165 -15 -303
q0 -94 7 -139h-48q-27 148 -72 234.5t-109 123.5t-154 37h-60q-64 0 -92.5 -10.5t-38.5 -40t-10 -95.5v-394zM558 107.5q9 -36.5 33.5 -51.5t74.5 -15q98 0 155 45t80 128t23 208q0 128 -26.5 216t-91.5 136.5t-177 48.5l-80 -1v-605q0 -73 9 -109.5z" />
    <glyph glyph-name="uni0412" unicode="&#x412;" horiz-adv-x="1376" 
d="M1097.5 694.5q115.5 -53.5 167 -131t51.5 -166.5q0 -127 -68 -216.5t-195 -135t-302 -45.5q-44 0 -150.5 3t-214.5 3q-211 0 -315 -6v41q68 3 99 16t42.5 48t11.5 112v1016q0 77 -11.5 112t-42.5 48t-99 16v41q103 -6 311 -6q82 0 182 2t139 2q165 0 278.5 -40.5
t170.5 -113t57 -168.5q0 -76 -44 -149t-136.5 -129.5t-228.5 -81.5v-4q182 -14 297.5 -67.5zM824.5 861q53.5 91 53.5 243q0 154 -48 229.5t-153 75.5q-55 0 -81.5 -14.5t-36 -51t-9.5 -110.5v-463h88q133 0 186.5 91zM560.5 108q10.5 -35 39.5 -48t91 -13q285 0 285 359
q0 161 -81.5 245t-258.5 84h-86v-518q0 -74 10.5 -109z" />
    <glyph glyph-name="uni0413" unicode="&#x413;" horiz-adv-x="1171" 
d="M737 1444q277 0 396 6q-15 -170 -15 -311q0 -97 6 -156h-47q-27 157 -73 249t-113.5 131.5t-165.5 39.5h-35q-64 0 -92.5 -10.5t-38.5 -40t-10 -95.5v-1040q0 -77 13.5 -112t50.5 -48t118 -16v-41q-120 6 -338 6q-219 0 -323 -6v41q68 3 99 16t42.5 48t11.5 112v1016
q0 77 -11.5 112t-42.5 48t-99 16v41q221 -6 667 -6z" />
    <glyph glyph-name="uni0403" unicode="&#x403;" horiz-adv-x="1171" 
d="M738 1444q277 0 396 6q-15 -170 -15 -311q0 -97 6 -156h-47q-27 157 -73 249t-113.5 131.5t-165.5 39.5h-35q-64 0 -92.5 -10.5t-38.5 -40t-10 -95.5v-1040q0 -77 13.5 -112t50.5 -48t118 -16v-41q-120 6 -338 6q-219 0 -323 -6v41q68 3 99 16t42.5 48t11.5 112v1016
q0 77 -11.5 112t-42.5 48t-99 16v41q221 -6 667 -6zM520.5 1703q44.5 44 110 114.5t112.5 95.5q32 16 63 16q32 0 60 -16t43 -45q12 -22 12 -47q0 -31 -18 -59t-51 -46q-45 -25 -120.5 -44t-143.5 -37t-162 -54l-15 25q65 53 109.5 97z" />
    <glyph glyph-name="uni0490" unicode="&#x490;" horiz-adv-x="1130" 
d="M1090 1634q0 -130 14 -235q-117 4 -389 4q-74 0 -107.5 -12t-46 -46.5t-12.5 -111.5v-1016q0 -77 13.5 -112t50.5 -48t118 -16v-41q-120 6 -338 6q-219 0 -323 -6v41q68 3 99 16t42.5 48t11.5 112v1016q0 77 -11.5 112t-42.5 48t-99 16v41q216 -8 340 -8q52 0 149 4
t129 4q144 0 237 83t124 241h47q-6 -52 -6 -140z" />
    <glyph glyph-name="uni0414" unicode="&#x414;" horiz-adv-x="1335" 
d="M1292 -225q0 -85 6 -133h-47q-21 133 -65.5 211.5t-113.5 112.5t-169 34h-495q-100 0 -169 -34t-114 -112.5t-66 -211.5h-47q6 48 6 133q0 116 -14 266h37q146 0 223 170.5t105 398.5t53 623q1 15 1 40q0 55 -14.5 82.5t-49 39t-103.5 14.5v41q86 -6 211 -6q31 0 91 3
t89 3q51 0 142 -3t151 -3q211 0 317 6v-41q-74 -3 -107 -16t-45.5 -48t-12.5 -112v-1016q0 -77 11.5 -113.5t43 -49.5t98.5 -13h62q-15 -146 -15 -266zM752.5 1344.5q-13.5 37.5 -43 51t-84.5 13.5h-27q-46 0 -71.5 -14t-39 -51.5t-18.5 -110.5q-6 -64 -28.5 -381.5
t-84 -527t-177.5 -283.5h421q72 0 106.5 13t47 49.5t12.5 113.5v1016q0 74 -13.5 111.5z" />
    <glyph glyph-name="uni0415" unicode="&#x415;" horiz-adv-x="1298" 
d="M1193 311q0 -188 14 -311q-139 6 -469 6q-446 0 -667 -6v41q68 3 99 16t42.5 48t11.5 112v1016q0 77 -11.5 112t-42.5 48t-99 16v41q221 -6 667 -6q301 0 428 6q-14 -169 -14 -303q0 -91 6 -139h-47q-21 149 -64 235t-109 123t-163 37h-84q-64 0 -92.5 -10.5t-38.5 -40
t-10 -95.5v-507h65q110 0 166 80t78 190h47q-7 -101 -7 -193l1 -98q0 -104 12 -291h-47q-41 271 -250 271h-65v-516q0 -66 10 -95.5t38.5 -40t92.5 -10.5h101q144 0 233.5 100t126.5 336h47q-6 -67 -6 -172z" />
    <glyph glyph-name="uni0401" unicode="&#x401;" horiz-adv-x="1298" 
d="M1193 311q0 -188 14 -311q-139 6 -469 6q-446 0 -667 -6v41q68 3 99 16t42.5 48t11.5 112v1016q0 77 -11.5 112t-42.5 48t-99 16v41q221 -6 667 -6q301 0 428 6q-14 -169 -14 -303q0 -91 6 -139h-47q-21 149 -64 235t-109 123t-163 37h-84q-64 0 -92.5 -10.5t-38.5 -40
t-10 -95.5v-507h65q110 0 166 80t78 190h47q-7 -101 -7 -193l1 -98q0 -104 12 -291h-47q-41 271 -250 271h-65v-516q0 -66 10 -95.5t38.5 -40t92.5 -10.5h101q144 0 233.5 100t126.5 336h47q-6 -67 -6 -172zM474 1856q36 -22 58 -58t22 -76q0 -41 -22 -76t-58 -56t-76 -21
q-41 0 -76.5 20.5t-56 56t-20.5 76.5q0 40 21 76t56 58t76 22q40 0 76 -22zM965.5 1856q35.5 -22 56.5 -58t21 -76q0 -41 -21 -76.5t-56.5 -56t-75.5 -20.5q-42 0 -78 20.5t-57 56t-21 76.5t21 77t57 57.5t78 21.5q40 0 75.5 -22z" />
    <glyph glyph-name="uni0416" unicode="&#x416;" horiz-adv-x="2109" 
d="M1974.5 -0.5q-63.5 -28.5 -153.5 -28.5q-119 0 -187 49.5t-90 172.5l-55 313q-15 86 -42 135.5t-80 73.5t-146 24h-8v-522q0 -77 11 -112t42 -48t100 -16v-41q-109 6 -309 6q-219 0 -323 -6v41q68 3 99 16t42.5 48t11.5 112v522h-8q-93 0 -146.5 -24t-80.5 -73.5
t-42 -135.5l-55 -313q-22 -123 -90 -172.5t-186 -49.5q-84 0 -145.5 28.5t-110.5 90.5l28 25q20 -24 37.5 -35t42.5 -12q27 0 44 13.5t29.5 44.5t24.5 89l64 274q20 99 77 159t147 88.5t220 34.5q-87 26 -133 81q-37 44 -52 109t-30 196.5t-43 179.5q-15 33 -50 58t-81 28
q-27 3 -45 -8q56 -11 92.5 -52t36.5 -95q0 -69 -41.5 -107.5t-111.5 -38.5q-83 0 -136 48t-53 128q0 59 30 100t78 61t103 20q54 0 117 -27.5t98 -93.5q36 -64 48.5 -181t22.5 -180t44 -110q70 -96 256 -112v458q0 77 -11.5 112t-42.5 48t-99 16v41q104 -6 323 -6
q200 0 309 6v-41q-69 -3 -100 -16t-42 -48t-11 -112v-458q185 17 255 112q28 39 39.5 93t25.5 184t50 194q35 66 98 93.5t117 27.5q55 0 103 -20t78 -60.5t30 -100.5q0 -53 -24.5 -93t-67 -61.5t-96.5 -21.5q-70 0 -112 38.5t-42 107.5q0 54 36.5 95t92.5 52q-14 9 -34 9
q-48 0 -87.5 -26t-54.5 -61q-28 -48 -41.5 -169.5t-27.5 -193.5t-56 -122q-46 -55 -133 -80q137 -7 231 -35t153 -88t81 -160l59 -274q13 -58 25.5 -89t29.5 -44.5t44 -13.5q42 3 79 47l29 -25q-55 -62 -118.5 -90.5z" />
    <glyph glyph-name="uni0417" unicode="&#x417;" horiz-adv-x="1233" 
d="M206 1371.5q11 -25.5 34 -25.5q9 0 18 4.5t31 17.5q55 38 94.5 59.5t99.5 36.5t146 15q138 0 243.5 -37.5t164.5 -107.5t59 -165q-1 -106 -73.5 -188.5t-181 -135t-223.5 -77.5q138 -2 265.5 -45t209 -128t81.5 -206q0 -129 -91 -224t-238.5 -144.5t-312.5 -49.5
q-234 0 -368 97q-50 34 -81.5 82t-31.5 106q0 50 23.5 88.5t63.5 59t87 20.5q74 0 118 -42.5t44 -121.5q0 -63 -42 -109t-116 -63q39 -32 110.5 -52t160.5 -20q170 0 265 95.5t95 273.5q0 97 -30 178.5t-92 132t-152 54.5q-49 -27 -88 -27q-43 0 -43 35q0 33 47 33
q23 0 86 -13q106 43 149 135.5t43 219.5q0 148 -57 217t-170 69q-111 0 -188 -58t-118.5 -157t-49.5 -223h-47q0 334 -9 475h47q7 -59 18 -84.5z" />
    <glyph glyph-name="uni0418" unicode="&#x418;" horiz-adv-x="1679" 
d="M1512 1393q-31 -13 -42.5 -48t-11.5 -112v-1016q0 -77 11.5 -112t42.5 -48t100 -16v-41q-105 6 -324 6q-201 0 -309 -6v41q68 3 99.5 16t43 48t11.5 112v959l-584 -987q2 -63 14.5 -93t43 -41t95.5 -14v-41q-109 6 -309 6q-219 0 -323 -6v41q68 3 99 16t42.5 48t11.5 112
v1016q0 77 -11.5 112t-42.5 48t-99 16v41q104 -6 323 -6q200 0 309 6v-41q-69 -3 -100 -16t-42 -48t-11 -112v-954l583 988q-2 60 -15 88.5t-44 39.5t-94 14v41q108 -6 309 -6q219 0 324 6v-41q-69 -3 -100 -16z" />
    <glyph glyph-name="uni0419" unicode="&#x419;" horiz-adv-x="1679" 
d="M1513 1393q-31 -13 -42.5 -48t-11.5 -112v-1016q0 -77 11.5 -112t42.5 -48t100 -16v-41q-105 6 -324 6q-201 0 -309 -6v41q68 3 99.5 16t43 48t11.5 112v959l-584 -987q2 -63 14.5 -93t43 -41t95.5 -14v-41q-109 6 -309 6q-219 0 -323 -6v41q68 3 99 16t42.5 48t11.5 112
v1016q0 77 -11.5 112t-42.5 48t-99 16v41q104 -6 323 -6q200 0 309 6v-41q-69 -3 -100 -16t-42 -48t-11 -112v-954l583 988q-2 60 -15 88.5t-44 39.5t-94 14v41q108 -6 309 -6q219 0 324 6v-41q-69 -3 -100 -16zM1279 1897q46 -38 46 -97q0 -89 -123 -151q-144 -72 -361 -72
q-216 0 -360 72q-121 62 -121 151q0 59 45 97t117 38q71 0 118.5 -38t47.5 -99q0 -51 -36 -85.5t-91 -47.5q55 -24 131.5 -35.5t148.5 -11.5t148.5 12t130.5 37q-56 15 -89.5 48.5t-33.5 82.5q0 61 46.5 99t119.5 38q70 0 116 -38z" />
    <glyph glyph-name="uni041A" unicode="&#x41a;" horiz-adv-x="1477" 
d="M1339.5 -0.5q-63.5 -28.5 -153.5 -28.5q-119 0 -187 49.5t-90 172.5l-55 313q-18 87 -45.5 136t-82 73t-151.5 24h-26v-522q0 -77 11 -112t42 -48t100 -16v-41q-109 6 -309 6q-219 0 -323 -6v41q68 3 99 16t42.5 48t11.5 112v1016q0 77 -11.5 112t-42.5 48t-99 16v41
q104 -6 323 -6q200 0 309 6v-41q-69 -3 -100 -16t-42 -48t-11 -112v-459q195 15 268 111q32 42 45.5 97.5t29.5 183t54 192.5q38 67 101.5 94t115.5 27q54 0 101 -20t76.5 -60.5t29.5 -100.5q0 -80 -52 -129t-134 -49q-71 0 -111.5 37.5t-40.5 100.5q0 59 36 102.5t91 54.5
q-11 8 -45 8q-43 -3 -77.5 -27t-53.5 -59q-31 -54 -46 -172.5t-30.5 -188.5t-62.5 -124t-135 -80q142 -6 240 -34t159.5 -88t83.5 -161l59 -274q12 -57 24.5 -88.5t30 -45t44.5 -13.5q23 1 40.5 12.5t39.5 34.5l28 -25q-55 -62 -118.5 -90.5z" />
    <glyph glyph-name="uni040C" unicode="&#x40c;" horiz-adv-x="1477" 
d="M680.5 1703q44.5 44 110 114.5t112.5 95.5q32 16 63 16q32 0 60 -16t43 -45q12 -22 12 -47q0 -31 -18 -59t-51 -46q-45 -25 -120.5 -44t-143.5 -37t-162 -54l-15 25q65 53 109.5 97zM1340.5 -0.5q-63.5 -28.5 -153.5 -28.5q-119 0 -187 49.5t-90 172.5l-55 313
q-18 87 -45.5 136t-82 73t-151.5 24h-26v-522q0 -77 11 -112t42 -48t100 -16v-41q-109 6 -309 6q-219 0 -323 -6v41q68 3 99 16t42.5 48t11.5 112v1016q0 77 -11.5 112t-42.5 48t-99 16v41q104 -6 323 -6q200 0 309 6v-41q-69 -3 -100 -16t-42 -48t-11 -112v-459
q195 15 268 111q32 42 45.5 97.5t29.5 183t54 192.5q38 67 101.5 94t115.5 27q54 0 101 -20t76.5 -60.5t29.5 -100.5q0 -80 -52 -129t-134 -49q-71 0 -111.5 37.5t-40.5 100.5q0 59 36 102.5t91 54.5q-11 8 -45 8q-43 -3 -77.5 -27t-53.5 -59q-31 -54 -46 -172.5
t-30.5 -188.5t-62.5 -124t-135 -80q142 -6 240 -34t159.5 -88t83.5 -161l59 -274q12 -57 24.5 -88.5t30 -45t44.5 -13.5q23 1 40.5 12.5t39.5 34.5l28 -25q-55 -62 -118.5 -90.5z" />
    <glyph glyph-name="uni041B" unicode="&#x41b;" horiz-adv-x="1475" 
d="M1305.5 1393q-33.5 -13 -46 -48t-12.5 -112v-1016q0 -77 12.5 -112t46 -48t107.5 -16v-41q-108 6 -334 6q-223 0 -340 -6v41q81 3 118 16t51 48t14 112v1016q0 74 -13.5 111.5t-43 51t-85.5 13.5h-14q-51 0 -79 -14t-42.5 -51.5t-19.5 -110.5q-6 -66 -32.5 -447.5
t-121.5 -598t-274 -216.5q-62 0 -113.5 24t-82 67.5t-30.5 99.5q0 52 24.5 91.5t67.5 61t95 21.5q68 0 109.5 -34t41.5 -93q0 -71 -44 -119.5t-120 -69.5q25 -10 52 -10q146 0 223.5 174t106 413t51.5 636q2 32 2 45q0 53 -15 79.5t-50 37.5t-103 14v41q85 -6 211 -6
q31 0 90.5 3t89.5 3q50 0 141.5 -3t151.5 -3q209 0 317 6v-41q-74 -3 -107.5 -16z" />
    <glyph glyph-name="uni041C" unicode="&#x41c;" horiz-adv-x="1898" 
d="M1732 1393q-31 -13 -42.5 -48t-11.5 -112v-1016q0 -77 11.5 -112t43 -48t99.5 -16v-41q-114 6 -322 6q-219 0 -323 -6v41q74 3 107.5 16t46 48t12.5 112v1071l-494 -1290h-33l-553 1319v-981q0 -121 13 -177.5t53.5 -82.5t132.5 -35v-41q-79 6 -221 6q-113 0 -178 -6v41
q67 9 98.5 34.5t43 78t11.5 157.5v922q0 77 -11.5 112t-42.5 48t-99 16v41q65 -6 178 -6q188 0 323 6l413 -995l378 989h145q208 0 322 6v-41q-69 -3 -100 -16z" />
    <glyph glyph-name="uni041D" unicode="&#x41d;" horiz-adv-x="1638" 
d="M1472 1393q-31 -13 -42.5 -48t-11.5 -112v-1016q0 -77 11.5 -112t42.5 -48t100 -16v-41q-102 6 -311 6q-208 0 -322 -6v41q68 3 99.5 16t43 48t11.5 112v492h-543v-492q0 -77 11 -112t42 -48t100 -16v-41q-109 6 -309 6q-219 0 -323 -6v41q68 3 99 16t42.5 48t11.5 112
v1016q0 77 -11.5 112t-42.5 48t-99 16v41q103 -6 323 -6q200 0 309 6v-41q-69 -3 -100 -16t-42 -48t-11 -112v-483h543v483q0 77 -11.5 112t-43 48t-99.5 16v41q114 -6 322 -6q209 0 311 6v-41q-69 -3 -100 -16z" />
    <glyph glyph-name="uni041E" unicode="&#x41e;" horiz-adv-x="1624" 
d="M1193.5 1391q163.5 -88 253.5 -255.5t90 -398.5q0 -226 -92.5 -400t-257.5 -270t-375 -96q-217 0 -380.5 88t-253 255.5t-89.5 398.5q0 226 92 400t257 270t376 96q216 0 379.5 -88zM607.5 1350.5q-85.5 -91.5 -132 -255t-46.5 -374.5q0 -213 52 -375t141 -250t198 -88
q113 0 198.5 91.5t132 255t46.5 374.5q0 212 -52 374.5t-141.5 250.5t-197.5 88q-113 0 -198.5 -91.5z" />
    <glyph glyph-name="uni041F" unicode="&#x41f;" horiz-adv-x="1638" 
d="M1471 1393q-31 -13 -42.5 -48t-11.5 -112v-1016q0 -77 11.5 -112t42.5 -48t100 -16v-41q-105 6 -324 6q-201 0 -309 -6v41q68 3 99.5 16t43 48t11.5 112v1016q0 77 -12.5 113.5t-47 49.5t-106.5 13h-211q-73 0 -107 -13t-46.5 -49.5t-12.5 -113.5v-1016q0 -77 11 -112
t42 -48t100 -16v-41q-109 6 -309 6q-219 0 -323 -6v41q68 3 99 16t42.5 48t11.5 112v1016q0 77 -11.5 112t-42.5 48t-99 16v41q103 -6 323 -6q90 0 239 3t191 3t188 -3t236 -3q219 0 324 6v-41q-69 -3 -100 -16z" />
    <glyph glyph-name="uni0420" unicode="&#x420;" horiz-adv-x="1313" 
d="M550 229q0 -82 17 -119.5t61.5 -50.5t140.5 -14v-45q-252 6 -375 6q-59 0 -323 -6v41q68 3 99 16t42.5 48t11.5 112v1016q0 77 -11.5 112t-42.5 48t-99 16v41q103 -6 311 -6q82 0 182 2t139 2q186 0 313.5 -50.5t191 -141.5t63.5 -212q0 -112 -57 -216t-194 -173
t-362 -69h-108v-357zM868 733.5q63 106.5 63 288.5q0 199 -59 293t-195 94q-55 0 -81.5 -14.5t-36 -51t-9.5 -110.5v-606h88q167 0 230 106.5z" />
    <glyph glyph-name="uni0421" unicode="&#x421;" horiz-adv-x="1444" 
d="M1266.5 92.5q-11.5 28.5 -33.5 28.5q-16 0 -42 -17q-60 -42 -111.5 -70t-118 -45.5t-149.5 -17.5q-217 0 -380.5 88t-253 255.5t-89.5 398.5q0 226 92 400t257 270t376 96q122 0 208.5 -35t168.5 -98q23 -18 40 -18q42 0 52 122h47q-8 -139 -8 -496h-47
q-13 103 -28.5 167.5t-45 113.5t-80.5 90q-51 49 -119 74.5t-141 25.5q-141 0 -232 -97t-133 -256t-42 -351t44 -351t137.5 -254.5t233.5 -95.5q71 0 139 26t115 75q52 40 81.5 92.5t44 121.5t26.5 181h47q0 -371 8 -516h-47q-5 64 -16.5 92.5z" />
    <glyph glyph-name="uni0422" unicode="&#x422;" horiz-adv-x="1368" 
d="M67 1102q0 140 -15 348q187 -6 633 -6t631 6q-15 -208 -15 -348q0 -88 7 -156h-47q-34 171 -83 270.5t-117.5 143t-166.5 43.5h-47v-1170q0 -85 17.5 -124t62 -53t139.5 -15v-41q-258 6 -389 6q-129 0 -375 -6v41q96 1 140.5 15t61.5 53t17 124v1170h-45
q-99 0 -167.5 -43t-117.5 -142.5t-84 -271.5h-47q7 68 7 156z" />
    <glyph glyph-name="uni0423" unicode="&#x423;" horiz-adv-x="1352" 
d="M1225 1444q95 0 157 6v-41q-45 -17 -90.5 -72t-103.5 -163l-404 -812l-96 -194q-46 -94 -90 -137q-60 -60 -172 -60q-69 0 -120.5 22t-79 60.5t-27.5 87.5q0 48 24.5 85t66 57t91.5 20q80 0 128 -34.5t48 -96.5q0 -55 -38 -94.5t-99 -59.5q12 -6 41 -6q58 0 102 40
t82 120l47 97l-577 1015q-68 115 -135 125v41q82 -6 272 -6q218 0 326 6v-41q-106 -6 -106 -81q0 -35 24 -83l361 -642l208 419q79 158 79 249q0 71 -45 103t-128 35v41q138 -6 254 -6z" />
    <glyph glyph-name="uni040E" unicode="&#x40e;" horiz-adv-x="1352" 
d="M1225 1444q95 0 157 6v-41q-45 -17 -90.5 -72t-103.5 -163l-404 -812l-96 -194q-46 -94 -90 -137q-60 -60 -172 -60q-69 0 -120.5 22t-79 60.5t-27.5 87.5q0 48 24.5 85t66 57t91.5 20q80 0 128 -34.5t48 -96.5q0 -55 -38 -94.5t-99 -59.5q12 -6 41 -6q58 0 102 40
t82 120l47 97l-577 1015q-68 115 -135 125v41q82 -6 272 -6q218 0 326 6v-41q-106 -6 -106 -81q0 -35 24 -83l361 -642l208 419q79 158 79 249q0 71 -45 103t-128 35v41q138 -6 254 -6zM1134 1897q46 -38 46 -97q0 -89 -123 -151q-144 -72 -361 -72q-216 0 -360 72
q-121 62 -121 151q0 59 45 97t117 38q71 0 118.5 -38t47.5 -99q0 -51 -36 -85.5t-91 -47.5q55 -24 131.5 -35.5t148.5 -11.5t148.5 12t130.5 37q-56 15 -89.5 48.5t-33.5 82.5q0 61 46.5 99t119.5 38q70 0 116 -38z" />
    <glyph glyph-name="uni0424" unicode="&#x424;" horiz-adv-x="1890" 
d="M1666 1138.5q192 -144.5 192 -401.5q0 -167 -88 -293.5t-256 -204t-404 -97.5v-76q0 -78 11.5 -112.5t42 -47.5t100.5 -17v-41q-104 7 -310 7q-226 0 -323 -7v41q69 4 99.5 17t42 48t11.5 112v75q-365 26 -558 176t-193 416q0 162 88.5 285t257 197.5t405.5 93.5v75
q0 77 -11.5 112t-42 48t-99.5 17v41q97 -7 323 -7q206 0 310 7v-41q-70 -4 -100.5 -17t-42 -47.5t-11.5 -112.5v-75q364 -26 556 -170.5zM470.5 1115q-97.5 -129 -97.5 -374q0 -257 101 -393t310 -170v1096q-216 -30 -313.5 -159zM1421 343q97 134 97 386q0 248 -100 378.5
t-308 164.5v-1095q214 32 311 166z" />
    <glyph glyph-name="uni0425" unicode="&#x425;" horiz-adv-x="1415" 
d="M1355.5 83.5q18.5 -20.5 37.5 -29.5t47 -11v-43q-216 8 -281 8q-74 0 -330 -8v43q72 0 104 7.5t32 26.5q0 14 -15 36l-345 506l-163 -224q-94 -126 -94 -215q0 -63 46 -98.5t128 -40.5v-41q-117 6 -323 6q-124 0 -189 -6v41q143 46 297 250l272 367l-442 649
q-29 42 -46.5 62t-36.5 29t-48 11v43q228 -8 293 -8q179 0 313 8v-43q-68 0 -99 -9t-31 -30q0 -16 16 -39l305 -445l151 204q97 125 97 206q0 51 -38.5 79.5t-111.5 33.5v41q117 -6 258 -6q124 0 189 6v-41q-65 -19 -131.5 -76.5t-126.5 -138.5l-261 -347l480 -702
q28 -41 46.5 -61.5z" />
    <glyph glyph-name="uni0427" unicode="&#x427;" horiz-adv-x="1536" 
d="M1368 1393q-31 -13 -42 -48t-11 -112v-1016q0 -77 11 -112t42 -48t100 -16v-41q-270 6 -325 6q-121 0 -373 -6v45q96 1 140.5 14t61.5 50.5t17 119.5v392q-65 -33 -172.5 -58.5t-220.5 -25.5q-189 0 -303 71q-69 44 -96 109.5t-27 177.5v348q0 69 -12.5 103t-44 47.5
t-93.5 15.5v41q99 -6 314 -6q204 0 303 6v-41q-59 -2 -88.5 -15.5t-41 -47.5t-11.5 -103v-405q0 -88 14 -137t57.5 -74t130.5 -25q82 0 159.5 15.5t131.5 41.5v574q0 77 -11.5 112t-42.5 48t-99 16v41q103 -6 323 -6q199 0 309 6v-41q-69 -3 -100 -16z" />
    <glyph glyph-name="uni0426" unicode="&#x426;" horiz-adv-x="1657" 
d="M1471 1393q-31 -13 -42.5 -48t-11.5 -112v-1016q0 -78 11.5 -114t43 -49t99.5 -13h61q-14 -150 -14 -266q0 -85 6 -133h-47q-21 133 -66 211.5t-114 112.5t-168 34h-410q-42 0 -189 3t-237 3q-219 0 -323 -6v41q68 3 99 16t42.5 48t11.5 112v1016q0 77 -11.5 112
t-42.5 48t-99 16v41q103 -6 323 -6q200 0 309 6v-41q-69 -3 -100 -16t-42 -48t-11 -112v-1016q0 -77 12.5 -113.5t46.5 -49.5t107 -13h211q72 0 106.5 13t47 49.5t12.5 113.5v1016q0 77 -11.5 112t-43 48t-99.5 16v41q108 -6 309 -6q219 0 324 6v-41q-69 -3 -100 -16z" />
    <glyph glyph-name="uni0428" unicode="&#x428;" horiz-adv-x="2255" 
d="M2086 1393q-31 -13 -42.5 -48t-11.5 -112v-1016q0 -77 11.5 -112t42.5 -48t99 -16v-41q-97 6 -311 6q-71 0 -198 -3t-169 -3q-47 0 -178.5 3t-193.5 3q-66 0 -199 -3t-186 -3q-44 0 -171 3t-198 3q-213 0 -311 -6v41q68 3 99 16t42.5 48t11.5 112v1016q0 77 -11.5 112
t-42.5 48t-99 16v41q103 -6 323 -6q184 0 289 6v-41q-61 -3 -87.5 -16t-36 -47.5t-9.5 -112.5v-1016q0 -77 12.5 -113.5t46.5 -49.5t107 -13h84q72 0 106.5 13t47 49.5t12.5 113.5v1016q0 78 -9.5 112.5t-36.5 47.5t-88 16v41q105 -6 289 -6q205 0 303 6v-41q-60 -3 -87 -16
t-36.5 -48t-9.5 -112v-1016q0 -75 14 -111.5t48 -49.5t104 -15h84q72 0 106.5 13t47 49.5t12.5 113.5v1016q0 78 -9.5 112.5t-36 47.5t-87.5 16v41q104 -6 289 -6q220 0 323 6v-41q-68 -3 -99 -16z" />
    <glyph glyph-name="uni0429" unicode="&#x429;" horiz-adv-x="2273" 
d="M2086 1393q-31 -13 -42.5 -48t-11.5 -112v-1016q0 -77 11.5 -113.5t43 -49.5t98.5 -13h64q-15 -146 -15 -266q0 -88 7 -133h-48q-21 133 -65.5 211.5t-113.5 112.5t-169 34h-338q-47 0 -178.5 3t-193.5 3q-66 0 -199 -3t-186 -3q-44 0 -171 3t-198 3q-213 0 -311 -6v41
q68 3 99 16t42.5 48t11.5 112v1016q0 77 -11.5 112t-42.5 48t-99 16v41q103 -6 323 -6q184 0 289 6v-41q-61 -3 -87.5 -16t-36 -47.5t-9.5 -112.5v-1016q0 -77 12.5 -113.5t46.5 -49.5t107 -13h84q72 0 106.5 13t47 49.5t12.5 113.5v1016q0 78 -9.5 112.5t-36.5 47.5t-88 16
v41q105 -6 289 -6q205 0 303 6v-41q-60 -3 -87 -16t-36.5 -48t-9.5 -112v-1016q0 -76 14 -112.5t48.5 -50t103.5 -13.5h84q72 0 106.5 13t47 49.5t12.5 113.5v1016q0 78 -9.5 112.5t-36 47.5t-87.5 16v41q104 -6 289 -6q220 0 323 6v-41q-68 -3 -99 -16z" />
    <glyph glyph-name="uni040F" unicode="&#x40f;" horiz-adv-x="1638" 
d="M1471 1393q-31 -13 -42.5 -48t-11.5 -112v-1016q0 -77 11.5 -112t42.5 -48t100 -16v-41q-105 6 -324 6l-93 -1q-131 -6 -210 -92t-98 -271h-47q-20 185 -98 270.5t-209 92.5l-99 1q-219 0 -323 -6v41q68 3 99 16t42.5 48t11.5 112v1016q0 77 -11.5 112t-42.5 48t-99 16
v41q103 -6 323 -6q200 0 309 6v-41q-69 -3 -100 -16t-42 -48t-11 -112v-1016q0 -77 12.5 -113.5t46.5 -49.5t107 -13h211q72 0 106.5 13t47 49.5t12.5 113.5v1016q0 77 -11.5 112t-43 48t-99.5 16v41q108 -6 309 -6q219 0 324 6v-41q-69 -3 -100 -16z" />
    <glyph glyph-name="uni042F" unicode="&#x42f;" horiz-adv-x="1415" 
d="M1248.5 1393q-31.5 -13 -43 -48t-11.5 -112v-1016q0 -77 11.5 -112t42.5 -48t100 -16v-41q-105 6 -324 6q-199 0 -309 -6v41q68 3 99 16t42.5 48t11.5 112v471h-137q-61 0 -97.5 -35.5t-56.5 -97t-36 -158.5l-37 -204q-22 -122 -90.5 -172t-184.5 -50q-88 0 -152 28
t-116 91l29 25q21 -23 39 -34.5t43 -12.5q38 0 59 32t37 115l43 211q17 86 64.5 139.5t126 83t200.5 45.5l7 1q-251 25 -356.5 129t-105.5 255q0 178 143 273.5t425 95.5q38 0 137.5 -2t183.5 -2q207 0 312 6v-41q-68 -3 -99.5 -16zM858 1343q-10 37 -36.5 51.5t-80.5 14.5
q-135 0 -194.5 -85t-59.5 -249q0 -107 24.5 -182.5t89 -119.5t179.5 -44h88v504q0 73 -10 110z" />
    <glyph glyph-name="uni042C" unicode="&#x42c;" horiz-adv-x="1311" 
d="M670 864q312 0 453 -114t141 -299q0 -125 -61 -226.5t-192 -162t-331 -60.5q-44 0 -133.5 2t-169.5 2q-203 0 -307 -6v41q68 3 99 16t42.5 48t11.5 112v1016q0 77 -11.5 112t-42.5 48t-99 16v41q103 -6 323 -6q209 0 326 6v-41q-77 -3 -111 -16t-46.5 -47.5t-12.5 -112.5
v-370zM558 106.5q9 -36.5 33.5 -51t76.5 -14.5q142 0 199 96t57 285q0 193 -64 297t-223 104l-88 -1v-605q0 -74 9 -110.5z" />
    <glyph glyph-name="uni042A" unicode="&#x42a;" horiz-adv-x="1620" 
d="M979 864q211 0 344 -58.5t191.5 -154.5t58.5 -213q0 -120 -61 -218.5t-192 -158t-331 -59.5q-44 0 -133 2t-168 2q-204 0 -309 -6v41q68 3 99 16t42.5 48t11.5 112v1186h-69q-151 0 -245.5 -97.5t-119.5 -322.5h-47q6 71 6 180q0 155 -14 287q145 -6 496 -6q335 0 489 6
v-41q-76 -3 -110 -16t-47 -48t-13 -112v-370zM867 106.5q9 -36.5 34 -51t76 -14.5q143 0 199.5 96t56.5 285q0 193 -64 297t-223 104l-88 -1v-605q0 -74 9 -110.5z" />
    <glyph glyph-name="uni042B" unicode="&#x42b;" horiz-adv-x="2081" 
d="M1924 1393q-31 -13 -42 -48t-11 -112v-1016q0 -77 11 -112t42 -48t100 -16v-41q-109 6 -309 6q-219 0 -323 -6v41q68 3 99 16t42.5 48t11.5 112v1016q0 77 -11.5 112t-42.5 48t-99 16v41q103 -6 323 -6q200 0 309 6v-41q-69 -3 -100 -16zM661 864q312 0 453 -114
t141 -299q0 -125 -61 -226.5t-192 -162t-331 -60.5q-44 0 -133.5 2t-169.5 2q-203 0 -307 -6v41q68 3 99 16t42.5 48t11.5 112v1016q0 77 -11.5 112t-42.5 48t-99 16v41q103 -6 323 -6q209 0 326 6v-41q-77 -3 -111 -16t-46.5 -47.5t-12.5 -112.5v-370zM549 106.5
q9 -36.5 33.5 -51t76.5 -14.5q142 0 199 96t57 285q0 193 -64 297t-223 104l-88 -1v-605q0 -74 9 -110.5z" />
    <glyph glyph-name="uni0409" unicode="&#x409;" horiz-adv-x="2013" 
d="M1368 823q212 0 344.5 -52.5t191 -141.5t58.5 -203q0 -118 -57.5 -212t-180 -151.5t-311.5 -62.5h-6h-29q-88 0 -185 5l-114 1q-223 0 -340 -6v41q81 3 118 16t51 48t14 112v1016q0 74 -13.5 111.5t-43 51t-85.5 13.5h-14q-51 0 -79 -14t-42.5 -51.5t-19.5 -110.5
q-6 -66 -32.5 -447.5t-121.5 -598t-274 -216.5q-62 0 -113.5 24t-82 67.5t-30.5 99.5q0 52 24.5 91.5t67.5 61t95 21.5q68 0 109.5 -34t41.5 -93q0 -71 -44 -119.5t-120 -69.5q25 -10 52 -10q146 0 223.5 174t106 413t51.5 636q2 32 2 45q0 53 -15 79.5t-50 37.5t-103 14v41
q85 -6 211 -6q31 0 90.5 3t89.5 3q50 0 141.5 -3t151.5 -3q209 0 317 6v-41q-74 -3 -107.5 -16t-46 -48t-12.5 -112v-410h121zM1258.5 108q11.5 -35 42.5 -48.5t98 -17.5q125 8 174 98.5t49 265.5q0 183 -65 279.5t-230 96.5h-80v-565q0 -74 11.5 -109z" />
    <glyph glyph-name="uni040A" unicode="&#x40a;" horiz-adv-x="2175" 
d="M1538 754q312 0 453 -100.5t141 -264.5q0 -108 -58.5 -194.5t-184 -139t-318.5 -55.5h-3h-20q-88 0 -186 6h-102q-208 0 -322 -6v41q68 3 99.5 16t43 48t11.5 112v492h-543v-492q0 -77 11 -112t42 -48t100 -16v-41q-109 6 -309 6q-219 0 -323 -6v41q68 3 99 16t42.5 48
t11.5 112v1016q0 77 -11.5 112t-42.5 48t-99 16v41q103 -6 323 -6q200 0 309 6v-41q-69 -3 -100 -16t-42 -48t-11 -112v-483h543v483q0 77 -11.5 112t-43 48t-99.5 16v41q114 -6 322 -6q209 0 311 6v-41q-69 -3 -100 -16t-42.5 -48t-11.5 -112v-479h121zM1428 106.5
q11 -34.5 40.5 -48t94.5 -17.5q128 6 178.5 90.5t50.5 241.5q0 108 -27 183t-95 117t-185 42l-68 -1v-497q0 -76 11 -110.5z" />
    <glyph glyph-name="uni0405" unicode="&#x405;" horiz-adv-x="1196" 
d="M270.5 167.5q88.5 -142.5 271.5 -142.5q72 0 129.5 25.5t91 77.5t33.5 126q0 80 -37.5 143.5t-101 116t-169.5 121.5q-124 80 -196.5 139t-120 140t-47.5 188q0 124 63 208.5t167 125.5t229 41q74 0 128.5 -11t91 -27.5t79.5 -41.5q49 -29 69 -29q19 0 29 21.5t16 68.5
h47q-10 -137 -10 -467h-47q-7 111 -49.5 211t-119 162.5t-179.5 62.5q-65 0 -116.5 -25t-80 -72.5t-28.5 -110.5q0 -102 61 -167t159 -131.5t132 -89.5q120 -80 190 -139t114 -138t44 -183q0 -131 -68 -221t-183 -134.5t-257 -44.5q-115 0 -190.5 20.5t-139.5 55.5
q-44 29 -69 29q-19 0 -29 -21.5t-16 -68.5h-47q8 128 8 553h47q13 -229 101.5 -371.5z" />
    <glyph glyph-name="uni0404" unicode="&#x404;" horiz-adv-x="1450" 
d="M1329 0h-47q-5 64 -16.5 92.5t-33.5 28.5q-16 0 -42 -17q-60 -42 -111.5 -70t-118 -45.5t-149.5 -17.5q-217 0 -380.5 88t-253 255.5t-89.5 398.5q0 226 92 400t257 270t376 96q122 0 208.5 -35t168.5 -98q22 -18 40 -18q42 0 52 122h47q-8 -120 -8 -422h-47
q-19 85 -35.5 132.5t-43.5 85.5t-75 79q-49 49 -117 74.5t-143 25.5q-141 0 -232 -97t-133 -256t-42 -351l1 -65q36 132 107 202t154 70q54 0 99.5 -20.5t133.5 -78t154 -57.5q47 0 91 32.5t62 102.5l35 -10q-18 -116 -58 -195.5t-94 -119t-116 -39.5q-55 0 -99.5 20
t-132.5 77.5t-161 57.5q-52 0 -97.5 -27.5t-72.5 -85.5q14 -161 63 -288.5t136 -202t210 -74.5q71 0 139 26t115 75q52 40 81.5 92.5t44 121.5t26.5 181h47q0 -371 8 -516z" />
    <glyph glyph-name="uni042D" unicode="&#x42d;" horiz-adv-x="1446" 
d="M189 1358q12 -29 34 -29q16 0 41 17q180 133 404 133q213 0 368 -91t237.5 -260.5t82.5 -400.5q0 -229 -89 -400t-252.5 -263.5t-381.5 -92.5q-121 0 -207 35t-172 98q-24 18 -40 18q-42 0 -52 -122h-47q8 123 8 442h47q25 -122 57.5 -193.5t94.5 -123.5q47 -48 115 -73
t138 -25q141 0 234.5 95t137.5 253t44 350l-1 82q-36 -129 -105.5 -196.5t-151.5 -67.5q-55 0 -100.5 20.5t-133.5 77.5t-155 57q-47 0 -90 -32.5t-61 -102.5l-35 10q18 116 57.5 195.5t93.5 119.5t117 40q55 0 100 -20.5t132 -78t159 -57.5q51 0 96 26t73 80
q-18 251 -104.5 402.5t-263.5 151.5q-77 0 -156.5 -27t-127.5 -76q-49 -42 -78 -87t-46.5 -107t-29.5 -156h-47q0 338 -8 471h47q5 -63 17 -92z" />
    <glyph glyph-name="uni0406" unicode="&#x406;" horiz-adv-x="770" 
d="M603 1393q-31 -13 -42 -48t-11 -112v-1016q0 -77 11 -112t42 -48t100 -16v-41q-109 6 -309 6q-219 0 -323 -6v41q68 3 99 16t42.5 48t11.5 112v1016q0 77 -11.5 112t-42.5 48t-99 16v41q103 -6 323 -6q200 0 309 6v-41q-69 -3 -100 -16z" />
    <glyph glyph-name="uni0407" unicode="&#x407;" horiz-adv-x="770" 
d="M603 1393q-31 -13 -42 -48t-11 -112v-1016q0 -77 11 -112t42 -48t100 -16v-41q-109 6 -309 6q-219 0 -323 -6v41q68 3 99 16t42.5 48t11.5 112v1016q0 77 -11.5 112t-42.5 48t-99 16v41q103 -6 323 -6q200 0 309 6v-41q-69 -3 -100 -16zM222 1856q36 -22 58 -58t22 -76
q0 -41 -22 -76t-58 -56t-76 -21q-41 0 -76.5 20.5t-56 56t-20.5 76.5q0 40 21 76t56 58t76 22q40 0 76 -22zM713.5 1856q35.5 -22 56.5 -58t21 -76q0 -41 -21 -76.5t-56.5 -56t-75.5 -20.5q-42 0 -78 20.5t-57 56t-21 76.5t21 77t57 57.5t78 21.5q40 0 75.5 -22z" />
    <glyph glyph-name="uni0408" unicode="&#x408;" horiz-adv-x="745" 
d="M590 1393q-31 -13 -42 -48t-11 -112v-750v-122q0 -137 -6.5 -238t-28.5 -174q-28 -96 -98.5 -171.5t-178 -119t-241.5 -43.5q-130 0 -207 39q-101 50 -101 147q0 63 45 101.5t119 38.5q72 0 114 -35.5t42 -100.5q0 -46 -27 -82t-78 -53q20 -14 74 -14q75 0 129 40t78 107
q18 53 26.5 112t10.5 140t2 242v936q0 77 -11.5 112t-43 48t-99.5 16v41q102 -6 312 -6q207 0 321 6v-41q-69 -3 -100 -16z" />
    <glyph glyph-name="uni040B" unicode="&#x40b;" horiz-adv-x="1835" 
d="M1706 104q12 -34 43 -47.5t94 -15.5v-41q-97 6 -315 6q-203 0 -301 -6v41q59 2 88 15.5t41 47.5t12 103v332q0 86 -15 135.5t-59.5 74.5t-132.5 25q-90 0 -176 -27t-139 -69v-445q0 -85 17.5 -124t62 -53t139.5 -15v-41q-258 6 -389 6q-129 0 -375 -6v41q96 1 140.5 15
t61.5 53t17 124v1170h-45q-99 0 -167.5 -43t-117.5 -142.5t-84 -271.5h-47q7 68 7 156q0 140 -15 348q187 -6 633 -6t631 6q-15 -208 -15 -348q0 -88 7 -156h-47q-34 171 -83 270.5t-117.5 143t-166.5 43.5h-47v-680q64 49 176.5 83t237.5 34q185 0 305 -70
q70 -43 99.5 -111.5t29.5 -177.5v-274q0 -69 12 -103z" />
    <glyph glyph-name="uni042E" unicode="&#x42e;" horiz-adv-x="2212" 
d="M861 1129q88 167 240 258.5t345 91.5q203 0 356 -88t237.5 -255.5t84.5 -398.5q0 -226 -87 -400t-241.5 -270t-351.5 -96q-203 0 -355.5 87t-236.5 252.5t-86 394.5h-217v-488q0 -77 11 -112t42 -48t100 -16v-41q-109 6 -309 6q-219 0 -323 -6v41q68 3 99 16t42.5 48
t11.5 112v1016q0 77 -11.5 112t-42.5 48t-99 16v41q103 -6 323 -6q200 0 309 6v-41q-69 -3 -100 -16t-42 -48t-11 -112v-488h217q7 217 95 384zM1626.5 99.5q75.5 91.5 116.5 255t41 374.5q0 212 -46.5 374.5t-125.5 250.5t-174 88q-100 0 -175 -91.5t-116 -255t-41 -374.5
q0 -213 46 -375t125 -250t175 -88q99 0 174.5 91.5z" />
    <glyph glyph-name="uni0402" unicode="&#x402;" horiz-adv-x="1847" 
d="M1035.5 813q114.5 39 254.5 39q149 0 265 -49.5t182.5 -149.5t66.5 -245q0 -144 -69 -242.5t-185 -146.5t-258 -48q-88 0 -167.5 27t-129 82.5t-49.5 136.5q0 50 23.5 87.5t63.5 58t89 20.5q72 0 115 -41.5t43 -112.5q0 -133 -158 -180q20 -15 54.5 -25t70.5 -10
q116 0 180 96.5t64 288.5q0 185 -69.5 286t-241.5 101q-99 0 -193.5 -33.5t-140.5 -82.5v-693q-113 29 -297 29q-128 0 -248 -6v41q96 1 140.5 15t61.5 53t17 124v1170h-45q-99 0 -167.5 -43t-117.5 -142.5t-84 -271.5h-47q7 68 7 156q0 140 -15 348q187 -6 633 -6t631 6
q-15 -193 -15 -324q0 -87 7 -155h-47q-52 221 -139.5 326.5t-227.5 105.5h-47v-690q75 61 189.5 100z" />
    <glyph glyph-name="uni045B" unicode="&#x45b;" horiz-adv-x="1247" 
d="M27 1245v41h764v-41h-764zM1431.5 1188q-30.5 -13 -42 -47.5t-11.5 -112.5v-811q0 -77 11.5 -112t43 -48t99.5 -16v-41q-96 6 -299 6q-208 0 -322 -6v41q69 3 100 16t42.5 48t11.5 112v397h-526v-397q0 -77 11.5 -112t42.5 -48t99 -16v-41q-114 6 -321 6q-201 0 -299 -6
v41q69 3 100 16t42 48t11 112v811q0 77 -11.5 112t-42 48t-99.5 16v41q98 -6 299 -6q207 0 321 6v-41q-70 -3 -100.5 -16t-41.5 -47.5t-11 -112.5v-373h526v373q0 77 -11.5 112t-42.5 48t-100 16v41q114 -6 322 -6q203 0 299 6v-41q-70 -3 -100.5 -16z" />
    <glyph glyph-name="uni0431.srb" horiz-adv-x="1157" 
d="M956.5 1364q-77.5 -86 -198.5 -86q-39 0 -85 8t-141.5 28.5t-138.5 20.5q-80 0 -80 -53q0 -39 50.5 -70t164.5 -75q202 -66 312 -126t175.5 -175t65.5 -316q0 -187 -64.5 -310t-177.5 -181t-261 -58q-234 0 -367 130t-133 407q0 238 113.5 379.5t351.5 196.5
q-20 10 -43 20q-115 42 -186 78t-117.5 90t-46.5 131q0 92 63 135t158 43q66 0 166 -19.5t167.5 -31.5t126.5 -12q76 0 124 21t73 71l31 -8q-25 -152 -102.5 -238zM718 133q54 121 54 385q0 164 -18 267.5t-60 169t-117 110.5q-93 -45 -141.5 -183t-48.5 -366
q0 -257 52 -380.5t139 -123.5q86 0 140 121z" />
    <glyph glyph-name="uni0430" unicode="&#x430;" horiz-adv-x="1284" 
d="M1300 41v-41q-97 6 -268 6q-219 0 -323 -6v41q67 3 99.5 21t32.5 58q0 37 -26 93l-102 233h-431l-24 -55q-58 -132 -58 -211q0 -71 45 -102t134 -37v-41q-117 6 -236 6q-111 0 -166 -6v41q50 10 91.5 61.5t89.5 157.5l432 989q24 -3 47 -3q25 0 47 3l487 -1077
q60 -128 129 -131zM498 936l-198 -449h395z" />
    <glyph glyph-name="uni0431" unicode="&#x431;" horiz-adv-x="1300" 
d="M1086.5 626.5q148.5 -86.5 148.5 -257.5q0 -177 -133.5 -272t-401.5 -95q-42 0 -149.5 2t-204.5 2q-181 0 -276 -6v41q68 3 99 16t42.5 48t11.5 112v811q0 78 -11 112.5t-41.5 47.5t-100.5 16v41q94 -6 282 -6q104 0 225.5 2t149.5 2q266 0 387 2q-14 -137 -14 -246
q0 -80 6 -127h-47q-30 176 -106.5 251t-209.5 75h-92q-46 0 -69.5 -10t-34 -38t-10.5 -85v-352h79q322 0 470.5 -86.5zM546.5 107.5q9.5 -36.5 34.5 -50.5t76 -14q132 0 191 78t59 237q0 149 -65.5 232.5t-223.5 83.5h-81v-457q0 -73 9.5 -109.5z" />
    <glyph glyph-name="uni0432" unicode="&#x432;" horiz-adv-x="1329" 
d="M1156 551q107 -86 107 -215q0 -105 -63 -180.5t-185.5 -115.5t-296.5 -40q-43 0 -151 3t-218 3q-183 0 -278 -6v41q69 3 100 16t42 48t11 112v811q0 78 -11.5 113t-42 47.5t-99.5 15.5v41q94 -6 274 -6q83 0 185 2t141 2q246 0 365.5 -72.5t119.5 -207.5
q0 -105 -86 -179.5t-278 -115.5v-4q257 -27 364 -113zM786.5 739.5q50.5 71.5 50.5 200.5q0 133 -45.5 198.5t-147.5 65.5q-45 0 -67 -14.5t-30.5 -51.5t-8.5 -110v-360h67q131 0 181.5 71.5zM546.5 108q8.5 -35 30.5 -48t69 -13q149 0 219 75t70 222q0 142 -70.5 215.5
t-224.5 73.5h-102v-416q0 -74 8.5 -109z" />
    <glyph glyph-name="uni0433" unicode="&#x433;" horiz-adv-x="1128" 
d="M379 1239q78 0 179 2t155 2q243 0 358 2q-14 -167 -14 -299q0 -100 6 -168h-47q-22 156 -64.5 247.5t-109.5 132t-166 40.5h-21q-48 0 -72.5 -9.5t-35 -38t-10.5 -87.5v-834q0 -77 19 -115.5t64.5 -54t135.5 -18.5v-41q-126 6 -363 6q-219 0 -323 -6v41q69 3 100 16
t42 48t11 112v811q0 78 -11 112.5t-41.5 47.5t-100.5 16v41q282 -6 309 -6z" />
    <glyph glyph-name="uni0453" unicode="&#x453;" horiz-adv-x="1128" 
d="M380 1239q78 0 179 2t155 2q243 0 358 2q-14 -167 -14 -299q0 -100 6 -168h-47q-22 156 -64.5 247.5t-109.5 132t-166 40.5h-21q-48 0 -72.5 -9.5t-35 -38t-10.5 -87.5v-834q0 -77 19 -115.5t64.5 -54t135.5 -18.5v-41q-126 6 -363 6q-219 0 -323 -6v41q69 3 100 16
t42 48t11 112v811q0 78 -11 112.5t-41.5 47.5t-100.5 16v41q282 -6 309 -6zM495.5 1535q44.5 44 110 114.5t112.5 95.5q30 16 62 16t60.5 -16t43.5 -45q11 -24 11 -47q0 -31 -17.5 -59t-51.5 -46q-46 -25 -121 -44t-142.5 -37t-162.5 -54l-14 25q65 53 109.5 97z" />
    <glyph glyph-name="uni0491" unicode="&#x491;" horiz-adv-x="1071" 
d="M1022 1430q0 -131 14 -236q-108 4 -370 4q-53 0 -79.5 -11t-38 -44t-11.5 -103v-811q0 -77 19 -115.5t64.5 -54t135.5 -18.5v-41q-126 6 -363 6q-219 0 -323 -6v41q69 3 100 16t42 48t11 112v811q0 78 -11 112.5t-41.5 47.5t-100.5 16v41q150 -6 315 -6q182 0 291 14
q130 17 204.5 94.5t100.5 221.5h47q-6 -52 -6 -139z" />
    <glyph glyph-name="uni0434" unicode="&#x434;" horiz-adv-x="1323" 
d="M1278 -225q0 -85 6 -133h-47q-21 133 -66 211.5t-114 112.5t-168 34h-477q-100 0 -169 -34t-114 -112.5t-66 -211.5h-47q7 56 7 133q0 105 -15 266h58q146 0 223.5 143t105.5 335.5t51 508.5q2 36 2 48q0 51 -15 77.5t-49.5 37t-102.5 13.5v41q55 -4 198 -4q22 0 64.5 2
t74.5 2q82 0 172.5 -3t133.5 -3q200 0 305 6v-41q-69 -3 -100 -16t-42.5 -48t-11.5 -112v-811q0 -77 12 -113.5t43.5 -49.5t98.5 -13h63q-14 -150 -14 -266zM753 1143q-9 36 -33.5 48.5t-78.5 12.5h-27q-53 0 -75 -13.5t-30 -46.5t-15 -116q-7 -70 -26 -317.5t-80 -425.5
t-173 -244h387q69 0 101.5 13t45.5 49.5t13 113.5v811q0 79 -9 115z" />
    <glyph glyph-name="uni0435" unicode="&#x435;" horiz-adv-x="1247" 
d="M1140 266q0 -118 14 -266q-133 6 -448 6q-422 0 -635 -6v41q69 3 100 16t42 48t11 112v811q0 77 -11.5 112t-42 48t-99.5 16v41q213 -6 635 -6q286 0 407 6q-14 -137 -14 -246q0 -80 6 -127h-47q-21 120 -62 191.5t-103.5 103t-150.5 31.5h-75q-53 0 -79.5 -9.5t-38 -37
t-11.5 -86.5v-418h96q95 0 142.5 66.5t64.5 154.5h47q-7 -80 -7 -159l1 -82q0 -92 12 -242h-47q-15 97 -65 159t-148 62h-96v-426q0 -59 11.5 -86.5t38 -37t79.5 -9.5h88q97 0 165 35.5t112.5 116t66.5 215.5h47q-6 -58 -6 -148z" />
    <glyph glyph-name="uni0451" unicode="&#x451;" horiz-adv-x="1247" 
d="M1140 266q0 -118 14 -266q-133 6 -448 6q-422 0 -635 -6v41q69 3 100 16t42 48t11 112v811q0 77 -11.5 112t-42 48t-99.5 16v41q213 -6 635 -6q286 0 407 6q-14 -137 -14 -246q0 -80 6 -127h-47q-21 120 -62 191.5t-103.5 103t-150.5 31.5h-75q-53 0 -79.5 -9.5t-38 -37
t-11.5 -86.5v-418h96q95 0 142.5 66.5t64.5 154.5h47q-7 -80 -7 -159l1 -82q0 -92 12 -242h-47q-15 97 -65 159t-148 62h-96v-426q0 -59 11.5 -86.5t38 -37t79.5 -9.5h88q97 0 165 35.5t112.5 116t66.5 215.5h47q-6 -58 -6 -148zM451 1719q36 -22 58 -58t22 -76
q0 -41 -22 -76t-58 -56t-76 -21q-41 0 -76.5 20.5t-56 56t-20.5 76.5q0 40 21 76t56 58t76 22q40 0 76 -22zM942.5 1719q35.5 -22 56.5 -58t21 -76q0 -41 -21 -76.5t-56.5 -56t-75.5 -20.5q-42 0 -78 20.5t-57 56t-21 76.5t21 77t57 57.5t78 21.5q40 0 75.5 -22z" />
    <glyph glyph-name="uni0436" unicode="&#x436;" horiz-adv-x="2064" 
d="M1921.5 -0.5q-63.5 -28.5 -152.5 -28.5q-74 0 -127 18.5t-91 67.5t-58 136l-59 276q-15 59 -36.5 95t-61.5 54.5t-107 18.5h-44v-420q0 -77 11 -112t42 -48t100 -16v-41q-104 6 -303 6q-217 0 -317 -6v41q69 3 100 16t42 48t11 112v420h-48q-68 0 -108.5 -18.5t-62 -54.5
t-36.5 -95l-59 -276q-19 -87 -56.5 -136t-91 -67.5t-128.5 -18.5q-82 0 -143 29t-107 90l26 25q22 -24 39.5 -35t42.5 -12q23 0 39.5 12t31.5 44t30 91l49 188q35 141 156.5 198t298.5 68q-84 33 -124 101.5t-71.5 166.5t-44.5 132q-25 68 -56 102t-77 43q-22 2 -27 2
q-16 0 -29 -6q56 -11 92.5 -50.5t36.5 -92.5q0 -69 -40.5 -109t-112.5 -40q-83 0 -136 47.5t-53 126.5q0 61 30 102t78 60.5t103 19.5q79 0 137 -47.5t93 -132.5q12 -37 46.5 -161.5t94.5 -186t174 -72.5h13v354q0 77 -11.5 112t-42 48t-99.5 16v41q100 -6 317 -6
q199 0 303 6v-41q-70 -3 -100.5 -16t-41.5 -47.5t-11 -112.5v-354h12q139 13 192 84t84.5 183.5t46.5 152.5q74 180 229 180q55 0 103 -19.5t78 -60.5t30 -102q0 -79 -53 -126.5t-135 -47.5q-72 0 -113 40t-41 109q0 53 36.5 92.5t92.5 50.5q-12 6 -29 6q-6 0 -26 -2
q-46 -9 -77.5 -43t-55.5 -102q-14 -36 -48.5 -144t-78 -168.5t-117.5 -87.5q181 -12 304 -69t161 -197l49 -188q15 -60 29.5 -91.5t30 -43.5t38.5 -12q25 1 42.5 12t39.5 35l27 -25q-51 -62 -114.5 -90.5z" />
    <glyph glyph-name="uni0437" unicode="&#x437;" horiz-adv-x="1133" 
d="M192.5 1191q9.5 -22 30.5 -22q20 0 68 27q39 24 72.5 39.5t85.5 27t122 11.5q122 0 216.5 -31.5t148 -92.5t53.5 -146q0 -95 -64.5 -166t-171 -113.5t-233.5 -58.5q145 0 269.5 -35t201 -108.5t76.5 -184.5q0 -113 -72.5 -196t-206.5 -127t-317 -44q-202 0 -317 68
q-48 28 -74.5 69t-26.5 89q0 63 42 103t114 40t118 -39t46 -104q0 -54 -34.5 -92.5t-88.5 -53.5q20 -17 71 -29t107 -12q158 0 235.5 86t77.5 232q0 117 -48 201t-136 108q-30 10 -70 10q-48 -26 -88 -26q-43 0 -43 34q0 33 45 33q32 0 88 -12q95 34 134 106.5t39 190.5
q0 126 -43 186t-138 60q-87 0 -151.5 -46.5t-100.5 -129.5t-43 -193h-47q0 290 -10 410h47q7 -47 16.5 -69z" />
    <glyph glyph-name="uni0438" unicode="&#x438;" horiz-adv-x="1640" 
d="M1470.5 1188q-30.5 -13 -42 -47.5t-11.5 -112.5v-811q0 -77 11.5 -112t43 -48t99.5 -16v-41q-96 6 -299 6q-208 0 -322 -6v41q69 3 100 16t42.5 48t11.5 112v757l-566 -802q3 -55 16.5 -81.5t44 -36.5t91.5 -13v-41q-114 6 -321 6q-202 0 -299 -6v41q69 3 100 16t42 48
t11 112v811q0 77 -11.5 112t-42 48t-99.5 16v41q97 -6 299 -6q207 0 321 6v-41q-70 -3 -100.5 -16t-41.5 -47.5t-11 -112.5v-781l567 805q-2 65 -15 95.5t-43.5 42t-95.5 14.5v41q114 -6 322 -6q79 0 171.5 3t127.5 3v-41q-70 -3 -100.5 -16z" />
    <glyph glyph-name="uni0439" unicode="&#x439;" horiz-adv-x="1640" 
d="M1471.5 1188q-30.5 -13 -42 -47.5t-11.5 -112.5v-811q0 -77 11.5 -112t43 -48t99.5 -16v-41q-96 6 -299 6q-208 0 -322 -6v41q69 3 100 16t42.5 48t11.5 112v757l-566 -802q3 -55 16.5 -81.5t44 -36.5t91.5 -13v-41q-114 6 -321 6q-202 0 -299 -6v41q69 3 100 16t42 48
t11 112v811q0 77 -11.5 112t-42 48t-99.5 16v41q97 -6 299 -6q207 0 321 6v-41q-70 -3 -100.5 -16t-41.5 -47.5t-11 -112.5v-781l567 805q-2 65 -15 95.5t-43.5 42t-95.5 14.5v41q114 -6 322 -6q79 0 171.5 3t127.5 3v-41q-70 -3 -100.5 -16zM1229 1754.5q37 -17.5 58 -48.5
t21 -70q0 -89 -123 -151q-137 -72 -361 -72q-223 0 -360 72q-121 59 -121 151q0 38 20.5 69t57.5 49t84 18q71 0 118.5 -38.5t47.5 -99.5q0 -51 -35.5 -85t-91.5 -48q102 -47 280 -47q181 0 279 49q-56 13 -89.5 47t-33.5 84q0 39 21.5 70.5t59.5 49.5t85 18q46 0 83 -17.5z
" />
    <glyph glyph-name="uni043A" unicode="&#x43a;" horiz-adv-x="1450" 
d="M1307 -0.5q-64 -28.5 -152 -28.5q-75 0 -128.5 18.5t-91 67.5t-56.5 136l-54 237q-16 69 -37.5 111.5t-69 69t-132.5 26.5h-49v-420q0 -77 11 -112t42 -48t100 -16v-41q-104 6 -303 6q-217 0 -317 -6v41q69 3 100 16t42 48t11 112v811q0 77 -11.5 112t-42 48t-99.5 16v41
q100 -6 317 -6q199 0 303 6v-41q-70 -3 -100.5 -16t-41.5 -47.5t-11 -112.5v-354l34 -1q144 13 199 83.5t88 183.5t49 154q33 85 91.5 132.5t138.5 47.5q55 0 103 -19.5t78 -60.5t30 -102q0 -79 -53 -126.5t-136 -47.5q-72 0 -113 40t-40 109q0 53 36.5 92.5t92.5 50.5
q-14 6 -29 6q-5 0 -27 -2q-46 -9 -77.5 -43t-57.5 -102q-13 -35 -48 -143t-79.5 -168.5t-120.5 -88.5q183 -12 307.5 -68.5t161.5 -197.5l47 -188q15 -60 29.5 -91.5t30.5 -43.5t39 -12q25 1 43.5 12.5t38.5 34.5l28 -25q-50 -62 -114 -90.5z" />
    <glyph glyph-name="uni045C" unicode="&#x45c;" horiz-adv-x="1450" 
d="M684.5 1535q44.5 44 110 114.5t112.5 95.5q30 16 62 16t60.5 -16t43.5 -45q11 -24 11 -47q0 -31 -17.5 -59t-51.5 -46q-46 -25 -121 -44t-142.5 -37t-162.5 -54l-14 25q65 53 109.5 97zM1307 -0.5q-64 -28.5 -152 -28.5q-75 0 -128.5 18.5t-91 67.5t-56.5 136l-54 237
q-16 69 -37.5 111.5t-69 69t-132.5 26.5h-49v-420q0 -77 11 -112t42 -48t100 -16v-41q-104 6 -303 6q-217 0 -317 -6v41q69 3 100 16t42 48t11 112v811q0 77 -11.5 112t-42 48t-99.5 16v41q100 -6 317 -6q199 0 303 6v-41q-70 -3 -100.5 -16t-41.5 -47.5t-11 -112.5v-354
l34 -1q144 13 199 83.5t88 183.5t49 154q33 85 91.5 132.5t138.5 47.5q55 0 103 -19.5t78 -60.5t30 -102q0 -79 -53 -126.5t-136 -47.5q-72 0 -113 40t-40 109q0 53 36.5 92.5t92.5 50.5q-14 6 -29 6q-5 0 -27 -2q-46 -9 -77.5 -43t-57.5 -102q-13 -35 -48 -143
t-79.5 -168.5t-120.5 -88.5q183 -12 307.5 -68.5t161.5 -197.5l47 -188q15 -60 29.5 -91.5t30.5 -43.5t39 -12q25 1 43.5 12.5t38.5 34.5l28 -25q-50 -62 -114 -90.5z" />
    <glyph glyph-name="uni043B" unicode="&#x43b;" horiz-adv-x="1442" 
d="M1271.5 1188q-30.5 -13 -41.5 -47.5t-11 -112.5v-811q0 -77 11 -112t42 -48t100 -16v-41q-100 6 -301 6q-215 0 -319 -6v41q69 3 100 16t42 48t11 112v811q0 79 -9 115t-33.5 48.5t-78.5 12.5h-26q-53 0 -76 -13.5t-31 -47t-14 -115.5q-6 -55 -32.5 -374t-121.5 -501
t-274 -182q-61 0 -112 24t-81 67.5t-30 99.5q0 52 24.5 91.5t66.5 61t93 21.5q69 0 110.5 -33.5t41.5 -93.5q0 -70 -45 -119.5t-117 -69.5q20 -10 49 -10q146 0 223.5 146t106 344.5t51.5 527.5q2 32 2 45q0 53 -15 79.5t-50 37.5t-103 14v41q53 -4 199 -4q23 0 68.5 2
t78.5 2q80 0 167.5 -3t129.5 -3q202 0 305 6v-41q-70 -3 -100.5 -16z" />
    <glyph glyph-name="uni043C" unicode="&#x43c;" horiz-adv-x="1806" 
d="M1636.5 1188q-33.5 -13 -46 -48t-12.5 -112v-811q0 -77 12.5 -112t46 -48t107.5 -16v-41q-111 6 -309 6q-238 0 -349 -6v41q74 3 107.5 16t46 48t12.5 112v899l-469 -1126h-32l-476 1124v-840q0 -90 16.5 -135.5t60 -67t134.5 -30.5v-41q-88 6 -233 6q-113 0 -178 -6v41
q67 9 99 30.5t43 66.5t11 136v754q0 77 -12.5 112t-46 48t-107.5 16v41q108 -6 326 -6q105 0 182 6l340 -817l342 811h183q198 0 309 6v-41q-74 -3 -107.5 -16z" />
    <glyph glyph-name="uni043D" unicode="&#x43d;" horiz-adv-x="1599" 
d="M1430.5 1188q-30.5 -13 -42 -47.5t-11.5 -112.5v-811q0 -77 11.5 -112t43 -48t99.5 -16v-41q-96 6 -299 6q-208 0 -322 -6v41q69 3 100 16t42.5 48t11.5 112v397h-526v-397q0 -77 11.5 -112t42.5 -48t99 -16v-41q-114 6 -321 6q-201 0 -299 -6v41q69 3 100 16t42 48
t11 112v811q0 77 -11.5 112t-42 48t-99.5 16v41q98 -6 299 -6q207 0 321 6v-41q-70 -3 -100.5 -16t-41.5 -47.5t-11 -112.5v-373h526v373q0 77 -11.5 112t-42.5 48t-100 16v41q114 -6 322 -6q203 0 299 6v-41q-70 -3 -100.5 -16z" />
    <glyph glyph-name="uni043E" unicode="&#x43e;" horiz-adv-x="1554" 
d="M1142 1198.5q156 -75.5 241.5 -219.5t85.5 -344q0 -196 -88 -346.5t-245.5 -234t-358.5 -83.5q-207 0 -363 75.5t-241.5 219.5t-85.5 344q0 196 88 347t245.5 234t358.5 83q207 0 363 -75.5zM583.5 1158.5q-80.5 -78.5 -124.5 -219t-44 -321.5q0 -182 49.5 -320.5
t134 -214t186.5 -75.5q107 0 188 78.5t125 219t44 321.5q0 182 -49.5 321t-134 214t-187.5 75q-107 0 -187.5 -78.5z" />
    </font>
</defs>
</svg>
