<?xml version="1.0" standalone="no"?>
<!DOCTYPE svg PUBLIC "-//W3C//DTD SVG 1.1//EN" "http://www.w3.org/Graphics/SVG/1.1/DTD/svg11.dtd" >
<svg xmlns="http://www.w3.org/2000/svg" xmlns:xlink="http://www.w3.org/1999/xlink" version="1.1">
<metadata>
Created by FontForge 20190801 at Thu Nov  1 01:34:12 2012
 By Jimmy Wärting
Copyright (c) 2010-2012 by Claus Eggers Sorensen (es@forthehearts.net), with Reserved Font Name 'Playfair'.
</metadata>
<defs>
<font id="PlayfairDisplaySC-BoldItalic" horiz-adv-x="799" >
  <font-face 
    font-family="Playfair Display SC"
    font-weight="700"
    font-style="italic"
    font-stretch="normal"
    units-per-em="2048"
    panose-1="0 0 8 0 0 0 0 0 0 0"
    ascent="1638"
    descent="-410"
    x-height="1245"
    cap-height="1450"
    bbox="-758 -498 2449 1991"
    underline-thickness="20"
    underline-position="-110"
    slope="-14"
    unicode-range="U+000D-25CA"
  />
<missing-glyph horiz-adv-x="1151" 
d="M1028 0h-905v1581h905v-1581zM954 1520h-757v-1459h757v1459z" />
    <glyph glyph-name="T_h.liga" unicode="Th" horiz-adv-x="2413" 
d="M2269 182q-72 -211 -274 -211q-186 0 -186 169q0 67 30 157l182 553q20 57 20 90q0 45 -42 45q-66 0 -151.5 -115.5t-175.5 -334.5t-169 -515l1 5l-7 -25h-289l373 1369q-99 -30 -254 -30q-80 0 -199 13l-297 -1114q-15 -57 -15 -94t16.5 -58.5t53 -31.5t99.5 -13l-8 -41
q-129 6 -379 6q-244 0 -360 -6l8 41q88 3 136 21t75.5 58t48.5 118l306 1155q-134 16 -220 16q-167 0 -232 -35q55 -15 90 -59.5t35 -106.5q0 -47 -20.5 -86.5t-56.5 -62.5t-82 -23q-70 0 -109 46.5t-39 115.5q0 58 31 111.5t102 87.5q99 49 275 49q94 0 184.5 -9t276 -33
t299.5 -24q83 0 139.5 8t108.5 27l42 156q171 12 306 57l-272 -997q73 174 145.5 273t150.5 141t176 42q88 0 131 -44.5t43 -123.5q0 -61 -26 -141l-201 -604q-12 -33 -12 -57q0 -45 41 -45q71 0 127 161l36 99h39z" />
    <glyph glyph-name=".notdef" horiz-adv-x="1151" 
d="M1028 0h-905v1581h905v-1581zM954 1520h-757v-1459h757v1459z" />
    <glyph glyph-name="space" unicode=" " horiz-adv-x="522" 
 />
    <glyph glyph-name="A" unicode="A" horiz-adv-x="1337" 
d="M1126 74q29 -31 66 -33l-8 -41q-105 6 -297 6q-209 0 -307 -6l8 41q66 3 103 15.5t55.5 43t18.5 87.5q0 17 -1 26l-17 336h-443l-181 -256q-65 -92 -65 -151q0 -93 171 -101l-10 -41q-172 6 -266 6q-76 0 -141 -6l8 41q52 14 103 61t128 156l854 1202q27 -3 54 -3
q29 0 51 3l82 -1288q5 -67 34 -98zM716 1133l-383 -543h411z" />
    <glyph glyph-name="Aacute" unicode="&#xc1;" horiz-adv-x="1337" 
d="M1126 74q29 -31 66 -33l-8 -41q-105 6 -297 6q-209 0 -307 -6l8 41q66 3 103 15.5t55.5 43t18.5 87.5q0 17 -1 26l-17 336h-443l-181 -256q-65 -92 -65 -151q0 -93 171 -101l-10 -41q-172 6 -266 6q-76 0 -141 -6l8 41q52 14 103 61t128 156l854 1202q27 -3 54 -3
q29 0 51 3l82 -1288q5 -67 34 -98zM716 1133l-383 -543h411zM1007.5 1759.5q84.5 79.5 123.5 114.5t87 61q41 23 88 23q71 0 98 -55q11 -22 11 -42q0 -65 -92 -116q-36 -20 -78.5 -34.5t-165 -49.5t-236.5 -80l-14 25q94 74 178.5 153.5z" />
    <glyph glyph-name="Abreve" unicode="&#x102;" horiz-adv-x="1337" 
d="M1126 74q29 -31 66 -33l-8 -41q-105 6 -297 6q-209 0 -307 -6l8 41q66 3 103 15.5t55.5 43t18.5 87.5q0 17 -1 26l-17 336h-443l-181 -256q-65 -92 -65 -151q0 -93 171 -101l-10 -41q-172 6 -266 6q-76 0 -141 -6l8 41q52 14 103 61t128 156l854 1202q27 -3 54 -3
q29 0 51 3l82 -1288q5 -67 34 -98zM716 1133l-383 -543h411zM801.5 1804.5q76.5 -24.5 197.5 -24.5q270 0 467 116l22 -20q-54 -77 -140.5 -145t-189 -110t-200.5 -42q-136 0 -217.5 81.5t-106.5 213.5l31 14q60 -59 136.5 -83.5z" />
    <glyph glyph-name="Acircumflex" unicode="&#xc2;" horiz-adv-x="1337" 
d="M1126 74q29 -31 66 -33l-8 -41q-105 6 -297 6q-209 0 -307 -6l8 41q66 3 103 15.5t55.5 43t18.5 87.5q0 17 -1 26l-17 336h-443l-181 -256q-65 -92 -65 -151q0 -93 171 -101l-10 -41q-172 6 -266 6q-76 0 -141 -6l8 41q52 14 103 61t128 156l854 1202q27 -3 54 -3
q29 0 51 3l82 -1288q5 -67 34 -98zM716 1133l-383 -543h411zM1161.5 1629q-88.5 28 -191.5 71q-214 -77 -445 -121l-10 29q169 53 317 138t238 179h37q48 -115 111.5 -190t172.5 -127l-8 -29q-133 22 -221.5 50z" />
    <glyph glyph-name="Adieresis" unicode="&#xc4;" horiz-adv-x="1337" 
d="M1126 74q29 -31 66 -33l-8 -41q-105 6 -297 6q-209 0 -307 -6l8 41q66 3 103 15.5t55.5 43t18.5 87.5q0 17 -1 26l-17 336h-443l-181 -256q-65 -92 -65 -151q0 -93 171 -101l-10 -41q-172 6 -266 6q-76 0 -141 -6l8 41q52 14 103 61t128 156l854 1202q27 -3 54 -3
q29 0 51 3l82 -1288q5 -67 34 -98zM716 1133l-383 -543h411zM598.5 1796.5q24.5 39.5 64.5 60.5t87 21q64 0 98.5 -37.5t34.5 -99.5q0 -54 -25 -93t-66 -59t-87 -20q-65 0 -98 36.5t-33 98.5q0 53 24.5 92.5zM1088.5 1796.5q24.5 39.5 64.5 60.5t87 21q64 0 98.5 -37.5
t34.5 -99.5q0 -54 -25 -93t-65.5 -59t-85.5 -20q-66 0 -99.5 36.5t-33.5 98.5q0 53 24.5 92.5z" />
    <glyph glyph-name="Agrave" unicode="&#xc0;" horiz-adv-x="1337" 
d="M1126 74q29 -31 66 -33l-8 -41q-105 6 -297 6q-209 0 -307 -6l8 41q66 3 103 15.5t55.5 43t18.5 87.5q0 17 -1 26l-17 336h-443l-181 -256q-65 -92 -65 -151q0 -93 171 -101l-10 -41q-172 6 -266 6q-76 0 -141 -6l8 41q52 14 103 61t128 156l854 1202q27 -3 54 -3
q29 0 51 3l82 -1288q5 -67 34 -98zM716 1133l-383 -543h411zM863.5 1657q-83.5 29 -125 44.5t-75.5 37.5q-29 18 -47 46.5t-18 58.5q0 25 14 50q30 50 93 50q43 0 77 -23q29 -17 52 -42.5t87 -110t148 -166.5l-17 -23q-105 49 -188.5 78z" />
    <glyph glyph-name="Amacron" unicode="&#x100;" horiz-adv-x="1337" 
d="M1126 74q29 -31 66 -33l-8 -41q-105 6 -297 6q-209 0 -307 -6l8 41q66 3 103 15.5t55.5 43t18.5 87.5q0 17 -1 26l-17 336h-443l-181 -256q-65 -92 -65 -151q0 -93 171 -101l-10 -41q-172 6 -266 6q-76 0 -141 -6l8 41q52 14 103 61t128 156l854 1202q27 -3 54 -3
q29 0 51 3l82 -1288q5 -67 34 -98zM716 1133l-383 -543h411zM543 1677l12 52h820l-13 -52h-819z" />
    <glyph glyph-name="Aogonek" unicode="&#x104;" horiz-adv-x="1337" 
d="M1126 74q29 -31 66 -33l-8 -41q-105 6 -297 6q-209 0 -307 -6l8 41q66 3 103 15.5t55.5 43t18.5 87.5q0 17 -1 26l-17 336h-443l-181 -256q-65 -92 -65 -151q0 -93 171 -101l-10 -41q-172 6 -266 6q-76 0 -141 -6l8 41q52 14 103 61t128 156l854 1202q27 -3 54 -3
q29 0 51 3l82 -1288q5 -67 34 -98zM716 1133l-383 -543h411zM969.5 -91q-61.5 -62 -61.5 -130q0 -62 67 -62q33 0 74.5 12.5t77.5 32.5l22 -34q-141 -113 -299 -113q-81 0 -126.5 32.5t-45.5 90.5q0 90 114 158.5t280 109.5h53q-94 -35 -155.5 -97z" />
    <glyph glyph-name="Aring" unicode="&#xc5;" horiz-adv-x="1337" 
d="M1126 74q29 -31 66 -33l-8 -41q-105 6 -297 6q-209 0 -307 -6l8 41q66 3 103 15.5t55.5 43t18.5 87.5q0 17 -1 26l-17 336h-443l-181 -256q-65 -92 -65 -151q0 -93 171 -101l-10 -41q-172 6 -266 6q-76 0 -141 -6l8 41q52 14 103 61t128 156l854 1202q27 -3 54 -3
q29 0 51 3l82 -1288q5 -67 34 -98zM716 1133l-383 -543h411zM1125 1897.5q46 -21.5 72 -61t26 -91.5q0 -61 -35.5 -112.5t-94 -82t-124.5 -30.5q-85 0 -140 47.5t-55 128.5q0 62 33.5 113t90 80.5t124.5 29.5q57 0 103 -21.5zM1070.5 1586.5q44.5 23.5 71.5 65t27 91.5
q0 43 -22 73t-57.5 45t-73.5 15q-49 0 -92.5 -25t-69 -67t-25.5 -88q0 -42 21 -72t55 -45.5t72 -15.5q49 0 93.5 23.5z" />
    <glyph glyph-name="Atilde" unicode="&#xc3;" horiz-adv-x="1337" 
d="M1126 74q29 -31 66 -33l-8 -41q-105 6 -297 6q-209 0 -307 -6l8 41q66 3 103 15.5t55.5 43t18.5 87.5q0 17 -1 26l-17 336h-443l-181 -256q-65 -92 -65 -151q0 -93 171 -101l-10 -41q-172 6 -266 6q-76 0 -141 -6l8 41q52 14 103 61t128 156l854 1202q27 -3 54 -3
q29 0 51 3l82 -1288q5 -67 34 -98zM716 1133l-383 -543h411zM699.5 1828q91.5 70 193.5 70q73 0 121.5 -21t123 -74.5t144.5 -53.5q44 0 82.5 28t75.5 91l37 -10q-55 -144 -146.5 -214.5t-193.5 -70.5q-72 0 -120 21t-123.5 74.5t-145.5 53.5q-45 0 -83 -27.5t-75 -90.5
l-37 10q55 144 146.5 214z" />
    <glyph glyph-name="AE" unicode="&#xc6;" horiz-adv-x="1853" 
d="M1349.5 1444h176.5q295 0 424 6q-32 -89 -78 -242q-19 -68 -27 -127h-45q15 85 15 145q0 96 -42.5 136.5t-138.5 40.5h-129q-71 0 -106.5 -12t-57 -46.5t-41.5 -111.5l-128 -483h159q58 0 96.5 30.5t62 76t52.5 122.5h45q-28 -85 -45 -154.5t-24 -95.5q-22 -75 -54 -250
h-45q0 20 5.5 63t5.5 64q0 45 -23 72t-84 31h-162l-131 -492q-17 -66 -17 -99q0 -30 13.5 -45t41.5 -20.5t79 -5.5h149q99 0 162.5 34t110 111t94.5 218h45q-19 -50 -43 -148q-35 -127 -53 -262q-139 6 -463 6q-440 0 -664 -6l9 41q74 3 110.5 16t58.5 48t42 112l131 492
h-328l-438 -516q-59 -67 -59 -97q0 -45 126 -55v-41q-56 6 -176 6q-88 0 -137 -6v41q63 3 176 131l992 1168q-3 39 -33.5 52.5t-104.5 16.5l10 41q93 -3 218 -4l116 137h53l-117 -138q115 -1 215.5 -1zM975 1233l9 35l-441 -518h304z" />
    <glyph glyph-name="B" unicode="B" horiz-adv-x="1391" 
d="M604 1444q69 0 153 2t146 2q230 0 340.5 -71t110.5 -199q0 -106 -69 -195t-194 -147t-288 -74q149 -7 253 -50t156 -113t52 -157q0 -140 -86.5 -240t-239 -151t-348.5 -51q-36 0 -148 3t-211 3q-206 0 -317 -6l8 41q74 3 110.5 16t58.5 48t42 112l270 1016q18 72 18 98
q0 40 -30 58t-108 20l10 41q108 -6 311 -6zM866.5 832q80.5 62 123 163t42.5 215q0 97 -36 148t-122 51q-42 0 -66 -12t-40.5 -42.5t-32.5 -90.5l-130 -494h71q110 0 190.5 62zM442 124q0 -37 22.5 -57t76.5 -20q121 0 207 58t130 156t44 218q0 118 -56 187t-180 69h-90
l-137 -518q-17 -64 -17 -93z" />
    <glyph glyph-name="C" unicode="C" horiz-adv-x="1419" 
d="M1397 979h-45q15 89 15 160q0 96 -34 157q-72 134 -241 134q-164 0 -312 -144t-237.5 -374.5t-89.5 -473.5q0 -203 72.5 -304t203.5 -101q78 0 162 35.5t145 99.5q54 56 93.5 127.5t91.5 196.5h45q-97 -355 -121 -492h-45q6 44 6 70q0 52 -26 52q-16 0 -42 -18
q-93 -64 -188 -98.5t-213 -34.5q-274 0 -411.5 131t-137.5 377q0 242 128 474t353 379t498 147q80 0 137 -18t94.5 -46t73.5 -69q15 -18 30 -18q38 0 83 122h43q-68 -177 -131 -471z" />
    <glyph glyph-name="Cacute" unicode="&#x106;" horiz-adv-x="1419" 
d="M1398 979h-45q15 89 15 160q0 96 -34 157q-72 134 -241 134q-164 0 -312 -144t-237.5 -374.5t-89.5 -473.5q0 -203 72.5 -304t203.5 -101q78 0 162 35.5t145 99.5q54 56 93.5 127.5t91.5 196.5h45q-97 -355 -121 -492h-45q6 44 6 70q0 52 -26 52q-16 0 -42 -18
q-93 -64 -188 -98.5t-213 -34.5q-274 0 -411.5 131t-137.5 377q0 242 128 474t353 379t498 147q80 0 137 -18t94.5 -46t73.5 -69q15 -18 30 -18q38 0 83 122h43q-68 -177 -131 -471zM1079.5 1759.5q84.5 79.5 123.5 114.5t87 61q41 23 88 23q71 0 98 -55q11 -22 11 -42
q0 -65 -92 -116q-36 -20 -78.5 -34.5t-165 -49.5t-236.5 -80l-14 25q94 74 178.5 153.5z" />
    <glyph glyph-name="Ccaron" unicode="&#x10c;" horiz-adv-x="1419" 
d="M1398 979h-45q15 89 15 160q0 96 -34 157q-72 134 -241 134q-164 0 -312 -144t-237.5 -374.5t-89.5 -473.5q0 -203 72.5 -304t203.5 -101q78 0 162 35.5t145 99.5q54 56 93.5 127.5t91.5 196.5h45q-97 -355 -121 -492h-45q6 44 6 70q0 52 -26 52q-16 0 -42 -18
q-93 -64 -188 -98.5t-213 -34.5q-274 0 -411.5 131t-137.5 377q0 242 128 474t353 379t498 147q80 0 137 -18t94.5 -46t73.5 -69q15 -18 30 -18q38 0 83 122h43q-68 -177 -131 -471zM966 1869q89 -28 189 -71q212 77 447 121l10 -29q-170 -53 -317.5 -137.5t-237.5 -179.5
h-37q-47 114 -111.5 189.5t-173.5 127.5l9 29q133 -22 222 -50z" />
    <glyph glyph-name="Ccedilla" unicode="&#xc7;" horiz-adv-x="1419" 
d="M1398 979h-45q15 89 15 160q0 96 -34 157q-72 134 -241 134q-164 0 -312 -144t-237.5 -374.5t-89.5 -473.5q0 -203 72.5 -304t203.5 -101q78 0 162 35.5t145 99.5q54 56 93.5 127.5t91.5 196.5h45q-97 -355 -121 -492h-45q6 44 6 70q0 52 -26 52q-16 0 -42 -18
q-93 -64 -188 -98.5t-213 -34.5q-274 0 -411.5 131t-137.5 377q0 242 128 474t353 379t498 147q80 0 137 -18t94.5 -46t73.5 -69q15 -18 30 -18q38 0 83 122h43q-68 -177 -131 -471zM734 -109q63 0 100 -25t37 -73q0 -61 -51 -101t-130.5 -58.5t-164.5 -18.5
q-70 0 -130 12.5t-95 28.5l12 31q96 -23 166 -23q68 0 126 20.5t58 73.5q0 47 -65 47q-34 0 -72 -14l100 221h56l-66 -141q58 20 119 20z" />
    <glyph glyph-name="Ccircumflex" unicode="&#x108;" horiz-adv-x="1419" 
d="M1398 979h-45q15 89 15 160q0 96 -34 157q-72 134 -241 134q-164 0 -312 -144t-237.5 -374.5t-89.5 -473.5q0 -203 72.5 -304t203.5 -101q78 0 162 35.5t145 99.5q54 56 93.5 127.5t91.5 196.5h45q-97 -355 -121 -492h-45q6 44 6 70q0 52 -26 52q-16 0 -42 -18
q-93 -64 -188 -98.5t-213 -34.5q-274 0 -411.5 131t-137.5 377q0 242 128 474t353 379t498 147q80 0 137 -18t94.5 -46t73.5 -69q15 -18 30 -18q38 0 83 122h43q-68 -177 -131 -471zM1233.5 1629q-88.5 28 -191.5 71q-214 -77 -445 -121l-10 29q169 53 317 138t238 179h37
q48 -115 111.5 -190t172.5 -127l-8 -29q-133 22 -221.5 50z" />
    <glyph glyph-name="Cdotaccent" unicode="&#x10a;" horiz-adv-x="1419" 
d="M1398 979h-45q15 89 15 160q0 96 -34 157q-72 134 -241 134q-164 0 -312 -144t-237.5 -374.5t-89.5 -473.5q0 -203 72.5 -304t203.5 -101q78 0 162 35.5t145 99.5q54 56 93.5 127.5t91.5 196.5h45q-97 -355 -121 -492h-45q6 44 6 70q0 52 -26 52q-16 0 -42 -18
q-93 -64 -188 -98.5t-213 -34.5q-274 0 -411.5 131t-137.5 377q0 242 128 474t353 379t498 147q80 0 137 -18t94.5 -46t73.5 -69q15 -18 30 -18q38 0 83 122h43q-68 -177 -131 -471zM920 1792q27 43 75 66.5t107 23.5q73 0 112 -33.5t39 -93.5q0 -52 -28 -95t-76.5 -68
t-108.5 -25q-70 0 -108.5 33t-38.5 92q0 57 27 100z" />
    <glyph glyph-name="D" unicode="D" horiz-adv-x="1579" 
d="M560 1443l65 1q213 6 305 6q300 0 459 -124t159 -365q0 -235 -114.5 -456.5t-343 -363t-551.5 -141.5q-46 0 -138 3t-172 3q-199 0 -307 -6l6 41q70 3 105.5 16t57.5 48.5t42 111.5l268 1016q16 64 16 89q0 43 -30 63.5t-104 23.5l6 41q145 -7 271 -7zM436 100
q0 -34 23 -48.5t80 -14.5q208 0 362.5 145t235 373.5t80.5 470.5q0 193 -79.5 290t-252.5 97q-53 0 -79 -13t-42 -47.5t-37 -115.5l-268 -1024q-23 -87 -23 -113z" />
    <glyph glyph-name="Eth" unicode="&#xd0;" horiz-adv-x="1579" 
d="M560 1443l65 1q213 6 305 6q300 0 459 -124t159 -365q0 -235 -114.5 -456.5t-343 -363t-551.5 -141.5q-46 0 -138 3t-172 3q-199 0 -307 -6l6 41q70 3 105.5 16t57.5 48.5t42 111.5l268 1016q16 64 16 89q0 43 -30 63.5t-104 23.5l6 41q145 -7 271 -7zM436 100
q0 -34 23 -48.5t80 -14.5q208 0 362.5 145t235 373.5t80.5 470.5q0 193 -79.5 290t-252.5 97q-53 0 -79 -13t-42 -47.5t-37 -115.5l-268 -1024q-23 -87 -23 -113zM156 708l12 52h820l-13 -52h-819z" />
    <glyph glyph-name="Dcaron" unicode="&#x10e;" horiz-adv-x="1579" 
d="M560 1443l65 1q213 6 305 6q300 0 459 -124t159 -365q0 -235 -114.5 -456.5t-343 -363t-551.5 -141.5q-46 0 -138 3t-172 3q-199 0 -307 -6l6 41q70 3 105.5 16t57.5 48.5t42 111.5l268 1016q16 64 16 89q0 43 -30 63.5t-104 23.5l6 41q145 -7 271 -7zM436 100
q0 -34 23 -48.5t80 -14.5q208 0 362.5 145t235 373.5t80.5 470.5q0 193 -79.5 290t-252.5 97q-53 0 -79 -13t-42 -47.5t-37 -115.5l-268 -1024q-23 -87 -23 -113zM851 1869q89 -28 189 -71q212 77 447 121l10 -29q-170 -53 -317.5 -137.5t-237.5 -179.5h-37
q-47 114 -111.5 189.5t-173.5 127.5l9 29q133 -22 222 -50z" />
    <glyph glyph-name="Dcroat" unicode="&#x110;" horiz-adv-x="1579" 
d="M560 1443l65 1q213 6 305 6q300 0 459 -124t159 -365q0 -235 -114.5 -456.5t-343 -363t-551.5 -141.5q-46 0 -138 3t-172 3q-199 0 -307 -6l6 41q70 3 105.5 16t57.5 48.5t42 111.5l268 1016q16 64 16 89q0 43 -30 63.5t-104 23.5l6 41q145 -7 271 -7zM436 100
q0 -34 23 -48.5t80 -14.5q208 0 362.5 145t235 373.5t80.5 470.5q0 193 -79.5 290t-252.5 97q-53 0 -79 -13t-42 -47.5t-37 -115.5l-268 -1024q-23 -87 -23 -113zM156 708l12 52h820l-13 -52h-819z" />
    <glyph glyph-name="E" unicode="E" horiz-adv-x="1282" 
d="M958 1444q291 0 416 6q-54 -147 -78 -242q-11 -46 -26 -127h-45q3 39 3 73q0 93 -22.5 147t-72 78t-134.5 24h-63q-72 0 -108 -12t-57.5 -46.5t-41.5 -111.5l-128 -483h75q102 0 171 71.5t109 173.5h48q-24 -70 -37.5 -118t-23.5 -88.5t-15 -59.5q-25 -91 -60 -266h-45
q2 28 2 44q0 202 -172 202h-63l-131 -492q-19 -68 -19 -100q0 -29 13.5 -44t42 -20.5t79.5 -5.5h76q112 0 187.5 34.5t135 112t120.5 216.5h47q-22 -54 -45 -148q-32 -108 -54 -262q-139 6 -464 6q-443 0 -666 -6l10 41q74 3 110 16t58 48t43 112l270 1016q17 65 17 99
q0 30 -13.5 46t-42 22.5t-81.5 8.5l10 41q223 -6 665 -6z" />
    <glyph glyph-name="Eacute" unicode="&#xc9;" horiz-adv-x="1282" 
d="M958 1444q291 0 416 6q-54 -147 -78 -242q-11 -46 -26 -127h-45q3 39 3 73q0 93 -22.5 147t-72 78t-134.5 24h-63q-72 0 -108 -12t-57.5 -46.5t-41.5 -111.5l-128 -483h75q102 0 171 71.5t109 173.5h48q-24 -70 -37.5 -118t-23.5 -88.5t-15 -59.5q-25 -91 -60 -266h-45
q2 28 2 44q0 202 -172 202h-63l-131 -492q-19 -68 -19 -100q0 -29 13.5 -44t42 -20.5t79.5 -5.5h76q112 0 187.5 34.5t135 112t120.5 216.5h47q-22 -54 -45 -148q-32 -108 -54 -262q-139 6 -464 6q-443 0 -666 -6l10 41q74 3 110 16t58 48t43 112l270 1016q17 65 17 99
q0 30 -13.5 46t-42 22.5t-81.5 8.5l10 41q223 -6 665 -6zM924.5 1759.5q84.5 79.5 123.5 114.5t87 61q41 23 88 23q71 0 98 -55q11 -22 11 -42q0 -65 -92 -116q-36 -20 -78.5 -34.5t-165 -49.5t-236.5 -80l-14 25q94 74 178.5 153.5z" />
    <glyph glyph-name="Ebreve" unicode="&#x114;" horiz-adv-x="1282" 
d="M958 1444q291 0 416 6q-54 -147 -78 -242q-11 -46 -26 -127h-45q3 39 3 73q0 93 -22.5 147t-72 78t-134.5 24h-63q-72 0 -108 -12t-57.5 -46.5t-41.5 -111.5l-128 -483h75q102 0 171 71.5t109 173.5h48q-24 -70 -37.5 -118t-23.5 -88.5t-15 -59.5q-25 -91 -60 -266h-45
q2 28 2 44q0 202 -172 202h-63l-131 -492q-19 -68 -19 -100q0 -29 13.5 -44t42 -20.5t79.5 -5.5h76q112 0 187.5 34.5t135 112t120.5 216.5h47q-22 -54 -45 -148q-32 -108 -54 -262q-139 6 -464 6q-443 0 -666 -6l10 41q74 3 110 16t58 48t43 112l270 1016q17 65 17 99
q0 30 -13.5 46t-42 22.5t-81.5 8.5l10 41q223 -6 665 -6zM718.5 1804.5q76.5 -24.5 197.5 -24.5q270 0 467 116l22 -20q-54 -77 -140.5 -145t-189 -110t-200.5 -42q-136 0 -217.5 81.5t-106.5 213.5l31 14q60 -59 136.5 -83.5z" />
    <glyph glyph-name="Ecaron" unicode="&#x11a;" horiz-adv-x="1282" 
d="M958 1444q291 0 416 6q-54 -147 -78 -242q-11 -46 -26 -127h-45q3 39 3 73q0 93 -22.5 147t-72 78t-134.5 24h-63q-72 0 -108 -12t-57.5 -46.5t-41.5 -111.5l-128 -483h75q102 0 171 71.5t109 173.5h48q-24 -70 -37.5 -118t-23.5 -88.5t-15 -59.5q-25 -91 -60 -266h-45
q2 28 2 44q0 202 -172 202h-63l-131 -492q-19 -68 -19 -100q0 -29 13.5 -44t42 -20.5t79.5 -5.5h76q112 0 187.5 34.5t135 112t120.5 216.5h47q-22 -54 -45 -148q-32 -108 -54 -262q-139 6 -464 6q-443 0 -666 -6l10 41q74 3 110 16t58 48t43 112l270 1016q17 65 17 99
q0 30 -13.5 46t-42 22.5t-81.5 8.5l10 41q223 -6 665 -6zM811 1869q89 -28 189 -71q212 77 447 121l10 -29q-170 -53 -317.5 -137.5t-237.5 -179.5h-37q-47 114 -111.5 189.5t-173.5 127.5l9 29q133 -22 222 -50z" />
    <glyph glyph-name="Ecircumflex" unicode="&#xca;" horiz-adv-x="1282" 
d="M958 1444q291 0 416 6q-54 -147 -78 -242q-11 -46 -26 -127h-45q3 39 3 73q0 93 -22.5 147t-72 78t-134.5 24h-63q-72 0 -108 -12t-57.5 -46.5t-41.5 -111.5l-128 -483h75q102 0 171 71.5t109 173.5h48q-24 -70 -37.5 -118t-23.5 -88.5t-15 -59.5q-25 -91 -60 -266h-45
q2 28 2 44q0 202 -172 202h-63l-131 -492q-19 -68 -19 -100q0 -29 13.5 -44t42 -20.5t79.5 -5.5h76q112 0 187.5 34.5t135 112t120.5 216.5h47q-22 -54 -45 -148q-32 -108 -54 -262q-139 6 -464 6q-443 0 -666 -6l10 41q74 3 110 16t58 48t43 112l270 1016q17 65 17 99
q0 30 -13.5 46t-42 22.5t-81.5 8.5l10 41q223 -6 665 -6zM1078.5 1629q-88.5 28 -191.5 71q-214 -77 -445 -121l-10 29q169 53 317 138t238 179h37q48 -115 111.5 -190t172.5 -127l-8 -29q-133 22 -221.5 50z" />
    <glyph glyph-name="Edieresis" unicode="&#xcb;" horiz-adv-x="1282" 
d="M958 1444q291 0 416 6q-54 -147 -78 -242q-11 -46 -26 -127h-45q3 39 3 73q0 93 -22.5 147t-72 78t-134.5 24h-63q-72 0 -108 -12t-57.5 -46.5t-41.5 -111.5l-128 -483h75q102 0 171 71.5t109 173.5h48q-24 -70 -37.5 -118t-23.5 -88.5t-15 -59.5q-25 -91 -60 -266h-45
q2 28 2 44q0 202 -172 202h-63l-131 -492q-19 -68 -19 -100q0 -29 13.5 -44t42 -20.5t79.5 -5.5h76q112 0 187.5 34.5t135 112t120.5 216.5h47q-22 -54 -45 -148q-32 -108 -54 -262q-139 6 -464 6q-443 0 -666 -6l10 41q74 3 110 16t58 48t43 112l270 1016q17 65 17 99
q0 30 -13.5 46t-42 22.5t-81.5 8.5l10 41q223 -6 665 -6zM515.5 1796.5q24.5 39.5 64.5 60.5t87 21q64 0 98.5 -37.5t34.5 -99.5q0 -54 -25 -93t-66 -59t-87 -20q-65 0 -98 36.5t-33 98.5q0 53 24.5 92.5zM1005.5 1796.5q24.5 39.5 64.5 60.5t87 21q64 0 98.5 -37.5
t34.5 -99.5q0 -54 -25 -93t-65.5 -59t-85.5 -20q-66 0 -99.5 36.5t-33.5 98.5q0 53 24.5 92.5z" />
    <glyph glyph-name="Edotaccent" unicode="&#x116;" horiz-adv-x="1282" 
d="M958 1444q291 0 416 6q-54 -147 -78 -242q-11 -46 -26 -127h-45q3 39 3 73q0 93 -22.5 147t-72 78t-134.5 24h-63q-72 0 -108 -12t-57.5 -46.5t-41.5 -111.5l-128 -483h75q102 0 171 71.5t109 173.5h48q-24 -70 -37.5 -118t-23.5 -88.5t-15 -59.5q-25 -91 -60 -266h-45
q2 28 2 44q0 202 -172 202h-63l-131 -492q-19 -68 -19 -100q0 -29 13.5 -44t42 -20.5t79.5 -5.5h76q112 0 187.5 34.5t135 112t120.5 216.5h47q-22 -54 -45 -148q-32 -108 -54 -262q-139 6 -464 6q-443 0 -666 -6l10 41q74 3 110 16t58 48t43 112l270 1016q17 65 17 99
q0 30 -13.5 46t-42 22.5t-81.5 8.5l10 41q223 -6 665 -6zM765 1792q27 43 75 66.5t107 23.5q73 0 112 -33.5t39 -93.5q0 -52 -28 -95t-76.5 -68t-108.5 -25q-70 0 -108.5 33t-38.5 92q0 57 27 100z" />
    <glyph glyph-name="Egrave" unicode="&#xc8;" horiz-adv-x="1282" 
d="M958 1444q291 0 416 6q-54 -147 -78 -242q-11 -46 -26 -127h-45q3 39 3 73q0 93 -22.5 147t-72 78t-134.5 24h-63q-72 0 -108 -12t-57.5 -46.5t-41.5 -111.5l-128 -483h75q102 0 171 71.5t109 173.5h48q-24 -70 -37.5 -118t-23.5 -88.5t-15 -59.5q-25 -91 -60 -266h-45
q2 28 2 44q0 202 -172 202h-63l-131 -492q-19 -68 -19 -100q0 -29 13.5 -44t42 -20.5t79.5 -5.5h76q112 0 187.5 34.5t135 112t120.5 216.5h47q-22 -54 -45 -148q-32 -108 -54 -262q-139 6 -464 6q-443 0 -666 -6l10 41q74 3 110 16t58 48t43 112l270 1016q17 65 17 99
q0 30 -13.5 46t-42 22.5t-81.5 8.5l10 41q223 -6 665 -6zM780.5 1657q-83.5 29 -125 44.5t-75.5 37.5q-29 18 -47 46.5t-18 58.5q0 25 14 50q30 50 93 50q43 0 77 -23q29 -17 52 -42.5t87 -110t148 -166.5l-17 -23q-105 49 -188.5 78z" />
    <glyph glyph-name="Emacron" unicode="&#x112;" horiz-adv-x="1282" 
d="M958 1444q291 0 416 6q-54 -147 -78 -242q-11 -46 -26 -127h-45q3 39 3 73q0 93 -22.5 147t-72 78t-134.5 24h-63q-72 0 -108 -12t-57.5 -46.5t-41.5 -111.5l-128 -483h75q102 0 171 71.5t109 173.5h48q-24 -70 -37.5 -118t-23.5 -88.5t-15 -59.5q-25 -91 -60 -266h-45
q2 28 2 44q0 202 -172 202h-63l-131 -492q-19 -68 -19 -100q0 -29 13.5 -44t42 -20.5t79.5 -5.5h76q112 0 187.5 34.5t135 112t120.5 216.5h47q-22 -54 -45 -148q-32 -108 -54 -262q-139 6 -464 6q-443 0 -666 -6l10 41q74 3 110 16t58 48t43 112l270 1016q17 65 17 99
q0 30 -13.5 46t-42 22.5t-81.5 8.5l10 41q223 -6 665 -6zM460 1677l12 52h820l-13 -52h-819z" />
    <glyph glyph-name="Eogonek" unicode="&#x118;" horiz-adv-x="1282" 
d="M958 1444q291 0 416 6q-54 -147 -78 -242q-11 -46 -26 -127h-45q3 39 3 73q0 93 -22.5 147t-72 78t-134.5 24h-63q-72 0 -108 -12t-57.5 -46.5t-41.5 -111.5l-128 -483h75q102 0 171 71.5t109 173.5h48q-24 -70 -37.5 -118t-23.5 -88.5t-15 -59.5q-25 -91 -60 -266h-45
q2 28 2 44q0 202 -172 202h-63l-131 -492q-19 -68 -19 -100q0 -29 13.5 -44t42 -20.5t79.5 -5.5h76q112 0 187.5 34.5t135 112t120.5 216.5h47q-22 -54 -45 -148q-32 -108 -54 -262q-139 6 -464 6q-443 0 -666 -6l10 41q74 3 110 16t58 48t43 112l270 1016q17 65 17 99
q0 30 -13.5 46t-42 22.5t-81.5 8.5l10 41q223 -6 665 -6zM881.5 -91q-61.5 -62 -61.5 -130q0 -62 67 -62q33 0 74.5 12.5t77.5 32.5l22 -34q-141 -113 -299 -113q-81 0 -126.5 32.5t-45.5 90.5q0 90 114 158.5t280 109.5h53q-94 -35 -155.5 -97z" />
    <glyph glyph-name="F" unicode="F" horiz-adv-x="1204" 
d="M958 1444q291 0 416 6q-43 -117 -80 -250q-33 -130 -43 -180h-47q8 75 8 126q0 95 -25 151t-77.5 81t-138.5 25h-47q-67 0 -101 -12t-54.5 -46.5t-39.5 -111.5l-131 -492h94q100 0 167 68t114 178h45q-32 -101 -51 -171.5t-25 -94.5q-24 -105 -63 -303h-45q1 14 1 42
q0 118 -35.5 179t-129.5 61h-83l-128 -483q-16 -61 -16 -91q0 -34 17 -51.5t53.5 -24.5t104.5 -9l-8 -41q-126 6 -364 6q-226 0 -334 -6l10 41q74 3 110 16t58 48t43 112l270 1016q17 65 17 99q0 30 -13.5 46t-42 22.5t-81.5 8.5l10 41q223 -6 665 -6z" />
    <glyph glyph-name="G" unicode="G" horiz-adv-x="1513" 
d="M1393 1133q0 48 -6 82t-23 67q-40 77 -121.5 118.5t-193.5 41.5q-196 0 -343 -178t-225 -430.5t-78 -460.5q0 -184 72.5 -272.5t220.5 -88.5q88 0 158 43q33 22 50.5 55t33.5 95l47 180q18 68 18 106q0 36 -17 54.5t-52.5 26t-102.5 10.5l11 41q118 -7 348 -7
q199 0 289 7l-11 -41q-49 -4 -73 -16.5t-40.5 -46.5t-37.5 -113l-109 -406h-41q1 9 1 27q0 42 -14.5 66t-43.5 24q-30 0 -62.5 -13t-64.5 -29.5t-45 -23.5q-151 -80 -297 -80q-177 0 -303.5 55t-193 160t-66.5 254q0 237 127 479.5t352 401t504 158.5q84 0 145 -17t104 -45
t87 -71q19 -19 35 -19q39 0 81 123h46q-67 -175 -132 -471h-45q11 83 11 154z" />
    <glyph glyph-name="Gacute" unicode="&#x1f4;" horiz-adv-x="1513" 
d="M1394 1133q0 48 -6 82t-23 67q-40 77 -121.5 118.5t-193.5 41.5q-196 0 -343 -178t-225 -430.5t-78 -460.5q0 -184 72.5 -272.5t220.5 -88.5q88 0 158 43q33 22 50.5 55t33.5 95l47 180q18 68 18 106q0 36 -17 54.5t-52.5 26t-102.5 10.5l11 41q118 -7 348 -7
q199 0 289 7l-11 -41q-49 -4 -73 -16.5t-40.5 -46.5t-37.5 -113l-109 -406h-41q1 9 1 27q0 42 -14.5 66t-43.5 24q-30 0 -62.5 -13t-64.5 -29.5t-45 -23.5q-151 -80 -297 -80q-177 0 -303.5 55t-193 160t-66.5 254q0 237 127 479.5t352 401t504 158.5q84 0 145 -17t104 -45
t87 -71q19 -19 35 -19q39 0 81 123h46q-67 -175 -132 -471h-45q11 83 11 154zM1103.5 1759.5q84.5 79.5 123.5 114.5t87 61q41 23 88 23q71 0 98 -55q11 -22 11 -42q0 -65 -92 -116q-36 -20 -78.5 -34.5t-165 -49.5t-236.5 -80l-14 25q94 74 178.5 153.5z" />
    <glyph glyph-name="Gbreve" unicode="&#x11e;" horiz-adv-x="1513" 
d="M1394 1133q0 48 -6 82t-23 67q-40 77 -121.5 118.5t-193.5 41.5q-196 0 -343 -178t-225 -430.5t-78 -460.5q0 -184 72.5 -272.5t220.5 -88.5q88 0 158 43q33 22 50.5 55t33.5 95l47 180q18 68 18 106q0 36 -17 54.5t-52.5 26t-102.5 10.5l11 41q118 -7 348 -7
q199 0 289 7l-11 -41q-49 -4 -73 -16.5t-40.5 -46.5t-37.5 -113l-109 -406h-41q1 9 1 27q0 42 -14.5 66t-43.5 24q-30 0 -62.5 -13t-64.5 -29.5t-45 -23.5q-151 -80 -297 -80q-177 0 -303.5 55t-193 160t-66.5 254q0 237 127 479.5t352 401t504 158.5q84 0 145 -17t104 -45
t87 -71q19 -19 35 -19q39 0 81 123h46q-67 -175 -132 -471h-45q11 83 11 154zM897.5 1804.5q76.5 -24.5 197.5 -24.5q270 0 467 116l22 -20q-54 -77 -140.5 -145t-189 -110t-200.5 -42q-136 0 -217.5 81.5t-106.5 213.5l31 14q60 -59 136.5 -83.5z" />
    <glyph glyph-name="Gcircumflex" unicode="&#x11c;" horiz-adv-x="1513" 
d="M1394 1133q0 48 -6 82t-23 67q-40 77 -121.5 118.5t-193.5 41.5q-196 0 -343 -178t-225 -430.5t-78 -460.5q0 -184 72.5 -272.5t220.5 -88.5q88 0 158 43q33 22 50.5 55t33.5 95l47 180q18 68 18 106q0 36 -17 54.5t-52.5 26t-102.5 10.5l11 41q118 -7 348 -7
q199 0 289 7l-11 -41q-49 -4 -73 -16.5t-40.5 -46.5t-37.5 -113l-109 -406h-41q1 9 1 27q0 42 -14.5 66t-43.5 24q-30 0 -62.5 -13t-64.5 -29.5t-45 -23.5q-151 -80 -297 -80q-177 0 -303.5 55t-193 160t-66.5 254q0 237 127 479.5t352 401t504 158.5q84 0 145 -17t104 -45
t87 -71q19 -19 35 -19q39 0 81 123h46q-67 -175 -132 -471h-45q11 83 11 154zM1257.5 1629q-88.5 28 -191.5 71q-214 -77 -445 -121l-10 29q169 53 317 138t238 179h37q48 -115 111.5 -190t172.5 -127l-8 -29q-133 22 -221.5 50z" />
    <glyph glyph-name="Gcommaaccent" unicode="&#x122;" horiz-adv-x="1513" 
d="M1394 1133q0 48 -6 82t-23 67q-40 77 -121.5 118.5t-193.5 41.5q-196 0 -343 -178t-225 -430.5t-78 -460.5q0 -184 72.5 -272.5t220.5 -88.5q88 0 158 43q33 22 50.5 55t33.5 95l47 180q18 68 18 106q0 36 -17 54.5t-52.5 26t-102.5 10.5l11 41q118 -7 348 -7
q199 0 289 7l-11 -41q-49 -4 -73 -16.5t-40.5 -46.5t-37.5 -113l-109 -406h-41q1 9 1 27q0 42 -14.5 66t-43.5 24q-30 0 -62.5 -13t-64.5 -29.5t-45 -23.5q-151 -80 -297 -80q-177 0 -303.5 55t-193 160t-66.5 254q0 237 127 479.5t352 401t504 158.5q84 0 145 -17t104 -45
t87 -71q19 -19 35 -19q39 0 81 123h46q-67 -175 -132 -471h-45q11 83 11 154zM673.5 -414.5q56.5 31.5 66.5 78.5q-49 -35 -118 -35q-58 0 -90.5 25.5t-32.5 75.5q0 46 25 83t67.5 57.5t93.5 20.5q58 0 98.5 -33t40.5 -94q0 -107 -77.5 -175t-204.5 -83l-6 39
q81 9 137.5 40.5z" />
    <glyph glyph-name="Gdotaccent" unicode="&#x120;" horiz-adv-x="1513" 
d="M1394 1133q0 48 -6 82t-23 67q-40 77 -121.5 118.5t-193.5 41.5q-196 0 -343 -178t-225 -430.5t-78 -460.5q0 -184 72.5 -272.5t220.5 -88.5q88 0 158 43q33 22 50.5 55t33.5 95l47 180q18 68 18 106q0 36 -17 54.5t-52.5 26t-102.5 10.5l11 41q118 -7 348 -7
q199 0 289 7l-11 -41q-49 -4 -73 -16.5t-40.5 -46.5t-37.5 -113l-109 -406h-41q1 9 1 27q0 42 -14.5 66t-43.5 24q-30 0 -62.5 -13t-64.5 -29.5t-45 -23.5q-151 -80 -297 -80q-177 0 -303.5 55t-193 160t-66.5 254q0 237 127 479.5t352 401t504 158.5q84 0 145 -17t104 -45
t87 -71q19 -19 35 -19q39 0 81 123h46q-67 -175 -132 -471h-45q11 83 11 154zM944 1792q27 43 75 66.5t107 23.5q73 0 112 -33.5t39 -93.5q0 -52 -28 -95t-76.5 -68t-108.5 -25q-70 0 -108.5 33t-38.5 92q0 57 27 100z" />
    <glyph glyph-name="H" unicode="H" horiz-adv-x="1659" 
d="M1473 1444q224 0 337 6l-10 -41q-75 -3 -111.5 -16t-58 -48t-41.5 -112l-270 -1016q-18 -70 -18 -100t13.5 -45.5t42.5 -22t83 -8.5l-8 -41q-111 6 -336 6q-208 0 -322 -6l8 41q74 3 111 16t58.5 48t41.5 112l131 492h-534l-131 -492q-18 -70 -18 -100t13.5 -45.5
t42.5 -22t83 -8.5l-9 -41q-113 6 -321 6q-223 0 -334 -6l10 41q71 3 107 16t58 48.5t42 111.5l270 1016q17 65 17 99q0 30 -13.5 46t-42 22.5t-81.5 8.5l10 41q103 -6 334 -6q197 0 323 6l-10 -41q-75 -3 -111.5 -16t-58 -48t-41.5 -112l-128 -483h534l129 483q18 63 18 98
q0 31 -14 47t-43 22.5t-82 8.5l10 41q111 -6 320 -6z" />
    <glyph glyph-name="Hbar" unicode="&#x126;" horiz-adv-x="1659" 
d="M1691.5 1393q-36.5 -13 -58 -48t-41.5 -112l-37 -141h182l-11 -41h-182l-222 -834q-18 -70 -18 -100t13.5 -45.5t42.5 -22t83 -8.5l-8 -41q-111 6 -336 6q-208 0 -322 -6l8 41q74 3 111 16t58.5 48t41.5 112l131 492h-534l-131 -492q-18 -70 -18 -100t13.5 -45.5
t42.5 -22t83 -8.5l-9 -41q-112 6 -321 6q-223 0 -334 -6l10 41q71 3 107 16t58 48.5t42 111.5l222 834h-170l11 41h170l37 141q17 65 17 99q0 30 -13.5 46t-42 22.5t-81.5 8.5l10 41q104 -6 334 -6q197 0 323 6l-10 -41q-75 -3 -111.5 -16t-58 -48t-41.5 -112l-37 -141h534
l38 141q18 63 18 98q0 31 -14 47t-43 22.5t-82 8.5l10 41q111 -6 320 -6q225 0 337 6l-10 -41q-75 -3 -111.5 -16zM684 1051l-80 -301h534l80 301h-534z" />
    <glyph glyph-name="Hcircumflex" unicode="&#x124;" horiz-adv-x="1659" 
d="M1473 1444q224 0 337 6l-10 -41q-75 -3 -111.5 -16t-58 -48t-41.5 -112l-270 -1016q-18 -70 -18 -100t13.5 -45.5t42.5 -22t83 -8.5l-8 -41q-111 6 -336 6q-208 0 -322 -6l8 41q74 3 111 16t58.5 48t41.5 112l131 492h-534l-131 -492q-18 -70 -18 -100t13.5 -45.5
t42.5 -22t83 -8.5l-9 -41q-113 6 -321 6q-223 0 -334 -6l10 41q71 3 107 16t58 48.5t42 111.5l270 1016q17 65 17 99q0 30 -13.5 46t-42 22.5t-81.5 8.5l10 41q103 -6 334 -6q197 0 323 6l-10 -41q-75 -3 -111.5 -16t-58 -48t-41.5 -112l-128 -483h534l129 483q18 63 18 98
q0 31 -14 47t-43 22.5t-82 8.5l10 41q111 -6 320 -6zM1262.5 1629q-88.5 28 -191.5 71q-214 -77 -445 -121l-10 29q169 53 317 138t238 179h37q48 -115 111.5 -190t172.5 -127l-8 -29q-133 22 -221.5 50z" />
    <glyph glyph-name="I" unicode="I" 
d="M441 117q0 -30 13.5 -45.5t42.5 -22t83 -8.5l-9 -41q-118 6 -333 6q-214 0 -322 -6l10 41q71 3 107 16t58 48.5t42 111.5l270 1016q17 65 17 99q0 30 -13.5 46t-42 22.5t-81.5 8.5l10 41q101 -6 321 -6q204 0 336 6l-10 -41q-75 -3 -111.5 -16t-58 -48t-41.5 -112
l-270 -1016q-18 -70 -18 -100z" />
    <glyph glyph-name="IJ" unicode="&#x132;" horiz-adv-x="1753" 
d="M278 1057q-73 68 -73 180q0 81 41.5 143.5t121.5 97.5t191 35q119 0 208.5 -26.5t264.5 -103t340 -76.5q211 0 406 79q77 120 127 120q14 0 28 -11q13 -11 13 -25q0 -50 -150 -106q-112 -99 -183.5 -246.5t-130.5 -367.5h214l-8 -41h-216l-14 -54l-125 -522
q-56 -232 -201.5 -375t-398.5 -143q-131 0 -210 38t-79 120q0 42 20.5 76.5t59.5 54.5t92 20q71 0 115.5 -33.5t44.5 -93.5q0 -92 -110 -141q18 -6 57 -6q78 0 126 58t77 147t80 288l110 420q20 78 46 146h-267l8 41h275q56 133 136.5 233t175 176t247.5 182
q-86 -26 -207 -79t-197 -77t-176 -24q-82 0 -153 13t-220.5 51.5t-267.5 38.5q-164 0 -164 -115q0 -76 81 -117t212 -41q97 0 168 19t141 57l17 -35q-86 -46 -170 -66l-226 -749q-21 -68 -21 -100q0 -42 31.5 -58t110.5 -18l-8 -41q-120 6 -334 6t-321 -6l10 41
q70 3 104.5 16.5t56 48t46.5 111.5l224 746q-123 26 -196 94z" />
    <glyph glyph-name="Iacute" unicode="&#xcd;" 
d="M441 117q0 -30 13.5 -45.5t42.5 -22t83 -8.5l-9 -41q-118 6 -333 6q-214 0 -322 -6l10 41q71 3 107 16t58 48.5t42 111.5l270 1016q17 65 17 99q0 30 -13.5 46t-42 22.5t-81.5 8.5l10 41q101 -6 321 -6q204 0 336 6l-10 -41q-75 -3 -111.5 -16t-58 -48t-41.5 -112
l-270 -1016q-18 -70 -18 -100zM721.5 1759.5q84.5 79.5 123.5 114.5t87 61q41 23 88 23q71 0 98 -55q11 -22 11 -42q0 -65 -92 -116q-36 -20 -78.5 -34.5t-165 -49.5t-236.5 -80l-14 25q94 74 178.5 153.5z" />
    <glyph glyph-name="Ibreve" unicode="&#x12c;" 
d="M441 117q0 -30 13.5 -45.5t42.5 -22t83 -8.5l-9 -41q-118 6 -333 6q-214 0 -322 -6l10 41q71 3 107 16t58 48.5t42 111.5l270 1016q17 65 17 99q0 30 -13.5 46t-42 22.5t-81.5 8.5l10 41q101 -6 321 -6q204 0 336 6l-10 -41q-75 -3 -111.5 -16t-58 -48t-41.5 -112
l-270 -1016q-18 -70 -18 -100zM515.5 1804.5q76.5 -24.5 197.5 -24.5q270 0 467 116l22 -20q-54 -77 -140.5 -145t-189 -110t-200.5 -42q-136 0 -217.5 81.5t-106.5 213.5l31 14q60 -59 136.5 -83.5z" />
    <glyph glyph-name="Icircumflex" unicode="&#xce;" 
d="M441 117q0 -30 13.5 -45.5t42.5 -22t83 -8.5l-9 -41q-118 6 -333 6q-214 0 -322 -6l10 41q71 3 107 16t58 48.5t42 111.5l270 1016q17 65 17 99q0 30 -13.5 46t-42 22.5t-81.5 8.5l10 41q101 -6 321 -6q204 0 336 6l-10 -41q-75 -3 -111.5 -16t-58 -48t-41.5 -112
l-270 -1016q-18 -70 -18 -100zM875.5 1629q-88.5 28 -191.5 71q-214 -77 -445 -121l-10 29q169 53 317 138t238 179h37q48 -115 111.5 -190t172.5 -127l-8 -29q-133 22 -221.5 50z" />
    <glyph glyph-name="Idieresis" unicode="&#xcf;" 
d="M441 117q0 -30 13.5 -45.5t42.5 -22t83 -8.5l-9 -41q-118 6 -333 6q-214 0 -322 -6l10 41q71 3 107 16t58 48.5t42 111.5l270 1016q17 65 17 99q0 30 -13.5 46t-42 22.5t-81.5 8.5l10 41q101 -6 321 -6q204 0 336 6l-10 -41q-75 -3 -111.5 -16t-58 -48t-41.5 -112
l-270 -1016q-18 -70 -18 -100zM312.5 1796.5q24.5 39.5 64.5 60.5t87 21q64 0 98.5 -37.5t34.5 -99.5q0 -54 -25 -93t-66 -59t-87 -20q-65 0 -98 36.5t-33 98.5q0 53 24.5 92.5zM802.5 1796.5q24.5 39.5 64.5 60.5t87 21q64 0 98.5 -37.5t34.5 -99.5q0 -54 -25 -93
t-65.5 -59t-85.5 -20q-66 0 -99.5 36.5t-33.5 98.5q0 53 24.5 92.5z" />
    <glyph glyph-name="Idotaccent" unicode="&#x130;" 
d="M441 117q0 -30 13.5 -45.5t42.5 -22t83 -8.5l-9 -41q-118 6 -333 6q-214 0 -322 -6l10 41q71 3 107 16t58 48.5t42 111.5l270 1016q17 65 17 99q0 30 -13.5 46t-42 22.5t-81.5 8.5l10 41q101 -6 321 -6q204 0 336 6l-10 -41q-75 -3 -111.5 -16t-58 -48t-41.5 -112
l-270 -1016q-18 -70 -18 -100zM562 1792q27 43 75 66.5t107 23.5q73 0 112 -33.5t39 -93.5q0 -52 -28 -95t-76.5 -68t-108.5 -25q-70 0 -108.5 33t-38.5 92q0 57 27 100z" />
    <glyph glyph-name="Igrave" unicode="&#xcc;" 
d="M441 117q0 -30 13.5 -45.5t42.5 -22t83 -8.5l-9 -41q-118 6 -333 6q-214 0 -322 -6l10 41q71 3 107 16t58 48.5t42 111.5l270 1016q17 65 17 99q0 30 -13.5 46t-42 22.5t-81.5 8.5l10 41q101 -6 321 -6q204 0 336 6l-10 -41q-75 -3 -111.5 -16t-58 -48t-41.5 -112
l-270 -1016q-18 -70 -18 -100zM577.5 1657q-83.5 29 -125 44.5t-75.5 37.5q-29 18 -47 46.5t-18 58.5q0 25 14 50q30 50 93 50q43 0 77 -23q29 -17 52 -42.5t87 -110t148 -166.5l-17 -23q-105 49 -188.5 78z" />
    <glyph glyph-name="Imacron" unicode="&#x12a;" 
d="M441 117q0 -30 13.5 -45.5t42.5 -22t83 -8.5l-9 -41q-118 6 -333 6q-214 0 -322 -6l10 41q71 3 107 16t58 48.5t42 111.5l270 1016q17 65 17 99q0 30 -13.5 46t-42 22.5t-81.5 8.5l10 41q101 -6 321 -6q204 0 336 6l-10 -41q-75 -3 -111.5 -16t-58 -48t-41.5 -112
l-270 -1016q-18 -70 -18 -100zM257 1677l12 52h820l-13 -52h-819z" />
    <glyph glyph-name="Iogonek" unicode="&#x12e;" 
d="M441 117q0 -30 13.5 -45.5t42.5 -22t83 -8.5l-9 -41q-118 6 -333 6q-214 0 -322 -6l10 41q71 3 107 16t58 48.5t42 111.5l270 1016q17 65 17 99q0 30 -13.5 46t-42 22.5t-81.5 8.5l10 41q101 -6 321 -6q204 0 336 6l-10 -41q-75 -3 -111.5 -16t-58 -48t-41.5 -112
l-270 -1016q-18 -70 -18 -100zM409.5 -91q-61.5 -62 -61.5 -130q0 -62 67 -62q33 0 74.5 12.5t77.5 32.5l22 -34q-141 -113 -299 -113q-81 0 -126.5 32.5t-45.5 90.5q0 90 114 158.5t280 109.5h53q-94 -35 -155.5 -97z" />
    <glyph glyph-name="Itilde" unicode="&#x128;" 
d="M441 117q0 -30 13.5 -45.5t42.5 -22t83 -8.5l-9 -41q-118 6 -333 6q-214 0 -322 -6l10 41q71 3 107 16t58 48.5t42 111.5l270 1016q17 65 17 99q0 30 -13.5 46t-42 22.5t-81.5 8.5l10 41q101 -6 321 -6q204 0 336 6l-10 -41q-75 -3 -111.5 -16t-58 -48t-41.5 -112
l-270 -1016q-18 -70 -18 -100zM413.5 1828q91.5 70 193.5 70q73 0 121.5 -21t123 -74.5t144.5 -53.5q44 0 82.5 28t75.5 91l37 -10q-55 -144 -146.5 -214.5t-193.5 -70.5q-72 0 -120 21t-123.5 74.5t-145.5 53.5q-45 0 -83 -27.5t-75 -90.5l-37 10q55 144 146.5 214z" />
    <glyph glyph-name="J" unicode="J" horiz-adv-x="1399" 
d="M958.5 980.5q86.5 101.5 190.5 183t252 177.5q-77 -26 -185.5 -79t-176.5 -77t-158 -24q-60 0 -113 14t-154.5 51.5t-171.5 37.5q-58 0 -91.5 -30t-33.5 -87q3 -137 232 -158l-6 -39q-162 13 -259.5 87.5t-97.5 208.5q0 79 33 139.5t98.5 94t159.5 33.5q132 0 250 -68.5
t189 -103t182 -34.5q175 0 346 79q77 120 128 120q14 0 27 -11t13 -25q0 -50 -150 -106q-121 -97 -205.5 -250t-147.5 -364h204l-6 -41h-210l-22 -80l-127 -496q-59 -233 -206.5 -375.5t-399.5 -142.5q-130 0 -208.5 37t-78.5 117q0 67 46 111t126 44q70 0 114.5 -32.5
t45.5 -90.5q0 -95 -113 -145q19 -6 58 -6q78 0 127 58t80 148t84 287l110 394q25 92 60 172h-279l6 41h291q61 129 147.5 230.5z" />
    <glyph glyph-name="Jcircumflex" unicode="&#x134;" horiz-adv-x="1399" 
d="M959.5 980.5q86.5 101.5 190.5 183t252 177.5q-77 -26 -185.5 -79t-176.5 -77t-158 -24q-60 0 -113 14t-154.5 51.5t-171.5 37.5q-58 0 -91.5 -30t-33.5 -87q3 -137 232 -158l-6 -39q-162 13 -259.5 87.5t-97.5 208.5q0 79 33 139.5t98.5 94t159.5 33.5q132 0 250 -68.5
t189 -103t182 -34.5q175 0 346 79q77 120 128 120q14 0 27 -11t13 -25q0 -50 -150 -106q-121 -97 -205.5 -250t-147.5 -364h204l-6 -41h-210l-22 -80l-127 -496q-59 -233 -206.5 -375.5t-399.5 -142.5q-130 0 -208.5 37t-78.5 117q0 67 46 111t126 44q70 0 114.5 -32.5
t45.5 -90.5q0 -95 -113 -145q19 -6 58 -6q78 0 127 58t80 148t84 287l110 394q25 92 60 172h-279l6 41h291q61 129 147.5 230.5zM1282.5 1629q-88.5 28 -191.5 71q-214 -77 -445 -121l-10 29q169 53 317 138t238 179h37q48 -115 111.5 -190t172.5 -127l-8 -29
q-133 22 -221.5 50z" />
    <glyph glyph-name="K" unicode="K" horiz-adv-x="1516" 
d="M876 602q0 51 -12 81t-40 52q-85 -22 -125 -22q-53 0 -53 34l1 9q6 41 60 41q39 0 120 -21q131 18 191 113.5t116.5 283.5t114.5 246q60 60 146 60q90 0 142 -51.5t50 -135.5q0 -47 -21.5 -93t-64 -75.5t-100.5 -29.5t-96.5 36t-38.5 97t41 118.5t110 88.5q-12 6 -33 6
q-36 0 -59 -11t-45 -34q-50 -55 -105 -230t-111 -275.5t-177 -127.5q107 -12 170 -42.5t92 -86t29 -144.5q0 -40 -4 -77l-23 -215l-1 -14q0 -62 52 -62q39 0 66 30t49 93l35 104h41l-54 -158q-37 -111 -109 -165t-165 -54q-116 0 -177 56t-61 154q0 14 4 48l39 287
q6 51 6 86zM441 117q0 -30 13.5 -45.5t42.5 -22t83 -8.5l-9 -41q-113 6 -321 6q-223 0 -334 -6l10 41q71 3 107 16t58 48.5t42 111.5l270 1016q17 65 17 99q0 30 -13.5 46t-42 22.5t-81.5 8.5l10 41q103 -6 334 -6q197 0 323 6l-10 -41q-75 -3 -111.5 -16t-58 -48
t-41.5 -112l-270 -1016q-18 -70 -18 -100z" />
    <glyph glyph-name="Kcommaaccent" unicode="&#x136;" horiz-adv-x="1516" 
d="M876 602q0 51 -12 81t-40 52q-85 -22 -125 -22q-53 0 -53 34l1 9q6 41 60 41q39 0 120 -21q131 18 191 113.5t116.5 283.5t114.5 246q60 60 146 60q90 0 142 -51.5t50 -135.5q0 -47 -21.5 -93t-64 -75.5t-100.5 -29.5t-96.5 36t-38.5 97t41 118.5t110 88.5q-12 6 -33 6
q-36 0 -59 -11t-45 -34q-50 -55 -105 -230t-111 -275.5t-177 -127.5q107 -12 170 -42.5t92 -86t29 -144.5q0 -40 -4 -77l-23 -215l-1 -14q0 -62 52 -62q39 0 66 30t49 93l35 104h41l-54 -158q-37 -111 -109 -165t-165 -54q-116 0 -177 56t-61 154q0 14 4 48l39 287
q6 51 6 86zM441 117q0 -30 13.5 -45.5t42.5 -22t83 -8.5l-9 -41q-113 6 -321 6q-223 0 -334 -6l10 41q71 3 107 16t58 48.5t42 111.5l270 1016q17 65 17 99q0 30 -13.5 46t-42 22.5t-81.5 8.5l10 41q103 -6 334 -6q197 0 323 6l-10 -41q-75 -3 -111.5 -16t-58 -48
t-41.5 -112l-270 -1016q-18 -70 -18 -100zM593.5 -414.5q56.5 31.5 66.5 78.5q-49 -35 -118 -35q-58 0 -90.5 25.5t-32.5 75.5q0 46 25 83t67.5 57.5t93.5 20.5q58 0 98.5 -33t40.5 -94q0 -107 -77.5 -175t-204.5 -83l-6 39q81 9 137.5 40.5z" />
    <glyph glyph-name="L" unicode="L" horiz-adv-x="1239" 
d="M1102 262q-31 -105 -55 -262q-140 6 -465 6q-447 0 -670 -6l10 41q74 3 110 16t58 48t43 112l270 1016q17 65 17 99q0 30 -13.5 46t-42 22.5t-81.5 8.5l10 41q108 -6 338 -6q193 0 319 6l-10 -41q-75 -3 -111.5 -16t-58.5 -48t-43 -112l-270 -1016q-18 -70 -18 -100
q0 -29 13.5 -44t42 -20.5t80.5 -5.5h82q146 0 257 89t192 294h45q-24 -64 -49 -168z" />
    <glyph glyph-name="Lacute" unicode="&#x139;" horiz-adv-x="1239" 
d="M1102 262q-31 -105 -55 -262q-140 6 -465 6q-447 0 -670 -6l10 41q74 3 110 16t58 48t43 112l270 1016q17 65 17 99q0 30 -13.5 46t-42 22.5t-81.5 8.5l10 41q108 -6 338 -6q193 0 319 6l-10 -41q-75 -3 -111.5 -16t-58.5 -48t-43 -112l-270 -1016q-18 -70 -18 -100
q0 -29 13.5 -44t42 -20.5t80.5 -5.5h82q146 0 257 89t192 294h45q-24 -64 -49 -168zM685.5 1759.5q84.5 79.5 123.5 114.5t87 61q41 23 88 23q71 0 98 -55q11 -22 11 -42q0 -65 -92 -116q-36 -20 -78.5 -34.5t-165 -49.5t-236.5 -80l-14 25q94 74 178.5 153.5z" />
    <glyph glyph-name="Lcaron" unicode="&#x13d;" horiz-adv-x="1239" 
d="M1102 262q-31 -105 -55 -262q-140 6 -465 6q-447 0 -670 -6l10 41q74 3 110 16t58 48t43 112l270 1016q17 65 17 99q0 30 -13.5 46t-42 22.5t-81.5 8.5l10 41q108 -6 338 -6q193 0 319 6l-10 -41q-75 -3 -111.5 -16t-58.5 -48t-43 -112l-270 -1016q-18 -70 -18 -100
q0 -29 13.5 -44t42 -20.5t80.5 -5.5h82q146 0 257 89t192 294h45q-24 -64 -49 -168zM1015 1223.5q30 100.5 30 144.5q0 20 -12 29.5t-43 9.5l6 43q24 0 44.5 -1t39.5 -1q101 0 199 25q2 -5 2 -21q0 -74 -87 -197.5t-241 -269.5l-29 8q61 130 91 230.5z" />
    <glyph glyph-name="Lcommaaccent" unicode="&#x13b;" horiz-adv-x="1239" 
d="M1102 262q-31 -105 -55 -262q-140 6 -465 6q-447 0 -670 -6l10 41q74 3 110 16t58 48t43 112l270 1016q17 65 17 99q0 30 -13.5 46t-42 22.5t-81.5 8.5l10 41q108 -6 338 -6q193 0 319 6l-10 -41q-75 -3 -111.5 -16t-58.5 -48t-43 -112l-270 -1016q-18 -70 -18 -100
q0 -29 13.5 -44t42 -20.5t80.5 -5.5h82q146 0 257 89t192 294h45q-24 -64 -49 -168zM573.5 -414.5q56.5 31.5 66.5 78.5q-49 -35 -118 -35q-58 0 -90.5 25.5t-32.5 75.5q0 46 25 83t67.5 57.5t93.5 20.5q58 0 98.5 -33t40.5 -94q0 -107 -77.5 -175t-204.5 -83l-6 39
q81 9 137.5 40.5z" />
    <glyph glyph-name="Ldot" unicode="&#x13f;" horiz-adv-x="1272" 
d="M1102 262q-31 -105 -55 -262q-140 6 -465 6q-447 0 -670 -6l10 41q74 3 110 16t58 48t43 112l270 1016q17 65 17 99q0 30 -13.5 46t-42 22.5t-81.5 8.5l10 41q108 -6 338 -6q193 0 319 6l-10 -41q-75 -3 -111.5 -16t-58.5 -48t-43 -112l-270 -1016q-18 -70 -18 -100
q0 -29 13.5 -44t42 -20.5t80.5 -5.5h82q146 0 257 89t192 294h45q-24 -64 -49 -168zM960.5 818q26.5 44 72.5 69t100 25q64 0 100.5 -32.5t36.5 -89.5q0 -50 -26.5 -95t-72.5 -72t-100 -27q-65 0 -101 33t-36 91q0 54 26.5 98z" />
    <glyph glyph-name="Lslash" unicode="&#x141;" horiz-adv-x="1241" 
d="M1105 262q-31 -105 -55 -262q-140 6 -465 6q-447 0 -670 -6l10 41q74 3 110 16t58 48t43 112l81 306l-184 -93l12 47l185 93l176 663q17 65 17 99q0 30 -13.5 46t-42 22.5t-81.5 8.5l10 41q108 -6 338 -6q193 0 319 6l-10 -41q-75 -3 -111.5 -16t-58.5 -48t-43 -112
l-132 -496l461 232l-12 -47l-461 -232l-126 -473q-18 -70 -18 -100q0 -29 13.5 -44t42 -20.5t80.5 -5.5h82q146 0 257 89t192 294h45q-24 -64 -49 -168z" />
    <glyph glyph-name="M" unicode="M" horiz-adv-x="1878" 
d="M2030 1450l-11 -41q-75 -3 -111.5 -16t-58 -48t-41.5 -112l-270 -1016q-17 -65 -17 -98q0 -31 14 -47t42.5 -22.5t81.5 -8.5l-8 -41q-129 6 -328 6q-223 0 -328 -6l9 41q75 3 111.5 16t57.5 48t41 112l297 1104l-849 -1331h-46l-165 1257l-258 -983q-17 -65 -17 -102
q0 -57 38.5 -87.5t131.5 -33.5l-8 -41q-73 6 -229 6q-125 0 -195 -6l10 41q68 3 111 30t67.5 74t42.5 119l261 969q17 65 17 98q0 31 -13.5 47t-42.5 22.5t-82 8.5l10 41q92 -6 280 -6q108 0 185 6l117 -1047l663 1041h160q198 0 330 6z" />
    <glyph glyph-name="N" unicode="N" horiz-adv-x="1690" 
d="M1495 1413q90 131 221 131q61 0 105 -23t67 -62.5t23 -88.5q0 -52 -24 -94.5t-67 -67t-96 -24.5q-67 0 -104 33.5t-37 89.5q0 67 43.5 118t110.5 72q-8 8 -33 8q-98 0 -172 -108q-91 -136 -189 -477t-223 -930h-45l-508 1112q-88 -435 -167 -732t-152 -393
q-45 -60 -95.5 -94.5t-123.5 -34.5q-61 0 -104.5 23t-66 63t-22.5 89q0 52 24 94.5t66.5 67t96.5 24.5q66 0 103.5 -34t37.5 -89q0 -67 -44 -118.5t-112 -71.5q10 -9 35 -9q105 0 172 111q77 120 158.5 431t177.5 802v2q13 62 13 92q0 33 -14.5 50.5t-47.5 24.5t-96 9l10 41
q65 -6 182 -6q95 0 166 6l424 -972q171 738 307 935z" />
    <glyph glyph-name="Nacute" unicode="&#x143;" horiz-adv-x="1690" 
d="M1495 1413q90 131 221 131q61 0 105 -23t67 -62.5t23 -88.5q0 -52 -24 -94.5t-67 -67t-96 -24.5q-67 0 -104 33.5t-37 89.5q0 67 43.5 118t110.5 72q-8 8 -33 8q-98 0 -172 -108q-91 -136 -189 -477t-223 -930h-45l-508 1112q-88 -435 -167 -732t-152 -393
q-45 -60 -95.5 -94.5t-123.5 -34.5q-61 0 -104.5 23t-66 63t-22.5 89q0 52 24 94.5t66.5 67t96.5 24.5q66 0 103.5 -34t37.5 -89q0 -67 -44 -118.5t-112 -71.5q10 -9 35 -9q105 0 172 111q77 120 158.5 431t177.5 802v2q13 62 13 92q0 33 -14.5 50.5t-47.5 24.5t-96 9l10 41
q65 -6 182 -6q95 0 166 6l424 -972q171 738 307 935zM1169.5 1759.5q84.5 79.5 123.5 114.5t87 61q41 23 88 23q71 0 98 -55q11 -22 11 -42q0 -65 -92 -116q-36 -20 -78.5 -34.5t-165 -49.5t-236.5 -80l-14 25q94 74 178.5 153.5z" />
    <glyph glyph-name="Ncaron" unicode="&#x147;" horiz-adv-x="1690" 
d="M1495 1413q90 131 221 131q61 0 105 -23t67 -62.5t23 -88.5q0 -52 -24 -94.5t-67 -67t-96 -24.5q-67 0 -104 33.5t-37 89.5q0 67 43.5 118t110.5 72q-8 8 -33 8q-98 0 -172 -108q-91 -136 -189 -477t-223 -930h-45l-508 1112q-88 -435 -167 -732t-152 -393
q-45 -60 -95.5 -94.5t-123.5 -34.5q-61 0 -104.5 23t-66 63t-22.5 89q0 52 24 94.5t66.5 67t96.5 24.5q66 0 103.5 -34t37.5 -89q0 -67 -44 -118.5t-112 -71.5q10 -9 35 -9q105 0 172 111q77 120 158.5 431t177.5 802v2q13 62 13 92q0 33 -14.5 50.5t-47.5 24.5t-96 9l10 41
q65 -6 182 -6q95 0 166 6l424 -972q171 738 307 935zM1056 1869q89 -28 189 -71q212 77 447 121l10 -29q-170 -53 -317.5 -137.5t-237.5 -179.5h-37q-47 114 -111.5 189.5t-173.5 127.5l9 29q133 -22 222 -50z" />
    <glyph glyph-name="Ncommaaccent" unicode="&#x145;" horiz-adv-x="1690" 
d="M1495 1413q90 131 221 131q61 0 105 -23t67 -62.5t23 -88.5q0 -52 -24 -94.5t-67 -67t-96 -24.5q-67 0 -104 33.5t-37 89.5q0 67 43.5 118t110.5 72q-8 8 -33 8q-98 0 -172 -108q-91 -136 -189 -477t-223 -930h-45l-508 1112q-88 -435 -167 -732t-152 -393
q-45 -60 -95.5 -94.5t-123.5 -34.5q-61 0 -104.5 23t-66 63t-22.5 89q0 52 24 94.5t66.5 67t96.5 24.5q66 0 103.5 -34t37.5 -89q0 -67 -44 -118.5t-112 -71.5q10 -9 35 -9q105 0 172 111q77 120 158.5 431t177.5 802v2q13 62 13 92q0 33 -14.5 50.5t-47.5 24.5t-96 9l10 41
q65 -6 182 -6q95 0 166 6l424 -972q171 738 307 935zM651.5 -414.5q56.5 31.5 66.5 78.5q-49 -35 -118 -35q-58 0 -90.5 25.5t-32.5 75.5q0 46 25 83t67.5 57.5t93.5 20.5q58 0 98.5 -33t40.5 -94q0 -107 -77.5 -175t-204.5 -83l-6 39q81 9 137.5 40.5z" />
    <glyph glyph-name="Eng" unicode="&#x14a;" horiz-adv-x="1477" 
d="M1456 1444q117 0 189 6l-11 -41q-73 -3 -110.5 -18t-59 -51.5t-41.5 -114.5l-309 -1170q-32 -144 -75.5 -239.5t-113 -148t-171.5 -52.5q-100 0 -172.5 38t-73.5 116q0 68 46 111.5t126 43.5q70 0 114.5 -32.5t45.5 -90.5q0 -94 -115 -145q18 -6 43 -6q113 0 179 93
t105 245l-630 1130l-238 -893q-17 -63 -17 -98q0 -32 14.5 -50t45.5 -26t86 -10l-10 -41q-70 6 -192 6q-125 0 -193 -6l8 41q74 3 111.5 18t59.5 51.5t42 114.5l269 1008q16 64 16 94q0 32 -15 49t-47 24t-90 9l11 41q64 -6 182 -6q95 0 166 6l545 -993l200 768
q17 65 17 100q0 32 -14 49.5t-44.5 25t-85.5 9.5l11 41q70 -6 196 -6z" />
    <glyph glyph-name="Ntilde" unicode="&#xd1;" horiz-adv-x="1690" 
d="M1495 1413q90 131 221 131q61 0 105 -23t67 -62.5t23 -88.5q0 -52 -24 -94.5t-67 -67t-96 -24.5q-67 0 -104 33.5t-37 89.5q0 67 43.5 118t110.5 72q-8 8 -33 8q-98 0 -172 -108q-91 -136 -189 -477t-223 -930h-45l-508 1112q-88 -435 -167 -732t-152 -393
q-45 -60 -95.5 -94.5t-123.5 -34.5q-61 0 -104.5 23t-66 63t-22.5 89q0 52 24 94.5t66.5 67t96.5 24.5q66 0 103.5 -34t37.5 -89q0 -67 -44 -118.5t-112 -71.5q10 -9 35 -9q105 0 172 111q77 120 158.5 431t177.5 802v2q13 62 13 92q0 33 -14.5 50.5t-47.5 24.5t-96 9l10 41
q65 -6 182 -6q95 0 166 6l424 -972q171 738 307 935zM861.5 1828q91.5 70 193.5 70q73 0 121.5 -21t123 -74.5t144.5 -53.5q44 0 82.5 28t75.5 91l37 -10q-55 -144 -146.5 -214.5t-193.5 -70.5q-72 0 -120 21t-123.5 74.5t-145.5 53.5q-45 0 -83 -27.5t-75 -90.5l-37 10
q55 144 146.5 214z" />
    <glyph glyph-name="O" unicode="O" horiz-adv-x="1591" 
d="M204.5 932q118.5 237 330.5 392t479 155q174 0 299 -58t191.5 -169t66.5 -267q0 -231 -119 -467.5t-332 -391.5t-479 -155q-173 0 -298 58t-191 168.5t-66 265.5q0 232 118.5 469zM726.5 1294.5q-129.5 -147.5 -209 -381.5t-79.5 -477q0 -131 28 -228t78 -148.5
t115 -51.5q140 0 269 147.5t209 381.5t80 477q0 131 -28.5 228t-78.5 148.5t-115 51.5q-139 0 -268.5 -147.5z" />
    <glyph glyph-name="Oacute" unicode="&#xd3;" horiz-adv-x="1591" 
d="M205.5 932q118.5 237 330.5 392t479 155q174 0 299 -58t191.5 -169t66.5 -267q0 -231 -119 -467.5t-332 -391.5t-479 -155q-173 0 -298 58t-191 168.5t-66 265.5q0 232 118.5 469zM727.5 1294.5q-129.5 -147.5 -209 -381.5t-79.5 -477q0 -131 28 -228t78 -148.5
t115 -51.5q140 0 269 147.5t209 381.5t80 477q0 131 -28.5 228t-78.5 148.5t-115 51.5q-139 0 -268.5 -147.5zM1115.5 1759.5q84.5 79.5 123.5 114.5t87 61q41 23 88 23q71 0 98 -55q11 -22 11 -42q0 -65 -92 -116q-36 -20 -78.5 -34.5t-165 -49.5t-236.5 -80l-14 25
q94 74 178.5 153.5z" />
    <glyph glyph-name="Obreve" unicode="&#x14e;" horiz-adv-x="1591" 
d="M205.5 932q118.5 237 330.5 392t479 155q174 0 299 -58t191.5 -169t66.5 -267q0 -231 -119 -467.5t-332 -391.5t-479 -155q-173 0 -298 58t-191 168.5t-66 265.5q0 232 118.5 469zM727.5 1294.5q-129.5 -147.5 -209 -381.5t-79.5 -477q0 -131 28 -228t78 -148.5
t115 -51.5q140 0 269 147.5t209 381.5t80 477q0 131 -28.5 228t-78.5 148.5t-115 51.5q-139 0 -268.5 -147.5zM909.5 1804.5q76.5 -24.5 197.5 -24.5q270 0 467 116l22 -20q-54 -77 -140.5 -145t-189 -110t-200.5 -42q-136 0 -217.5 81.5t-106.5 213.5l31 14
q60 -59 136.5 -83.5z" />
    <glyph glyph-name="Ocircumflex" unicode="&#xd4;" horiz-adv-x="1591" 
d="M205.5 932q118.5 237 330.5 392t479 155q174 0 299 -58t191.5 -169t66.5 -267q0 -231 -119 -467.5t-332 -391.5t-479 -155q-173 0 -298 58t-191 168.5t-66 265.5q0 232 118.5 469zM727.5 1294.5q-129.5 -147.5 -209 -381.5t-79.5 -477q0 -131 28 -228t78 -148.5
t115 -51.5q140 0 269 147.5t209 381.5t80 477q0 131 -28.5 228t-78.5 148.5t-115 51.5q-139 0 -268.5 -147.5zM1269.5 1629q-88.5 28 -191.5 71q-214 -77 -445 -121l-10 29q169 53 317 138t238 179h37q48 -115 111.5 -190t172.5 -127l-8 -29q-133 22 -221.5 50z" />
    <glyph glyph-name="Odieresis" unicode="&#xd6;" horiz-adv-x="1591" 
d="M205.5 932q118.5 237 330.5 392t479 155q174 0 299 -58t191.5 -169t66.5 -267q0 -231 -119 -467.5t-332 -391.5t-479 -155q-173 0 -298 58t-191 168.5t-66 265.5q0 232 118.5 469zM727.5 1294.5q-129.5 -147.5 -209 -381.5t-79.5 -477q0 -131 28 -228t78 -148.5
t115 -51.5q140 0 269 147.5t209 381.5t80 477q0 131 -28.5 228t-78.5 148.5t-115 51.5q-139 0 -268.5 -147.5zM706.5 1796.5q24.5 39.5 64.5 60.5t87 21q64 0 98.5 -37.5t34.5 -99.5q0 -54 -25 -93t-66 -59t-87 -20q-65 0 -98 36.5t-33 98.5q0 53 24.5 92.5zM1196.5 1796.5
q24.5 39.5 64.5 60.5t87 21q64 0 98.5 -37.5t34.5 -99.5q0 -54 -25 -93t-65.5 -59t-85.5 -20q-66 0 -99.5 36.5t-33.5 98.5q0 53 24.5 92.5z" />
    <glyph glyph-name="Ograve" unicode="&#xd2;" horiz-adv-x="1591" 
d="M205.5 932q118.5 237 330.5 392t479 155q174 0 299 -58t191.5 -169t66.5 -267q0 -231 -119 -467.5t-332 -391.5t-479 -155q-173 0 -298 58t-191 168.5t-66 265.5q0 232 118.5 469zM727.5 1294.5q-129.5 -147.5 -209 -381.5t-79.5 -477q0 -131 28 -228t78 -148.5
t115 -51.5q140 0 269 147.5t209 381.5t80 477q0 131 -28.5 228t-78.5 148.5t-115 51.5q-139 0 -268.5 -147.5zM971.5 1657q-83.5 29 -125 44.5t-75.5 37.5q-29 18 -47 46.5t-18 58.5q0 25 14 50q30 50 93 50q43 0 77 -23q29 -17 52 -42.5t87 -110t148 -166.5l-17 -23
q-105 49 -188.5 78z" />
    <glyph glyph-name="Ohungarumlaut" unicode="&#x150;" horiz-adv-x="1591" 
d="M205.5 932q118.5 237 330.5 392t479 155q174 0 299 -58t191.5 -169t66.5 -267q0 -231 -119 -467.5t-332 -391.5t-479 -155q-173 0 -298 58t-191 168.5t-66 265.5q0 232 118.5 469zM727.5 1294.5q-129.5 -147.5 -209 -381.5t-79.5 -477q0 -131 28 -228t78 -148.5
t115 -51.5q140 0 269 147.5t209 381.5t80 477q0 131 -28.5 228t-78.5 148.5t-115 51.5q-139 0 -268.5 -147.5zM854 1742.5q59 76.5 88.5 111.5t64.5 61q35 24 77 24q60 0 91 -49q16 -25 16 -52q0 -61 -65 -105q-31 -21 -69 -37t-133.5 -48.5t-170.5 -66.5l-16 23
q58 62 117 138.5zM1285.5 1742q59.5 76 89 111.5t65.5 61.5q34 24 75 24q61 0 93 -49q17 -25 17 -50q0 -29 -18.5 -57.5t-48.5 -49.5q-31 -21 -69 -37t-133 -49t-170 -66l-17 23q57 62 116.5 138z" />
    <glyph glyph-name="Omacron" unicode="&#x14c;" horiz-adv-x="1591" 
d="M205.5 932q118.5 237 330.5 392t479 155q174 0 299 -58t191.5 -169t66.5 -267q0 -231 -119 -467.5t-332 -391.5t-479 -155q-173 0 -298 58t-191 168.5t-66 265.5q0 232 118.5 469zM727.5 1294.5q-129.5 -147.5 -209 -381.5t-79.5 -477q0 -131 28 -228t78 -148.5
t115 -51.5q140 0 269 147.5t209 381.5t80 477q0 131 -28.5 228t-78.5 148.5t-115 51.5q-139 0 -268.5 -147.5zM651 1677l12 52h820l-13 -52h-819z" />
    <glyph glyph-name="Oslash" unicode="&#xd8;" horiz-adv-x="1591" 
d="M1571 985q0 -231 -119 -467.5t-332 -391.5t-479 -155q-243 0 -388 112l-224 -233l-35 29l226 233q-134 129 -134 351q0 232 118.5 469t330.5 392t479 155q247 0 392 -115l210 219l31 -27l-209 -220q133 -129 133 -351zM1127.5 1370.5q-55.5 71.5 -132.5 71.5
q-139 0 -268.5 -147.5t-209 -381.5t-79.5 -477q0 -71 9 -133l758 867q-22 129 -77.5 200.5zM534.5 70.5q53.5 -62.5 124.5 -62.5q140 0 269 147.5t209 381.5t80 477q0 52 -5 100l-756 -867q25 -114 78.5 -176.5z" />
    <glyph glyph-name="Otilde" unicode="&#xd5;" horiz-adv-x="1591" 
d="M205.5 932q118.5 237 330.5 392t479 155q174 0 299 -58t191.5 -169t66.5 -267q0 -231 -119 -467.5t-332 -391.5t-479 -155q-173 0 -298 58t-191 168.5t-66 265.5q0 232 118.5 469zM727.5 1294.5q-129.5 -147.5 -209 -381.5t-79.5 -477q0 -131 28 -228t78 -148.5
t115 -51.5q140 0 269 147.5t209 381.5t80 477q0 131 -28.5 228t-78.5 148.5t-115 51.5q-139 0 -268.5 -147.5zM807.5 1828q91.5 70 193.5 70q73 0 121.5 -21t123 -74.5t144.5 -53.5q44 0 82.5 28t75.5 91l37 -10q-55 -144 -146.5 -214.5t-193.5 -70.5q-72 0 -120 21
t-123.5 74.5t-145.5 53.5q-45 0 -83 -27.5t-75 -90.5l-37 10q55 144 146.5 214z" />
    <glyph glyph-name="OE" unicode="&#x152;" horiz-adv-x="2036" 
d="M1866.5 330.5q-12.5 -50.5 -17.5 -68.5q-39 -143 -53 -262q-137 6 -455 6q-327 0 -499 -2q-112 -33 -215 -33q-168 0 -289.5 58t-185.5 168.5t-64 265.5q0 232 116.5 469t325 392t469.5 155q100 0 191 -33q91 -2 297 -2h239q283 0 408 6q-48 -123 -78 -242
q-22 -69 -26 -127h-45q15 84 15 144q0 97 -43 137.5t-138 40.5h-121q-71 0 -106.5 -12t-57 -46.5t-41.5 -111.5l-128 -483h151q57 0 95.5 30.5t62 76t52.5 122.5h46q-28 -85 -70 -250q-31 -113 -53 -250h-45q0 20 5 63t5 63q0 46 -23 73t-84 31h-153l-131 -492
q-18 -70 -18 -100q0 -29 13.5 -44t41.5 -20.5t79 -5.5h142q99 0 162 34t109.5 111t94.5 218h45q-13 -29 -25.5 -79.5zM1181 1323q0 68 -43 93.5t-132 25.5q-147 0 -278 -147t-209.5 -380.5t-78.5 -478.5q0 -133 27 -229.5t77.5 -147.5t119.5 -51q91 0 143 32t74 114
l286 1079q14 54 14 90z" />
    <glyph glyph-name="P" unicode="P" horiz-adv-x="1317" 
d="M441 127q0 -43 30.5 -63t106.5 -23l-9 -41q-123 6 -315 6q-232 0 -340 -6l8 41q74 3 110.5 16t58.5 48t42 112l270 1016q15 65 15 96q0 41 -29 59t-106 21l10 41q104 -6 325 -6q49 0 148.5 2t151.5 2q241 0 361 -78.5t120 -230.5q0 -160 -106.5 -286.5t-298.5 -198.5
t-440 -72l-97 -365q-16 -64 -16 -90zM573 623q170 0 278.5 82t157 209.5t48.5 271.5q0 111 -47.5 167t-151.5 56q-42 0 -63 -14.5t-34 -47.5t-34 -114l-162 -610h8z" />
    <glyph glyph-name="Thorn" unicode="&#xde;" horiz-adv-x="1354" 
d="M441 117q0 -30 13.5 -45.5t42.5 -22t83 -8.5l-9 -41q-119 6 -333 6t-322 -6l10 41q71 3 107 16t58 48.5t42 111.5l270 1016q17 65 17 99q0 30 -13.5 46t-42 22.5t-81.5 8.5l10 41q100 -6 321 -6q204 0 336 6l-10 -41q-75 -3 -111.5 -16t-58 -48t-41.5 -112l-22 -82
q110 2 161 2q160 0 267.5 -38t161 -107.5t53.5 -163.5q0 -160 -106.5 -286.5t-299 -198.5t-440.5 -72h-26l-19 -70q-18 -70 -18 -100zM795.5 403.5q108.5 75.5 160.5 200t52 273.5q0 111 -57 174t-167 63q-50 0 -87 -2l-209 -784h36q163 0 271.5 75.5z" />
    <glyph glyph-name="Q" unicode="Q" horiz-adv-x="1702" 
d="M1491.5 166.5q46.5 -44.5 46.5 -127.5q0 -103 -76.5 -201.5t-207.5 -160.5t-287 -62q-119 0 -218.5 38t-175 94t-165.5 139q-160 -54 -273 -54q-100 0 -156.5 41.5t-56.5 124.5q0 66 37 118t102.5 81.5t147.5 29.5q76 0 150 -26t140.5 -66t158.5 -103q186 98 337 251.5
t239.5 345t88.5 397.5q0 196 -80.5 306t-228.5 110q-139 0 -247.5 -93t-168 -239t-59.5 -299q0 -125 50 -189.5t159 -64.5q83 0 153.5 36.5t117.5 96t62 127.5q10 34 10 76l-1 22q-22 -61 -73.5 -91.5t-107.5 -30.5q-68 0 -107.5 42.5t-39.5 108.5q0 53 26 96.5t70.5 68
t97.5 24.5q86 0 135.5 -61.5t49.5 -164.5q0 -117 -64.5 -210.5t-180 -146t-261.5 -52.5q-130 0 -229.5 43.5t-155 125.5t-55.5 195q0 172 121 313.5t320 222.5t421 81q180 0 319.5 -51t217 -145.5t77.5 -219.5q0 -175 -142 -373t-367 -377t-470 -305q101 -70 176 -114.5
t162.5 -74.5t179.5 -30q188 0 265 145q-59 -45 -132 -45q-69 0 -114 40.5t-45 109.5q0 48 24 87.5t66.5 62t95.5 22.5q75 0 121.5 -44.5zM379 -86q-62 57 -105.5 91.5t-91 56.5t-96.5 22q-54 0 -87.5 -27t-33.5 -73q0 -56 49 -86.5t138 -30.5q86 0 227 47z" />
    <glyph glyph-name="R" unicode="R" horiz-adv-x="1456" 
d="M1389 248l-9 -27q-39 -129 -113 -189.5t-200 -60.5q-125 0 -188 54t-63 146q0 19 3 38l31 233q4 32 4 67q0 64 -24 103.5t-82.5 60.5t-162.5 23l-126 -479q-20 -70 -20 -101q0 -38 30.5 -55t108.5 -20l-9 -41q-123 6 -319 6q-228 0 -336 -6l8 41q74 3 110.5 16t58.5 48
t42 112l268 1016q18 65 18 98q0 40 -29.5 57.5t-106.5 20.5l10 41q103 -6 309 -6q67 0 155 2t152 2q250 0 370 -70t120 -215q0 -119 -73.5 -214.5t-209 -157t-317.5 -83.5q122 -12 201.5 -34.5t126.5 -70.5t47 -132q0 -21 -3 -45l-28 -211q-3 -24 -3 -44q0 -99 66 -99
q40 0 68.5 36t56.5 111l10 29h48zM610 733q135 0 239 54t162 158t58 249q0 110 -46.5 162.5t-143.5 52.5q-42 0 -67.5 -12t-42.5 -40.5t-32 -82.5l-142 -541h15z" />
    <glyph glyph-name="Racute" unicode="&#x154;" horiz-adv-x="1456" 
d="M1389 248l-9 -27q-39 -129 -113 -189.5t-200 -60.5q-125 0 -188 54t-63 146q0 19 3 38l31 233q4 32 4 67q0 64 -24 103.5t-82.5 60.5t-162.5 23l-126 -479q-20 -70 -20 -101q0 -38 30.5 -55t108.5 -20l-9 -41q-123 6 -319 6q-228 0 -336 -6l8 41q74 3 110.5 16t58.5 48
t42 112l268 1016q18 65 18 98q0 40 -29.5 57.5t-106.5 20.5l10 41q103 -6 309 -6q67 0 155 2t152 2q250 0 370 -70t120 -215q0 -119 -73.5 -214.5t-209 -157t-317.5 -83.5q122 -12 201.5 -34.5t126.5 -70.5t47 -132q0 -21 -3 -45l-28 -211q-3 -24 -3 -44q0 -99 66 -99
q40 0 68.5 36t56.5 111l10 29h48zM610 733q135 0 239 54t162 158t58 249q0 110 -46.5 162.5t-143.5 52.5q-42 0 -67.5 -12t-42.5 -40.5t-32 -82.5l-142 -541h15zM912.5 1759.5q84.5 79.5 123.5 114.5t87 61q41 23 88 23q71 0 98 -55q11 -22 11 -42q0 -65 -92 -116
q-36 -20 -78.5 -34.5t-165 -49.5t-236.5 -80l-14 25q94 74 178.5 153.5z" />
    <glyph glyph-name="Rcaron" unicode="&#x158;" horiz-adv-x="1456" 
d="M1389 248l-9 -27q-39 -129 -113 -189.5t-200 -60.5q-125 0 -188 54t-63 146q0 19 3 38l31 233q4 32 4 67q0 64 -24 103.5t-82.5 60.5t-162.5 23l-126 -479q-20 -70 -20 -101q0 -38 30.5 -55t108.5 -20l-9 -41q-123 6 -319 6q-228 0 -336 -6l8 41q74 3 110.5 16t58.5 48
t42 112l268 1016q18 65 18 98q0 40 -29.5 57.5t-106.5 20.5l10 41q103 -6 309 -6q67 0 155 2t152 2q250 0 370 -70t120 -215q0 -119 -73.5 -214.5t-209 -157t-317.5 -83.5q122 -12 201.5 -34.5t126.5 -70.5t47 -132q0 -21 -3 -45l-28 -211q-3 -24 -3 -44q0 -99 66 -99
q40 0 68.5 36t56.5 111l10 29h48zM610 733q135 0 239 54t162 158t58 249q0 110 -46.5 162.5t-143.5 52.5q-42 0 -67.5 -12t-42.5 -40.5t-32 -82.5l-142 -541h15zM799 1869q89 -28 189 -71q212 77 447 121l10 -29q-170 -53 -317.5 -137.5t-237.5 -179.5h-37
q-47 114 -111.5 189.5t-173.5 127.5l9 29q133 -22 222 -50z" />
    <glyph glyph-name="Rcommaaccent" unicode="&#x156;" horiz-adv-x="1456" 
d="M1389 248l-9 -27q-39 -129 -113 -189.5t-200 -60.5q-125 0 -188 54t-63 146q0 19 3 38l31 233q4 32 4 67q0 64 -24 103.5t-82.5 60.5t-162.5 23l-126 -479q-20 -70 -20 -101q0 -38 30.5 -55t108.5 -20l-9 -41q-123 6 -319 6q-228 0 -336 -6l8 41q74 3 110.5 16t58.5 48
t42 112l268 1016q18 65 18 98q0 40 -29.5 57.5t-106.5 20.5l10 41q103 -6 309 -6q67 0 155 2t152 2q250 0 370 -70t120 -215q0 -119 -73.5 -214.5t-209 -157t-317.5 -83.5q122 -12 201.5 -34.5t126.5 -70.5t47 -132q0 -21 -3 -45l-28 -211q-3 -24 -3 -44q0 -99 66 -99
q40 0 68.5 36t56.5 111l10 29h48zM610 733q135 0 239 54t162 158t58 249q0 110 -46.5 162.5t-143.5 52.5q-42 0 -67.5 -12t-42.5 -40.5t-32 -82.5l-142 -541h15zM644.5 -414.5q56.5 31.5 66.5 78.5q-49 -35 -118 -35q-58 0 -90.5 25.5t-32.5 75.5q0 46 25 83t67.5 57.5
t93.5 20.5q58 0 98.5 -33t40.5 -94q0 -107 -77.5 -175t-204.5 -83l-6 39q81 9 137.5 40.5z" />
    <glyph glyph-name="S" unicode="S" horiz-adv-x="1202" 
d="M1149 1047h-41q12 57 12 114q0 123 -76 196t-217 73q-110 0 -178.5 -55t-68.5 -169q0 -141 158.5 -309t240.5 -271.5t82 -244.5q0 -137 -87.5 -229.5t-218 -136.5t-259.5 -44q-92 0 -155 12t-105.5 31t-94.5 52q-45 30 -71 30q-18 0 -31 -10t-24.5 -32.5t-30.5 -67.5h-41
q66 157 139 491h41q-22 -86 -19 -162q7 -146 91 -222.5t243 -76.5q264 0 264 215q0 173 -145 336t-218 259.5t-73 242.5q0 132 75 224.5t191.5 139t237.5 46.5q107 0 182 -25t142 -65q50 -33 67 -33t32 25t36 83h41q-78 -190 -121 -417z" />
    <glyph glyph-name="Sacute" unicode="&#x15a;" horiz-adv-x="1202" 
d="M1149 1047h-41q12 57 12 114q0 123 -76 196t-217 73q-110 0 -178.5 -55t-68.5 -169q0 -141 158.5 -309t240.5 -271.5t82 -244.5q0 -137 -87.5 -229.5t-218 -136.5t-259.5 -44q-92 0 -155 12t-105.5 31t-94.5 52q-45 30 -71 30q-18 0 -31 -10t-24.5 -32.5t-30.5 -67.5h-41
q66 157 139 491h41q-22 -86 -19 -162q7 -146 91 -222.5t243 -76.5q264 0 264 215q0 173 -145 336t-218 259.5t-73 242.5q0 132 75 224.5t191.5 139t237.5 46.5q107 0 182 -25t142 -65q50 -33 67 -33t32 25t36 83h41q-78 -190 -121 -417zM869.5 1759.5q84.5 79.5 123.5 114.5
t87 61q41 23 88 23q71 0 98 -55q11 -22 11 -42q0 -65 -92 -116q-36 -20 -78.5 -34.5t-165 -49.5t-236.5 -80l-14 25q94 74 178.5 153.5z" />
    <glyph glyph-name="Scaron" unicode="&#x160;" horiz-adv-x="1202" 
d="M1149 1047h-41q12 57 12 114q0 123 -76 196t-217 73q-110 0 -178.5 -55t-68.5 -169q0 -141 158.5 -309t240.5 -271.5t82 -244.5q0 -137 -87.5 -229.5t-218 -136.5t-259.5 -44q-92 0 -155 12t-105.5 31t-94.5 52q-45 30 -71 30q-18 0 -31 -10t-24.5 -32.5t-30.5 -67.5h-41
q66 157 139 491h41q-22 -86 -19 -162q7 -146 91 -222.5t243 -76.5q264 0 264 215q0 173 -145 336t-218 259.5t-73 242.5q0 132 75 224.5t191.5 139t237.5 46.5q107 0 182 -25t142 -65q50 -33 67 -33t32 25t36 83h41q-78 -190 -121 -417zM756 1869q89 -28 189 -71
q212 77 447 121l10 -29q-170 -53 -317.5 -137.5t-237.5 -179.5h-37q-47 114 -111.5 189.5t-173.5 127.5l9 29q133 -22 222 -50z" />
    <glyph glyph-name="Scedilla" unicode="&#x15e;" horiz-adv-x="1202" 
d="M1149 1047h-41q12 57 12 114q0 123 -76 196t-217 73q-110 0 -178.5 -55t-68.5 -169q0 -141 158.5 -309t240.5 -271.5t82 -244.5q0 -137 -87.5 -229.5t-218 -136.5t-259.5 -44q-92 0 -155 12t-105.5 31t-94.5 52q-45 30 -71 30q-18 0 -31 -10t-24.5 -32.5t-30.5 -67.5h-41
q66 157 139 491h41q-22 -86 -19 -162q7 -146 91 -222.5t243 -76.5q264 0 264 215q0 173 -145 336t-218 259.5t-73 242.5q0 132 75 224.5t191.5 139t237.5 46.5q107 0 182 -25t142 -65q50 -33 67 -33t32 25t36 83h41q-78 -190 -121 -417zM554 -109q63 0 100 -25t37 -73
q0 -61 -51 -101t-130.5 -58.5t-164.5 -18.5q-70 0 -130 12.5t-95 28.5l12 31q96 -23 166 -23q68 0 126 20.5t58 73.5q0 47 -65 47q-34 0 -72 -14l100 221h56l-66 -141q58 20 119 20z" />
    <glyph glyph-name="Scircumflex" unicode="&#x15c;" horiz-adv-x="1202" 
d="M1149 1047h-41q12 57 12 114q0 123 -76 196t-217 73q-110 0 -178.5 -55t-68.5 -169q0 -141 158.5 -309t240.5 -271.5t82 -244.5q0 -137 -87.5 -229.5t-218 -136.5t-259.5 -44q-92 0 -155 12t-105.5 31t-94.5 52q-45 30 -71 30q-18 0 -31 -10t-24.5 -32.5t-30.5 -67.5h-41
q66 157 139 491h41q-22 -86 -19 -162q7 -146 91 -222.5t243 -76.5q264 0 264 215q0 173 -145 336t-218 259.5t-73 242.5q0 132 75 224.5t191.5 139t237.5 46.5q107 0 182 -25t142 -65q50 -33 67 -33t32 25t36 83h41q-78 -190 -121 -417zM1023.5 1629q-88.5 28 -191.5 71
q-214 -77 -445 -121l-10 29q169 53 317 138t238 179h37q48 -115 111.5 -190t172.5 -127l-8 -29q-133 22 -221.5 50z" />
    <glyph glyph-name="Scommaaccent" unicode="&#x218;" horiz-adv-x="1202" 
d="M1149 1047h-41q12 57 12 114q0 123 -76 196t-217 73q-110 0 -178.5 -55t-68.5 -169q0 -141 158.5 -309t240.5 -271.5t82 -244.5q0 -137 -87.5 -229.5t-218 -136.5t-259.5 -44q-92 0 -155 12t-105.5 31t-94.5 52q-45 30 -71 30q-18 0 -31 -10t-24.5 -32.5t-30.5 -67.5h-41
q66 157 139 491h41q-22 -86 -19 -162q7 -146 91 -222.5t243 -76.5q264 0 264 215q0 173 -145 336t-218 259.5t-73 242.5q0 132 75 224.5t191.5 139t237.5 46.5q107 0 182 -25t142 -65q50 -33 67 -33t32 25t36 83h41q-78 -190 -121 -417zM458.5 -414.5q56.5 31.5 66.5 78.5
q-49 -35 -118 -35q-58 0 -90.5 25.5t-32.5 75.5q0 46 25 83t67.5 57.5t93.5 20.5q58 0 98.5 -33t40.5 -94q0 -107 -77.5 -175t-204.5 -83l-6 39q81 9 137.5 40.5z" />
    <glyph glyph-name="uni1E9E" unicode="&#x1e9e;" horiz-adv-x="1348" 
d="M-125 -385l352 1321q76 282 258 412.5t447 130.5q183 0 283 -66t100 -203q0 -106 -73.5 -195t-194 -152t-263.5 -97q162 -14 264 -66.5t146.5 -126.5t44.5 -155q0 -134 -80 -235.5t-217 -156.5t-305 -55q-101 0 -163 38t-62 116q0 47 21 91t60 71.5t91 27.5
q56 0 91.5 -34.5t35.5 -87.5q0 -62 -44.5 -113.5t-109.5 -67.5q28 -8 72 -8q80 0 143.5 52.5t99 148t35.5 219.5q0 77 -20 152t-57.5 123.5t-86.5 48.5q-75 -25 -106 -25q-41 0 -41 25q0 16 17 28t40 12q29 0 103 -18q67 43 118.5 130t80 191t28.5 197q0 85 -22 122.5
t-84 37.5q-84 0 -153.5 -70t-113.5 -229l-407 -1503q-174 -3 -328 -31z" />
    <glyph glyph-name="T" unicode="T" horiz-adv-x="1395" 
d="M592 1409q-170 0 -232 -35q54 -15 88.5 -60t34.5 -106q0 -47 -20.5 -86.5t-56.5 -62.5t-82 -23q-69 0 -108.5 46.5t-39.5 115.5q0 57 31.5 111t101.5 88q101 49 275 49q87 0 172 -6t258.5 -22.5t277.5 -16.5q137 0 217 27q-31 29 -51 70.5t-20 90.5q0 75 44 121.5
t117 46.5q49 0 84.5 -20t54.5 -52.5t19 -70.5q0 -126 -141 -195q-124 -59 -342 -59q-52 0 -120 4l-300 -1126q-15 -57 -15 -94t16.5 -58.5t53 -31.5t99.5 -13l-9 -41q-129 6 -378 6q-244 0 -361 -6l8 41q88 3 136 21t75.5 58t48.5 118l309 1156q-155 15 -245 15z" />
    <glyph glyph-name="Tbar" unicode="&#x166;" horiz-adv-x="1423" 
d="M594 1409q-170 0 -232 -35q54 -15 88.5 -60t34.5 -106q0 -47 -20.5 -86.5t-56.5 -62.5t-82 -23q-69 0 -108.5 46.5t-39.5 115.5q0 57 31.5 111t101.5 88q101 49 275 49q87 0 172 -6t258.5 -22.5t277.5 -16.5q137 0 217 27q-31 29 -51 70.5t-20 90.5q0 75 44 121.5
t117 46.5q49 0 84.5 -20t54.5 -52.5t19 -70.5q0 -126 -141 -195q-124 -59 -342 -59q-52 0 -120 4l-163 -614h291l-10 -41h-292l-126 -471q-15 -57 -15 -94t16.5 -58.5t53 -31.5t99.5 -13l-9 -41q-129 6 -378 6q-244 0 -361 -6l8 41q88 3 136 21t75.5 58t48.5 118l126 471
h-291l10 41h292l172 644q-155 15 -245 15z" />
    <glyph glyph-name="Tcaron" unicode="&#x164;" horiz-adv-x="1395" 
d="M593 1409q-170 0 -232 -35q54 -15 88.5 -60t34.5 -106q0 -47 -20.5 -86.5t-56.5 -62.5t-82 -23q-69 0 -108.5 46.5t-39.5 115.5q0 57 31.5 111t101.5 88q101 49 275 49q87 0 172 -6t258.5 -22.5t277.5 -16.5q137 0 217 27q-31 29 -51 70.5t-20 90.5q0 75 44 121.5
t117 46.5q49 0 84.5 -20t54.5 -52.5t19 -70.5q0 -126 -141 -195q-124 -59 -342 -59q-52 0 -120 4l-300 -1126q-15 -57 -15 -94t16.5 -58.5t53 -31.5t99.5 -13l-9 -41q-129 6 -378 6q-244 0 -361 -6l8 41q88 3 136 21t75.5 58t48.5 118l309 1156q-155 15 -245 15zM921 1869
q89 -28 189 -71q212 77 447 121l10 -29q-170 -53 -317.5 -137.5t-237.5 -179.5h-37q-47 114 -111.5 189.5t-173.5 127.5l9 29q133 -22 222 -50z" />
    <glyph glyph-name="Tcedilla" unicode="&#x162;" horiz-adv-x="1395" 
d="M593 1409q-170 0 -232 -35q54 -15 88.5 -60t34.5 -106q0 -47 -20.5 -86.5t-56.5 -62.5t-82 -23q-69 0 -108.5 46.5t-39.5 115.5q0 57 31.5 111t101.5 88q101 49 275 49q87 0 172 -6t258.5 -22.5t277.5 -16.5q137 0 217 27q-31 29 -51 70.5t-20 90.5q0 75 44 121.5
t117 46.5q49 0 84.5 -20t54.5 -52.5t19 -70.5q0 -126 -141 -195q-124 -59 -342 -59q-52 0 -120 4l-300 -1126q-15 -57 -15 -94t16.5 -58.5t53 -31.5t99.5 -13l-9 -41q-129 6 -378 6q-244 0 -361 -6l8 41q88 3 136 21t75.5 58t48.5 118l309 1156q-155 15 -245 15zM708 -109
q63 0 100 -25t37 -73q0 -61 -51 -101t-130.5 -58.5t-164.5 -18.5q-70 0 -130 12.5t-95 28.5l12 31q96 -23 166 -23q68 0 126 20.5t58 73.5q0 47 -65 47q-34 0 -72 -14l100 221h56l-66 -141q58 20 119 20z" />
    <glyph glyph-name="uni021A" unicode="&#x21a;" horiz-adv-x="1395" 
d="M593 1409q-170 0 -232 -35q54 -15 88.5 -60t34.5 -106q0 -47 -20.5 -86.5t-56.5 -62.5t-82 -23q-69 0 -108.5 46.5t-39.5 115.5q0 57 31.5 111t101.5 88q101 49 275 49q87 0 172 -6t258.5 -22.5t277.5 -16.5q137 0 217 27q-31 29 -51 70.5t-20 90.5q0 75 44 121.5
t117 46.5q49 0 84.5 -20t54.5 -52.5t19 -70.5q0 -126 -141 -195q-124 -59 -342 -59q-52 0 -120 4l-300 -1126q-15 -57 -15 -94t16.5 -58.5t53 -31.5t99.5 -13l-9 -41q-129 6 -378 6q-244 0 -361 -6l8 41q88 3 136 21t75.5 58t48.5 118l309 1156q-155 15 -245 15z
M612.5 -414.5q56.5 31.5 66.5 78.5q-49 -35 -118 -35q-58 0 -90.5 25.5t-32.5 75.5q0 46 25 83t67.5 57.5t93.5 20.5q58 0 98.5 -33t40.5 -94q0 -107 -77.5 -175t-204.5 -83l-6 39q81 9 137.5 40.5z" />
    <glyph glyph-name="U" unicode="U" horiz-adv-x="1421" 
d="M1349 1289q0 59 -35 85t-120 35l10 41q77 -6 219 -6q114 0 181 6l-11 -41q-69 -9 -108 -34.5t-64.5 -78.5t-52.5 -157l-139 -543q-73 -283 -201 -434q-75 -88 -185 -139.5t-235 -51.5q-150 0 -250 42.5t-149 119.5q-55 77 -55 191q0 102 45 266l170 643q17 65 17 98
q0 31 -14 47t-42.5 22.5t-81.5 8.5l12 41q105 -6 338 -6q191 0 317 6l-12 -41q-75 -3 -111.5 -16t-58 -48t-41.5 -112l-180 -678q-49 -184 -49 -298q0 -108 44.5 -161t139.5 -53q215 0 339 139.5t190 390.5l141 541q32 122 32 175z" />
    <glyph glyph-name="Uacute" unicode="&#xda;" horiz-adv-x="1421" 
d="M1350 1289q0 59 -35 85t-120 35l10 41q77 -6 219 -6q114 0 181 6l-11 -41q-69 -9 -108 -34.5t-64.5 -78.5t-52.5 -157l-139 -543q-73 -283 -201 -434q-75 -88 -185 -139.5t-235 -51.5q-150 0 -250 42.5t-149 119.5q-55 77 -55 191q0 102 45 266l170 643q17 65 17 98
q0 31 -14 47t-42.5 22.5t-81.5 8.5l12 41q105 -6 338 -6q191 0 317 6l-12 -41q-75 -3 -111.5 -16t-58 -48t-41.5 -112l-180 -678q-49 -184 -49 -298q0 -108 44.5 -161t139.5 -53q215 0 339 139.5t190 390.5l141 541q32 122 32 175zM1050.5 1759.5q84.5 79.5 123.5 114.5
t87 61q41 23 88 23q71 0 98 -55q11 -22 11 -42q0 -65 -92 -116q-36 -20 -78.5 -34.5t-165 -49.5t-236.5 -80l-14 25q94 74 178.5 153.5z" />
    <glyph glyph-name="Ubreve" unicode="&#x16c;" horiz-adv-x="1421" 
d="M1350 1289q0 59 -35 85t-120 35l10 41q77 -6 219 -6q114 0 181 6l-11 -41q-69 -9 -108 -34.5t-64.5 -78.5t-52.5 -157l-139 -543q-73 -283 -201 -434q-75 -88 -185 -139.5t-235 -51.5q-150 0 -250 42.5t-149 119.5q-55 77 -55 191q0 102 45 266l170 643q17 65 17 98
q0 31 -14 47t-42.5 22.5t-81.5 8.5l12 41q105 -6 338 -6q191 0 317 6l-12 -41q-75 -3 -111.5 -16t-58 -48t-41.5 -112l-180 -678q-49 -184 -49 -298q0 -108 44.5 -161t139.5 -53q215 0 339 139.5t190 390.5l141 541q32 122 32 175zM844.5 1804.5q76.5 -24.5 197.5 -24.5
q270 0 467 116l22 -20q-54 -77 -140.5 -145t-189 -110t-200.5 -42q-136 0 -217.5 81.5t-106.5 213.5l31 14q60 -59 136.5 -83.5z" />
    <glyph glyph-name="Ucircumflex" unicode="&#xdb;" horiz-adv-x="1421" 
d="M1350 1289q0 59 -35 85t-120 35l10 41q77 -6 219 -6q114 0 181 6l-11 -41q-69 -9 -108 -34.5t-64.5 -78.5t-52.5 -157l-139 -543q-73 -283 -201 -434q-75 -88 -185 -139.5t-235 -51.5q-150 0 -250 42.5t-149 119.5q-55 77 -55 191q0 102 45 266l170 643q17 65 17 98
q0 31 -14 47t-42.5 22.5t-81.5 8.5l12 41q105 -6 338 -6q191 0 317 6l-12 -41q-75 -3 -111.5 -16t-58 -48t-41.5 -112l-180 -678q-49 -184 -49 -298q0 -108 44.5 -161t139.5 -53q215 0 339 139.5t190 390.5l141 541q32 122 32 175zM1204.5 1629q-88.5 28 -191.5 71
q-214 -77 -445 -121l-10 29q169 53 317 138t238 179h37q48 -115 111.5 -190t172.5 -127l-8 -29q-133 22 -221.5 50z" />
    <glyph glyph-name="Udieresis" unicode="&#xdc;" horiz-adv-x="1421" 
d="M1350 1289q0 59 -35 85t-120 35l10 41q77 -6 219 -6q114 0 181 6l-11 -41q-69 -9 -108 -34.5t-64.5 -78.5t-52.5 -157l-139 -543q-73 -283 -201 -434q-75 -88 -185 -139.5t-235 -51.5q-150 0 -250 42.5t-149 119.5q-55 77 -55 191q0 102 45 266l170 643q17 65 17 98
q0 31 -14 47t-42.5 22.5t-81.5 8.5l12 41q105 -6 338 -6q191 0 317 6l-12 -41q-75 -3 -111.5 -16t-58 -48t-41.5 -112l-180 -678q-49 -184 -49 -298q0 -108 44.5 -161t139.5 -53q215 0 339 139.5t190 390.5l141 541q32 122 32 175zM641.5 1796.5q24.5 39.5 64.5 60.5t87 21
q64 0 98.5 -37.5t34.5 -99.5q0 -54 -25 -93t-66 -59t-87 -20q-65 0 -98 36.5t-33 98.5q0 53 24.5 92.5zM1131.5 1796.5q24.5 39.5 64.5 60.5t87 21q64 0 98.5 -37.5t34.5 -99.5q0 -54 -25 -93t-65.5 -59t-85.5 -20q-66 0 -99.5 36.5t-33.5 98.5q0 53 24.5 92.5z" />
    <glyph glyph-name="Ugrave" unicode="&#xd9;" horiz-adv-x="1421" 
d="M1350 1289q0 59 -35 85t-120 35l10 41q77 -6 219 -6q114 0 181 6l-11 -41q-69 -9 -108 -34.5t-64.5 -78.5t-52.5 -157l-139 -543q-73 -283 -201 -434q-75 -88 -185 -139.5t-235 -51.5q-150 0 -250 42.5t-149 119.5q-55 77 -55 191q0 102 45 266l170 643q17 65 17 98
q0 31 -14 47t-42.5 22.5t-81.5 8.5l12 41q105 -6 338 -6q191 0 317 6l-12 -41q-75 -3 -111.5 -16t-58 -48t-41.5 -112l-180 -678q-49 -184 -49 -298q0 -108 44.5 -161t139.5 -53q215 0 339 139.5t190 390.5l141 541q32 122 32 175zM906.5 1657q-83.5 29 -125 44.5
t-75.5 37.5q-29 18 -47 46.5t-18 58.5q0 25 14 50q30 50 93 50q43 0 77 -23q29 -17 52 -42.5t87 -110t148 -166.5l-17 -23q-105 49 -188.5 78z" />
    <glyph glyph-name="Uhungarumlaut" unicode="&#x170;" horiz-adv-x="1421" 
d="M1350 1289q0 59 -35 85t-120 35l10 41q77 -6 219 -6q114 0 181 6l-11 -41q-69 -9 -108 -34.5t-64.5 -78.5t-52.5 -157l-139 -543q-73 -283 -201 -434q-75 -88 -185 -139.5t-235 -51.5q-150 0 -250 42.5t-149 119.5q-55 77 -55 191q0 102 45 266l170 643q17 65 17 98
q0 31 -14 47t-42.5 22.5t-81.5 8.5l12 41q105 -6 338 -6q191 0 317 6l-12 -41q-75 -3 -111.5 -16t-58 -48t-41.5 -112l-180 -678q-49 -184 -49 -298q0 -108 44.5 -161t139.5 -53q215 0 339 139.5t190 390.5l141 541q32 122 32 175zM789 1742.5q59 76.5 88.5 111.5t64.5 61
q35 24 77 24q60 0 91 -49q16 -25 16 -52q0 -61 -65 -105q-31 -21 -69 -37t-133.5 -48.5t-170.5 -66.5l-16 23q58 62 117 138.5zM1220.5 1742q59.5 76 89 111.5t65.5 61.5q34 24 75 24q61 0 93 -49q17 -25 17 -50q0 -29 -18.5 -57.5t-48.5 -49.5q-31 -21 -69 -37t-133 -49
t-170 -66l-17 23q57 62 116.5 138z" />
    <glyph glyph-name="Umacron" unicode="&#x16a;" horiz-adv-x="1421" 
d="M1350 1289q0 59 -35 85t-120 35l10 41q77 -6 219 -6q114 0 181 6l-11 -41q-69 -9 -108 -34.5t-64.5 -78.5t-52.5 -157l-139 -543q-73 -283 -201 -434q-75 -88 -185 -139.5t-235 -51.5q-150 0 -250 42.5t-149 119.5q-55 77 -55 191q0 102 45 266l170 643q17 65 17 98
q0 31 -14 47t-42.5 22.5t-81.5 8.5l12 41q105 -6 338 -6q191 0 317 6l-12 -41q-75 -3 -111.5 -16t-58 -48t-41.5 -112l-180 -678q-49 -184 -49 -298q0 -108 44.5 -161t139.5 -53q215 0 339 139.5t190 390.5l141 541q32 122 32 175zM586 1677l12 52h820l-13 -52h-819z" />
    <glyph glyph-name="Uogonek" unicode="&#x172;" horiz-adv-x="1421" 
d="M1350 1289q0 59 -35 85t-120 35l10 41q77 -6 219 -6q114 0 181 6l-11 -41q-69 -9 -108 -34.5t-64.5 -78.5t-52.5 -157l-139 -543q-73 -283 -201 -434q-75 -88 -185 -139.5t-235 -51.5q-150 0 -250 42.5t-149 119.5q-55 77 -55 191q0 102 45 266l170 643q17 65 17 98
q0 31 -14 47t-42.5 22.5t-81.5 8.5l12 41q105 -6 338 -6q191 0 317 6l-12 -41q-75 -3 -111.5 -16t-58 -48t-41.5 -112l-180 -678q-49 -184 -49 -298q0 -108 44.5 -161t139.5 -53q215 0 339 139.5t190 390.5l141 541q32 122 32 175zM645.5 -91q-61.5 -62 -61.5 -130
q0 -62 67 -62q33 0 74.5 12.5t77.5 32.5l22 -34q-141 -113 -299 -113q-81 0 -126.5 32.5t-45.5 90.5q0 90 114 158.5t280 109.5h53q-94 -35 -155.5 -97z" />
    <glyph glyph-name="Uring" unicode="&#x16e;" horiz-adv-x="1421" 
d="M1350 1289q0 59 -35 85t-120 35l10 41q77 -6 219 -6q114 0 181 6l-11 -41q-69 -9 -108 -34.5t-64.5 -78.5t-52.5 -157l-139 -543q-73 -283 -201 -434q-75 -88 -185 -139.5t-235 -51.5q-150 0 -250 42.5t-149 119.5q-55 77 -55 191q0 102 45 266l170 643q17 65 17 98
q0 31 -14 47t-42.5 22.5t-81.5 8.5l12 41q105 -6 338 -6q191 0 317 6l-12 -41q-75 -3 -111.5 -16t-58 -48t-41.5 -112l-180 -678q-49 -184 -49 -298q0 -108 44.5 -161t139.5 -53q215 0 339 139.5t190 390.5l141 541q32 122 32 175zM1168 1897.5q46 -21.5 72 -61t26 -91.5
q0 -61 -35.5 -112.5t-94 -82t-124.5 -30.5q-85 0 -140 47.5t-55 128.5q0 62 33.5 113t90 80.5t124.5 29.5q57 0 103 -21.5zM1113.5 1586.5q44.5 23.5 71.5 65t27 91.5q0 43 -22 73t-57.5 45t-73.5 15q-49 0 -92.5 -25t-69 -67t-25.5 -88q0 -42 21 -72t55 -45.5t72 -15.5
q49 0 93.5 23.5z" />
    <glyph glyph-name="Utilde" unicode="&#x168;" horiz-adv-x="1421" 
d="M1350 1289q0 59 -35 85t-120 35l10 41q77 -6 219 -6q114 0 181 6l-11 -41q-69 -9 -108 -34.5t-64.5 -78.5t-52.5 -157l-139 -543q-73 -283 -201 -434q-75 -88 -185 -139.5t-235 -51.5q-150 0 -250 42.5t-149 119.5q-55 77 -55 191q0 102 45 266l170 643q17 65 17 98
q0 31 -14 47t-42.5 22.5t-81.5 8.5l12 41q105 -6 338 -6q191 0 317 6l-12 -41q-75 -3 -111.5 -16t-58 -48t-41.5 -112l-180 -678q-49 -184 -49 -298q0 -108 44.5 -161t139.5 -53q215 0 339 139.5t190 390.5l141 541q32 122 32 175zM742.5 1828q91.5 70 193.5 70
q73 0 121.5 -21t123 -74.5t144.5 -53.5q44 0 82.5 28t75.5 91l37 -10q-55 -144 -146.5 -214.5t-193.5 -70.5q-72 0 -120 21t-123.5 74.5t-145.5 53.5q-45 0 -83 -27.5t-75 -90.5l-37 10q55 144 146.5 214z" />
    <glyph glyph-name="V" unicode="V" horiz-adv-x="1354" 
d="M1444 1444q88 0 153 6l-10 -41q-67 -19 -121 -64.5t-123 -152.5l-782 -1202q-17 1 -52 1q-34 0 -52 -1l-162 1288q-8 66 -39.5 97.5t-67.5 33.5l11 41q104 -6 295 -6q205 0 313 6l-10 -41q-63 -3 -97.5 -12.5t-52 -35.5t-17.5 -75q0 -22 3 -49l102 -908l539 828
q62 94 62 152q0 49 -43.5 72.5t-127.5 27.5l11 41q80 -6 268 -6z" />
    <glyph glyph-name="W" unicode="W" horiz-adv-x="2011" 
d="M2079 1444q91 0 155 6l-10 -41q-48 -13 -84.5 -33.5t-76 -64t-81.5 -119.5l-645 -1202h-106l-126 913l-552 -913h-107l-161 1288q-9 69 -40 99t-69 32l10 41q102 -6 287 -6q175 0 266 6l-10 -41q-40 -3 -63 -13.5t-34.5 -35.5t-11.5 -71q0 -23 3 -52l99 -888l374 616
l-43 313q-9 68 -34 98.5t-54 32.5l10 41q95 -6 266 -6q212 0 320 6l-11 -41q-62 -3 -96 -13t-50.5 -34t-16.5 -70q0 -27 4 -55l108 -857l422 777q51 96 51 151q0 52 -42.5 74.5t-129.5 26.5l10 41q84 -6 269 -6z" />
    <glyph glyph-name="Wacute" unicode="&#x1e82;" horiz-adv-x="2011" 
d="M2080 1444q91 0 155 6l-10 -41q-48 -13 -84.5 -33.5t-76 -64t-81.5 -119.5l-645 -1202h-106l-126 913l-552 -913h-107l-161 1288q-9 69 -40 99t-69 32l10 41q102 -6 287 -6q175 0 266 6l-10 -41q-40 -3 -63 -13.5t-34.5 -35.5t-11.5 -71q0 -23 3 -52l99 -888l374 616
l-43 313q-9 68 -34 98.5t-54 32.5l10 41q95 -6 266 -6q212 0 320 6l-11 -41q-62 -3 -96 -13t-50.5 -34t-16.5 -70q0 -27 4 -55l108 -857l422 777q51 96 51 151q0 52 -42.5 74.5t-129.5 26.5l10 41q84 -6 269 -6zM1331.5 1756.5q84.5 79.5 123.5 114.5t87 61q41 23 88 23
q71 0 98 -55q11 -22 11 -42q0 -65 -92 -116q-36 -20 -78.5 -34.5t-165 -49.5t-236.5 -80l-14 25q94 74 178.5 153.5z" />
    <glyph glyph-name="Wcircumflex" unicode="&#x174;" horiz-adv-x="2011" 
d="M2080 1444q91 0 155 6l-10 -41q-48 -13 -84.5 -33.5t-76 -64t-81.5 -119.5l-645 -1202h-106l-126 913l-552 -913h-107l-161 1288q-9 69 -40 99t-69 32l10 41q102 -6 287 -6q175 0 266 6l-10 -41q-40 -3 -63 -13.5t-34.5 -35.5t-11.5 -71q0 -23 3 -52l99 -888l374 616
l-43 313q-9 68 -34 98.5t-54 32.5l10 41q95 -6 266 -6q212 0 320 6l-11 -41q-62 -3 -96 -13t-50.5 -34t-16.5 -70q0 -27 4 -55l108 -857l422 777q51 96 51 151q0 52 -42.5 74.5t-129.5 26.5l10 41q84 -6 269 -6zM1485.5 1626q-88.5 28 -191.5 71q-214 -77 -445 -121l-10 29
q169 53 317 138t238 179h37q48 -115 111.5 -190t172.5 -127l-8 -29q-133 22 -221.5 50z" />
    <glyph glyph-name="Wdieresis" unicode="&#x1e84;" horiz-adv-x="2011" 
d="M2080 1444q91 0 155 6l-10 -41q-48 -13 -84.5 -33.5t-76 -64t-81.5 -119.5l-645 -1202h-106l-126 913l-552 -913h-107l-161 1288q-9 69 -40 99t-69 32l10 41q102 -6 287 -6q175 0 266 6l-10 -41q-40 -3 -63 -13.5t-34.5 -35.5t-11.5 -71q0 -23 3 -52l99 -888l374 616
l-43 313q-9 68 -34 98.5t-54 32.5l10 41q95 -6 266 -6q212 0 320 6l-11 -41q-62 -3 -96 -13t-50.5 -34t-16.5 -70q0 -27 4 -55l108 -857l422 777q51 96 51 151q0 52 -42.5 74.5t-129.5 26.5l10 41q84 -6 269 -6zM922.5 1793.5q24.5 39.5 64.5 60.5t87 21q64 0 98.5 -37.5
t34.5 -99.5q0 -54 -25 -93t-66 -59t-87 -20q-65 0 -98 36.5t-33 98.5q0 53 24.5 92.5zM1412.5 1793.5q24.5 39.5 64.5 60.5t87 21q64 0 98.5 -37.5t34.5 -99.5q0 -54 -25 -93t-65.5 -59t-85.5 -20q-66 0 -99.5 36.5t-33.5 98.5q0 53 24.5 92.5z" />
    <glyph glyph-name="Wgrave" unicode="&#x1e80;" horiz-adv-x="2011" 
d="M2080 1444q91 0 155 6l-10 -41q-48 -13 -84.5 -33.5t-76 -64t-81.5 -119.5l-645 -1202h-106l-126 913l-552 -913h-107l-161 1288q-9 69 -40 99t-69 32l10 41q102 -6 287 -6q175 0 266 6l-10 -41q-40 -3 -63 -13.5t-34.5 -35.5t-11.5 -71q0 -23 3 -52l99 -888l374 616
l-43 313q-9 68 -34 98.5t-54 32.5l10 41q95 -6 266 -6q212 0 320 6l-11 -41q-62 -3 -96 -13t-50.5 -34t-16.5 -70q0 -27 4 -55l108 -857l422 777q51 96 51 151q0 52 -42.5 74.5t-129.5 26.5l10 41q84 -6 269 -6zM1187.5 1654q-83.5 29 -125 44.5t-75.5 37.5q-29 18 -47 46.5
t-18 58.5q0 25 14 50q30 50 93 50q43 0 77 -23q29 -17 52 -42.5t87 -110t148 -166.5l-17 -23q-105 49 -188.5 78z" />
    <glyph glyph-name="X" unicode="X" horiz-adv-x="1518" 
d="M1108.5 1197q91.5 137 171.5 208q92 74 186 74q86 0 134.5 -52.5t48.5 -133.5q0 -56 -23.5 -101.5t-65.5 -71.5t-94 -26q-63 0 -98 37t-35 100q1 67 44.5 122.5t111.5 78.5q-11 8 -35 8q-69 0 -133 -47q-79 -63 -178 -207t-192 -349l69 -581q20 -139 117 -139
q49 0 81.5 30t57.5 97l35 104h41l-54 -158q-42 -115 -112 -167t-172 -52q-109 0 -175 40.5t-98 110t-45 169.5l-29 238q-78 -150 -181 -283t-197 -205q-92 -70 -191 -70q-86 0 -133 52.5t-47 133.5q0 56 23 101.5t64.5 71.5t94.5 26q62 0 96.5 -36t34.5 -96
q0 -69 -42 -125.5t-111 -80.5q8 -8 35 -8q63 0 135 47q88 61 199.5 200.5t211.5 336.5l-73 606q-9 69 -35.5 106t-79.5 37q-47 0 -80.5 -33t-58.5 -104l-35 -104h-41l53 158q41 115 115.5 167t183.5 52q148 0 216.5 -82t88.5 -238l30 -256q74 157 165.5 294z" />
    <glyph glyph-name="Y" unicode="Y" horiz-adv-x="1503" 
d="M332 1427.5q73 51.5 178 51.5q134 0 210 -83.5t114 -235.5t67 -412q135 382 336 604q116 127 242 127q60 0 103 -23.5t65 -64t22 -89.5q0 -51 -24 -93t-66.5 -66.5t-95.5 -24.5q-68 0 -105 34t-37 91q1 67 44.5 117.5t111.5 71.5q-11 8 -35 8q-60 0 -123 -47
q-57 -41 -129.5 -136.5t-149 -243t-141.5 -335.5l-116 -461q-13 -55 -13 -83q0 -37 16.5 -56t49.5 -26.5t92 -10.5l-10 -41q-117 6 -352 6q-222 0 -330 -6l10 41q75 3 112 16t58.5 48.5t40.5 111.5l111 442q-32 279 -89.5 473.5t-146.5 194.5q-36 0 -57.5 -25t-36.5 -71
l-43 -129h-45l51 158q38 116 111 167.5z" />
    <glyph glyph-name="Yacute" unicode="&#xdd;" horiz-adv-x="1503" 
d="M333 1427.5q73 51.5 178 51.5q134 0 210 -83.5t114 -235.5t67 -412q135 382 336 604q116 127 242 127q60 0 103 -23.5t65 -64t22 -89.5q0 -51 -24 -93t-66.5 -66.5t-95.5 -24.5q-68 0 -105 34t-37 91q1 67 44.5 117.5t111.5 71.5q-11 8 -35 8q-60 0 -123 -47
q-57 -41 -129.5 -136.5t-149 -243t-141.5 -335.5l-116 -461q-13 -55 -13 -83q0 -37 16.5 -56t49.5 -26.5t92 -10.5l-10 -41q-117 6 -352 6q-222 0 -330 -6l10 41q75 3 112 16t58.5 48.5t40.5 111.5l111 442q-32 279 -89.5 473.5t-146.5 194.5q-36 0 -57.5 -25t-36.5 -71
l-43 -129h-45l51 158q38 116 111 167.5zM1034.5 1759.5q84.5 79.5 123.5 114.5t87 61q41 23 88 23q71 0 98 -55q11 -22 11 -42q0 -65 -92 -116q-36 -20 -78.5 -34.5t-165 -49.5t-236.5 -80l-14 25q94 74 178.5 153.5z" />
    <glyph glyph-name="Ycircumflex" unicode="&#x176;" horiz-adv-x="1503" 
d="M333 1427.5q73 51.5 178 51.5q134 0 210 -83.5t114 -235.5t67 -412q135 382 336 604q116 127 242 127q60 0 103 -23.5t65 -64t22 -89.5q0 -51 -24 -93t-66.5 -66.5t-95.5 -24.5q-68 0 -105 34t-37 91q1 67 44.5 117.5t111.5 71.5q-11 8 -35 8q-60 0 -123 -47
q-57 -41 -129.5 -136.5t-149 -243t-141.5 -335.5l-116 -461q-13 -55 -13 -83q0 -37 16.5 -56t49.5 -26.5t92 -10.5l-10 -41q-117 6 -352 6q-222 0 -330 -6l10 41q75 3 112 16t58.5 48.5t40.5 111.5l111 442q-32 279 -89.5 473.5t-146.5 194.5q-36 0 -57.5 -25t-36.5 -71
l-43 -129h-45l51 158q38 116 111 167.5zM1188.5 1629q-88.5 28 -191.5 71q-214 -77 -445 -121l-10 29q169 53 317 138t238 179h37q48 -115 111.5 -190t172.5 -127l-8 -29q-133 22 -221.5 50z" />
    <glyph glyph-name="Ydieresis" unicode="&#x178;" horiz-adv-x="1503" 
d="M333 1427.5q73 51.5 178 51.5q134 0 210 -83.5t114 -235.5t67 -412q135 382 336 604q116 127 242 127q60 0 103 -23.5t65 -64t22 -89.5q0 -51 -24 -93t-66.5 -66.5t-95.5 -24.5q-68 0 -105 34t-37 91q1 67 44.5 117.5t111.5 71.5q-11 8 -35 8q-60 0 -123 -47
q-57 -41 -129.5 -136.5t-149 -243t-141.5 -335.5l-116 -461q-13 -55 -13 -83q0 -37 16.5 -56t49.5 -26.5t92 -10.5l-10 -41q-117 6 -352 6q-222 0 -330 -6l10 41q75 3 112 16t58.5 48.5t40.5 111.5l111 442q-32 279 -89.5 473.5t-146.5 194.5q-36 0 -57.5 -25t-36.5 -71
l-43 -129h-45l51 158q38 116 111 167.5zM625.5 1796.5q24.5 39.5 64.5 60.5t87 21q64 0 98.5 -37.5t34.5 -99.5q0 -54 -25 -93t-66 -59t-87 -20q-65 0 -98 36.5t-33 98.5q0 53 24.5 92.5zM1115.5 1796.5q24.5 39.5 64.5 60.5t87 21q64 0 98.5 -37.5t34.5 -99.5
q0 -54 -25 -93t-65.5 -59t-85.5 -20q-66 0 -99.5 36.5t-33.5 98.5q0 53 24.5 92.5z" />
    <glyph glyph-name="Ygrave" unicode="&#x1ef2;" horiz-adv-x="1503" 
d="M333 1427.5q73 51.5 178 51.5q134 0 210 -83.5t114 -235.5t67 -412q135 382 336 604q116 127 242 127q60 0 103 -23.5t65 -64t22 -89.5q0 -51 -24 -93t-66.5 -66.5t-95.5 -24.5q-68 0 -105 34t-37 91q1 67 44.5 117.5t111.5 71.5q-11 8 -35 8q-60 0 -123 -47
q-57 -41 -129.5 -136.5t-149 -243t-141.5 -335.5l-116 -461q-13 -55 -13 -83q0 -37 16.5 -56t49.5 -26.5t92 -10.5l-10 -41q-117 6 -352 6q-222 0 -330 -6l10 41q75 3 112 16t58.5 48.5t40.5 111.5l111 442q-32 279 -89.5 473.5t-146.5 194.5q-36 0 -57.5 -25t-36.5 -71
l-43 -129h-45l51 158q38 116 111 167.5zM890.5 1657q-83.5 29 -125 44.5t-75.5 37.5q-29 18 -47 46.5t-18 58.5q0 25 14 50q30 50 93 50q43 0 77 -23q29 -17 52 -42.5t87 -110t148 -166.5l-17 -23q-105 49 -188.5 78z" />
    <glyph glyph-name="Z" unicode="Z" horiz-adv-x="1348" 
d="M1069.5 1175q-106.5 -49 -209.5 -49q-72 0 -128 13.5t-146.5 45.5t-149.5 32q-44 0 -68 -21t-24 -61q0 -44 35.5 -73.5t114.5 -45.5l-11 -39q-113 18 -189.5 75t-76.5 162q0 77 36.5 137t104 94t156.5 34q79 0 140 -23t181 -91.5t234 -68.5q55 0 101 13.5t116 42.5
q37 53 78 86t72 33q16 0 30 -11q12 -10 12 -27q0 -28 -38 -62.5t-115 -63.5l-567 -557h311l-16 -41h-336l-580 -570q100 88 207 136.5t211 48.5q71 0 127 -13.5t147 -45.5t150 -32q43 0 67.5 21.5t24.5 60.5q0 87 -149 119l8 39q113 -18 189.5 -75t76.5 -162
q0 -77 -36.5 -137t-104 -94t-156.5 -34q-79 0 -139.5 23t-181 91.5t-234.5 68.5q-55 0 -101 -13.5t-116 -42.5q-36 -53 -78 -86t-73 -33q-16 0 -29 11q-12 10 -12 27q0 28 38 62.5t115 63.5l576 566h-332l14 41h359l571 561q-100 -87 -206.5 -136z" />
    <glyph glyph-name="Zacute" unicode="&#x179;" horiz-adv-x="1348" 
d="M1069.5 1175q-106.5 -49 -209.5 -49q-72 0 -128 13.5t-146.5 45.5t-149.5 32q-44 0 -68 -21t-24 -61q0 -44 35.5 -73.5t114.5 -45.5l-11 -39q-113 18 -189.5 75t-76.5 162q0 77 36.5 137t104 94t156.5 34q79 0 140 -23t181 -91.5t234 -68.5q55 0 101 13.5t116 42.5
q37 53 78 86t72 33q16 0 30 -11q12 -10 12 -27q0 -28 -38 -62.5t-115 -63.5l-567 -557h311l-16 -41h-336l-580 -570q100 88 207 136.5t211 48.5q71 0 127 -13.5t147 -45.5t150 -32q43 0 67.5 21.5t24.5 60.5q0 87 -149 119l8 39q113 -18 189.5 -75t76.5 -162
q0 -77 -36.5 -137t-104 -94t-156.5 -34q-79 0 -139.5 23t-181 91.5t-234.5 68.5q-55 0 -101 -13.5t-116 -42.5q-36 -53 -78 -86t-73 -33q-16 0 -29 11q-12 10 -12 27q0 28 38 62.5t115 63.5l576 566h-332l14 41h359l571 561q-100 -87 -206.5 -136zM944.5 1759.5
q84.5 79.5 123.5 114.5t87 61q41 23 88 23q71 0 98 -55q11 -22 11 -42q0 -65 -92 -116q-36 -20 -78.5 -34.5t-165 -49.5t-236.5 -80l-14 25q94 74 178.5 153.5z" />
    <glyph glyph-name="Zcaron" unicode="&#x17d;" horiz-adv-x="1348" 
d="M1069.5 1175q-106.5 -49 -209.5 -49q-72 0 -128 13.5t-146.5 45.5t-149.5 32q-44 0 -68 -21t-24 -61q0 -44 35.5 -73.5t114.5 -45.5l-11 -39q-113 18 -189.5 75t-76.5 162q0 77 36.5 137t104 94t156.5 34q79 0 140 -23t181 -91.5t234 -68.5q55 0 101 13.5t116 42.5
q37 53 78 86t72 33q16 0 30 -11q12 -10 12 -27q0 -28 -38 -62.5t-115 -63.5l-567 -557h311l-16 -41h-336l-580 -570q100 88 207 136.5t211 48.5q71 0 127 -13.5t147 -45.5t150 -32q43 0 67.5 21.5t24.5 60.5q0 87 -149 119l8 39q113 -18 189.5 -75t76.5 -162
q0 -77 -36.5 -137t-104 -94t-156.5 -34q-79 0 -139.5 23t-181 91.5t-234.5 68.5q-55 0 -101 -13.5t-116 -42.5q-36 -53 -78 -86t-73 -33q-16 0 -29 11q-12 10 -12 27q0 28 38 62.5t115 63.5l576 566h-332l14 41h359l571 561q-100 -87 -206.5 -136zM831 1869q89 -28 189 -71
q212 77 447 121l10 -29q-170 -53 -317.5 -137.5t-237.5 -179.5h-37q-47 114 -111.5 189.5t-173.5 127.5l9 29q133 -22 222 -50z" />
    <glyph glyph-name="Zdotaccent" unicode="&#x17b;" horiz-adv-x="1348" 
d="M1069.5 1175q-106.5 -49 -209.5 -49q-72 0 -128 13.5t-146.5 45.5t-149.5 32q-44 0 -68 -21t-24 -61q0 -44 35.5 -73.5t114.5 -45.5l-11 -39q-113 18 -189.5 75t-76.5 162q0 77 36.5 137t104 94t156.5 34q79 0 140 -23t181 -91.5t234 -68.5q55 0 101 13.5t116 42.5
q37 53 78 86t72 33q16 0 30 -11q12 -10 12 -27q0 -28 -38 -62.5t-115 -63.5l-567 -557h311l-16 -41h-336l-580 -570q100 88 207 136.5t211 48.5q71 0 127 -13.5t147 -45.5t150 -32q43 0 67.5 21.5t24.5 60.5q0 87 -149 119l8 39q113 -18 189.5 -75t76.5 -162
q0 -77 -36.5 -137t-104 -94t-156.5 -34q-79 0 -139.5 23t-181 91.5t-234.5 68.5q-55 0 -101 -13.5t-116 -42.5q-36 -53 -78 -86t-73 -33q-16 0 -29 11q-12 10 -12 27q0 28 38 62.5t115 63.5l576 566h-332l14 41h359l571 561q-100 -87 -206.5 -136zM785 1792q27 43 75 66.5
t107 23.5q73 0 112 -33.5t39 -93.5q0 -52 -28 -95t-76.5 -68t-108.5 -25q-70 0 -108.5 33t-38.5 92q0 57 27 100z" />
    <glyph glyph-name="dotlessi" unicode="&#x131;" horiz-adv-x="659" 
d="M297 945q0 42 -35 42q-39 0 -70 -37.5t-63 -124.5l-39 -104h-39l55 156q76 210 285 210q95 0 138 -46t43 -121q0 -56 -21 -119l-217 -627q-12 -36 -12 -59q0 -43 40 -43q32 0 64 34.5t66 126.5l36 99h39l-51 -150q-74 -211 -276 -211q-187 0 -187 168q0 69 31 158
l201 588q12 38 12 60z" />
    <glyph glyph-name="dotlessj" unicode="&#x237;" horiz-adv-x="616" 
d="M252.5 -109q-71.5 -125 -174.5 -186q-122 -90 -293 -90q-98 0 -146.5 31.5t-48.5 89.5q0 39 21.5 73.5t58 55t78.5 20.5q54 0 87.5 -32t33.5 -76q0 -35 -21.5 -71.5t-58.5 -59.5q78 9 124.5 58.5t78.5 162.5l287 1018q11 42 11 63q0 39 -36 39q-35 0 -66.5 -38
t-62.5 -124l-39 -104h-39l55 156q39 112 114.5 161t170.5 49q175 0 175 -161q0 -52 -19 -125l-158 -565q-61 -220 -132.5 -345z" />
    <glyph glyph-name="kgreenlandic" unicode="&#x138;" horiz-adv-x="1212" 
d="M635.5 643q55.5 74 107 215t99.5 182q60 47 129 47q63 0 105.5 -25.5t63 -68t19.5 -94.5q0 -50 -21.5 -90t-60 -63t-88.5 -23q-64 0 -98.5 34t-34.5 85q1 59 40 108.5t97 79.5q-14 17 -32 17q-47 0 -89 -31q-41 -35 -88.5 -164t-95 -206.5t-144.5 -104.5q339 -7 339 -235
q0 -29 -4 -54l-15 -94q-4 -34 -4 -43q0 -24 8.5 -33.5t26.5 -9.5q69 0 127 161l35 99h39l-49 -150q-75 -211 -295 -211q-172 0 -172 160q0 31 8 76l20 100q9 45 9 80q0 64 -37 95.5t-125 42.5l-136 -525h-288l250 885q12 42 12 66q0 36 -35 36q-38 0 -69 -36.5t-64 -125.5
l-39 -104h-39l55 156q40 112 107.5 161t161.5 49q174 0 174 -164q0 -49 -19 -122l-64 -248q118 16 173.5 90z" />
    <glyph glyph-name="Cacute.loclPLK" horiz-adv-x="1419" 
d="M1398 979h-45q15 89 15 160q0 96 -34 157q-72 134 -241 134q-164 0 -312 -144t-237.5 -374.5t-89.5 -473.5q0 -203 72.5 -304t203.5 -101q78 0 162 35.5t145 99.5q54 56 93.5 127.5t91.5 196.5h45q-97 -355 -121 -492h-45q6 44 6 70q0 52 -26 52q-16 0 -42 -18
q-93 -64 -188 -98.5t-213 -34.5q-274 0 -411.5 131t-137.5 377q0 242 128 474t353 379t498 147q80 0 137 -18t94.5 -46t73.5 -69q15 -18 30 -18q38 0 83 122h43q-68 -177 -131 -471zM1026 1740q23 86 34.5 122t32.5 65q20 29 50 46.5t63 17.5q37 0 69 -23q44 -30 44 -81
q0 -46 -35 -95q-23 -29 -77 -68.5t-103 -76.5t-109 -93l-25 15q33 85 56 171z" />
    <glyph glyph-name="Nacute.loclPLK" horiz-adv-x="1690" 
d="M1495 1413q90 131 221 131q61 0 105 -23t67 -62.5t23 -88.5q0 -52 -24 -94.5t-67 -67t-96 -24.5q-67 0 -104 33.5t-37 89.5q0 67 43.5 118t110.5 72q-8 8 -33 8q-98 0 -172 -108q-91 -136 -189 -477t-223 -930h-45l-508 1112q-88 -435 -167 -732t-152 -393
q-45 -60 -95.5 -94.5t-123.5 -34.5q-61 0 -104.5 23t-66 63t-22.5 89q0 52 24 94.5t66.5 67t96.5 24.5q66 0 103.5 -34t37.5 -89q0 -67 -44 -118.5t-112 -71.5q10 -9 35 -9q105 0 172 111q77 120 158.5 431t177.5 802v2q13 62 13 92q0 33 -14.5 50.5t-47.5 24.5t-96 9l10 41
q65 -6 182 -6q95 0 166 6l424 -972q171 738 307 935zM1116 1740q23 86 34.5 122t32.5 65q20 29 50 46.5t63 17.5q37 0 69 -23q44 -30 44 -81q0 -46 -35 -95q-23 -29 -77 -68.5t-103 -76.5t-109 -93l-25 15q33 85 56 171z" />
    <glyph glyph-name="Oacute.loclPLK" horiz-adv-x="1591" 
d="M205.5 932q118.5 237 330.5 392t479 155q174 0 299 -58t191.5 -169t66.5 -267q0 -231 -119 -467.5t-332 -391.5t-479 -155q-173 0 -298 58t-191 168.5t-66 265.5q0 232 118.5 469zM727.5 1294.5q-129.5 -147.5 -209 -381.5t-79.5 -477q0 -131 28 -228t78 -148.5
t115 -51.5q140 0 269 147.5t209 381.5t80 477q0 131 -28.5 228t-78.5 148.5t-115 51.5q-139 0 -268.5 -147.5zM1062 1740q23 86 34.5 122t32.5 65q20 29 50 46.5t63 17.5q37 0 69 -23q44 -30 44 -81q0 -46 -35 -95q-23 -29 -77 -68.5t-103 -76.5t-109 -93l-25 15
q33 85 56 171z" />
    <glyph glyph-name="Sacute.loclPLK" horiz-adv-x="1202" 
d="M1149 1047h-41q12 57 12 114q0 123 -76 196t-217 73q-110 0 -178.5 -55t-68.5 -169q0 -141 158.5 -309t240.5 -271.5t82 -244.5q0 -137 -87.5 -229.5t-218 -136.5t-259.5 -44q-92 0 -155 12t-105.5 31t-94.5 52q-45 30 -71 30q-18 0 -31 -10t-24.5 -32.5t-30.5 -67.5h-41
q66 157 139 491h41q-22 -86 -19 -162q7 -146 91 -222.5t243 -76.5q264 0 264 215q0 173 -145 336t-218 259.5t-73 242.5q0 132 75 224.5t191.5 139t237.5 46.5q107 0 182 -25t142 -65q50 -33 67 -33t32 25t36 83h41q-78 -190 -121 -417zM816 1740q23 86 34.5 122t32.5 65
q20 29 50 46.5t63 17.5q37 0 69 -23q44 -30 44 -81q0 -46 -35 -95q-23 -29 -77 -68.5t-103 -76.5t-109 -93l-25 15q33 85 56 171z" />
    <glyph glyph-name="Zacute.loclPLK" horiz-adv-x="1348" 
d="M1069.5 1175q-106.5 -49 -209.5 -49q-72 0 -128 13.5t-146.5 45.5t-149.5 32q-44 0 -68 -21t-24 -61q0 -44 35.5 -73.5t114.5 -45.5l-11 -39q-113 18 -189.5 75t-76.5 162q0 77 36.5 137t104 94t156.5 34q79 0 140 -23t181 -91.5t234 -68.5q55 0 101 13.5t116 42.5
q37 53 78 86t72 33q16 0 30 -11q12 -10 12 -27q0 -28 -38 -62.5t-115 -63.5l-567 -557h311l-16 -41h-336l-580 -570q100 88 207 136.5t211 48.5q71 0 127 -13.5t147 -45.5t150 -32q43 0 67.5 21.5t24.5 60.5q0 87 -149 119l8 39q113 -18 189.5 -75t76.5 -162
q0 -77 -36.5 -137t-104 -94t-156.5 -34q-79 0 -139.5 23t-181 91.5t-234.5 68.5q-55 0 -101 -13.5t-116 -42.5q-36 -53 -78 -86t-73 -33q-16 0 -29 11q-12 10 -12 27q0 28 38 62.5t115 63.5l576 566h-332l14 41h359l571 561q-100 -87 -206.5 -136zM891 1740q23 86 34.5 122
t32.5 65q20 29 50 46.5t63 17.5q37 0 69 -23q44 -30 44 -81q0 -46 -35 -95q-23 -29 -77 -68.5t-103 -76.5t-109 -93l-25 15q33 85 56 171z" />
    <glyph glyph-name="cacute.loclPLK" horiz-adv-x="1391" 
d="M1068 70q0 52 -26 52q-15 0 -42 -18q-93 -65 -182.5 -99t-206.5 -34q-172 0 -295 50t-188.5 146.5t-65.5 233.5q0 207 114 410t323 333t477 130q112 0 181 -35.5t122 -97.5q15 -18 29 -18q39 0 84 122h45q-64 -183 -133 -471h-46q13 101 13 158q0 45 -7.5 77.5
t-25.5 67.5q-37 78 -111.5 119t-169.5 41q-146 0 -274 -135.5t-204.5 -341t-76.5 -400.5q0 -169 60.5 -260.5t167.5 -91.5q94 0 194 42t174 118q54 56 93 126t92 198h45q-97 -355 -121 -492h-45q6 44 6 70zM942 1535q23 86 34.5 122t32.5 65q20 29 50 46.5t63 17.5
q37 0 69 -23q44 -30 44 -80q0 -47 -35 -96q-23 -30 -77.5 -69t-103 -76t-108.5 -92l-25 14q33 85 56 171z" />
    <glyph glyph-name="nacute.loclPLK" horiz-adv-x="1790" 
d="M1536 1208q96 131 221 131q61 0 104.5 -23t66 -62.5t22.5 -88.5q0 -52 -24 -94.5t-67 -67t-96 -24.5q-66 0 -102.5 34t-36.5 89q0 67 44 119t110 71q-12 8 -33 8q-55 0 -95 -28t-77 -80q-91 -128 -192 -421t-220 -781h-45l-530 1008q-203 -859 -334 -1021
q-50 -61 -99.5 -95t-119.5 -34q-92 0 -142.5 49.5t-50.5 125.5q0 52 24 94.5t66 67t95 24.5q67 0 104 -33.5t37 -89.5q0 -67 -43.5 -118.5t-110.5 -71.5q8 -9 33 -9q100 3 174 111q77 114 162.5 394.5t185.5 714.5q3 40 -10.5 59.5t-46 27t-100.5 10.5l10 41q64 -6 182 -6
q130 0 227 6l407 -811q170 606 300 774zM1119 1535q23 86 34.5 122t32.5 65q20 29 50 46.5t63 17.5q37 0 69 -23q44 -30 44 -80q0 -47 -35 -96q-23 -30 -77.5 -69t-103 -76t-108.5 -92l-25 14q33 85 56 171z" />
    <glyph glyph-name="oacute.loclPLK" horiz-adv-x="1595" 
d="M345 25.5q-130 54.5 -202 165t-72 274.5q0 186 113.5 374.5t317 311.5t457.5 123q173 0 303 -54.5t202.5 -165t72.5 -274.5q0 -186 -113.5 -374.5t-317.5 -311.5t-458 -123q-173 0 -303 54.5zM678 1120.5q-118 -116.5 -185.5 -302t-67.5 -382.5q0 -222 64.5 -325
t177.5 -103q145 0 263 116.5t185.5 302t67.5 382.5q0 221 -65 324.5t-177 103.5q-145 0 -263 -116.5zM986 1535q23 86 34.5 122t32.5 65q20 29 50 46.5t63 17.5q37 0 69 -23q44 -30 44 -80q0 -47 -35 -96q-23 -30 -77.5 -69t-103 -76t-108.5 -92l-25 14q33 85 56 171z" />
    <glyph glyph-name="sacute.loclPLK" horiz-adv-x="1243" 
d="M1130 842h-40q12 59 12 114q0 78 -37.5 141t-107.5 99.5t-164 36.5q-77 0 -133.5 -23.5t-86.5 -66.5t-30 -99q0 -58 25 -106t78 -98.5t153 -128.5q112 -89 165.5 -137.5t87 -108t33.5 -133.5q0 -121 -84.5 -202t-220 -120t-288.5 -39q-112 0 -186.5 22t-155.5 68
q-52 35 -82 35q-24 0 -40.5 -23.5t-43.5 -86.5h-41q66 157 139 491h41q-2 -11 -7.5 -42.5t-8.5 -58.5t-3 -51q0 -144 89.5 -226.5t269.5 -82.5q111 0 182.5 48.5t71.5 148.5q0 85 -54.5 156.5t-177.5 165.5q-90 70 -145 125t-86 117t-31 136q0 118 76 199.5t199 121.5
t262 40q101 0 168.5 -21t124.5 -57q68 -45 90 -45q17 0 31.5 25t35.5 84h41q-75 -192 -121 -418zM788 1535q23 86 34.5 122t32.5 65q20 29 50 46.5t63 17.5q37 0 69 -23q44 -30 44 -80q0 -47 -35 -96q-23 -30 -77.5 -69t-103 -76t-108.5 -92l-25 14q33 85 56 171z" />
    <glyph glyph-name="zacute.loclPLK" horiz-adv-x="1350" 
d="M1097.5 1026.5q-98.5 -55.5 -162.5 -80t-132 -24.5q-67 0 -119.5 13t-137.5 45t-143 32q-44 0 -68 -21t-24 -61q0 -44 35.5 -73t114.5 -46l-10 -39q-114 19 -190.5 75.5t-76.5 162.5q0 76 36.5 136t104 94t156.5 34q79 0 140 -23t181 -91t234 -68q55 0 102.5 13t114.5 42
q31 43 73.5 80.5t77.5 37.5q19 0 32 -12q12 -12 12 -26q0 -30 -46.5 -66t-109.5 -59l-556 -455h278l-17 -41h-311l-571 -467q48 24 146 80t162 80.5t134 24.5q67 0 119 -13.5t137 -45.5t143 -32q44 0 68.5 21.5t24.5 60.5q0 44 -35.5 73.5t-114.5 45.5l8 39q113 -18 190 -75
t77 -162q0 -77 -36 -137t-103.5 -94t-157.5 -34q-79 0 -140 23t-181 91.5t-234 68.5q-55 0 -102 -13.5t-116 -42.5q-25 -41 -70 -80t-80 -39q-22 0 -34 15q-8 11 -8 22q0 32 47.5 68.5t106.5 58.5l566 463h-290l14 41h326l561 459q-47 -24 -145.5 -79.5zM877 1535
q23 86 34.5 122t32.5 65q20 29 50 46.5t63 17.5q37 0 69 -23q44 -30 44 -80q0 -47 -35 -96q-23 -30 -77.5 -69t-103 -76t-108.5 -92l-25 14q33 85 56 171z" />
    <glyph glyph-name="a" unicode="a" horiz-adv-x="1333" 
d="M1124 73.5q28 -30.5 64 -32.5l-10 -41q-105 6 -297 6q-209 0 -308 -6l11 41q63 3 101 14.5t58 39t20 78.5q0 18 -3 40l-31 254h-459l-151 -188q-63 -79 -63 -133q0 -87 163 -105l-4 -41q-135 6 -250 6q-90 0 -151 -6l6 41q55 21 105.5 70t131.5 153l799 996q36 -2 53 -2
q18 0 52 2l126 -1088q9 -68 37 -98.5zM669 962l-366 -454h421z" />
    <glyph glyph-name="aacute" unicode="&#xe1;" horiz-adv-x="1333" 
d="M1124 73.5q28 -30.5 64 -32.5l-10 -41q-105 6 -297 6q-209 0 -308 -6l11 41q63 3 101 14.5t58 39t20 78.5q0 18 -3 40l-31 254h-459l-151 -188q-63 -79 -63 -133q0 -87 163 -105l-4 -41q-135 6 -250 6q-90 0 -151 -6l6 41q55 21 105.5 70t131.5 153l799 996q36 -2 53 -2
q18 0 52 2l126 -1088q9 -68 37 -98.5zM669 962l-366 -454h421zM933.5 1554.5q84.5 79.5 123.5 114.5t87 62q42 22 87 22q72 0 99 -55q11 -22 11 -42q0 -65 -92 -116q-36 -20 -78.5 -34.5t-165 -49.5t-236.5 -80l-14 25q94 74 178.5 153.5z" />
    <glyph glyph-name="abreve" unicode="&#x103;" horiz-adv-x="1333" 
d="M1124 73.5q28 -30.5 64 -32.5l-10 -41q-105 6 -297 6q-209 0 -308 -6l11 41q63 3 101 14.5t58 39t20 78.5q0 18 -3 40l-31 254h-459l-151 -188q-63 -79 -63 -133q0 -87 163 -105l-4 -41q-135 6 -250 6q-90 0 -151 -6l6 41q55 21 105.5 70t131.5 153l799 996q36 -2 53 -2
q18 0 52 2l126 -1088q9 -68 37 -98.5zM669 962l-366 -454h421zM703.5 1600q76.5 -25 197.5 -25q271 0 467 117l22 -21q-54 -76 -140.5 -144.5t-189 -110.5t-200.5 -42q-136 0 -217.5 81.5t-106.5 213.5l31 14q60 -58 136.5 -83z" />
    <glyph glyph-name="acircumflex" unicode="&#xe2;" horiz-adv-x="1333" 
d="M1124 73.5q28 -30.5 64 -32.5l-10 -41q-105 6 -297 6q-209 0 -308 -6l11 41q63 3 101 14.5t58 39t20 78.5q0 18 -3 40l-31 254h-459l-151 -188q-63 -79 -63 -133q0 -87 163 -105l-4 -41q-135 6 -250 6q-90 0 -151 -6l6 41q55 21 105.5 70t131.5 153l799 996q36 -2 53 -2
q18 0 52 2l126 -1088q9 -68 37 -98.5zM669 962l-366 -454h421zM1101.5 1423.5q-86.5 27.5 -193.5 71.5q-214 -77 -444 -121l-11 29q171 54 318.5 138.5t236.5 178.5h37q46 -114 110.5 -189t174.5 -128l-8 -29q-134 22 -220.5 49.5z" />
    <glyph glyph-name="adieresis" unicode="&#xe4;" horiz-adv-x="1333" 
d="M1124 73.5q28 -30.5 64 -32.5l-10 -41q-105 6 -297 6q-209 0 -308 -6l11 41q63 3 101 14.5t58 39t20 78.5q0 18 -3 40l-31 254h-459l-151 -188q-63 -79 -63 -133q0 -87 163 -105l-4 -41q-135 6 -250 6q-90 0 -151 -6l6 41q55 21 105.5 70t131.5 153l799 996q36 -2 53 -2
q18 0 52 2l126 -1088q9 -68 37 -98.5zM669 962l-366 -454h421zM551.5 1591.5q24.5 39.5 64.5 60.5t87 21q64 0 98.5 -37.5t34.5 -99.5q0 -54 -25 -93t-66 -59t-87 -20q-65 0 -98 36.5t-33 98.5q0 53 24.5 92.5zM1040.5 1591.5q24.5 39.5 65.5 60.5t88 21q65 0 99.5 -37.5
t34.5 -99.5q0 -54 -25 -93t-66 -59t-88 -20q-66 0 -99.5 36.5t-33.5 98.5q0 53 24.5 92.5z" />
    <glyph glyph-name="agrave" unicode="&#xe0;" horiz-adv-x="1333" 
d="M1124 73.5q28 -30.5 64 -32.5l-10 -41q-105 6 -297 6q-209 0 -308 -6l11 41q63 3 101 14.5t58 39t20 78.5q0 18 -3 40l-31 254h-459l-151 -188q-63 -79 -63 -133q0 -87 163 -105l-4 -41q-135 6 -250 6q-90 0 -151 -6l6 41q55 21 105.5 70t131.5 153l799 996q36 -2 53 -2
q18 0 52 2l126 -1088q9 -68 37 -98.5zM669 962l-366 -454h421zM893 1428q-55 21 -139.5 50.5t-124.5 55.5q-29 18 -47 46.5t-18 59.5q0 25 14 50q29 49 92 49q42 0 78 -23q29 -18 52 -43t86.5 -109t147.5 -167l-16 -23q-70 33 -125 54z" />
    <glyph glyph-name="amacron" unicode="&#x101;" horiz-adv-x="1333" 
d="M1124 73.5q28 -30.5 64 -32.5l-10 -41q-105 6 -297 6q-209 0 -308 -6l11 41q63 3 101 14.5t58 39t20 78.5q0 18 -3 40l-31 254h-459l-151 -188q-63 -79 -63 -133q0 -87 163 -105l-4 -41q-135 6 -250 6q-90 0 -151 -6l6 41q55 21 105.5 70t131.5 153l799 996q36 -2 53 -2
q18 0 52 2l126 -1088q9 -68 37 -98.5zM669 962l-366 -454h421zM492 1473l12 51h820l-13 -51h-819z" />
    <glyph glyph-name="aogonek" unicode="&#x105;" horiz-adv-x="1333" 
d="M1124 73.5q28 -30.5 64 -32.5l-10 -41q-105 6 -297 6q-209 0 -308 -6l11 41q63 3 101 14.5t58 39t20 78.5q0 18 -3 40l-31 254h-459l-151 -188q-63 -79 -63 -133q0 -87 163 -105l-4 -41q-135 6 -250 6q-90 0 -151 -6l6 41q55 21 105.5 70t131.5 153l799 996q36 -2 53 -2
q18 0 52 2l126 -1088q9 -68 37 -98.5zM669 962l-366 -454h421zM970.5 -51q-62.5 -36 -97 -80t-34.5 -90q0 -62 67 -62q32 0 73 12.5t77 32.5l22 -34q-141 -113 -294 -113q-85 0 -131 32t-46 91q0 95 121.5 164.5t321.5 103.5h65q-82 -21 -144.5 -57z" />
    <glyph glyph-name="aring" unicode="&#xe5;" horiz-adv-x="1333" 
d="M1124 73.5q28 -30.5 64 -32.5l-10 -41q-105 6 -297 6q-209 0 -308 -6l11 41q63 3 101 14.5t58 39t20 78.5q0 18 -3 40l-31 254h-459l-151 -188q-63 -79 -63 -133q0 -87 163 -105l-4 -41q-135 6 -250 6q-90 0 -151 -6l6 41q55 21 105.5 70t131.5 153l799 996q36 -2 53 -2
q18 0 52 2l126 -1088q9 -68 37 -98.5zM669 962l-366 -454h421zM1084.5 1692.5q45.5 -21.5 72 -61t26.5 -91.5q0 -61 -35.5 -113t-94.5 -82t-126 -30q-54 0 -98 21t-69 61t-25 94q0 62 33.5 113t90 80.5t124.5 29.5q56 0 101.5 -21.5zM1031.5 1382q44.5 24 71.5 65.5t27 90.5
q0 43 -22.5 73t-58.5 45t-74 15q-48 0 -91.5 -25.5t-69.5 -67t-26 -87.5q0 -42 21.5 -72t56 -45.5t72.5 -15.5q49 0 93.5 24z" />
    <glyph glyph-name="atilde" unicode="&#xe3;" horiz-adv-x="1333" 
d="M1124 73.5q28 -30.5 64 -32.5l-10 -41q-105 6 -297 6q-209 0 -308 -6l11 41q63 3 101 14.5t58 39t20 78.5q0 18 -3 40l-31 254h-459l-151 -188q-63 -79 -63 -133q0 -87 163 -105l-4 -41q-135 6 -250 6q-90 0 -151 -6l6 41q55 21 105.5 70t131.5 153l799 996q36 -2 53 -2
q18 0 52 2l126 -1088q9 -68 37 -98.5zM669 962l-366 -454h421zM599.5 1623.5q91.5 70.5 192.5 70.5q73 0 121.5 -21t123.5 -75t145 -54q44 0 82 28t75 91l37 -10q-55 -144 -146.5 -214.5t-193.5 -70.5q-72 0 -120 21t-123 75t-146 54q-44 0 -82 -28t-76 -91l-36 10
q55 144 146.5 214.5z" />
    <glyph glyph-name="ae" unicode="&#xe6;" horiz-adv-x="1872" 
d="M1475 1239q294 0 423 6q-33 -93 -77 -241q-18 -60 -27 -127h-45q15 86 15 144q0 96 -42.5 136.5t-138.5 40.5h-129q-72 0 -107 -11.5t-56.5 -46.5t-41.5 -112l-102 -381h153q58 0 96.5 30.5t62 76t52.5 123.5h45q-26 -81 -69 -250q-23 -81 -53 -250h-45q0 20 5 63t5 63
q0 46 -23 72.5t-84 30.5h-156l-104 -389q-17 -66 -17 -99q0 -30 13.5 -45t41.5 -20.5t79 -5.5h149q99 0 162.5 34t110 111t94.5 218h45q-19 -50 -43 -148q-35 -127 -53 -262q-139 6 -463 6q-440 0 -664 -6l9 41q74 3 110.5 16t58.5 48t42 112l104 389h-367l-366 -413
q-59 -67 -59 -97q0 -45 126 -55v-41q-54 6 -176 6q-87 0 -137 -6v41q63 3 176 131l898 1016q-27 13 -103 16l10 41l141 -3l99 112h53l-100 -113q180 -2 469 -2zM924 1028q17 65 17 98q0 20 -6 34l-455 -513h342z" />
    <glyph glyph-name="b" unicode="b" horiz-adv-x="1362" 
d="M557 1239q46 0 141 2t148 2q231 0 342.5 -59t111.5 -178q0 -87 -63.5 -158.5t-179.5 -119.5t-271 -66q230 -12 332.5 -87t102.5 -184q0 -122 -81.5 -210.5t-224.5 -134.5t-325 -46q-49 0 -162.5 3t-189.5 3q-216 0 -324 -6l8 41q74 3 110.5 16t58.5 48t42 112l217 811
q18 67 18 99q0 41 -30.5 58.5t-108.5 18.5l11 41q103 -6 317 -6zM815 717.5q76 49.5 116 132t40 180.5q0 174 -160 174q-38 0 -59.5 -8t-34.5 -30t-25 -66l-114 -432h57q104 0 180 49.5zM440 116q0 -69 78 -69q363 0 363 377q0 97 -52.5 153t-166.5 56h-93l-110 -416
q-19 -67 -19 -101z" />
    <glyph glyph-name="c" unicode="c" horiz-adv-x="1391" 
d="M1067 70q0 52 -26 52q-15 0 -42 -18q-93 -65 -182.5 -99t-206.5 -34q-172 0 -295 50t-188.5 146.5t-65.5 233.5q0 207 114 410t323 333t477 130q112 0 181 -35.5t122 -97.5q15 -18 29 -18q39 0 84 122h45q-64 -183 -133 -471h-46q13 101 13 158q0 45 -7.5 77.5
t-25.5 67.5q-37 78 -111.5 119t-169.5 41q-146 0 -274 -135.5t-204.5 -341t-76.5 -400.5q0 -169 60.5 -260.5t167.5 -91.5q94 0 194 42t174 118q54 56 93 126t92 198h45q-97 -355 -121 -492h-45q6 44 6 70z" />
    <glyph glyph-name="cacute" unicode="&#x107;" horiz-adv-x="1391" 
d="M1068 70q0 52 -26 52q-15 0 -42 -18q-93 -65 -182.5 -99t-206.5 -34q-172 0 -295 50t-188.5 146.5t-65.5 233.5q0 207 114 410t323 333t477 130q112 0 181 -35.5t122 -97.5q15 -18 29 -18q39 0 84 122h45q-64 -183 -133 -471h-46q13 101 13 158q0 45 -7.5 77.5
t-25.5 67.5q-37 78 -111.5 119t-169.5 41q-146 0 -274 -135.5t-204.5 -341t-76.5 -400.5q0 -169 60.5 -260.5t167.5 -91.5q94 0 194 42t174 118q54 56 93 126t92 198h45q-97 -355 -121 -492h-45q6 44 6 70zM994.5 1554.5q84.5 79.5 123.5 114.5t87 62q42 22 87 22
q72 0 99 -55q11 -22 11 -42q0 -65 -92 -116q-36 -20 -78.5 -34.5t-165 -49.5t-236.5 -80l-14 25q94 74 178.5 153.5z" />
    <glyph glyph-name="ccaron" unicode="&#x10d;" horiz-adv-x="1391" 
d="M1068 70q0 52 -26 52q-15 0 -42 -18q-93 -65 -182.5 -99t-206.5 -34q-172 0 -295 50t-188.5 146.5t-65.5 233.5q0 207 114 410t323 333t477 130q112 0 181 -35.5t122 -97.5q15 -18 29 -18q39 0 84 122h45q-64 -183 -133 -471h-46q13 101 13 158q0 45 -7.5 77.5
t-25.5 67.5q-37 78 -111.5 119t-169.5 41q-146 0 -274 -135.5t-204.5 -341t-76.5 -400.5q0 -169 60.5 -260.5t167.5 -91.5q94 0 194 42t174 118q54 56 93 126t92 198h45q-97 -355 -121 -492h-45q6 44 6 70zM904 1664q89 -28 189 -71q212 77 447 121l10 -28
q-170 -53 -317.5 -138t-237.5 -180h-37q-47 114 -111.5 189.5t-173.5 128.5l9 28q133 -22 222 -50z" />
    <glyph glyph-name="ccedilla" unicode="&#xe7;" horiz-adv-x="1391" 
d="M1068 70q0 52 -26 52q-15 0 -42 -18q-93 -65 -182.5 -99t-206.5 -34q-172 0 -295 50t-188.5 146.5t-65.5 233.5q0 207 114 410t323 333t477 130q112 0 181 -35.5t122 -97.5q15 -18 29 -18q39 0 84 122h45q-64 -183 -133 -471h-46q13 101 13 158q0 45 -7.5 77.5
t-25.5 67.5q-37 78 -111.5 119t-169.5 41q-146 0 -274 -135.5t-204.5 -341t-76.5 -400.5q0 -169 60.5 -260.5t167.5 -91.5q94 0 194 42t174 118q54 56 93 126t92 198h45q-97 -355 -121 -492h-45q6 44 6 70zM704 -109q63 0 100 -25t37 -73q0 -61 -51 -101t-130.5 -58.5
t-164.5 -18.5q-70 0 -130 12.5t-95 28.5l12 31q96 -23 166 -23q68 0 126 20.5t58 73.5q0 47 -65 47q-34 0 -72 -14l100 219h56l-66 -139q58 20 119 20z" />
    <glyph glyph-name="ccircumflex" unicode="&#x109;" horiz-adv-x="1391" 
d="M1068 70q0 52 -26 52q-15 0 -42 -18q-93 -65 -182.5 -99t-206.5 -34q-172 0 -295 50t-188.5 146.5t-65.5 233.5q0 207 114 410t323 333t477 130q112 0 181 -35.5t122 -97.5q15 -18 29 -18q39 0 84 122h45q-64 -183 -133 -471h-46q13 101 13 158q0 45 -7.5 77.5
t-25.5 67.5q-37 78 -111.5 119t-169.5 41q-146 0 -274 -135.5t-204.5 -341t-76.5 -400.5q0 -169 60.5 -260.5t167.5 -91.5q94 0 194 42t174 118q54 56 93 126t92 198h45q-97 -355 -121 -492h-45q6 44 6 70zM1162.5 1423.5q-86.5 27.5 -193.5 71.5q-214 -77 -444 -121l-11 29
q171 54 318.5 138.5t236.5 178.5h37q46 -114 110.5 -189t174.5 -128l-8 -29q-134 22 -220.5 49.5z" />
    <glyph glyph-name="cdotaccent" unicode="&#x10b;" horiz-adv-x="1391" 
d="M1068 70q0 52 -26 52q-15 0 -42 -18q-93 -65 -182.5 -99t-206.5 -34q-172 0 -295 50t-188.5 146.5t-65.5 233.5q0 207 114 410t323 333t477 130q112 0 181 -35.5t122 -97.5q15 -18 29 -18q39 0 84 122h45q-64 -183 -133 -471h-46q13 101 13 158q0 45 -7.5 77.5
t-25.5 67.5q-37 78 -111.5 119t-169.5 41q-146 0 -274 -135.5t-204.5 -341t-76.5 -400.5q0 -169 60.5 -260.5t167.5 -91.5q94 0 194 42t174 118q54 56 93 126t92 198h45q-97 -355 -121 -492h-45q6 44 6 70zM872.5 1592q27.5 44 75.5 67.5t108 23.5q72 0 111 -33.5t39 -93.5
q0 -53 -28 -96.5t-76 -68.5t-107 -25q-72 0 -111 33t-39 92q0 57 27.5 101z" />
    <glyph glyph-name="d" unicode="d" horiz-adv-x="1585" 
d="M496 1238l63 1q222 6 305 6q334 0 495 -116t161 -347q0 -217 -122.5 -395.5t-347.5 -282.5t-520 -104q-32 0 -133.5 3t-177.5 3q-195 0 -297 -6l6 41q70 3 105.5 16t57.5 48.5t42 111.5l217 811q18 65 18 98q0 41 -31 59t-108 19l7 41q135 -7 260 -7zM439 104
q0 -37 23.5 -52t82.5 -15q209 0 354 106.5t217 282t72 383.5q0 197 -90 298t-267 101q-50 0 -76.5 -13.5t-44 -49.5t-36.5 -113l-215 -819q-20 -78 -20 -109z" />
    <glyph glyph-name="eth" unicode="&#xf0;" horiz-adv-x="1585" 
d="M496 1238l63 1q222 6 305 6q334 0 495 -116t161 -347q0 -217 -122.5 -395.5t-347.5 -282.5t-520 -104q-32 0 -133.5 3t-177.5 3q-195 0 -297 -6l6 41q70 3 105.5 16t57.5 48.5t42 111.5l217 811q18 65 18 98q0 41 -31 59t-108 19l7 41q135 -7 260 -7zM439 104
q0 -37 23.5 -52t82.5 -15q209 0 354 106.5t217 282t72 383.5q0 197 -90 298t-267 101q-50 0 -76.5 -13.5t-44 -49.5t-36.5 -113l-215 -819q-20 -78 -20 -109zM68 604l12 51h820l-13 -51h-819z" />
    <glyph glyph-name="dcaron" unicode="&#x10f;" horiz-adv-x="1585" 
d="M496 1238l63 1q222 6 305 6q334 0 495 -116t161 -347q0 -217 -122.5 -395.5t-347.5 -282.5t-520 -104q-32 0 -133.5 3t-177.5 3q-195 0 -297 -6l6 41q70 3 105.5 16t57.5 48.5t42 111.5l217 811q18 65 18 98q0 41 -31 59t-108 19l7 41q135 -7 260 -7zM439 104
q0 -37 23.5 -52t82.5 -15q209 0 354 106.5t217 282t72 383.5q0 197 -90 298t-267 101q-50 0 -76.5 -13.5t-44 -49.5t-36.5 -113l-215 -819q-20 -78 -20 -109zM776 1664q89 -28 189 -71q212 77 447 121l10 -28q-170 -53 -317.5 -138t-237.5 -180h-37q-47 114 -111.5 189.5
t-173.5 128.5l9 28q133 -22 222 -50z" />
    <glyph glyph-name="dcroat" unicode="&#x111;" horiz-adv-x="1585" 
d="M496 1238l63 1q222 6 305 6q334 0 495 -116t161 -347q0 -217 -122.5 -395.5t-347.5 -282.5t-520 -104q-32 0 -133.5 3t-177.5 3q-195 0 -297 -6l6 41q70 3 105.5 16t57.5 48.5t42 111.5l217 811q18 65 18 98q0 41 -31 59t-108 19l7 41q135 -7 260 -7zM439 104
q0 -37 23.5 -52t82.5 -15q209 0 354 106.5t217 282t72 383.5q0 197 -90 298t-267 101q-50 0 -76.5 -13.5t-44 -49.5t-36.5 -113l-215 -819q-20 -78 -20 -109zM68 604l12 51h820l-13 -51h-819z" />
    <glyph glyph-name="e" unicode="e" horiz-adv-x="1298" 
d="M895 1239q301 0 432 6q-41 -101 -76 -233q-17 -65 -30 -135h-45q7 49 7 94q0 123 -58 175t-179 52h-63q-73 0 -109 -11.5t-57 -46t-41 -112.5l-103 -381h95q94 0 163 68.5t105 161.5h45q-32 -99 -48.5 -165.5t-21.5 -84.5q-19 -71 -29.5 -115t-25.5 -135h-45q1 10 1 29
q0 200 -175 200h-75l-105 -389q-18 -70 -18 -100q0 -29 13.5 -44t42 -20.5t80.5 -5.5h76q106 0 184 34.5t140.5 114t116.5 214.5h45q-23 -59 -45 -156q-24 -79 -54 -254q-139 6 -469 6q-436 0 -657 -6l8 41q74 3 110.5 16t58.5 48t42 112l219 811q17 66 17 99q0 30 -13.5 46
t-42.5 22.5t-82 8.5l11 41q219 -6 655 -6z" />
    <glyph glyph-name="eacute" unicode="&#xe9;" horiz-adv-x="1298" 
d="M895 1239q301 0 432 6q-41 -101 -76 -233q-17 -65 -30 -135h-45q7 49 7 94q0 123 -58 175t-179 52h-63q-73 0 -109 -11.5t-57 -46t-41 -112.5l-103 -381h95q94 0 163 68.5t105 161.5h45q-32 -99 -48.5 -165.5t-21.5 -84.5q-19 -71 -29.5 -115t-25.5 -135h-45q1 10 1 29
q0 200 -175 200h-75l-105 -389q-18 -70 -18 -100q0 -29 13.5 -44t42 -20.5t80.5 -5.5h76q106 0 184 34.5t140.5 114t116.5 214.5h45q-23 -59 -45 -156q-24 -79 -54 -254q-139 6 -469 6q-436 0 -657 -6l8 41q74 3 110.5 16t58.5 48t42 112l219 811q17 66 17 99q0 30 -13.5 46
t-42.5 22.5t-82 8.5l11 41q219 -6 655 -6zM855.5 1554.5q84.5 79.5 123.5 114.5t87 62q42 22 87 22q72 0 99 -55q11 -22 11 -42q0 -65 -92 -116q-36 -20 -78.5 -34.5t-165 -49.5t-236.5 -80l-14 25q94 74 178.5 153.5z" />
    <glyph glyph-name="ebreve" unicode="&#x115;" horiz-adv-x="1298" 
d="M895 1239q301 0 432 6q-41 -101 -76 -233q-17 -65 -30 -135h-45q7 49 7 94q0 123 -58 175t-179 52h-63q-73 0 -109 -11.5t-57 -46t-41 -112.5l-103 -381h95q94 0 163 68.5t105 161.5h45q-32 -99 -48.5 -165.5t-21.5 -84.5q-19 -71 -29.5 -115t-25.5 -135h-45q1 10 1 29
q0 200 -175 200h-75l-105 -389q-18 -70 -18 -100q0 -29 13.5 -44t42 -20.5t80.5 -5.5h76q106 0 184 34.5t140.5 114t116.5 214.5h45q-23 -59 -45 -156q-24 -79 -54 -254q-139 6 -469 6q-436 0 -657 -6l8 41q74 3 110.5 16t58.5 48t42 112l219 811q17 66 17 99q0 30 -13.5 46
t-42.5 22.5t-82 8.5l11 41q219 -6 655 -6zM625.5 1600q76.5 -25 197.5 -25q271 0 467 117l22 -21q-54 -76 -140.5 -144.5t-189 -110.5t-200.5 -42q-136 0 -217.5 81.5t-106.5 213.5l31 14q60 -58 136.5 -83z" />
    <glyph glyph-name="ecaron" unicode="&#x11b;" horiz-adv-x="1298" 
d="M895 1239q301 0 432 6q-41 -101 -76 -233q-17 -65 -30 -135h-45q7 49 7 94q0 123 -58 175t-179 52h-63q-73 0 -109 -11.5t-57 -46t-41 -112.5l-103 -381h95q94 0 163 68.5t105 161.5h45q-32 -99 -48.5 -165.5t-21.5 -84.5q-19 -71 -29.5 -115t-25.5 -135h-45q1 10 1 29
q0 200 -175 200h-75l-105 -389q-18 -70 -18 -100q0 -29 13.5 -44t42 -20.5t80.5 -5.5h76q106 0 184 34.5t140.5 114t116.5 214.5h45q-23 -59 -45 -156q-24 -79 -54 -254q-139 6 -469 6q-436 0 -657 -6l8 41q74 3 110.5 16t58.5 48t42 112l219 811q17 66 17 99q0 30 -13.5 46
t-42.5 22.5t-82 8.5l11 41q219 -6 655 -6zM765 1664q89 -28 189 -71q212 77 447 121l10 -28q-170 -53 -317.5 -138t-237.5 -180h-37q-47 114 -111.5 189.5t-173.5 128.5l9 28q133 -22 222 -50z" />
    <glyph glyph-name="ecircumflex" unicode="&#xea;" horiz-adv-x="1298" 
d="M895 1239q301 0 432 6q-41 -101 -76 -233q-17 -65 -30 -135h-45q7 49 7 94q0 123 -58 175t-179 52h-63q-73 0 -109 -11.5t-57 -46t-41 -112.5l-103 -381h95q94 0 163 68.5t105 161.5h45q-32 -99 -48.5 -165.5t-21.5 -84.5q-19 -71 -29.5 -115t-25.5 -135h-45q1 10 1 29
q0 200 -175 200h-75l-105 -389q-18 -70 -18 -100q0 -29 13.5 -44t42 -20.5t80.5 -5.5h76q106 0 184 34.5t140.5 114t116.5 214.5h45q-23 -59 -45 -156q-24 -79 -54 -254q-139 6 -469 6q-436 0 -657 -6l8 41q74 3 110.5 16t58.5 48t42 112l219 811q17 66 17 99q0 30 -13.5 46
t-42.5 22.5t-82 8.5l11 41q219 -6 655 -6zM1023.5 1423.5q-86.5 27.5 -193.5 71.5q-214 -77 -444 -121l-11 29q171 54 318.5 138.5t236.5 178.5h37q46 -114 110.5 -189t174.5 -128l-8 -29q-134 22 -220.5 49.5z" />
    <glyph glyph-name="edieresis" unicode="&#xeb;" horiz-adv-x="1298" 
d="M895 1239q301 0 432 6q-41 -101 -76 -233q-17 -65 -30 -135h-45q7 49 7 94q0 123 -58 175t-179 52h-63q-73 0 -109 -11.5t-57 -46t-41 -112.5l-103 -381h95q94 0 163 68.5t105 161.5h45q-32 -99 -48.5 -165.5t-21.5 -84.5q-19 -71 -29.5 -115t-25.5 -135h-45q1 10 1 29
q0 200 -175 200h-75l-105 -389q-18 -70 -18 -100q0 -29 13.5 -44t42 -20.5t80.5 -5.5h76q106 0 184 34.5t140.5 114t116.5 214.5h45q-23 -59 -45 -156q-24 -79 -54 -254q-139 6 -469 6q-436 0 -657 -6l8 41q74 3 110.5 16t58.5 48t42 112l219 811q17 66 17 99q0 30 -13.5 46
t-42.5 22.5t-82 8.5l11 41q219 -6 655 -6zM473.5 1591.5q24.5 39.5 64.5 60.5t87 21q64 0 98.5 -37.5t34.5 -99.5q0 -54 -25 -93t-66 -59t-87 -20q-65 0 -98 36.5t-33 98.5q0 53 24.5 92.5zM962.5 1591.5q24.5 39.5 65.5 60.5t88 21q65 0 99.5 -37.5t34.5 -99.5
q0 -54 -25 -93t-66 -59t-88 -20q-66 0 -99.5 36.5t-33.5 98.5q0 53 24.5 92.5z" />
    <glyph glyph-name="edotaccent" unicode="&#x117;" horiz-adv-x="1298" 
d="M895 1239q301 0 432 6q-41 -101 -76 -233q-17 -65 -30 -135h-45q7 49 7 94q0 123 -58 175t-179 52h-63q-73 0 -109 -11.5t-57 -46t-41 -112.5l-103 -381h95q94 0 163 68.5t105 161.5h45q-32 -99 -48.5 -165.5t-21.5 -84.5q-19 -71 -29.5 -115t-25.5 -135h-45q1 10 1 29
q0 200 -175 200h-75l-105 -389q-18 -70 -18 -100q0 -29 13.5 -44t42 -20.5t80.5 -5.5h76q106 0 184 34.5t140.5 114t116.5 214.5h45q-23 -59 -45 -156q-24 -79 -54 -254q-139 6 -469 6q-436 0 -657 -6l8 41q74 3 110.5 16t58.5 48t42 112l219 811q17 66 17 99q0 30 -13.5 46
t-42.5 22.5t-82 8.5l11 41q219 -6 655 -6zM733.5 1592q27.5 44 75.5 67.5t108 23.5q72 0 111 -33.5t39 -93.5q0 -53 -28 -96.5t-76 -68.5t-107 -25q-72 0 -111 33t-39 92q0 57 27.5 101z" />
    <glyph glyph-name="egrave" unicode="&#xe8;" horiz-adv-x="1298" 
d="M895 1239q301 0 432 6q-41 -101 -76 -233q-17 -65 -30 -135h-45q7 49 7 94q0 123 -58 175t-179 52h-63q-73 0 -109 -11.5t-57 -46t-41 -112.5l-103 -381h95q94 0 163 68.5t105 161.5h45q-32 -99 -48.5 -165.5t-21.5 -84.5q-19 -71 -29.5 -115t-25.5 -135h-45q1 10 1 29
q0 200 -175 200h-75l-105 -389q-18 -70 -18 -100q0 -29 13.5 -44t42 -20.5t80.5 -5.5h76q106 0 184 34.5t140.5 114t116.5 214.5h45q-23 -59 -45 -156q-24 -79 -54 -254q-139 6 -469 6q-436 0 -657 -6l8 41q74 3 110.5 16t58.5 48t42 112l219 811q17 66 17 99q0 30 -13.5 46
t-42.5 22.5t-82 8.5l11 41q219 -6 655 -6zM815 1428q-55 21 -139.5 50.5t-124.5 55.5q-29 18 -47 46.5t-18 59.5q0 25 14 50q29 49 92 49q42 0 78 -23q29 -18 52 -43t86.5 -109t147.5 -167l-16 -23q-70 33 -125 54z" />
    <glyph glyph-name="emacron" unicode="&#x113;" horiz-adv-x="1298" 
d="M895 1239q301 0 432 6q-41 -101 -76 -233q-17 -65 -30 -135h-45q7 49 7 94q0 123 -58 175t-179 52h-63q-73 0 -109 -11.5t-57 -46t-41 -112.5l-103 -381h95q94 0 163 68.5t105 161.5h45q-32 -99 -48.5 -165.5t-21.5 -84.5q-19 -71 -29.5 -115t-25.5 -135h-45q1 10 1 29
q0 200 -175 200h-75l-105 -389q-18 -70 -18 -100q0 -29 13.5 -44t42 -20.5t80.5 -5.5h76q106 0 184 34.5t140.5 114t116.5 214.5h45q-23 -59 -45 -156q-24 -79 -54 -254q-139 6 -469 6q-436 0 -657 -6l8 41q74 3 110.5 16t58.5 48t42 112l219 811q17 66 17 99q0 30 -13.5 46
t-42.5 22.5t-82 8.5l11 41q219 -6 655 -6zM414 1473l12 51h820l-13 -51h-819z" />
    <glyph glyph-name="eogonek" unicode="&#x119;" horiz-adv-x="1298" 
d="M895 1239q301 0 432 6q-41 -101 -76 -233q-17 -65 -30 -135h-45q7 49 7 94q0 123 -58 175t-179 52h-63q-73 0 -109 -11.5t-57 -46t-41 -112.5l-103 -381h95q94 0 163 68.5t105 161.5h45q-32 -99 -48.5 -165.5t-21.5 -84.5q-19 -71 -29.5 -115t-25.5 -135h-45q1 10 1 29
q0 200 -175 200h-75l-105 -389q-18 -70 -18 -100q0 -29 13.5 -44t42 -20.5t80.5 -5.5h76q106 0 184 34.5t140.5 114t116.5 214.5h45q-23 -59 -45 -156q-24 -79 -54 -254q-139 6 -469 6q-436 0 -657 -6l8 41q74 3 110.5 16t58.5 48t42 112l219 811q17 66 17 99q0 30 -13.5 46
t-42.5 22.5t-82 8.5l11 41q219 -6 655 -6zM848.5 -51q-62.5 -36 -97 -80t-34.5 -90q0 -62 67 -62q32 0 73 12.5t77 32.5l22 -34q-141 -113 -294 -113q-85 0 -131 32t-46 91q0 95 121.5 164.5t321.5 103.5h65q-82 -21 -144.5 -57z" />
    <glyph glyph-name="f" unicode="f" horiz-adv-x="1219" 
d="M895 1239q303 0 434 6q-33 -86 -78 -241q-11 -45 -37 -164h-45q8 59 8 103q0 255 -231 255h-63q-73 0 -109 -11.5t-57 -46t-41 -112.5l-103 -383h115q92 0 159.5 61t106.5 156h45q-44 -134 -71 -250q-6 -28 -21.5 -93t-32.5 -169h-45q2 119 -32 186.5t-131 67.5h-104
l-105 -387q-15 -57 -15 -91t17 -51.5t53.5 -24.5t105.5 -9l-8 -41q-126 6 -364 6q-223 0 -334 -6l8 41q74 3 110.5 16t58.5 48t42 112l219 811q17 66 17 99q0 30 -13.5 46t-42.5 22.5t-82 8.5l11 41q219 -6 655 -6z" />
    <glyph glyph-name="g" unicode="g" horiz-adv-x="1485" 
d="M1142 34q0 62 -44 62q-50 0 -148 -49q-92 -42 -162 -59t-155 -17q-184 0 -312 50t-194 145.5t-66 232.5q0 201 111.5 404.5t320 337t482.5 133.5q117 0 199 -35.5t149 -97.5q19 -19 36 -19q39 0 81 123h45q-65 -186 -131 -471h-45q10 88 10 154q0 49 -6 84t-23 65
q-45 78 -128 119t-199 41q-190 0 -320 -154t-193 -367t-63 -384q0 -320 283 -320q89 0 152 38.5t83 125.5l37 137q15 56 15 93q0 56 -38.5 78t-130.5 26l9 41q126 -6 350 -6q191 0 287 6l-9 -41q-51 -3 -75.5 -15.5t-41 -47t-38.5 -113.5l-90 -334h-41q3 18 3 34z" />
    <glyph glyph-name="gacute" unicode="&#x1f5;" horiz-adv-x="1485" 
d="M1143 34q0 62 -44 62q-50 0 -148 -49q-92 -42 -162 -59t-155 -17q-184 0 -312 50t-194 145.5t-66 232.5q0 201 111.5 404.5t320 337t482.5 133.5q117 0 199 -35.5t149 -97.5q19 -19 36 -19q39 0 81 123h45q-65 -186 -131 -471h-45q10 88 10 154q0 49 -6 84t-23 65
q-45 78 -128 119t-199 41q-190 0 -320 -154t-193 -367t-63 -384q0 -320 283 -320q89 0 152 38.5t83 125.5l37 137q15 56 15 93q0 56 -38.5 78t-130.5 26l9 41q126 -6 350 -6q191 0 287 6l-9 -41q-51 -3 -75.5 -15.5t-41 -47t-38.5 -113.5l-90 -334h-41q3 18 3 34z
M1000.5 1554.5q84.5 79.5 123.5 114.5t87 62q42 22 87 22q72 0 99 -55q11 -22 11 -42q0 -65 -92 -116q-36 -20 -78.5 -34.5t-165 -49.5t-236.5 -80l-14 25q94 74 178.5 153.5z" />
    <glyph glyph-name="gbreve" unicode="&#x11f;" horiz-adv-x="1485" 
d="M1143 34q0 62 -44 62q-50 0 -148 -49q-92 -42 -162 -59t-155 -17q-184 0 -312 50t-194 145.5t-66 232.5q0 201 111.5 404.5t320 337t482.5 133.5q117 0 199 -35.5t149 -97.5q19 -19 36 -19q39 0 81 123h45q-65 -186 -131 -471h-45q10 88 10 154q0 49 -6 84t-23 65
q-45 78 -128 119t-199 41q-190 0 -320 -154t-193 -367t-63 -384q0 -320 283 -320q89 0 152 38.5t83 125.5l37 137q15 56 15 93q0 56 -38.5 78t-130.5 26l9 41q126 -6 350 -6q191 0 287 6l-9 -41q-51 -3 -75.5 -15.5t-41 -47t-38.5 -113.5l-90 -334h-41q3 18 3 34z
M770.5 1600q76.5 -25 197.5 -25q271 0 467 117l22 -21q-54 -76 -140.5 -144.5t-189 -110.5t-200.5 -42q-136 0 -217.5 81.5t-106.5 213.5l31 14q60 -58 136.5 -83z" />
    <glyph glyph-name="gcircumflex" unicode="&#x11d;" horiz-adv-x="1485" 
d="M1143 34q0 62 -44 62q-50 0 -148 -49q-92 -42 -162 -59t-155 -17q-184 0 -312 50t-194 145.5t-66 232.5q0 201 111.5 404.5t320 337t482.5 133.5q117 0 199 -35.5t149 -97.5q19 -19 36 -19q39 0 81 123h45q-65 -186 -131 -471h-45q10 88 10 154q0 49 -6 84t-23 65
q-45 78 -128 119t-199 41q-190 0 -320 -154t-193 -367t-63 -384q0 -320 283 -320q89 0 152 38.5t83 125.5l37 137q15 56 15 93q0 56 -38.5 78t-130.5 26l9 41q126 -6 350 -6q191 0 287 6l-9 -41q-51 -3 -75.5 -15.5t-41 -47t-38.5 -113.5l-90 -334h-41q3 18 3 34z
M1168.5 1423.5q-86.5 27.5 -193.5 71.5q-214 -77 -444 -121l-11 29q171 54 318.5 138.5t236.5 178.5h37q46 -114 110.5 -189t174.5 -128l-8 -29q-134 22 -220.5 49.5z" />
    <glyph glyph-name="gcommaaccent" unicode="&#x123;" horiz-adv-x="1485" 
d="M1143 34q0 62 -44 62q-50 0 -148 -49q-92 -42 -162 -59t-155 -17q-184 0 -312 50t-194 145.5t-66 232.5q0 201 111.5 404.5t320 337t482.5 133.5q117 0 199 -35.5t149 -97.5q19 -19 36 -19q39 0 81 123h45q-65 -186 -131 -471h-45q10 88 10 154q0 49 -6 84t-23 65
q-45 78 -128 119t-199 41q-190 0 -320 -154t-193 -367t-63 -384q0 -320 283 -320q89 0 152 38.5t83 125.5l37 137q15 56 15 93q0 56 -38.5 78t-130.5 26l9 41q126 -6 350 -6q191 0 287 6l-9 -41q-51 -3 -75.5 -15.5t-41 -47t-38.5 -113.5l-90 -334h-41q3 18 3 34z
M625.5 -414.5q56.5 31.5 66.5 78.5q-49 -35 -118 -35q-58 0 -90.5 25.5t-32.5 75.5q0 46 25 83t67.5 57.5t93.5 20.5q58 0 98.5 -33t40.5 -94q0 -107 -78 -175t-204 -83l-6 39q81 9 137.5 40.5z" />
    <glyph glyph-name="gdotaccent" unicode="&#x121;" horiz-adv-x="1485" 
d="M1143 34q0 62 -44 62q-50 0 -148 -49q-92 -42 -162 -59t-155 -17q-184 0 -312 50t-194 145.5t-66 232.5q0 201 111.5 404.5t320 337t482.5 133.5q117 0 199 -35.5t149 -97.5q19 -19 36 -19q39 0 81 123h45q-65 -186 -131 -471h-45q10 88 10 154q0 49 -6 84t-23 65
q-45 78 -128 119t-199 41q-190 0 -320 -154t-193 -367t-63 -384q0 -320 283 -320q89 0 152 38.5t83 125.5l37 137q15 56 15 93q0 56 -38.5 78t-130.5 26l9 41q126 -6 350 -6q191 0 287 6l-9 -41q-51 -3 -75.5 -15.5t-41 -47t-38.5 -113.5l-90 -334h-41q3 18 3 34z
M878.5 1592q27.5 44 75.5 67.5t108 23.5q72 0 111 -33.5t39 -93.5q0 -53 -28 -96.5t-76 -68.5t-107 -25q-72 0 -111 33t-39 92q0 57 27.5 101z" />
    <glyph glyph-name="h" unicode="h" horiz-adv-x="1659" 
d="M1417 1239q227 0 338 6l-10 -41q-75 -3 -111.5 -16t-58 -48t-41.5 -112l-215 -811q-18 -70 -18 -100t13.5 -45.5t42.5 -22t83 -8.5l-8 -41q-108 6 -336 6q-208 0 -322 -6l8 41q74 3 111 16t58.5 48t41.5 112l103 389h-534l-103 -389q-18 -70 -18 -100t13.5 -45.5
t42.5 -22t83 -8.5l-9 -41q-112 6 -321 6q-223 0 -334 -6l10 41q71 3 107 16t58 48.5t42 111.5l215 811q17 66 17 99q0 30 -13.5 46t-42.5 22.5t-82 8.5l11 41q103 -6 333 -6q198 0 324 6l-10 -41q-75 -3 -111.5 -16t-58 -47.5t-41.5 -112.5l-101 -381h534l101 381
q18 65 18 99q0 30 -14 46t-43 22.5t-82 8.5l11 41q110 -6 319 -6z" />
    <glyph glyph-name="hbar" unicode="&#x127;" horiz-adv-x="1659" 
d="M1634.5 1188q-36.5 -13 -58 -48t-41.5 -112l-26 -98h179l-11 -41h-179l-178 -672q-18 -70 -18 -100t13.5 -45.5t42.5 -22t83 -8.5l-8 -41q-108 6 -336 6q-208 0 -322 -6l8 41q74 3 111 16t58.5 48t41.5 112l103 389h-534l-103 -389q-18 -70 -18 -100t13.5 -45.5t42.5 -22
t83 -8.5l-9 -41q-112 6 -321 6q-223 0 -334 -6l10 41q71 3 107 16t58 48.5t42 111.5l178 672h-173l11 41h173l26 98q17 66 17 99q0 30 -13.5 46t-42.5 22.5t-82 8.5l11 41q103 -6 333 -6q198 0 324 6l-10 -41q-75 -3 -111.5 -16t-58 -47.5t-41.5 -112.5l-26 -98h534l26 98
q18 65 18 99q0 30 -14 46t-43 22.5t-82 8.5l11 41q110 -6 319 -6q227 0 338 6l-10 -41q-75 -3 -111.5 -16zM638 889l-64 -242h534l64 242h-534z" />
    <glyph glyph-name="hcircumflex" unicode="&#x125;" horiz-adv-x="1659" 
d="M1417 1239q227 0 338 6l-10 -41q-75 -3 -111.5 -16t-58 -48t-41.5 -112l-215 -811q-18 -70 -18 -100t13.5 -45.5t42.5 -22t83 -8.5l-8 -41q-108 6 -336 6q-208 0 -322 -6l8 41q74 3 111 16t58.5 48t41.5 112l103 389h-534l-103 -389q-18 -70 -18 -100t13.5 -45.5
t42.5 -22t83 -8.5l-9 -41q-112 6 -321 6q-223 0 -334 -6l10 41q71 3 107 16t58 48.5t42 111.5l215 811q17 66 17 99q0 30 -13.5 46t-42.5 22.5t-82 8.5l11 41q103 -6 333 -6q198 0 324 6l-10 -41q-75 -3 -111.5 -16t-58 -47.5t-41.5 -112.5l-101 -381h534l101 381
q18 65 18 99q0 30 -14 46t-43 22.5t-82 8.5l11 41q110 -6 319 -6zM1210.5 1423.5q-86.5 27.5 -193.5 71.5q-214 -77 -444 -121l-11 29q171 54 318.5 138.5t236.5 178.5h37q46 -114 110.5 -189t174.5 -128l-8 -29q-134 22 -220.5 49.5z" />
    <glyph glyph-name="i" unicode="i" 
d="M441 117q0 -30 13.5 -45.5t42.5 -22t83 -8.5l-9 -41q-115 6 -333 6q-214 0 -322 -6l10 41q71 3 107 16t58 48.5t42 111.5l215 811q17 66 17 99q0 30 -13.5 46t-42.5 22.5t-82 8.5l11 41q100 -6 321 -6q204 0 336 6l-10 -41q-75 -3 -111.5 -16t-58 -47.5t-41.5 -112.5
l-215 -811q-18 -70 -18 -100z" />
    <glyph glyph-name="iacute" unicode="&#xed;" 
d="M441 117q0 -30 13.5 -45.5t42.5 -22t83 -8.5l-9 -41q-115 6 -333 6q-214 0 -322 -6l10 41q71 3 107 16t58 48.5t42 111.5l215 811q17 66 17 99q0 30 -13.5 46t-42.5 22.5t-82 8.5l11 41q100 -6 321 -6q204 0 336 6l-10 -41q-75 -3 -111.5 -16t-58 -47.5t-41.5 -112.5
l-215 -811q-18 -70 -18 -100zM630.5 1554.5q84.5 79.5 123.5 114.5t87 62q42 22 87 22q72 0 99 -55q11 -22 11 -42q0 -65 -92 -116q-36 -20 -78.5 -34.5t-165 -49.5t-236.5 -80l-14 25q94 74 178.5 153.5z" />
    <glyph glyph-name="ibreve" unicode="&#x12d;" 
d="M441 117q0 -30 13.5 -45.5t42.5 -22t83 -8.5l-9 -41q-115 6 -333 6q-214 0 -322 -6l10 41q71 3 107 16t58 48.5t42 111.5l215 811q17 66 17 99q0 30 -13.5 46t-42.5 22.5t-82 8.5l11 41q100 -6 321 -6q204 0 336 6l-10 -41q-75 -3 -111.5 -16t-58 -47.5t-41.5 -112.5
l-215 -811q-18 -70 -18 -100zM400.5 1600q76.5 -25 197.5 -25q271 0 467 117l22 -21q-54 -76 -140.5 -144.5t-189 -110.5t-200.5 -42q-136 0 -217.5 81.5t-106.5 213.5l31 14q60 -58 136.5 -83z" />
    <glyph glyph-name="icircumflex" unicode="&#xee;" 
d="M441 117q0 -30 13.5 -45.5t42.5 -22t83 -8.5l-9 -41q-115 6 -333 6q-214 0 -322 -6l10 41q71 3 107 16t58 48.5t42 111.5l215 811q17 66 17 99q0 30 -13.5 46t-42.5 22.5t-82 8.5l11 41q100 -6 321 -6q204 0 336 6l-10 -41q-75 -3 -111.5 -16t-58 -47.5t-41.5 -112.5
l-215 -811q-18 -70 -18 -100zM798.5 1423.5q-86.5 27.5 -193.5 71.5q-214 -77 -444 -121l-11 29q171 54 318.5 138.5t236.5 178.5h37q46 -114 110.5 -189t174.5 -128l-8 -29q-134 22 -220.5 49.5z" />
    <glyph glyph-name="idieresis" unicode="&#xef;" 
d="M441 117q0 -30 13.5 -45.5t42.5 -22t83 -8.5l-9 -41q-115 6 -333 6q-214 0 -322 -6l10 41q71 3 107 16t58 48.5t42 111.5l215 811q17 66 17 99q0 30 -13.5 46t-42.5 22.5t-82 8.5l11 41q100 -6 321 -6q204 0 336 6l-10 -41q-75 -3 -111.5 -16t-58 -47.5t-41.5 -112.5
l-215 -811q-18 -70 -18 -100zM248.5 1591.5q24.5 39.5 64.5 60.5t87 21q64 0 98.5 -37.5t34.5 -99.5q0 -54 -25 -93t-66 -59t-87 -20q-65 0 -98 36.5t-33 98.5q0 53 24.5 92.5zM737.5 1591.5q24.5 39.5 65.5 60.5t88 21q65 0 99.5 -37.5t34.5 -99.5q0 -54 -25 -93t-66 -59
t-88 -20q-66 0 -99.5 36.5t-33.5 98.5q0 53 24.5 92.5z" />
    <glyph glyph-name="i.loclTRK" 
d="M441 117q0 -30 13.5 -45.5t42.5 -22t83 -8.5l-9 -41q-115 6 -333 6q-214 0 -322 -6l10 41q71 3 107 16t58 48.5t42 111.5l215 811q17 66 17 99q0 30 -13.5 46t-42.5 22.5t-82 8.5l11 41q100 -6 321 -6q204 0 336 6l-10 -41q-75 -3 -111.5 -16t-58 -47.5t-41.5 -112.5
l-215 -811q-18 -70 -18 -100zM508.5 1592q27.5 44 75.5 67.5t108 23.5q72 0 111 -33.5t39 -93.5q0 -53 -28 -96.5t-76 -68.5t-107 -25q-72 0 -111 33t-39 92q0 57 27.5 101z" />
    <glyph glyph-name="igrave" unicode="&#xec;" 
d="M441 117q0 -30 13.5 -45.5t42.5 -22t83 -8.5l-9 -41q-115 6 -333 6q-214 0 -322 -6l10 41q71 3 107 16t58 48.5t42 111.5l215 811q17 66 17 99q0 30 -13.5 46t-42.5 22.5t-82 8.5l11 41q100 -6 321 -6q204 0 336 6l-10 -41q-75 -3 -111.5 -16t-58 -47.5t-41.5 -112.5
l-215 -811q-18 -70 -18 -100zM590 1428q-55 21 -139.5 50.5t-124.5 55.5q-29 18 -47 46.5t-18 59.5q0 25 14 50q29 49 92 49q42 0 78 -23q29 -18 52 -43t86.5 -109t147.5 -167l-16 -23q-70 33 -125 54z" />
    <glyph glyph-name="ij" unicode="&#x133;" horiz-adv-x="1759" 
d="M225 836q-69 67 -69 176q0 81 42 143.5t122 97.5t190 35q117 0 204.5 -26.5t258 -103.5t332.5 -77q213 0 424 80q77 120 128 120q14 0 27 -11t13 -25q0 -49 -150 -106q-113 -98 -185 -244t-137 -371h205l-6 -41h-210l-15 -53l-92 -354q-56 -206 -205.5 -333.5
t-401.5 -127.5q-130 0 -208 37t-78 117q-1 43 19 78.5t59.5 56t93.5 20.5q68 0 113 -32.5t46 -90.5q0 -95 -112 -145q18 -6 55 -6q79 0 128 46t82 131t83 259l72 252q22 77 49 145h-271l7 41h282q59 133 140.5 233t177 177t248.5 182q-87 -26 -212 -79t-204.5 -77
t-182.5 -24q-79 0 -147 13t-213 51t-260 38q-164 0 -164 -114q0 -76 81 -117t212 -41q99 0 175 17t153 51l12 -35q-101 -48 -204 -64l-159 -518q-20 -66 -20 -99q0 -30 14.5 -45.5t44 -22.5t82.5 -9l-8 -41q-117 6 -334 6q-214 0 -321 -6l10 41q71 3 106 16.5t56 48
t45 111.5l162 525q-116 27 -185 94z" />
    <glyph glyph-name="imacron" unicode="&#x12b;" 
d="M441 117q0 -30 13.5 -45.5t42.5 -22t83 -8.5l-9 -41q-115 6 -333 6q-214 0 -322 -6l10 41q71 3 107 16t58 48.5t42 111.5l215 811q17 66 17 99q0 30 -13.5 46t-42.5 22.5t-82 8.5l11 41q100 -6 321 -6q204 0 336 6l-10 -41q-75 -3 -111.5 -16t-58 -47.5t-41.5 -112.5
l-215 -811q-18 -70 -18 -100zM189 1473l12 51h820l-13 -51h-819z" />
    <glyph glyph-name="iogonek" unicode="&#x12f;" 
d="M441 117q0 -30 13.5 -45.5t42.5 -22t83 -8.5l-9 -41q-115 6 -333 6q-214 0 -322 -6l10 41q71 3 107 16t58 48.5t42 111.5l215 811q17 66 17 99q0 30 -13.5 46t-42.5 22.5t-82 8.5l11 41q100 -6 321 -6q204 0 336 6l-10 -41q-75 -3 -111.5 -16t-58 -47.5t-41.5 -112.5
l-215 -811q-18 -70 -18 -100zM412.5 -51q-62.5 -36 -97 -80t-34.5 -90q0 -62 67 -62q32 0 73 12.5t77 32.5l22 -34q-141 -113 -294 -113q-85 0 -131 32t-46 91q0 95 121.5 164.5t321.5 103.5h65q-82 -21 -144.5 -57z" />
    <glyph glyph-name="itilde" unicode="&#x129;" 
d="M441 117q0 -30 13.5 -45.5t42.5 -22t83 -8.5l-9 -41q-115 6 -333 6q-214 0 -322 -6l10 41q71 3 107 16t58 48.5t42 111.5l215 811q17 66 17 99q0 30 -13.5 46t-42.5 22.5t-82 8.5l11 41q100 -6 321 -6q204 0 336 6l-10 -41q-75 -3 -111.5 -16t-58 -47.5t-41.5 -112.5
l-215 -811q-18 -70 -18 -100zM296.5 1623.5q91.5 70.5 192.5 70.5q73 0 121.5 -21t123.5 -75t145 -54q44 0 82 28t75 91l37 -10q-55 -144 -146.5 -214.5t-193.5 -70.5q-72 0 -120 21t-123 75t-146 54q-44 0 -82 -28t-76 -91l-36 10q55 144 146.5 214.5z" />
    <glyph glyph-name="j" unicode="j" horiz-adv-x="1391" 
d="M872.5 761.5q86.5 99.5 180.5 168.5t274 186q-84 -28 -199.5 -81t-181 -76t-139.5 -23q-56 0 -105 13.5t-143.5 51t-159.5 37.5q-57 0 -90.5 -30t-32.5 -86q0 -138 230 -158l-4 -39q-162 13 -259.5 87.5t-97.5 208.5q0 79 33 139.5t98.5 94t159.5 33.5q129 0 246 -69
t186.5 -103.5t180.5 -34.5q77 0 160.5 20.5t160.5 59.5q80 119 129 119q15 0 29 -12q11 -11 11 -22q0 -26 -45 -55t-105 -52q-88 -71 -149 -158t-105.5 -193.5t-92.5 -263.5h205l-6 -41h-211l-4 -12l-143 -481q-33 -108 -109 -192.5t-190.5 -133.5t-257.5 -49
q-155 0 -239 37t-85 121q0 41 21 75.5t60.5 55t92.5 20.5q69 0 113.5 -32.5t44.5 -90.5q0 -47 -29.5 -84.5t-83.5 -60.5q19 -6 64 -6q79 0 127 40.5t78.5 112t70.5 207.5l111 369q16 55 36 104h-259l6 41h270q61 138 147.5 237.5z" />
    <glyph glyph-name="jcircumflex" unicode="&#x135;" horiz-adv-x="1391" 
d="M872.5 761.5q86.5 99.5 180.5 168.5t274 186q-84 -28 -199.5 -81t-181 -76t-139.5 -23q-56 0 -105 13.5t-143.5 51t-159.5 37.5q-57 0 -90.5 -30t-32.5 -86q0 -138 230 -158l-4 -39q-162 13 -259.5 87.5t-97.5 208.5q0 79 33 139.5t98.5 94t159.5 33.5q129 0 246 -69
t186.5 -103.5t180.5 -34.5q77 0 160.5 20.5t160.5 59.5q80 119 129 119q15 0 29 -12q11 -11 11 -22q0 -26 -45 -55t-105 -52q-88 -71 -149 -158t-105.5 -193.5t-92.5 -263.5h205l-6 -41h-211l-4 -12l-143 -481q-33 -108 -109 -192.5t-190.5 -133.5t-257.5 -49
q-155 0 -239 37t-85 121q0 41 21 75.5t60.5 55t92.5 20.5q69 0 113.5 -32.5t44.5 -90.5q0 -47 -29.5 -84.5t-83.5 -60.5q19 -6 64 -6q79 0 127 40.5t78.5 112t70.5 207.5l111 369q16 55 36 104h-259l6 41h270q61 138 147.5 237.5zM1139.5 1423.5q-86.5 27.5 -193.5 71.5
q-214 -77 -444 -121l-11 29q171 54 318.5 138.5t236.5 178.5h37q46 -114 110.5 -189t174.5 -128l-8 -29q-134 22 -220.5 49.5z" />
    <glyph glyph-name="k" unicode="k" horiz-adv-x="1481" 
d="M820 502q0 94 -47 126q-69 -19 -108 -19q-55 0 -55 38q0 39 55 39q40 0 112 -20q117 12 170.5 94.5t101 239t90.5 202.5q38 41 76 56.5t88 15.5q88 0 139 -46t51 -126q0 -54 -22.5 -100t-63.5 -73.5t-94 -27.5q-69 0 -106.5 35.5t-35.5 97.5q0 60 40 117.5t98 79.5
q-8 4 -27 4q-37 0 -62 -13.5t-51 -43.5q-34 -40 -79.5 -187t-97.5 -234.5t-161 -106.5q93 -14 155 -38.5t96.5 -71.5t34.5 -123q0 -21 -3 -44l-16 -180q-6 -72 55 -72q38 0 65 28.5t50 94.5l35 104h40l-53 -158q-39 -116 -110 -167.5t-176 -51.5q-223 0 -223 207q0 36 5 66
l29 188q5 32 5 70zM441 117q0 -30 13.5 -45.5t42.5 -22t83 -8.5l-9 -41q-113 6 -321 6q-223 0 -334 -6l10 41q71 3 107 16t58 48.5t42 111.5l215 811q17 66 17 99q0 30 -13.5 46t-42.5 22.5t-82 8.5l11 41q103 -6 333 -6q198 0 324 6l-10 -41q-75 -3 -111.5 -16t-58 -47.5
t-41.5 -112.5l-215 -811q-18 -70 -18 -100z" />
    <glyph glyph-name="kcommaaccent" unicode="&#x137;" horiz-adv-x="1481" 
d="M820 502q0 94 -47 126q-69 -19 -108 -19q-55 0 -55 38q0 39 55 39q40 0 112 -20q117 12 170.5 94.5t101 239t90.5 202.5q38 41 76 56.5t88 15.5q88 0 139 -46t51 -126q0 -54 -22.5 -100t-63.5 -73.5t-94 -27.5q-69 0 -106.5 35.5t-35.5 97.5q0 60 40 117.5t98 79.5
q-8 4 -27 4q-37 0 -62 -13.5t-51 -43.5q-34 -40 -79.5 -187t-97.5 -234.5t-161 -106.5q93 -14 155 -38.5t96.5 -71.5t34.5 -123q0 -21 -3 -44l-16 -180q-6 -72 55 -72q38 0 65 28.5t50 94.5l35 104h40l-53 -158q-39 -116 -110 -167.5t-176 -51.5q-223 0 -223 207q0 36 5 66
l29 188q5 32 5 70zM441 117q0 -30 13.5 -45.5t42.5 -22t83 -8.5l-9 -41q-113 6 -321 6q-223 0 -334 -6l10 41q71 3 107 16t58 48.5t42 111.5l215 811q17 66 17 99q0 30 -13.5 46t-42.5 22.5t-82 8.5l11 41q103 -6 333 -6q198 0 324 6l-10 -41q-75 -3 -111.5 -16t-58 -47.5
t-41.5 -112.5l-215 -811q-18 -70 -18 -100zM579.5 -414.5q56.5 31.5 66.5 78.5q-49 -35 -118 -35q-58 0 -90.5 25.5t-32.5 75.5q0 46 25 83t67.5 57.5t93.5 20.5q58 0 98.5 -33t40.5 -94q0 -107 -78 -175t-204 -83l-6 39q81 9 137.5 40.5z" />
    <glyph glyph-name="l" unicode="l" horiz-adv-x="1249" 
d="M1098 254q-24 -79 -54 -254q-139 6 -471 6q-442 0 -663 -6l10 41q74 3 110.5 16t58.5 48t42 112l219 811q18 70 18 100t-13.5 45.5t-42 22t-81.5 8.5l11 41q104 -6 336 -6q193 0 319 6l-10 -41q-75 -3 -111.5 -16t-58 -47.5t-41.5 -112.5l-221 -811q-16 -69 -16 -100
q0 -29 12 -44t38 -20.5t72 -5.5h86q135 0 257 91.5t200 291.5h47q-36 -101 -53 -176z" />
    <glyph glyph-name="lacute" unicode="&#x13a;" horiz-adv-x="1249" 
d="M1098 254q-24 -79 -54 -254q-139 6 -471 6q-442 0 -663 -6l10 41q74 3 110.5 16t58.5 48t42 112l219 811q18 70 18 100t-13.5 45.5t-42 22t-81.5 8.5l11 41q104 -6 336 -6q193 0 319 6l-10 -41q-75 -3 -111.5 -16t-58 -47.5t-41.5 -112.5l-221 -811q-16 -69 -16 -100
q0 -29 12 -44t38 -20.5t72 -5.5h86q135 0 257 91.5t200 291.5h47q-36 -101 -53 -176zM605.5 1554.5q84.5 79.5 123.5 114.5t87 62q42 22 87 22q72 0 99 -55q11 -22 11 -42q0 -65 -92 -116q-36 -20 -78.5 -34.5t-165 -49.5t-236.5 -80l-14 25q94 74 178.5 153.5z" />
    <glyph glyph-name="lcaron" unicode="&#x13e;" horiz-adv-x="1249" 
d="M1098 254q-24 -79 -54 -254q-139 6 -471 6q-442 0 -663 -6l10 41q74 3 110.5 16t58.5 48t42 112l219 811q18 70 18 100t-13.5 45.5t-42 22t-81.5 8.5l11 41q104 -6 336 -6q193 0 319 6l-10 -41q-75 -3 -111.5 -16t-58 -47.5t-41.5 -112.5l-221 -811q-16 -69 -16 -100
q0 -29 12 -44t38 -20.5t72 -5.5h86q135 0 257 91.5t200 291.5h47q-36 -101 -53 -176zM1042 1009q28 103 28 148q0 20 -8.5 29.5t-30.5 9.5l6 43q20 0 37 -1t33 -1q102 0 196 25q2 -5 2 -21q0 -76 -84.5 -201t-234.5 -274l-29 8q57 132 85 235z" />
    <glyph glyph-name="lcommaaccent" unicode="&#x13c;" horiz-adv-x="1249" 
d="M1098 254q-24 -79 -54 -254q-139 6 -471 6q-442 0 -663 -6l10 41q74 3 110.5 16t58.5 48t42 112l219 811q18 70 18 100t-13.5 45.5t-42 22t-81.5 8.5l11 41q104 -6 336 -6q193 0 319 6l-10 -41q-75 -3 -111.5 -16t-58 -47.5t-41.5 -112.5l-221 -811q-16 -69 -16 -100
q0 -29 12 -44t38 -20.5t72 -5.5h86q135 0 257 91.5t200 291.5h47q-36 -101 -53 -176zM537.5 -414.5q56.5 31.5 66.5 78.5q-49 -35 -118 -35q-58 0 -90.5 25.5t-32.5 75.5q0 46 25 83t67.5 57.5t93.5 20.5q58 0 98.5 -33t40.5 -94q0 -107 -78 -175t-204 -83l-6 39
q81 9 137.5 40.5z" />
    <glyph glyph-name="ldot" unicode="&#x140;" horiz-adv-x="1249" 
d="M1098 254q-24 -79 -54 -254q-139 6 -471 6q-442 0 -663 -6l10 41q74 3 110.5 16t58.5 48t42 112l219 811q18 70 18 100t-13.5 45.5t-42 22t-81.5 8.5l11 41q104 -6 336 -6q193 0 319 6l-10 -41q-75 -3 -111.5 -16t-58 -47.5t-41.5 -112.5l-221 -811q-16 -69 -16 -100
q0 -29 12 -44t38 -20.5t72 -5.5h86q135 0 257 91.5t200 291.5h47q-36 -101 -53 -176zM933.5 757q26.5 44 72.5 69t100 25q64 0 100.5 -32.5t36.5 -89.5q0 -50 -26.5 -95t-72.5 -72t-100 -27q-65 0 -101 33t-36 91q0 54 26.5 98z" />
    <glyph glyph-name="lslash" unicode="&#x142;" horiz-adv-x="1251" 
d="M1101 254q-24 -79 -54 -254q-139 6 -471 6q-442 0 -663 -6l10 41q74 3 110.5 16t58.5 48t42 112l59 217l-179 -90l13 47l178 90l148 547q18 70 18 100t-13.5 45.5t-42 22t-81.5 8.5l11 41q104 -6 336 -6q193 0 319 6l-10 -41q-75 -3 -111.5 -16t-58 -47.5t-41.5 -112.5
l-103 -379l464 234l-12 -47l-465 -234l-105 -385q-16 -69 -16 -100q0 -29 12 -44t38 -20.5t72 -5.5h86q135 0 257 91.5t200 291.5h47q-36 -101 -53 -176z" />
    <glyph glyph-name="m" unicode="m" horiz-adv-x="1812" 
d="M1913 1257l-10 -40q-75 -4 -111.5 -17t-58 -47.5t-41.5 -112.5l-217 -823q-17 -65 -17 -99q0 -30 13.5 -46t42 -22.5t81.5 -8.5l-8 -41q-129 6 -327 6q-224 0 -328 -6l8 41q75 3 111 16t57.5 48t42.5 112l209 773l-701 -1000q-27 3 -53 3t-53 -3l-169 1009l-204 -768
q-14 -53 -14 -86q0 -52 39.5 -76.5t138.5 -27.5l-10 -41q-73 6 -230 6q-125 0 -192 -6l8 41q70 3 110 23t63 59t42 108l215 809q17 66 17 99q0 30 -13.5 46t-42.5 22.5t-82 9.5l11 40q64 -6 182 -6q141 0 246 6l155 -952l662 946h98q198 0 330 6z" />
    <glyph glyph-name="n" unicode="n" horiz-adv-x="1790" 
d="M1536 1208q96 131 221 131q61 0 104.5 -23t66 -62.5t22.5 -88.5q0 -52 -24 -94.5t-67 -67t-96 -24.5q-66 0 -102.5 34t-36.5 89q0 67 44 119t110 71q-12 8 -33 8q-55 0 -95 -28t-77 -80q-91 -128 -192 -421t-220 -781h-45l-530 1008q-203 -859 -334 -1021
q-50 -61 -99.5 -95t-119.5 -34q-92 0 -142.5 49.5t-50.5 125.5q0 52 24 94.5t66 67t95 24.5q67 0 104 -33.5t37 -89.5q0 -67 -43.5 -118.5t-110.5 -71.5q8 -9 33 -9q100 3 174 111q77 114 162.5 394.5t185.5 714.5q3 40 -10.5 59.5t-46 27t-100.5 10.5l10 41q64 -6 182 -6
q130 0 227 6l407 -811q170 606 300 774z" />
    <glyph glyph-name="nacute" unicode="&#x144;" horiz-adv-x="1790" 
d="M1536 1208q96 131 221 131q61 0 104.5 -23t66 -62.5t22.5 -88.5q0 -52 -24 -94.5t-67 -67t-96 -24.5q-66 0 -102.5 34t-36.5 89q0 67 44 119t110 71q-12 8 -33 8q-55 0 -95 -28t-77 -80q-91 -128 -192 -421t-220 -781h-45l-530 1008q-203 -859 -334 -1021
q-50 -61 -99.5 -95t-119.5 -34q-92 0 -142.5 49.5t-50.5 125.5q0 52 24 94.5t66 67t95 24.5q67 0 104 -33.5t37 -89.5q0 -67 -43.5 -118.5t-110.5 -71.5q8 -9 33 -9q100 3 174 111q77 114 162.5 394.5t185.5 714.5q3 40 -10.5 59.5t-46 27t-100.5 10.5l10 41q64 -6 182 -6
q130 0 227 6l407 -811q170 606 300 774zM1171.5 1554.5q84.5 79.5 123.5 114.5t87 62q42 22 87 22q72 0 99 -55q11 -22 11 -42q0 -65 -92 -116q-36 -20 -78.5 -34.5t-165 -49.5t-236.5 -80l-14 25q94 74 178.5 153.5z" />
    <glyph glyph-name="ncaron" unicode="&#x148;" horiz-adv-x="1790" 
d="M1536 1208q96 131 221 131q61 0 104.5 -23t66 -62.5t22.5 -88.5q0 -52 -24 -94.5t-67 -67t-96 -24.5q-66 0 -102.5 34t-36.5 89q0 67 44 119t110 71q-12 8 -33 8q-55 0 -95 -28t-77 -80q-91 -128 -192 -421t-220 -781h-45l-530 1008q-203 -859 -334 -1021
q-50 -61 -99.5 -95t-119.5 -34q-92 0 -142.5 49.5t-50.5 125.5q0 52 24 94.5t66 67t95 24.5q67 0 104 -33.5t37 -89.5q0 -67 -43.5 -118.5t-110.5 -71.5q8 -9 33 -9q100 3 174 111q77 114 162.5 394.5t185.5 714.5q3 40 -10.5 59.5t-46 27t-100.5 10.5l10 41q64 -6 182 -6
q130 0 227 6l407 -811q170 606 300 774zM1081 1664q89 -28 189 -71q212 77 447 121l10 -28q-170 -53 -317.5 -138t-237.5 -180h-37q-47 114 -111.5 189.5t-173.5 128.5l9 28q133 -22 222 -50z" />
    <glyph glyph-name="ncommaaccent" unicode="&#x146;" horiz-adv-x="1790" 
d="M1536 1208q96 131 221 131q61 0 104.5 -23t66 -62.5t22.5 -88.5q0 -52 -24 -94.5t-67 -67t-96 -24.5q-66 0 -102.5 34t-36.5 89q0 67 44 119t110 71q-12 8 -33 8q-55 0 -95 -28t-77 -80q-91 -128 -192 -421t-220 -781h-45l-530 1008q-203 -859 -334 -1021
q-50 -61 -99.5 -95t-119.5 -34q-92 0 -142.5 49.5t-50.5 125.5q0 52 24 94.5t66 67t95 24.5q67 0 104 -33.5t37 -89.5q0 -67 -43.5 -118.5t-110.5 -71.5q8 -9 33 -9q100 3 174 111q77 114 162.5 394.5t185.5 714.5q3 40 -10.5 59.5t-46 27t-100.5 10.5l10 41q64 -6 182 -6
q130 0 227 6l407 -811q170 606 300 774zM651.5 -414.5q56.5 31.5 66.5 78.5q-49 -35 -118 -35q-58 0 -90.5 25.5t-32.5 75.5q0 46 25 83t67.5 57.5t93.5 20.5q58 0 98.5 -33t40.5 -94q0 -107 -78 -175t-204 -83l-6 39q81 9 137.5 40.5z" />
    <glyph glyph-name="eng" unicode="&#x14b;" horiz-adv-x="1479" 
d="M1405 1239q118 0 188 6l-10 -41q-73 -3 -111.5 -18t-61 -52t-42.5 -114l-257 -972q-50 -211 -141.5 -322t-240.5 -111q-100 0 -172.5 38t-73.5 116q0 68 46.5 111.5t127.5 43.5q69 0 113.5 -32.5t44.5 -90.5q0 -94 -115 -145q19 -6 45 -6q114 0 190 95.5t118 242.5
l-676 966l-193 -729q-17 -65 -17 -100q0 -32 14 -49.5t44.5 -25t85.5 -9.5l-8 -41q-73 6 -192 6q-128 0 -195 -6l10 41q74 3 111.5 18t59.5 51.5t42 114.5l215 803q17 62 17 95q0 32 -15 48.5t-47.5 23.5t-91.5 9l10 41q64 -6 183 -6q91 0 161 6l590 -852l162 627
q18 70 18 101t-14 48.5t-44.5 25t-84.5 9.5l10 41q71 -6 197 -6z" />
    <glyph glyph-name="ntilde" unicode="&#xf1;" horiz-adv-x="1790" 
d="M1536 1208q96 131 221 131q61 0 104.5 -23t66 -62.5t22.5 -88.5q0 -52 -24 -94.5t-67 -67t-96 -24.5q-66 0 -102.5 34t-36.5 89q0 67 44 119t110 71q-12 8 -33 8q-55 0 -95 -28t-77 -80q-91 -128 -192 -421t-220 -781h-45l-530 1008q-203 -859 -334 -1021
q-50 -61 -99.5 -95t-119.5 -34q-92 0 -142.5 49.5t-50.5 125.5q0 52 24 94.5t66 67t95 24.5q67 0 104 -33.5t37 -89.5q0 -67 -43.5 -118.5t-110.5 -71.5q8 -9 33 -9q100 3 174 111q77 114 162.5 394.5t185.5 714.5q3 40 -10.5 59.5t-46 27t-100.5 10.5l10 41q64 -6 182 -6
q130 0 227 6l407 -811q170 606 300 774zM837.5 1623.5q91.5 70.5 192.5 70.5q73 0 121.5 -21t123.5 -75t145 -54q44 0 82 28t75 91l37 -10q-55 -144 -146.5 -214.5t-193.5 -70.5q-72 0 -120 21t-123 75t-146 54q-44 0 -82 -28t-76 -91l-36 10q55 144 146.5 214.5z" />
    <glyph glyph-name="o" unicode="o" horiz-adv-x="1595" 
d="M344 25.5q-130 54.5 -202 165t-72 274.5q0 186 113.5 374.5t317 311.5t457.5 123q173 0 303 -54.5t202.5 -165t72.5 -274.5q0 -186 -113.5 -374.5t-317.5 -311.5t-458 -123q-173 0 -303 54.5zM677 1120.5q-118 -116.5 -185.5 -302t-67.5 -382.5q0 -222 64.5 -325
t177.5 -103q145 0 263 116.5t185.5 302t67.5 382.5q0 221 -65 324.5t-177 103.5q-145 0 -263 -116.5z" />
    <glyph glyph-name="oacute" unicode="&#xf3;" horiz-adv-x="1595" 
d="M345 25.5q-130 54.5 -202 165t-72 274.5q0 186 113.5 374.5t317 311.5t457.5 123q173 0 303 -54.5t202.5 -165t72.5 -274.5q0 -186 -113.5 -374.5t-317.5 -311.5t-458 -123q-173 0 -303 54.5zM678 1120.5q-118 -116.5 -185.5 -302t-67.5 -382.5q0 -222 64.5 -325
t177.5 -103q145 0 263 116.5t185.5 302t67.5 382.5q0 221 -65 324.5t-177 103.5q-145 0 -263 -116.5zM1038.5 1554.5q84.5 79.5 123.5 114.5t87 62q42 22 87 22q72 0 99 -55q11 -22 11 -42q0 -65 -92 -116q-36 -20 -78.5 -34.5t-165 -49.5t-236.5 -80l-14 25
q94 74 178.5 153.5z" />
    <glyph glyph-name="obreve" unicode="&#x14f;" horiz-adv-x="1595" 
d="M345 25.5q-130 54.5 -202 165t-72 274.5q0 186 113.5 374.5t317 311.5t457.5 123q173 0 303 -54.5t202.5 -165t72.5 -274.5q0 -186 -113.5 -374.5t-317.5 -311.5t-458 -123q-173 0 -303 54.5zM678 1120.5q-118 -116.5 -185.5 -302t-67.5 -382.5q0 -222 64.5 -325
t177.5 -103q145 0 263 116.5t185.5 302t67.5 382.5q0 221 -65 324.5t-177 103.5q-145 0 -263 -116.5zM808.5 1600q76.5 -25 197.5 -25q271 0 467 117l22 -21q-54 -76 -140.5 -144.5t-189 -110.5t-200.5 -42q-136 0 -217.5 81.5t-106.5 213.5l31 14q60 -58 136.5 -83z" />
    <glyph glyph-name="ocircumflex" unicode="&#xf4;" horiz-adv-x="1595" 
d="M345 25.5q-130 54.5 -202 165t-72 274.5q0 186 113.5 374.5t317 311.5t457.5 123q173 0 303 -54.5t202.5 -165t72.5 -274.5q0 -186 -113.5 -374.5t-317.5 -311.5t-458 -123q-173 0 -303 54.5zM678 1120.5q-118 -116.5 -185.5 -302t-67.5 -382.5q0 -222 64.5 -325
t177.5 -103q145 0 263 116.5t185.5 302t67.5 382.5q0 221 -65 324.5t-177 103.5q-145 0 -263 -116.5zM1206.5 1423.5q-86.5 27.5 -193.5 71.5q-214 -77 -444 -121l-11 29q171 54 318.5 138.5t236.5 178.5h37q46 -114 110.5 -189t174.5 -128l-8 -29q-134 22 -220.5 49.5z" />
    <glyph glyph-name="odieresis" unicode="&#xf6;" horiz-adv-x="1595" 
d="M345 25.5q-130 54.5 -202 165t-72 274.5q0 186 113.5 374.5t317 311.5t457.5 123q173 0 303 -54.5t202.5 -165t72.5 -274.5q0 -186 -113.5 -374.5t-317.5 -311.5t-458 -123q-173 0 -303 54.5zM678 1120.5q-118 -116.5 -185.5 -302t-67.5 -382.5q0 -222 64.5 -325
t177.5 -103q145 0 263 116.5t185.5 302t67.5 382.5q0 221 -65 324.5t-177 103.5q-145 0 -263 -116.5zM656.5 1591.5q24.5 39.5 64.5 60.5t87 21q64 0 98.5 -37.5t34.5 -99.5q0 -54 -25 -93t-66 -59t-87 -20q-65 0 -98 36.5t-33 98.5q0 53 24.5 92.5zM1145.5 1591.5
q24.5 39.5 65.5 60.5t88 21q65 0 99.5 -37.5t34.5 -99.5q0 -54 -25 -93t-66 -59t-88 -20q-66 0 -99.5 36.5t-33.5 98.5q0 53 24.5 92.5z" />
    <glyph glyph-name="ograve" unicode="&#xf2;" horiz-adv-x="1595" 
d="M345 25.5q-130 54.5 -202 165t-72 274.5q0 186 113.5 374.5t317 311.5t457.5 123q173 0 303 -54.5t202.5 -165t72.5 -274.5q0 -186 -113.5 -374.5t-317.5 -311.5t-458 -123q-173 0 -303 54.5zM678 1120.5q-118 -116.5 -185.5 -302t-67.5 -382.5q0 -222 64.5 -325
t177.5 -103q145 0 263 116.5t185.5 302t67.5 382.5q0 221 -65 324.5t-177 103.5q-145 0 -263 -116.5zM998 1428q-55 21 -139.5 50.5t-124.5 55.5q-29 18 -47 46.5t-18 59.5q0 25 14 50q29 49 92 49q42 0 78 -23q29 -18 52 -43t86.5 -109t147.5 -167l-16 -23q-70 33 -125 54z
" />
    <glyph glyph-name="ohungarumlaut" unicode="&#x151;" horiz-adv-x="1595" 
d="M345 25.5q-130 54.5 -202 165t-72 274.5q0 186 113.5 374.5t317 311.5t457.5 123q173 0 303 -54.5t202.5 -165t72.5 -274.5q0 -186 -113.5 -374.5t-317.5 -311.5t-458 -123q-173 0 -303 54.5zM678 1120.5q-118 -116.5 -185.5 -302t-67.5 -382.5q0 -222 64.5 -325
t177.5 -103q145 0 263 116.5t185.5 302t67.5 382.5q0 221 -65 324.5t-177 103.5q-145 0 -263 -116.5zM790 1537.5q59 76.5 88.5 111.5t64.5 61q35 24 78 24q62 0 90 -48q16 -25 16 -53q0 -61 -65 -105q-31 -21 -69 -36.5t-133.5 -48.5t-170.5 -67l-16 23q58 62 117 138.5z
M1221.5 1536.5q59.5 76.5 89 112t65.5 61.5q34 24 75 24q61 0 93 -48q16 -23 16 -51q0 -29 -18 -57.5t-48 -49.5q-31 -21 -69 -36.5t-133 -48.5t-170 -67l-17 23q57 61 116.5 137.5z" />
    <glyph glyph-name="omacron" unicode="&#x14d;" horiz-adv-x="1595" 
d="M345 25.5q-130 54.5 -202 165t-72 274.5q0 186 113.5 374.5t317 311.5t457.5 123q173 0 303 -54.5t202.5 -165t72.5 -274.5q0 -186 -113.5 -374.5t-317.5 -311.5t-458 -123q-173 0 -303 54.5zM678 1120.5q-118 -116.5 -185.5 -302t-67.5 -382.5q0 -222 64.5 -325
t177.5 -103q145 0 263 116.5t185.5 302t67.5 382.5q0 221 -65 324.5t-177 103.5q-145 0 -263 -116.5zM597 1473l12 51h820l-13 -51h-819z" />
    <glyph glyph-name="oslash" unicode="&#xf8;" horiz-adv-x="1595" 
d="M1536 780q0 -186 -113.5 -374.5t-317.5 -311.5t-458 -123q-221 0 -364 85l-211 -212l-35 29l207 209q-174 129 -174 383q0 186 113.5 374.5t317 311.5t457.5 123q199 0 336 -70l234 244l31 -27l-226 -239q203 -127 203 -402zM940 1237q-145 0 -263 -116.5t-185.5 -302
t-67.5 -382.5q0 -113 18 -197l710 815q-57 183 -212 183zM666 8q145 0 263 116.5t185.5 302t67.5 382.5q0 112 -18 195l-709 -816q57 -180 211 -180z" />
    <glyph glyph-name="otilde" unicode="&#xf5;" horiz-adv-x="1595" 
d="M345 25.5q-130 54.5 -202 165t-72 274.5q0 186 113.5 374.5t317 311.5t457.5 123q173 0 303 -54.5t202.5 -165t72.5 -274.5q0 -186 -113.5 -374.5t-317.5 -311.5t-458 -123q-173 0 -303 54.5zM678 1120.5q-118 -116.5 -185.5 -302t-67.5 -382.5q0 -222 64.5 -325
t177.5 -103q145 0 263 116.5t185.5 302t67.5 382.5q0 221 -65 324.5t-177 103.5q-145 0 -263 -116.5zM704.5 1623.5q91.5 70.5 192.5 70.5q73 0 121.5 -21t123.5 -75t145 -54q44 0 82 28t75 91l37 -10q-55 -144 -146.5 -214.5t-193.5 -70.5q-72 0 -120 21t-123 75t-146 54
q-44 0 -82 -28t-76 -91l-36 10q55 144 146.5 214.5z" />
    <glyph glyph-name="oe" unicode="&#x153;" horiz-adv-x="2036" 
d="M1851 334.5q-13 -48.5 -20 -72.5q-35 -127 -53 -262q-133 6 -447 6q-321 0 -520 -2q-94 -33 -201 -33q-165 0 -287 52.5t-188.5 158t-66.5 258.5q0 194 110.5 388t310 320t449.5 126q93 0 186 -31q199 -4 531 -4q284 0 407 6q-51 -132 -77 -241q-11 -44 -27 -127h-45
q15 86 15 144q0 96 -42.5 136.5t-138.5 40.5h-113q-72 0 -107 -11.5t-56 -46.5t-41 -112l-102 -381h136q58 0 96.5 30.5t62 76t52.5 123.5h45q-26 -81 -69 -250q-22 -78 -54 -250h-45q0 20 5.5 63t5.5 64q0 45 -23 71.5t-84 30.5h-139l-105 -389q-17 -66 -17 -99
q0 -30 13.5 -45t41.5 -20.5t79 -5.5h133q99 0 163 34t110.5 111t93.5 218h45q-10 -27 -23 -75.5zM1115 1102q0 135 -191 135q-139 0 -255.5 -124t-184.5 -317.5t-68 -389.5q0 -201 57 -299.5t156 -98.5q107 0 167.5 46.5t90.5 162.5l217 811q11 44 11 74z" />
    <glyph glyph-name="p" unicode="p" horiz-adv-x="1303" 
d="M439 125q0 -42 30 -60.5t109 -23.5l-9 -41q-123 6 -319 6q-225 0 -336 -6l8 41q74 3 110.5 16t58.5 48t42 112l215 811q16 68 16 94q0 41 -30 60t-107 22l11 41q106 -6 311 -6q68 0 156 2t149 2q250 0 369.5 -71.5t119.5 -200.5q0 -131 -102.5 -238t-287 -169t-422.5 -64
l-76 -283q-16 -68 -16 -92zM807.5 610q102.5 68 148 177.5t45.5 240.5q0 93 -38.5 134.5t-128.5 41.5q-50 0 -78 -15.5t-46 -52t-38 -108.5l-130 -487q163 1 265.5 69z" />
    <glyph glyph-name="thorn" unicode="&#xfe;" horiz-adv-x="1333" 
d="M441 117q0 -30 13.5 -45.5t42.5 -22t83 -8.5l-9 -41q-116 6 -333 6q-214 0 -322 -6l10 41q71 3 107 16t58 48.5t42 111.5l215 811q17 66 17 99q0 30 -13.5 46t-42.5 22.5t-82 8.5l11 41q100 -6 321 -6q204 0 336 6l-10 -41q-75 -3 -111.5 -16t-58 -47.5t-41.5 -112.5
l-8 -31q94 2 145 2q250 0 369.5 -71.5t119.5 -200.5q0 -132 -104 -239.5t-292 -169.5t-429 -62h-6l-10 -39q-18 -70 -18 -100zM762 366q104 69 150 175t46 221q0 105 -55 152t-162 47l-85 -1l-176 -663h16q162 0 266 69z" />
    <glyph glyph-name="q" unicode="q" horiz-adv-x="1694" 
d="M1477.5 125.5q46.5 -44.5 46.5 -125.5q0 -100 -76 -188.5t-205 -142.5t-282 -54q-122 0 -222 37t-175.5 91.5t-161.5 133.5q-156 -45 -267 -45q-101 0 -158 41t-57 121q0 66 36.5 117.5t101 79.5t145.5 28q76 0 150 -25.5t141 -65t156 -101.5q174 85 313.5 206t222 273.5
t82.5 320.5q0 193 -77 301.5t-218 108.5q-135 0 -244 -85.5t-171 -224t-62 -290.5q0 -119 48 -181.5t152 -62.5q82 0 156 36t123 97t59 133q1 11 1 32q0 23 -3 36q-19 -61 -70.5 -92t-107.5 -31q-67 0 -107 43t-40 109q0 53 26 96t70 67.5t96 24.5q86 0 136 -60.5t50 -160.5
q0 -117 -66 -205.5t-180 -136t-253 -47.5q-131 0 -229 40.5t-151.5 117t-53.5 182.5q0 172 124 309.5t322.5 214t411.5 76.5q174 0 312 -51t216 -145.5t78 -219.5q0 -148 -131 -310t-340 -307.5t-441 -250.5q92 -64 163.5 -105.5t152 -68.5t164.5 -27q106 0 171.5 29
t108.5 80q-62 -50 -135 -50q-69 0 -113.5 41t-44.5 109q0 49 23.5 88t65.5 61.5t96 22.5q75 0 121.5 -44.5zM370 -93q-62 58 -104.5 91.5t-88.5 55.5t-95 22q-54 0 -86.5 -24.5t-32.5 -69.5q0 -54 50 -84.5t128 -30.5q101 0 229 40z" />
    <glyph glyph-name="r" unicode="r" horiz-adv-x="1415" 
d="M1323 248l-8 -27q-78 -250 -311 -250q-121 0 -176 59.5t-50 155.5l10 146q2 36 2 51q0 67 -19 109t-65.5 65t-128.5 29h-21l-99 -369q-16 -68 -16 -92q0 -42 30 -61t107 -23l-9 -41q-123 6 -321 6q-226 0 -334 -6l8 41q74 3 110 15.5t58 47.5t43 113l217 811q16 66 16 92
q0 41 -30 60.5t-107 23.5l11 41q103 -6 311 -6q73 0 177.5 2t166.5 2q436 0 436 -250q0 -104 -65.5 -186t-186.5 -135t-287 -74l11 -2q108 -16 174.5 -43.5t100 -76.5t33.5 -129l-1 -23l-6 -109q-2 -30 -2 -41q0 -44 11.5 -67t38.5 -23q64 0 114 135l10 29h47zM900 730
q104 103 104 290q0 91 -42.5 137.5t-132.5 46.5q-45 0 -72.5 -16t-46 -52.5t-36.5 -107.5l-107 -401h35q194 0 298 103z" />
    <glyph glyph-name="racute" unicode="&#x155;" horiz-adv-x="1415" 
d="M1323 248l-8 -27q-78 -250 -311 -250q-121 0 -176 59.5t-50 155.5l10 146q2 36 2 51q0 67 -19 109t-65.5 65t-128.5 29h-21l-99 -369q-16 -68 -16 -92q0 -42 30 -61t107 -23l-9 -41q-123 6 -321 6q-226 0 -334 -6l8 41q74 3 110 15.5t58 47.5t43 113l217 811q16 66 16 92
q0 41 -30 60.5t-107 23.5l11 41q103 -6 311 -6q73 0 177.5 2t166.5 2q436 0 436 -250q0 -104 -65.5 -186t-186.5 -135t-287 -74l11 -2q108 -16 174.5 -43.5t100 -76.5t33.5 -129l-1 -23l-6 -109q-2 -30 -2 -41q0 -44 11.5 -67t38.5 -23q64 0 114 135l10 29h47zM900 730
q104 103 104 290q0 91 -42.5 137.5t-132.5 46.5q-45 0 -72.5 -16t-46 -52.5t-36.5 -107.5l-107 -401h35q194 0 298 103zM858.5 1554.5q84.5 79.5 123.5 114.5t87 62q42 22 87 22q72 0 99 -55q11 -22 11 -42q0 -65 -92 -116q-36 -20 -78.5 -34.5t-165 -49.5t-236.5 -80
l-14 25q94 74 178.5 153.5z" />
    <glyph glyph-name="rcaron" unicode="&#x159;" horiz-adv-x="1415" 
d="M1323 248l-8 -27q-78 -250 -311 -250q-121 0 -176 59.5t-50 155.5l10 146q2 36 2 51q0 67 -19 109t-65.5 65t-128.5 29h-21l-99 -369q-16 -68 -16 -92q0 -42 30 -61t107 -23l-9 -41q-123 6 -321 6q-226 0 -334 -6l8 41q74 3 110 15.5t58 47.5t43 113l217 811q16 66 16 92
q0 41 -30 60.5t-107 23.5l11 41q103 -6 311 -6q73 0 177.5 2t166.5 2q436 0 436 -250q0 -104 -65.5 -186t-186.5 -135t-287 -74l11 -2q108 -16 174.5 -43.5t100 -76.5t33.5 -129l-1 -23l-6 -109q-2 -30 -2 -41q0 -44 11.5 -67t38.5 -23q64 0 114 135l10 29h47zM900 730
q104 103 104 290q0 91 -42.5 137.5t-132.5 46.5q-45 0 -72.5 -16t-46 -52.5t-36.5 -107.5l-107 -401h35q194 0 298 103zM768 1664q89 -28 189 -71q212 77 447 121l10 -28q-170 -53 -317.5 -138t-237.5 -180h-37q-47 114 -111.5 189.5t-173.5 128.5l9 28q133 -22 222 -50z
" />
    <glyph glyph-name="rcommaaccent" unicode="&#x157;" horiz-adv-x="1415" 
d="M1323 248l-8 -27q-78 -250 -311 -250q-121 0 -176 59.5t-50 155.5l10 146q2 36 2 51q0 67 -19 109t-65.5 65t-128.5 29h-21l-99 -369q-16 -68 -16 -92q0 -42 30 -61t107 -23l-9 -41q-123 6 -321 6q-226 0 -334 -6l8 41q74 3 110 15.5t58 47.5t43 113l217 811q16 66 16 92
q0 41 -30 60.5t-107 23.5l11 41q103 -6 311 -6q73 0 177.5 2t166.5 2q436 0 436 -250q0 -104 -65.5 -186t-186.5 -135t-287 -74l11 -2q108 -16 174.5 -43.5t100 -76.5t33.5 -129l-1 -23l-6 -109q-2 -30 -2 -41q0 -44 11.5 -67t38.5 -23q64 0 114 135l10 29h47zM900 730
q104 103 104 290q0 91 -42.5 137.5t-132.5 46.5q-45 0 -72.5 -16t-46 -52.5t-36.5 -107.5l-107 -401h35q194 0 298 103zM583.5 -414.5q56.5 31.5 66.5 78.5q-49 -35 -118 -35q-58 0 -90.5 25.5t-32.5 75.5q0 46 25 83t67.5 57.5t93.5 20.5q58 0 98.5 -33t40.5 -94
q0 -107 -78 -175t-204 -83l-6 39q81 9 137.5 40.5z" />
    <glyph glyph-name="s" unicode="s" horiz-adv-x="1243" 
d="M1130 842h-40q12 59 12 114q0 78 -37.5 141t-107.5 99.5t-164 36.5q-77 0 -133.5 -23.5t-86.5 -66.5t-30 -99q0 -58 25 -106t78 -98.5t153 -128.5q112 -89 165.5 -137.5t87 -108t33.5 -133.5q0 -121 -84.5 -202t-220 -120t-288.5 -39q-112 0 -186.5 22t-155.5 68
q-52 35 -82 35q-24 0 -40.5 -23.5t-43.5 -86.5h-41q66 157 139 491h41q-2 -11 -7.5 -42.5t-8.5 -58.5t-3 -51q0 -144 89.5 -226.5t269.5 -82.5q111 0 182.5 48.5t71.5 148.5q0 85 -54.5 156.5t-177.5 165.5q-90 70 -145 125t-86 117t-31 136q0 118 76 199.5t199 121.5
t262 40q101 0 168.5 -21t124.5 -57q68 -45 90 -45q17 0 31.5 25t35.5 84h41q-75 -192 -121 -418z" />
    <glyph glyph-name="sacute" unicode="&#x15b;" horiz-adv-x="1243" 
d="M1130 842h-40q12 59 12 114q0 78 -37.5 141t-107.5 99.5t-164 36.5q-77 0 -133.5 -23.5t-86.5 -66.5t-30 -99q0 -58 25 -106t78 -98.5t153 -128.5q112 -89 165.5 -137.5t87 -108t33.5 -133.5q0 -121 -84.5 -202t-220 -120t-288.5 -39q-112 0 -186.5 22t-155.5 68
q-52 35 -82 35q-24 0 -40.5 -23.5t-43.5 -86.5h-41q66 157 139 491h41q-2 -11 -7.5 -42.5t-8.5 -58.5t-3 -51q0 -144 89.5 -226.5t269.5 -82.5q111 0 182.5 48.5t71.5 148.5q0 85 -54.5 156.5t-177.5 165.5q-90 70 -145 125t-86 117t-31 136q0 118 76 199.5t199 121.5
t262 40q101 0 168.5 -21t124.5 -57q68 -45 90 -45q17 0 31.5 25t35.5 84h41q-75 -192 -121 -418zM840.5 1554.5q84.5 79.5 123.5 114.5t87 62q42 22 87 22q72 0 99 -55q11 -22 11 -42q0 -65 -92 -116q-36 -20 -78.5 -34.5t-165 -49.5t-236.5 -80l-14 25q94 74 178.5 153.5z
" />
    <glyph glyph-name="scaron" unicode="&#x161;" horiz-adv-x="1243" 
d="M1130 842h-40q12 59 12 114q0 78 -37.5 141t-107.5 99.5t-164 36.5q-77 0 -133.5 -23.5t-86.5 -66.5t-30 -99q0 -58 25 -106t78 -98.5t153 -128.5q112 -89 165.5 -137.5t87 -108t33.5 -133.5q0 -121 -84.5 -202t-220 -120t-288.5 -39q-112 0 -186.5 22t-155.5 68
q-52 35 -82 35q-24 0 -40.5 -23.5t-43.5 -86.5h-41q66 157 139 491h41q-2 -11 -7.5 -42.5t-8.5 -58.5t-3 -51q0 -144 89.5 -226.5t269.5 -82.5q111 0 182.5 48.5t71.5 148.5q0 85 -54.5 156.5t-177.5 165.5q-90 70 -145 125t-86 117t-31 136q0 118 76 199.5t199 121.5
t262 40q101 0 168.5 -21t124.5 -57q68 -45 90 -45q17 0 31.5 25t35.5 84h41q-75 -192 -121 -418zM750 1664q89 -28 189 -71q212 77 447 121l10 -28q-170 -53 -317.5 -138t-237.5 -180h-37q-47 114 -111.5 189.5t-173.5 128.5l9 28q133 -22 222 -50z" />
    <glyph glyph-name="scedilla" unicode="&#x15f;" horiz-adv-x="1243" 
d="M1130 842h-40q12 59 12 114q0 78 -37.5 141t-107.5 99.5t-164 36.5q-77 0 -133.5 -23.5t-86.5 -66.5t-30 -99q0 -58 25 -106t78 -98.5t153 -128.5q112 -89 165.5 -137.5t87 -108t33.5 -133.5q0 -121 -84.5 -202t-220 -120t-288.5 -39q-112 0 -186.5 22t-155.5 68
q-52 35 -82 35q-24 0 -40.5 -23.5t-43.5 -86.5h-41q66 157 139 491h41q-2 -11 -7.5 -42.5t-8.5 -58.5t-3 -51q0 -144 89.5 -226.5t269.5 -82.5q111 0 182.5 48.5t71.5 148.5q0 85 -54.5 156.5t-177.5 165.5q-90 70 -145 125t-86 117t-31 136q0 118 76 199.5t199 121.5
t262 40q101 0 168.5 -21t124.5 -57q68 -45 90 -45q17 0 31.5 25t35.5 84h41q-75 -192 -121 -418zM582 -109q63 0 100 -25t37 -73q0 -61 -51 -101t-130.5 -58.5t-164.5 -18.5q-70 0 -130 12.5t-95 28.5l12 31q96 -23 166 -23q68 0 126 20.5t58 73.5q0 47 -65 47
q-34 0 -72 -14l100 219h56l-66 -139q58 20 119 20z" />
    <glyph glyph-name="scircumflex" unicode="&#x15d;" horiz-adv-x="1243" 
d="M1130 842h-40q12 59 12 114q0 78 -37.5 141t-107.5 99.5t-164 36.5q-77 0 -133.5 -23.5t-86.5 -66.5t-30 -99q0 -58 25 -106t78 -98.5t153 -128.5q112 -89 165.5 -137.5t87 -108t33.5 -133.5q0 -121 -84.5 -202t-220 -120t-288.5 -39q-112 0 -186.5 22t-155.5 68
q-52 35 -82 35q-24 0 -40.5 -23.5t-43.5 -86.5h-41q66 157 139 491h41q-2 -11 -7.5 -42.5t-8.5 -58.5t-3 -51q0 -144 89.5 -226.5t269.5 -82.5q111 0 182.5 48.5t71.5 148.5q0 85 -54.5 156.5t-177.5 165.5q-90 70 -145 125t-86 117t-31 136q0 118 76 199.5t199 121.5
t262 40q101 0 168.5 -21t124.5 -57q68 -45 90 -45q17 0 31.5 25t35.5 84h41q-75 -192 -121 -418zM1008.5 1423.5q-86.5 27.5 -193.5 71.5q-214 -77 -444 -121l-11 29q171 54 318.5 138.5t236.5 178.5h37q46 -114 110.5 -189t174.5 -128l-8 -29q-134 22 -220.5 49.5z" />
    <glyph glyph-name="scommaaccent" unicode="&#x219;" horiz-adv-x="1243" 
d="M1130 842h-40q12 59 12 114q0 78 -37.5 141t-107.5 99.5t-164 36.5q-77 0 -133.5 -23.5t-86.5 -66.5t-30 -99q0 -58 25 -106t78 -98.5t153 -128.5q112 -89 165.5 -137.5t87 -108t33.5 -133.5q0 -121 -84.5 -202t-220 -120t-288.5 -39q-112 0 -186.5 22t-155.5 68
q-52 35 -82 35q-24 0 -40.5 -23.5t-43.5 -86.5h-41q66 157 139 491h41q-2 -11 -7.5 -42.5t-8.5 -58.5t-3 -51q0 -144 89.5 -226.5t269.5 -82.5q111 0 182.5 48.5t71.5 148.5q0 85 -54.5 156.5t-177.5 165.5q-90 70 -145 125t-86 117t-31 136q0 118 76 199.5t199 121.5
t262 40q101 0 168.5 -21t124.5 -57q68 -45 90 -45q17 0 31.5 25t35.5 84h41q-75 -192 -121 -418zM457.5 -414.5q56.5 31.5 66.5 78.5q-49 -35 -118 -35q-58 0 -90.5 25.5t-32.5 75.5q0 46 25 83t67.5 57.5t93.5 20.5q58 0 98.5 -33t40.5 -94q0 -107 -78 -175t-204 -83l-6 39
q81 9 137.5 40.5z" />
    <glyph glyph-name="germandbls" unicode="&#xdf;" horiz-adv-x="1391" 
d="M-100 -385l295 1075q59 223 163 352t238 180.5t301 51.5q194 0 295.5 -59t101.5 -171q0 -134 -135.5 -225.5t-355.5 -134.5q163 -13 264.5 -60t145.5 -114t44 -145q0 -112 -78 -202t-208.5 -141t-280.5 -51q-120 0 -184 36t-64 118q0 47 21 91t60 71.5t91 27.5
q57 0 92 -33.5t35 -88.5q0 -62 -44 -113.5t-109 -67.5q29 -8 76 -8q77 0 139.5 49t98.5 131.5t36 177.5q0 85 -24 155t-64.5 109.5t-87.5 39.5q-75 -25 -105 -25q-21 0 -32 7t-11 18q0 16 17 28.5t43 12.5q44 0 100 -19q90 51 139.5 163t49.5 243q0 78 -23.5 113.5
t-85.5 35.5q-81 0 -151 -65.5t-111 -216.5l-365 -1315q-170 -3 -327 -31z" />
    <glyph glyph-name="t" unicode="t" horiz-adv-x="1372" 
d="M532 1217q-150 0 -221 -48q56 -15 91.5 -59.5t35.5 -105.5q0 -47 -20.5 -87t-56.5 -63t-82 -23t-79.5 22t-51 58.5t-17.5 79.5q0 57 31.5 111.5t99.5 93.5q101 57 270 57q76 0 155 -7.5t252 -28.5t278 -21q136 0 208 31q-36 27 -59 69t-23 93q0 45 19 82t56 59t87 22
q49 0 84.5 -20t54.5 -52.5t19 -70.5q0 -109 -117 -186q-119 -68 -344 -68q-49 0 -110 5l-265 -922q-18 -61 -18 -100q0 -35 17 -55.5t54 -30t101 -11.5l-8 -41q-132 6 -379 6q-244 0 -361 -6l9 41q88 3 135 20.5t74 57t51 119.5l274 959q-157 20 -244 20z" />
    <glyph glyph-name="tbar" unicode="&#x167;" horiz-adv-x="1397" 
d="M533 1217q-150 0 -221 -48q56 -15 91.5 -59.5t35.5 -105.5q0 -47 -20.5 -87t-56.5 -63t-82 -23t-79.5 22t-51 58.5t-17.5 79.5q0 57 31.5 111.5t99.5 93.5q101 57 270 57q76 0 155 -7.5t252 -28.5t278 -21q136 0 208 31q-36 27 -59 69t-23 93q0 45 19 82t56 59t87 22
q49 0 84.5 -20t54.5 -52.5t19 -70.5q0 -109 -117 -186q-119 -68 -344 -68q-47 0 -110 5l-147 -513h262l-10 -41h-264l-106 -368q-18 -61 -18 -100q0 -35 17 -55.5t54 -30t101 -11.5l-8 -41q-132 6 -379 6q-244 0 -361 -6l9 41q88 3 135 20.5t74 57t51 119.5l105 368h-258
l10 41h260l157 550q-158 20 -244 20z" />
    <glyph glyph-name="tcaron" unicode="&#x165;" horiz-adv-x="1372" 
d="M533 1217q-150 0 -221 -48q56 -15 91.5 -59.5t35.5 -105.5q0 -47 -20.5 -87t-56.5 -63t-82 -23t-79.5 22t-51 58.5t-17.5 79.5q0 57 31.5 111.5t99.5 93.5q101 57 270 57q76 0 155 -7.5t252 -28.5t278 -21q136 0 208 31q-36 27 -59 69t-23 93q0 45 19 82t56 59t87 22
q49 0 84.5 -20t54.5 -52.5t19 -70.5q0 -109 -117 -186q-119 -68 -344 -68q-49 0 -110 5l-265 -922q-18 -61 -18 -100q0 -35 17 -55.5t54 -30t101 -11.5l-8 -41q-132 6 -379 6q-244 0 -361 -6l9 41q88 3 135 20.5t74 57t51 119.5l274 959q-157 20 -244 20zM857 1664
q89 -28 189 -71q212 77 447 121l10 -28q-170 -53 -317.5 -138t-237.5 -180h-37q-47 114 -111.5 189.5t-173.5 128.5l9 28q133 -22 222 -50z" />
    <glyph glyph-name="tcedilla" unicode="&#x163;" horiz-adv-x="1372" 
d="M533 1217q-150 0 -221 -48q56 -15 91.5 -59.5t35.5 -105.5q0 -47 -20.5 -87t-56.5 -63t-82 -23t-79.5 22t-51 58.5t-17.5 79.5q0 57 31.5 111.5t99.5 93.5q101 57 270 57q76 0 155 -7.5t252 -28.5t278 -21q136 0 208 31q-36 27 -59 69t-23 93q0 45 19 82t56 59t87 22
q49 0 84.5 -20t54.5 -52.5t19 -70.5q0 -109 -117 -186q-119 -68 -344 -68q-49 0 -110 5l-265 -922q-18 -61 -18 -100q0 -35 17 -55.5t54 -30t101 -11.5l-8 -41q-132 6 -379 6q-244 0 -361 -6l9 41q88 3 135 20.5t74 57t51 119.5l274 959q-157 20 -244 20zM682 -109
q63 0 100 -25t37 -73q0 -61 -51 -101t-130.5 -58.5t-164.5 -18.5q-70 0 -130 12.5t-95 28.5l12 31q96 -23 166 -23q68 0 126 20.5t58 73.5q0 47 -65 47q-34 0 -72 -14l100 219h56l-66 -139q58 20 119 20z" />
    <glyph glyph-name="uni021B" unicode="&#x21b;" horiz-adv-x="1372" 
d="M533 1217q-150 0 -221 -48q56 -15 91.5 -59.5t35.5 -105.5q0 -47 -20.5 -87t-56.5 -63t-82 -23t-79.5 22t-51 58.5t-17.5 79.5q0 57 31.5 111.5t99.5 93.5q101 57 270 57q76 0 155 -7.5t252 -28.5t278 -21q136 0 208 31q-36 27 -59 69t-23 93q0 45 19 82t56 59t87 22
q49 0 84.5 -20t54.5 -52.5t19 -70.5q0 -109 -117 -186q-119 -68 -344 -68q-49 0 -110 5l-265 -922q-18 -61 -18 -100q0 -35 17 -55.5t54 -30t101 -11.5l-8 -41q-132 6 -379 6q-244 0 -361 -6l9 41q88 3 135 20.5t74 57t51 119.5l274 959q-157 20 -244 20zM557.5 -414.5
q56.5 31.5 66.5 78.5q-49 -35 -118 -35q-58 0 -90.5 25.5t-32.5 75.5q0 46 25 83t67.5 57.5t93.5 20.5q58 0 98.5 -33t40.5 -94q0 -107 -78 -175t-204 -83l-6 39q81 9 137.5 40.5z" />
    <glyph glyph-name="u" unicode="u" horiz-adv-x="1427" 
d="M1026 162q-76 -90 -190.5 -140.5t-260.5 -50.5q-259 0 -358 111q-39 44 -56.5 92.5t-17.5 111.5q0 102 54 304l116 438q17 66 17 99q0 30 -13.5 46t-42 22.5t-81.5 8.5l12 41q104 -6 338 -6q191 0 317 6l-12 -41q-75 -3 -111.5 -16t-58 -48t-41.5 -112l-127 -473
q-50 -192 -50 -300t45 -160t140 -52q215 0 339 139.5t190 390.5l90 336q33 121 33 175q0 41 -15.5 65t-49 36.5t-91.5 18.5l12 41q77 -6 219 -6q123 0 193 6l-13 -41q-70 -9 -111 -34.5t-69 -79t-55 -156.5l-90 -338q-73 -283 -201 -434z" />
    <glyph glyph-name="uacute" unicode="&#xfa;" horiz-adv-x="1427" 
d="M1027 162q-76 -90 -190.5 -140.5t-260.5 -50.5q-259 0 -358 111q-39 44 -56.5 92.5t-17.5 111.5q0 102 54 304l116 438q17 66 17 99q0 30 -13.5 46t-42 22.5t-81.5 8.5l12 41q104 -6 338 -6q191 0 317 6l-12 -41q-75 -3 -111.5 -16t-58 -48t-41.5 -112l-127 -473
q-50 -192 -50 -300t45 -160t140 -52q215 0 339 139.5t190 390.5l90 336q33 121 33 175q0 41 -15.5 65t-49 36.5t-91.5 18.5l12 41q77 -6 219 -6q123 0 193 6l-13 -41q-70 -9 -111 -34.5t-69 -79t-55 -156.5l-90 -338q-73 -283 -201 -434zM967.5 1554.5
q84.5 79.5 123.5 114.5t87 62q42 22 87 22q72 0 99 -55q11 -22 11 -42q0 -65 -92 -116q-36 -20 -78.5 -34.5t-165 -49.5t-236.5 -80l-14 25q94 74 178.5 153.5z" />
    <glyph glyph-name="ubreve" unicode="&#x16d;" horiz-adv-x="1427" 
d="M1027 162q-76 -90 -190.5 -140.5t-260.5 -50.5q-259 0 -358 111q-39 44 -56.5 92.5t-17.5 111.5q0 102 54 304l116 438q17 66 17 99q0 30 -13.5 46t-42 22.5t-81.5 8.5l12 41q104 -6 338 -6q191 0 317 6l-12 -41q-75 -3 -111.5 -16t-58 -48t-41.5 -112l-127 -473
q-50 -192 -50 -300t45 -160t140 -52q215 0 339 139.5t190 390.5l90 336q33 121 33 175q0 41 -15.5 65t-49 36.5t-91.5 18.5l12 41q77 -6 219 -6q123 0 193 6l-13 -41q-70 -9 -111 -34.5t-69 -79t-55 -156.5l-90 -338q-73 -283 -201 -434zM737.5 1600q76.5 -25 197.5 -25
q271 0 467 117l22 -21q-54 -76 -140.5 -144.5t-189 -110.5t-200.5 -42q-136 0 -217.5 81.5t-106.5 213.5l31 14q60 -58 136.5 -83z" />
    <glyph glyph-name="ucircumflex" unicode="&#xfb;" horiz-adv-x="1427" 
d="M1027 162q-76 -90 -190.5 -140.5t-260.5 -50.5q-259 0 -358 111q-39 44 -56.5 92.5t-17.5 111.5q0 102 54 304l116 438q17 66 17 99q0 30 -13.5 46t-42 22.5t-81.5 8.5l12 41q104 -6 338 -6q191 0 317 6l-12 -41q-75 -3 -111.5 -16t-58 -48t-41.5 -112l-127 -473
q-50 -192 -50 -300t45 -160t140 -52q215 0 339 139.5t190 390.5l90 336q33 121 33 175q0 41 -15.5 65t-49 36.5t-91.5 18.5l12 41q77 -6 219 -6q123 0 193 6l-13 -41q-70 -9 -111 -34.5t-69 -79t-55 -156.5l-90 -338q-73 -283 -201 -434zM1135.5 1423.5
q-86.5 27.5 -193.5 71.5q-214 -77 -444 -121l-11 29q171 54 318.5 138.5t236.5 178.5h37q46 -114 110.5 -189t174.5 -128l-8 -29q-134 22 -220.5 49.5z" />
    <glyph glyph-name="udieresis" unicode="&#xfc;" horiz-adv-x="1427" 
d="M1027 162q-76 -90 -190.5 -140.5t-260.5 -50.5q-259 0 -358 111q-39 44 -56.5 92.5t-17.5 111.5q0 102 54 304l116 438q17 66 17 99q0 30 -13.5 46t-42 22.5t-81.5 8.5l12 41q104 -6 338 -6q191 0 317 6l-12 -41q-75 -3 -111.5 -16t-58 -48t-41.5 -112l-127 -473
q-50 -192 -50 -300t45 -160t140 -52q215 0 339 139.5t190 390.5l90 336q33 121 33 175q0 41 -15.5 65t-49 36.5t-91.5 18.5l12 41q77 -6 219 -6q123 0 193 6l-13 -41q-70 -9 -111 -34.5t-69 -79t-55 -156.5l-90 -338q-73 -283 -201 -434zM585.5 1591.5q24.5 39.5 64.5 60.5
t87 21q64 0 98.5 -37.5t34.5 -99.5q0 -54 -25 -93t-66 -59t-87 -20q-65 0 -98 36.5t-33 98.5q0 53 24.5 92.5zM1074.5 1591.5q24.5 39.5 65.5 60.5t88 21q65 0 99.5 -37.5t34.5 -99.5q0 -54 -25 -93t-66 -59t-88 -20q-66 0 -99.5 36.5t-33.5 98.5q0 53 24.5 92.5z" />
    <glyph glyph-name="ugrave" unicode="&#xf9;" horiz-adv-x="1427" 
d="M1027 162q-76 -90 -190.5 -140.5t-260.5 -50.5q-259 0 -358 111q-39 44 -56.5 92.5t-17.5 111.5q0 102 54 304l116 438q17 66 17 99q0 30 -13.5 46t-42 22.5t-81.5 8.5l12 41q104 -6 338 -6q191 0 317 6l-12 -41q-75 -3 -111.5 -16t-58 -48t-41.5 -112l-127 -473
q-50 -192 -50 -300t45 -160t140 -52q215 0 339 139.5t190 390.5l90 336q33 121 33 175q0 41 -15.5 65t-49 36.5t-91.5 18.5l12 41q77 -6 219 -6q123 0 193 6l-13 -41q-70 -9 -111 -34.5t-69 -79t-55 -156.5l-90 -338q-73 -283 -201 -434zM927 1428q-55 21 -139.5 50.5
t-124.5 55.5q-29 18 -47 46.5t-18 59.5q0 25 14 50q29 49 92 49q42 0 78 -23q29 -18 52 -43t86.5 -109t147.5 -167l-16 -23q-70 33 -125 54z" />
    <glyph glyph-name="uhungarumlaut" unicode="&#x171;" horiz-adv-x="1427" 
d="M1027 162q-76 -90 -190.5 -140.5t-260.5 -50.5q-259 0 -358 111q-39 44 -56.5 92.5t-17.5 111.5q0 102 54 304l116 438q17 66 17 99q0 30 -13.5 46t-42 22.5t-81.5 8.5l12 41q104 -6 338 -6q191 0 317 6l-12 -41q-75 -3 -111.5 -16t-58 -48t-41.5 -112l-127 -473
q-50 -192 -50 -300t45 -160t140 -52q215 0 339 139.5t190 390.5l90 336q33 121 33 175q0 41 -15.5 65t-49 36.5t-91.5 18.5l12 41q77 -6 219 -6q123 0 193 6l-13 -41q-70 -9 -111 -34.5t-69 -79t-55 -156.5l-90 -338q-73 -283 -201 -434zM719 1537.5q59 76.5 88.5 111.5
t64.5 61q35 24 78 24q62 0 90 -48q16 -25 16 -53q0 -61 -65 -105q-31 -21 -69 -36.5t-133.5 -48.5t-170.5 -67l-16 23q58 62 117 138.5zM1150.5 1536.5q59.5 76.5 89 112t65.5 61.5q34 24 75 24q61 0 93 -48q16 -23 16 -51q0 -29 -18 -57.5t-48 -49.5q-31 -21 -69 -36.5
t-133 -48.5t-170 -67l-17 23q57 61 116.5 137.5z" />
    <glyph glyph-name="umacron" unicode="&#x16b;" horiz-adv-x="1427" 
d="M1027 162q-76 -90 -190.5 -140.5t-260.5 -50.5q-259 0 -358 111q-39 44 -56.5 92.5t-17.5 111.5q0 102 54 304l116 438q17 66 17 99q0 30 -13.5 46t-42 22.5t-81.5 8.5l12 41q104 -6 338 -6q191 0 317 6l-12 -41q-75 -3 -111.5 -16t-58 -48t-41.5 -112l-127 -473
q-50 -192 -50 -300t45 -160t140 -52q215 0 339 139.5t190 390.5l90 336q33 121 33 175q0 41 -15.5 65t-49 36.5t-91.5 18.5l12 41q77 -6 219 -6q123 0 193 6l-13 -41q-70 -9 -111 -34.5t-69 -79t-55 -156.5l-90 -338q-73 -283 -201 -434zM526 1473l12 51h820l-13 -51h-819z
" />
    <glyph glyph-name="uogonek" unicode="&#x173;" horiz-adv-x="1427" 
d="M1027 162q-76 -90 -190.5 -140.5t-260.5 -50.5q-259 0 -358 111q-39 44 -56.5 92.5t-17.5 111.5q0 102 54 304l116 438q17 66 17 99q0 30 -13.5 46t-42 22.5t-81.5 8.5l12 41q104 -6 338 -6q191 0 317 6l-12 -41q-75 -3 -111.5 -16t-58 -48t-41.5 -112l-127 -473
q-50 -192 -50 -300t45 -160t140 -52q215 0 339 139.5t190 390.5l90 336q33 121 33 175q0 41 -15.5 65t-49 36.5t-91.5 18.5l12 41q77 -6 219 -6q123 0 193 6l-13 -41q-70 -9 -111 -34.5t-69 -79t-55 -156.5l-90 -338q-73 -283 -201 -434zM640.5 -51q-62.5 -36 -97 -80
t-34.5 -90q0 -62 67 -62q32 0 73 12.5t77 32.5l22 -34q-141 -113 -294 -113q-85 0 -131 32t-46 91q0 95 121.5 164.5t321.5 103.5h65q-82 -21 -144.5 -57z" />
    <glyph glyph-name="uring" unicode="&#x16f;" horiz-adv-x="1427" 
d="M1027 162q-76 -90 -190.5 -140.5t-260.5 -50.5q-259 0 -358 111q-39 44 -56.5 92.5t-17.5 111.5q0 102 54 304l116 438q17 66 17 99q0 30 -13.5 46t-42 22.5t-81.5 8.5l12 41q104 -6 338 -6q191 0 317 6l-12 -41q-75 -3 -111.5 -16t-58 -48t-41.5 -112l-127 -473
q-50 -192 -50 -300t45 -160t140 -52q215 0 339 139.5t190 390.5l90 336q33 121 33 175q0 41 -15.5 65t-49 36.5t-91.5 18.5l12 41q77 -6 219 -6q123 0 193 6l-13 -41q-70 -9 -111 -34.5t-69 -79t-55 -156.5l-90 -338q-73 -283 -201 -434zM1118.5 1692.5q45.5 -21.5 72 -61
t26.5 -91.5q0 -61 -35.5 -113t-94.5 -82t-126 -30q-54 0 -98 21t-69 61t-25 94q0 62 33.5 113t90 80.5t124.5 29.5q56 0 101.5 -21.5zM1065.5 1382q44.5 24 71.5 65.5t27 90.5q0 43 -22.5 73t-58.5 45t-74 15q-48 0 -91.5 -25.5t-69.5 -67t-26 -87.5q0 -42 21.5 -72
t56 -45.5t72.5 -15.5q49 0 93.5 24z" />
    <glyph glyph-name="utilde" unicode="&#x169;" horiz-adv-x="1427" 
d="M1027 162q-76 -90 -190.5 -140.5t-260.5 -50.5q-259 0 -358 111q-39 44 -56.5 92.5t-17.5 111.5q0 102 54 304l116 438q17 66 17 99q0 30 -13.5 46t-42 22.5t-81.5 8.5l12 41q104 -6 338 -6q191 0 317 6l-12 -41q-75 -3 -111.5 -16t-58 -48t-41.5 -112l-127 -473
q-50 -192 -50 -300t45 -160t140 -52q215 0 339 139.5t190 390.5l90 336q33 121 33 175q0 41 -15.5 65t-49 36.5t-91.5 18.5l12 41q77 -6 219 -6q123 0 193 6l-13 -41q-70 -9 -111 -34.5t-69 -79t-55 -156.5l-90 -338q-73 -283 -201 -434zM633.5 1623.5q91.5 70.5 192.5 70.5
q73 0 121.5 -21t123.5 -75t145 -54q44 0 82 28t75 91l37 -10q-55 -144 -146.5 -214.5t-193.5 -70.5q-72 0 -120 21t-123 75t-146 54q-44 0 -82 -28t-76 -91l-36 10q55 144 146.5 214.5z" />
    <glyph glyph-name="v" unicode="v" horiz-adv-x="1337" 
d="M1399 1239q74 0 135 6l-10 -41q-58 -26 -105.5 -71t-134.5 -156l-786 -987q-17 1 -52 1t-53 -1l-135 1083q-8 66 -39.5 97.5t-66.5 33.5l10 41q100 -6 295 -6q199 0 307 6l-10 -41q-62 -3 -97 -13t-52.5 -35.5t-17.5 -74.5q0 -22 3 -49l91 -744l531 664q78 98 78 154
q0 41 -40.5 65t-125.5 33l9 41q132 -6 266 -6z" />
    <glyph glyph-name="w" unicode="w" horiz-adv-x="1901" 
d="M1921 1239q93 0 152 6l-9 -41q-45 -17 -80 -40t-73.5 -67t-83.5 -120l-604 -987q-27 3 -54 3t-53 -3l-129 797l-475 -797q-27 3 -53 3q-27 0 -53 -3l-173 1083q-10 66 -37.5 98.5t-62.5 32.5l8 41q117 -6 262 -6q183 0 273 6l-8 -41q-52 -6 -73.5 -30.5t-21.5 -72.5
q0 -23 7 -69l99 -685l297 502l-36 224q-17 127 -80 131l8 41q102 -6 244 -6q219 0 324 6l-9 -41q-62 -3 -96 -12t-50 -30.5t-16 -62.5q0 -31 7 -67l109 -702l374 614q66 107 66 162q0 42 -38 65.5t-120 32.5l10 41q132 -6 248 -6z" />
    <glyph glyph-name="wacute" unicode="&#x1e83;" horiz-adv-x="1901" 
d="M1922 1239q93 0 152 6l-9 -41q-45 -17 -80 -40t-73.5 -67t-83.5 -120l-604 -987q-27 3 -54 3t-53 -3l-129 797l-475 -797q-27 3 -53 3q-27 0 -53 -3l-173 1083q-10 66 -37.5 98.5t-62.5 32.5l8 41q117 -6 262 -6q183 0 273 6l-8 -41q-52 -6 -73.5 -30.5t-21.5 -72.5
q0 -23 7 -69l99 -685l297 502l-36 224q-17 127 -80 131l8 41q102 -6 244 -6q219 0 324 6l-9 -41q-62 -3 -96 -12t-50 -30.5t-16 -62.5q0 -31 7 -67l109 -702l374 614q66 107 66 162q0 42 -38 65.5t-120 32.5l10 41q132 -6 248 -6zM1171.5 1554.5q84.5 79.5 123.5 114.5
t87 62q42 22 87 22q72 0 99 -55q11 -22 11 -42q0 -65 -92 -116q-36 -20 -78.5 -34.5t-165 -49.5t-236.5 -80l-14 25q94 74 178.5 153.5z" />
    <glyph glyph-name="wcircumflex" unicode="&#x175;" horiz-adv-x="1901" 
d="M1922 1239q93 0 152 6l-9 -41q-45 -17 -80 -40t-73.5 -67t-83.5 -120l-604 -987q-27 3 -54 3t-53 -3l-129 797l-475 -797q-27 3 -53 3q-27 0 -53 -3l-173 1083q-10 66 -37.5 98.5t-62.5 32.5l8 41q117 -6 262 -6q183 0 273 6l-8 -41q-52 -6 -73.5 -30.5t-21.5 -72.5
q0 -23 7 -69l99 -685l297 502l-36 224q-17 127 -80 131l8 41q102 -6 244 -6q219 0 324 6l-9 -41q-62 -3 -96 -12t-50 -30.5t-16 -62.5q0 -31 7 -67l109 -702l374 614q66 107 66 162q0 42 -38 65.5t-120 32.5l10 41q132 -6 248 -6zM1339.5 1423.5q-86.5 27.5 -193.5 71.5
q-214 -77 -444 -121l-11 29q171 54 318.5 138.5t236.5 178.5h37q46 -114 110.5 -189t174.5 -128l-8 -29q-134 22 -220.5 49.5z" />
    <glyph glyph-name="wdieresis" unicode="&#x1e85;" horiz-adv-x="1901" 
d="M1922 1239q93 0 152 6l-9 -41q-45 -17 -80 -40t-73.5 -67t-83.5 -120l-604 -987q-27 3 -54 3t-53 -3l-129 797l-475 -797q-27 3 -53 3q-27 0 -53 -3l-173 1083q-10 66 -37.5 98.5t-62.5 32.5l8 41q117 -6 262 -6q183 0 273 6l-8 -41q-52 -6 -73.5 -30.5t-21.5 -72.5
q0 -23 7 -69l99 -685l297 502l-36 224q-17 127 -80 131l8 41q102 -6 244 -6q219 0 324 6l-9 -41q-62 -3 -96 -12t-50 -30.5t-16 -62.5q0 -31 7 -67l109 -702l374 614q66 107 66 162q0 42 -38 65.5t-120 32.5l10 41q132 -6 248 -6zM789.5 1591.5q24.5 39.5 64.5 60.5t87 21
q64 0 98.5 -37.5t34.5 -99.5q0 -54 -25 -93t-66 -59t-87 -20q-65 0 -98 36.5t-33 98.5q0 53 24.5 92.5zM1278.5 1591.5q24.5 39.5 65.5 60.5t88 21q65 0 99.5 -37.5t34.5 -99.5q0 -54 -25 -93t-66 -59t-88 -20q-66 0 -99.5 36.5t-33.5 98.5q0 53 24.5 92.5z" />
    <glyph glyph-name="wgrave" unicode="&#x1e81;" horiz-adv-x="1901" 
d="M1922 1239q93 0 152 6l-9 -41q-45 -17 -80 -40t-73.5 -67t-83.5 -120l-604 -987q-27 3 -54 3t-53 -3l-129 797l-475 -797q-27 3 -53 3q-27 0 -53 -3l-173 1083q-10 66 -37.5 98.5t-62.5 32.5l8 41q117 -6 262 -6q183 0 273 6l-8 -41q-52 -6 -73.5 -30.5t-21.5 -72.5
q0 -23 7 -69l99 -685l297 502l-36 224q-17 127 -80 131l8 41q102 -6 244 -6q219 0 324 6l-9 -41q-62 -3 -96 -12t-50 -30.5t-16 -62.5q0 -31 7 -67l109 -702l374 614q66 107 66 162q0 42 -38 65.5t-120 32.5l10 41q132 -6 248 -6zM1131 1428q-55 21 -139.5 50.5t-124.5 55.5
q-29 18 -47 46.5t-18 59.5q0 25 14 50q29 49 92 49q42 0 78 -23q29 -18 52 -43t86.5 -109t147.5 -167l-16 -23q-70 33 -125 54z" />
    <glyph glyph-name="x" unicode="x" horiz-adv-x="1483" 
d="M1035.5 1041q73.5 105 140.5 161q86 72 190 72q86 0 134 -52.5t48 -133.5q0 -56 -23.5 -101.5t-65 -71.5t-93.5 -26q-63 0 -98 37t-35 100q1 67 44.5 122.5t111.5 78.5q-12 8 -35 8q-71 0 -133 -47q-68 -51 -151.5 -168.5t-165.5 -285.5l46 -417q12 -96 43 -146t94 -50
q54 0 86 30.5t54 92.5l35 104h41l-54 -158q-73 -219 -276 -219q-163 0 -236.5 85.5t-91.5 234.5l-17 146q-73 -125 -160 -230.5t-167 -165.5q-91 -70 -192 -70q-57 0 -98 24.5t-62 67t-21 94.5q0 56 23.5 101.5t65 71.5t94.5 26q64 0 98.5 -37t32.5 -100q0 -67 -43 -122.5
t-111 -78.5q11 -8 35 -8q68 0 135 47q77 52 174 168.5t189 280.5l-48 422q-10 93 -41.5 144.5t-95.5 51.5q-51 0 -83.5 -31.5t-55.5 -95.5l-35 -100h-41l47 141q42 122 114 179t179 57q159 0 230.5 -86.5t87.5 -233.5l17 -148q66 130 139.5 235z" />
    <glyph glyph-name="y" unicode="y" horiz-adv-x="1401" 
d="M942.5 951.5q72.5 116.5 140.5 191.5q51 59 115 95t129 36q55 0 94.5 -25t60.5 -67.5t21 -93.5q0 -56 -23 -101.5t-64.5 -71.5t-94.5 -26q-63 0 -97 37t-34 100q0 67 42.5 122.5t110.5 78.5q-8 6 -34 6q-72 0 -146 -68q-78 -70 -168 -207.5t-180 -362.5l-96 -378
q-18 -70 -18 -100t13.5 -45.5t42.5 -22t83 -8.5l-11 -41q-113 6 -327 6q-222 0 -330 -6l10 41q76 3 113 16.5t58 48t40 111.5l88 339q-31 257 -72 400.5t-108 143.5q-27 0 -45 -19t-33 -61l-43 -123h-45l58 170q35 103 98.5 155t169.5 52q105 0 168 -50t100 -153t68 -285
l15 -93q58 142 130.5 258.5z" />
    <glyph glyph-name="yacute" unicode="&#xfd;" horiz-adv-x="1401" 
d="M943.5 951.5q72.5 116.5 140.5 191.5q51 59 115 95t129 36q55 0 94.5 -25t60.5 -67.5t21 -93.5q0 -56 -23 -101.5t-64.5 -71.5t-94.5 -26q-63 0 -97 37t-34 100q0 67 42.5 122.5t110.5 78.5q-8 6 -34 6q-72 0 -146 -68q-78 -70 -168 -207.5t-180 -362.5l-96 -378
q-18 -70 -18 -100t13.5 -45.5t42.5 -22t83 -8.5l-11 -41q-113 6 -327 6q-222 0 -330 -6l10 41q76 3 113 16.5t58 48t40 111.5l88 339q-31 257 -72 400.5t-108 143.5q-27 0 -45 -19t-33 -61l-43 -123h-45l58 170q35 103 98.5 155t169.5 52q105 0 168 -50t100 -153t68 -285
l15 -93q58 142 130.5 258.5zM919.5 1554.5q84.5 79.5 123.5 114.5t87 62q42 22 87 22q72 0 99 -55q11 -22 11 -42q0 -65 -92 -116q-36 -20 -78.5 -34.5t-165 -49.5t-236.5 -80l-14 25q94 74 178.5 153.5z" />
    <glyph glyph-name="ycircumflex" unicode="&#x177;" horiz-adv-x="1401" 
d="M943.5 951.5q72.5 116.5 140.5 191.5q51 59 115 95t129 36q55 0 94.5 -25t60.5 -67.5t21 -93.5q0 -56 -23 -101.5t-64.5 -71.5t-94.5 -26q-63 0 -97 37t-34 100q0 67 42.5 122.5t110.5 78.5q-8 6 -34 6q-72 0 -146 -68q-78 -70 -168 -207.5t-180 -362.5l-96 -378
q-18 -70 -18 -100t13.5 -45.5t42.5 -22t83 -8.5l-11 -41q-113 6 -327 6q-222 0 -330 -6l10 41q76 3 113 16.5t58 48t40 111.5l88 339q-31 257 -72 400.5t-108 143.5q-27 0 -45 -19t-33 -61l-43 -123h-45l58 170q35 103 98.5 155t169.5 52q105 0 168 -50t100 -153t68 -285
l15 -93q58 142 130.5 258.5zM1087.5 1423.5q-86.5 27.5 -193.5 71.5q-214 -77 -444 -121l-11 29q171 54 318.5 138.5t236.5 178.5h37q46 -114 110.5 -189t174.5 -128l-8 -29q-134 22 -220.5 49.5z" />
    <glyph glyph-name="ydieresis" unicode="&#xff;" horiz-adv-x="1401" 
d="M943.5 951.5q72.5 116.5 140.5 191.5q51 59 115 95t129 36q55 0 94.5 -25t60.5 -67.5t21 -93.5q0 -56 -23 -101.5t-64.5 -71.5t-94.5 -26q-63 0 -97 37t-34 100q0 67 42.5 122.5t110.5 78.5q-8 6 -34 6q-72 0 -146 -68q-78 -70 -168 -207.5t-180 -362.5l-96 -378
q-18 -70 -18 -100t13.5 -45.5t42.5 -22t83 -8.5l-11 -41q-113 6 -327 6q-222 0 -330 -6l10 41q76 3 113 16.5t58 48t40 111.5l88 339q-31 257 -72 400.5t-108 143.5q-27 0 -45 -19t-33 -61l-43 -123h-45l58 170q35 103 98.5 155t169.5 52q105 0 168 -50t100 -153t68 -285
l15 -93q58 142 130.5 258.5zM537.5 1591.5q24.5 39.5 64.5 60.5t87 21q64 0 98.5 -37.5t34.5 -99.5q0 -54 -25 -93t-66 -59t-87 -20q-65 0 -98 36.5t-33 98.5q0 53 24.5 92.5zM1026.5 1591.5q24.5 39.5 65.5 60.5t88 21q65 0 99.5 -37.5t34.5 -99.5q0 -54 -25 -93t-66 -59
t-88 -20q-66 0 -99.5 36.5t-33.5 98.5q0 53 24.5 92.5z" />
    <glyph glyph-name="ygrave" unicode="&#x1ef3;" horiz-adv-x="1401" 
d="M943.5 951.5q72.5 116.5 140.5 191.5q51 59 115 95t129 36q55 0 94.5 -25t60.5 -67.5t21 -93.5q0 -56 -23 -101.5t-64.5 -71.5t-94.5 -26q-63 0 -97 37t-34 100q0 67 42.5 122.5t110.5 78.5q-8 6 -34 6q-72 0 -146 -68q-78 -70 -168 -207.5t-180 -362.5l-96 -378
q-18 -70 -18 -100t13.5 -45.5t42.5 -22t83 -8.5l-11 -41q-113 6 -327 6q-222 0 -330 -6l10 41q76 3 113 16.5t58 48t40 111.5l88 339q-31 257 -72 400.5t-108 143.5q-27 0 -45 -19t-33 -61l-43 -123h-45l58 170q35 103 98.5 155t169.5 52q105 0 168 -50t100 -153t68 -285
l15 -93q58 142 130.5 258.5zM879 1428q-55 21 -139.5 50.5t-124.5 55.5q-29 18 -47 46.5t-18 59.5q0 25 14 50q29 49 92 49q42 0 78 -23q29 -18 52 -43t86.5 -109t147.5 -167l-16 -23q-70 33 -125 54z" />
    <glyph glyph-name="z" unicode="z" horiz-adv-x="1350" 
d="M1097.5 1026.5q-98.5 -55.5 -162.5 -80t-132 -24.5q-67 0 -119.5 13t-137.5 45t-143 32q-44 0 -68 -21t-24 -61q0 -44 35.5 -73t114.5 -46l-10 -39q-114 19 -190.5 75.5t-76.5 162.5q0 76 36.5 136t104 94t156.5 34q79 0 140 -23t181 -91t234 -68q55 0 102.5 13t114.5 42
q31 43 73.5 80.5t77.5 37.5q19 0 32 -12q12 -12 12 -26q0 -30 -46.5 -66t-109.5 -59l-556 -455h278l-17 -41h-311l-571 -467q48 24 146 80t162 80.5t134 24.5q67 0 119 -13.5t137 -45.5t143 -32q44 0 68.5 21.5t24.5 60.5q0 44 -35.5 73.5t-114.5 45.5l8 39q113 -18 190 -75
t77 -162q0 -77 -36 -137t-103.5 -94t-157.5 -34q-79 0 -140 23t-181 91.5t-234 68.5q-55 0 -102 -13.5t-116 -42.5q-25 -41 -70 -80t-80 -39q-22 0 -34 15q-8 11 -8 22q0 32 47.5 68.5t106.5 58.5l566 463h-290l14 41h326l561 459q-47 -24 -145.5 -79.5z" />
    <glyph glyph-name="zacute" unicode="&#x17a;" horiz-adv-x="1350" 
d="M1097.5 1026.5q-98.5 -55.5 -162.5 -80t-132 -24.5q-67 0 -119.5 13t-137.5 45t-143 32q-44 0 -68 -21t-24 -61q0 -44 35.5 -73t114.5 -46l-10 -39q-114 19 -190.5 75.5t-76.5 162.5q0 76 36.5 136t104 94t156.5 34q79 0 140 -23t181 -91t234 -68q55 0 102.5 13t114.5 42
q31 43 73.5 80.5t77.5 37.5q19 0 32 -12q12 -12 12 -26q0 -30 -46.5 -66t-109.5 -59l-556 -455h278l-17 -41h-311l-571 -467q48 24 146 80t162 80.5t134 24.5q67 0 119 -13.5t137 -45.5t143 -32q44 0 68.5 21.5t24.5 60.5q0 44 -35.5 73.5t-114.5 45.5l8 39q113 -18 190 -75
t77 -162q0 -77 -36 -137t-103.5 -94t-157.5 -34q-79 0 -140 23t-181 91.5t-234 68.5q-55 0 -102 -13.5t-116 -42.5q-25 -41 -70 -80t-80 -39q-22 0 -34 15q-8 11 -8 22q0 32 47.5 68.5t106.5 58.5l566 463h-290l14 41h326l561 459q-47 -24 -145.5 -79.5zM929.5 1554.5
q84.5 79.5 123.5 114.5t87 62q42 22 87 22q72 0 99 -55q11 -22 11 -42q0 -65 -92 -116q-36 -20 -78.5 -34.5t-165 -49.5t-236.5 -80l-14 25q94 74 178.5 153.5z" />
    <glyph glyph-name="zcaron" unicode="&#x17e;" horiz-adv-x="1350" 
d="M1097.5 1026.5q-98.5 -55.5 -162.5 -80t-132 -24.5q-67 0 -119.5 13t-137.5 45t-143 32q-44 0 -68 -21t-24 -61q0 -44 35.5 -73t114.5 -46l-10 -39q-114 19 -190.5 75.5t-76.5 162.5q0 76 36.5 136t104 94t156.5 34q79 0 140 -23t181 -91t234 -68q55 0 102.5 13t114.5 42
q31 43 73.5 80.5t77.5 37.5q19 0 32 -12q12 -12 12 -26q0 -30 -46.5 -66t-109.5 -59l-556 -455h278l-17 -41h-311l-571 -467q48 24 146 80t162 80.5t134 24.5q67 0 119 -13.5t137 -45.5t143 -32q44 0 68.5 21.5t24.5 60.5q0 44 -35.5 73.5t-114.5 45.5l8 39q113 -18 190 -75
t77 -162q0 -77 -36 -137t-103.5 -94t-157.5 -34q-79 0 -140 23t-181 91.5t-234 68.5q-55 0 -102 -13.5t-116 -42.5q-25 -41 -70 -80t-80 -39q-22 0 -34 15q-8 11 -8 22q0 32 47.5 68.5t106.5 58.5l566 463h-290l14 41h326l561 459q-47 -24 -145.5 -79.5zM839 1664
q89 -28 189 -71q212 77 447 121l10 -28q-170 -53 -317.5 -138t-237.5 -180h-37q-47 114 -111.5 189.5t-173.5 128.5l9 28q133 -22 222 -50z" />
    <glyph glyph-name="zdotaccent" unicode="&#x17c;" horiz-adv-x="1350" 
d="M1097.5 1026.5q-98.5 -55.5 -162.5 -80t-132 -24.5q-67 0 -119.5 13t-137.5 45t-143 32q-44 0 -68 -21t-24 -61q0 -44 35.5 -73t114.5 -46l-10 -39q-114 19 -190.5 75.5t-76.5 162.5q0 76 36.5 136t104 94t156.5 34q79 0 140 -23t181 -91t234 -68q55 0 102.5 13t114.5 42
q31 43 73.5 80.5t77.5 37.5q19 0 32 -12q12 -12 12 -26q0 -30 -46.5 -66t-109.5 -59l-556 -455h278l-17 -41h-311l-571 -467q48 24 146 80t162 80.5t134 24.5q67 0 119 -13.5t137 -45.5t143 -32q44 0 68.5 21.5t24.5 60.5q0 44 -35.5 73.5t-114.5 45.5l8 39q113 -18 190 -75
t77 -162q0 -77 -36 -137t-103.5 -94t-157.5 -34q-79 0 -140 23t-181 91.5t-234 68.5q-55 0 -102 -13.5t-116 -42.5q-25 -41 -70 -80t-80 -39q-22 0 -34 15q-8 11 -8 22q0 32 47.5 68.5t106.5 58.5l566 463h-290l14 41h326l561 459q-47 -24 -145.5 -79.5zM807.5 1592
q27.5 44 75.5 67.5t108 23.5q72 0 111 -33.5t39 -93.5q0 -53 -28 -96.5t-76 -68.5t-107 -25q-72 0 -111 33t-39 92q0 57 27.5 101z" />
    <glyph glyph-name="uni0410" unicode="&#x410;" horiz-adv-x="1337" 
d="M1126 74q29 -31 66 -33l-8 -41q-105 6 -297 6q-209 0 -307 -6l8 41q66 3 103 15.5t55.5 43t18.5 87.5q0 17 -1 26l-17 336h-443l-181 -256q-65 -92 -65 -151q0 -93 171 -101l-10 -41q-172 6 -266 6q-76 0 -141 -6l8 41q52 14 103 61t128 156l854 1202q27 -3 54 -3
q29 0 51 3l82 -1288q5 -67 34 -98zM716 1133l-383 -543h411z" />
    <glyph glyph-name="uni0411" unicode="&#x411;" horiz-adv-x="1368" 
d="M610 1444h344q295 0 424 6q-41 -108 -78 -242q-28 -110 -38 -164h-45q6 54 6 100q0 139 -56 199t-166 60h-77q-67 0 -101 -12t-55 -47t-39 -111l-123 -463h96q206 0 329.5 -34t177 -100t53.5 -167q0 -144 -90.5 -250.5t-244 -162.5t-337.5 -56q-35 0 -147 3t-212 3
q-206 0 -317 -6l8 41q74 3 110.5 16t58.5 48t42 112l270 1016q17 65 17 99q0 30 -13.5 46t-42 22.5t-81.5 8.5l10 41q159 -6 317 -6zM459 217q-17 -64 -17 -93q0 -37 22.5 -57t76.5 -20q121 0 207 61t130 164.5t44 231.5q0 78 -25.5 128.5t-87 76.5t-168.5 26h-44z" />
    <glyph glyph-name="uni0412" unicode="&#x412;" horiz-adv-x="1391" 
d="M604 1444q69 0 153 2t146 2q230 0 340.5 -71t110.5 -199q0 -106 -69 -195t-194 -147t-288 -74q149 -7 253 -50t156 -113t52 -157q0 -140 -86.5 -240t-239 -151t-348.5 -51q-36 0 -148 3t-211 3q-206 0 -317 -6l8 41q74 3 110.5 16t58.5 48t42 112l270 1016q18 72 18 98
q0 40 -30 58t-108 20l10 41q108 -6 311 -6zM866.5 832q80.5 62 123 163t42.5 215q0 97 -36 148t-122 51q-42 0 -66 -12t-40.5 -42.5t-32.5 -90.5l-130 -494h71q110 0 190.5 62zM442 124q0 -37 22.5 -57t76.5 -20q121 0 207 58t130 156t44 218q0 118 -56 187t-180 69h-90
l-137 -518q-17 -64 -17 -93z" />
    <glyph glyph-name="uni0413" unicode="&#x413;" horiz-adv-x="1143" 
d="M443 126q0 -34 17 -51.5t53.5 -24.5t104.5 -9l-8 -41q-126 6 -364 6q-226 0 -334 -6l10 41q74 3 110 16t58 48t43 112l270 1016q17 65 17 99q0 30 -13.5 46t-42 22.5t-81.5 8.5l10 41q165 -6 328 -6h337q256 0 367 6q-43 -117 -80 -250q-37 -142 -43 -180h-47q8 61 8 124
q0 139 -50 199t-146 60h-54q-57 0 -88.5 -12.5t-53.5 -48t-42 -109.5l-270 -1016q-16 -61 -16 -91z" />
    <glyph glyph-name="uni0403" unicode="&#x403;" horiz-adv-x="1143" 
d="M443 126q0 -34 17 -51.5t53.5 -24.5t104.5 -9l-8 -41q-126 6 -364 6q-226 0 -334 -6l10 41q74 3 110 16t58 48t43 112l270 1016q17 65 17 99q0 30 -13.5 46t-42 22.5t-81.5 8.5l10 41q165 -6 328 -6h337q256 0 367 6q-43 -117 -80 -250q-37 -142 -43 -180h-47q8 61 8 124
q0 139 -50 199t-146 60h-54q-57 0 -88.5 -12.5t-53.5 -48t-42 -109.5l-270 -1016q-16 -61 -16 -91zM827.5 1759.5q84.5 79.5 123.5 114.5t87 61q41 23 88 23q71 0 98 -55q11 -22 11 -42q0 -65 -92 -116q-36 -20 -78.5 -34.5t-165 -49.5t-236.5 -80l-14 25q94 74 178.5 153.5
z" />
    <glyph glyph-name="uni0490" unicode="&#x490;" horiz-adv-x="1059" 
d="M635 1444q48 0 148 3t132 3q103 0 179 32.5t134.5 103t108.5 186.5h47q-19 -49 -38 -127q-26 -98 -52 -242h-358q-72 0 -108 -12t-57.5 -46.5t-41.5 -111.5l-270 -1016q-16 -61 -16 -91q0 -34 17 -51.5t53.5 -24.5t104.5 -9l-8 -41q-126 6 -364 6q-226 0 -334 -6l10 41
q74 3 110 16t58 48t43 112l270 1016q17 65 17 99q0 30 -13.5 46t-42 22.5t-81.5 8.5l10 41q119 -6 342 -6z" />
    <glyph glyph-name="uni0414" unicode="&#x414;" horiz-adv-x="1343" 
d="M674 1444q15 0 60 3t97 3q87 0 189.5 -3t138.5 -3q204 0 324 6l-10 -41q-75 -3 -112 -16t-58 -48t-41 -112l-271 -1016q-17 -65 -17 -98q0 -31 14 -47t43 -22.5t81 -8.5h64q-41 -110 -91 -303q-8 -36 -14 -66.5t-12 -60.5h-45q7 56 7 109q0 105 -32.5 167t-98.5 89.5
t-171 27.5q-43 0 -133.5 -2t-206.5 -2h-123q-136 0 -227 -33t-162.5 -117t-136.5 -239h-45q64 176 47 127q61 187 84 303h135q80 0 141 55q120 108 251 400t251 737q18 63 18 98q0 31 -14 47t-43 22.5t-82 8.5l10 41q65 -6 191 -6zM952 1327q0 47 -27 64.5t-85 17.5h-29
q-53 0 -83.5 -14t-51.5 -51t-41 -111q-105 -396 -236 -714.5t-274 -446.5q-19 -18 -39 -31h377q69 0 104.5 13.5t57 49.5t41.5 113l270 1016q16 57 16 94z" />
    <glyph glyph-name="uni0415" unicode="&#x415;" horiz-adv-x="1282" 
d="M958 1444q291 0 416 6q-54 -147 -78 -242q-11 -46 -26 -127h-45q3 39 3 73q0 93 -22.5 147t-72 78t-134.5 24h-63q-72 0 -108 -12t-57.5 -46.5t-41.5 -111.5l-128 -483h75q102 0 171 71.5t109 173.5h48q-24 -70 -37.5 -118t-23.5 -88.5t-15 -59.5q-25 -91 -60 -266h-45
q2 28 2 44q0 202 -172 202h-63l-131 -492q-19 -68 -19 -100q0 -29 13.5 -44t42 -20.5t79.5 -5.5h76q112 0 187.5 34.5t135 112t120.5 216.5h47q-22 -54 -45 -148q-32 -108 -54 -262q-139 6 -464 6q-443 0 -666 -6l10 41q74 3 110 16t58 48t43 112l270 1016q17 65 17 99
q0 30 -13.5 46t-42 22.5t-81.5 8.5l10 41q223 -6 665 -6z" />
    <glyph glyph-name="uni0401" unicode="&#x401;" horiz-adv-x="1282" 
d="M958 1444q291 0 416 6q-54 -147 -78 -242q-11 -46 -26 -127h-45q3 39 3 73q0 93 -22.5 147t-72 78t-134.5 24h-63q-72 0 -108 -12t-57.5 -46.5t-41.5 -111.5l-128 -483h75q102 0 171 71.5t109 173.5h48q-24 -70 -37.5 -118t-23.5 -88.5t-15 -59.5q-25 -91 -60 -266h-45
q2 28 2 44q0 202 -172 202h-63l-131 -492q-19 -68 -19 -100q0 -29 13.5 -44t42 -20.5t79.5 -5.5h76q112 0 187.5 34.5t135 112t120.5 216.5h47q-22 -54 -45 -148q-32 -108 -54 -262q-139 6 -464 6q-443 0 -666 -6l10 41q74 3 110 16t58 48t43 112l270 1016q17 65 17 99
q0 30 -13.5 46t-42 22.5t-81.5 8.5l10 41q223 -6 665 -6zM560.5 1796.5q24.5 39.5 64.5 60.5t87 21q64 0 98.5 -37.5t34.5 -99.5q0 -54 -25 -93t-66 -59t-87 -20q-65 0 -98 36.5t-33 98.5q0 53 24.5 92.5zM1050.5 1796.5q24.5 39.5 64.5 60.5t87 21q64 0 98.5 -37.5
t34.5 -99.5q0 -54 -25 -93t-65.5 -59t-85.5 -20q-66 0 -99.5 36.5t-33.5 98.5q0 53 24.5 92.5z" />
    <glyph glyph-name="uni0416" unicode="&#x416;" horiz-adv-x="2103" 
d="M339.5 602q60.5 71 147.5 108.5t217 51.5q-58 15 -82 57t-24 107q0 41 7.5 87.5t29 149t21.5 153.5t-22 87.5t-71 36.5q-20 0 -31 -2q29 -23 44.5 -59t15.5 -79q0 -61 -31 -108t-79 -72.5t-97 -25.5q-59 0 -91 34t-32 91q0 68 42 128t110.5 96t142.5 36q58 0 95 -29
t44 -88q3 -18 3 -38q0 -56 -18.5 -140.5t-30 -143t-11.5 -110.5q0 -66 28.5 -105t103.5 -49q48 16 75 16q34 0 34 -26q0 -6 -1 -10q-8 -41 -54 -41q-28 0 -73 19q-51 -29 -87.5 -77t-76.5 -141l-119 -287q-38 -93 -79.5 -149t-96.5 -82.5t-133 -26.5q-102 0 -161 47.5
t-91 157.5l33 17q17 -37 43 -54.5t55 -17.5q60 0 94 76l94 215q52 119 112.5 190zM1466 602q0 82 -54 131q-43 -16 -81 -16q-40 0 -40 31l1 8q8 39 54 39q23 0 70 -19q123 19 181.5 113t115 278t110.5 242q65 70 164 70q56 0 99 -23.5t66.5 -65.5t22.5 -96q0 -48 -21.5 -94
t-63 -76t-97.5 -30q-62 0 -101.5 36.5t-38.5 98.5q0 63 45 121t115 86q-14 4 -41 4q-77 0 -123 -64q-43 -57 -94.5 -226.5t-107.5 -266t-175 -122.5q97 -11 159.5 -35.5t99 -80t36.5 -152.5q0 -36 -6 -81l-22 -215l-1 -14q0 -62 52 -62q39 0 66 30t49 93l34 104h41l-53 -158
q-73 -219 -282 -219q-109 0 -169 56.5t-60 154.5q0 23 3 47l39 287q8 50 8 86zM1090 117q0 -38 30 -55t109 -21l-8 -41q-114 6 -330 6q-215 0 -326 -6l10 41q71 3 107 16t58 48.5t42 111.5l269 1016q17 66 17 95q0 40 -29.5 58t-106.5 23l10 41q105 -6 326 -6q206 0 331 6
l-10 -41q-75 -3 -111.5 -16t-58 -48t-41.5 -112l-268 -1016q-20 -76 -20 -100z" />
    <glyph glyph-name="uni0417" unicode="&#x417;" horiz-adv-x="1214" 
d="M400 1387q0 -57 30 -57q13 0 35 13q78 50 128.5 76.5t115 43t147.5 16.5q109 0 192 -28.5t130 -85t47 -136.5q0 -121 -104 -217t-255 -157t-295 -87q142 1 260 -32.5t190.5 -109t72.5 -194.5q0 -133 -100.5 -238.5t-261 -164t-333.5 -58.5q-221 0 -336 86q-92 70 -92 164
q0 49 23.5 96t68 77t103.5 30q63 0 101 -34.5t38 -98.5q0 -50 -23.5 -95.5t-64.5 -78t-90 -43.5q19 -23 75.5 -40.5t131.5 -17.5q118 0 215.5 51t155 144.5t57.5 216.5q0 73 -27 143.5t-79 119.5t-124 59q-60 -30 -94 -30q-43 0 -43 29q0 38 57 38q31 0 68 -11
q95 20 180.5 84.5t138 155t52.5 186.5q0 178 -191 178q-109 0 -186 -52.5t-129 -139t-96 -209.5h-45q93 304 118 471h44q-6 -34 -6 -63z" />
    <glyph glyph-name="uni0418" unicode="&#x418;" horiz-adv-x="1702" 
d="M1518 1444q227 0 337 6l-10 -41q-75 -3 -111.5 -16t-58 -48t-41.5 -112l-272 -1016q-18 -70 -18 -100t13.5 -45.5t42.5 -22t83 -8.5l-10 -41q-108 6 -336 6q-208 0 -322 -6l10 41q74 3 111 16t58.5 48t41.5 112l255 949l-837 -969q-13 -48 -13 -80q0 -30 13.5 -45.5
t42 -22t81.5 -8.5l-9 -41q-113 6 -321 6q-223 0 -334 -6l10 41q72 3 108 16t58 48t43 112l270 1016q17 65 17 99q0 30 -13.5 46t-42 22.5t-81.5 8.5l10 41q108 -6 336 -6q198 0 321 6l-10 -41q-75 -3 -111.5 -16t-58 -48t-41.5 -112l-251 -946l838 974q11 45 11 70
q0 31 -14 47t-43 22.5t-82 8.5l10 41q111 -6 320 -6z" />
    <glyph glyph-name="uni0419" unicode="&#x419;" horiz-adv-x="1702" 
d="M1518 1444q227 0 337 6l-10 -41q-75 -3 -111.5 -16t-58 -48t-41.5 -112l-272 -1016q-18 -70 -18 -100t13.5 -45.5t42.5 -22t83 -8.5l-10 -41q-108 6 -336 6q-208 0 -322 -6l10 41q74 3 111 16t58.5 48t41.5 112l255 949l-837 -969q-13 -48 -13 -80q0 -30 13.5 -45.5
t42 -22t81.5 -8.5l-9 -41q-113 6 -321 6q-223 0 -334 -6l10 41q72 3 108 16t58 48t43 112l270 1016q17 65 17 99q0 30 -13.5 46t-42 22.5t-81.5 8.5l10 41q108 -6 336 -6q198 0 321 6l-10 -41q-75 -3 -111.5 -16t-58 -48t-41.5 -112l-251 -946l838 974q11 45 11 70
q0 31 -14 47t-43 22.5t-82 8.5l10 41q111 -6 320 -6zM1368.5 1615q-154.5 -71 -315.5 -71q-105 0 -189.5 22t-134 66t-49.5 107q0 45 23.5 81.5t65.5 57t93 20.5q152 0 152 -122q0 -52 -39.5 -95.5t-99.5 -60.5q56 -33 190 -33q161 1 300.5 72t244.5 194l29 -22
q-116 -145 -270.5 -216z" />
    <glyph glyph-name="uni041A" unicode="&#x41a;" horiz-adv-x="1516" 
d="M876 602q0 51 -12 81t-40 52q-85 -22 -125 -22q-53 0 -53 34l1 9q6 41 60 41q39 0 120 -21q131 18 191 113.5t116.5 283.5t114.5 246q60 60 146 60q90 0 142 -51.5t50 -135.5q0 -47 -21.5 -93t-64 -75.5t-100.5 -29.5t-96.5 36t-38.5 97t41 118.5t110 88.5q-12 6 -33 6
q-36 0 -59 -11t-45 -34q-50 -55 -105 -230t-111 -275.5t-177 -127.5q107 -12 170 -42.5t92 -86t29 -144.5q0 -40 -4 -77l-23 -215l-1 -14q0 -62 52 -62q39 0 66 30t49 93l35 104h41l-54 -158q-37 -111 -109 -165t-165 -54q-116 0 -177 56t-61 154q0 14 4 48l39 287
q6 51 6 86zM441 117q0 -30 13.5 -45.5t42.5 -22t83 -8.5l-9 -41q-113 6 -321 6q-223 0 -334 -6l10 41q71 3 107 16t58 48.5t42 111.5l270 1016q17 65 17 99q0 30 -13.5 46t-42 22.5t-81.5 8.5l10 41q103 -6 334 -6q197 0 323 6l-10 -41q-75 -3 -111.5 -16t-58 -48
t-41.5 -112l-270 -1016q-18 -70 -18 -100z" />
    <glyph glyph-name="uni040C" unicode="&#x40c;" horiz-adv-x="1516" 
d="M876 602q0 51 -12 81t-40 52q-85 -22 -125 -22q-53 0 -53 34l1 9q6 41 60 41q39 0 120 -21q131 18 191 113.5t116.5 283.5t114.5 246q60 60 146 60q90 0 142 -51.5t50 -135.5q0 -47 -21.5 -93t-64 -75.5t-100.5 -29.5t-96.5 36t-38.5 97t41 118.5t110 88.5q-12 6 -33 6
q-36 0 -59 -11t-45 -34q-50 -55 -105 -230t-111 -275.5t-177 -127.5q107 -12 170 -42.5t92 -86t29 -144.5q0 -40 -4 -77l-23 -215l-1 -14q0 -62 52 -62q39 0 66 30t49 93l35 104h41l-54 -158q-37 -111 -109 -165t-165 -54q-116 0 -177 56t-61 154q0 14 4 48l39 287
q6 51 6 86zM441 117q0 -30 13.5 -45.5t42.5 -22t83 -8.5l-9 -41q-113 6 -321 6q-223 0 -334 -6l10 41q71 3 107 16t58 48.5t42 111.5l270 1016q17 65 17 99q0 30 -13.5 46t-42 22.5t-81.5 8.5l10 41q103 -6 334 -6q197 0 323 6l-10 -41q-75 -3 -111.5 -16t-58 -48
t-41.5 -112l-270 -1016q-18 -70 -18 -100zM988.5 1759.5q84.5 79.5 123.5 114.5t87 61q41 23 88 23q71 0 98 -55q11 -22 11 -42q0 -65 -92 -116q-36 -20 -78.5 -34.5t-165 -49.5t-236.5 -80l-14 25q94 74 178.5 153.5z" />
    <glyph glyph-name="uni041B" unicode="&#x41b;" horiz-adv-x="1464" 
d="M859.5 1395q-30.5 -14 -51 -51t-40.5 -111q-110 -408 -243.5 -734t-276.5 -456q-82 -72 -185 -72q-60 0 -103.5 23t-66 63.5t-22.5 90.5q0 51 24 93t66.5 66.5t95.5 24.5q67 0 104.5 -34.5t35.5 -90.5q0 -66 -43.5 -117t-110.5 -72q30 -6 35 -6q78 3 139 56
q119 107 251.5 408t258.5 757q17 65 17 98q0 31 -14 47t-42.5 22.5t-81.5 8.5l10 41q64 -6 191 -6q14 0 59.5 3t98.5 3q85 0 187 -3t138 -3q203 0 326 6l-10 -41q-75 -3 -111.5 -16t-58 -48t-41.5 -112l-271 -1016q-17 -66 -17 -99q0 -30 13.5 -46t42.5 -22.5t82 -8.5
l-8 -41q-114 6 -336 6q-211 0 -321 -6l10 41q72 3 108.5 16t58.5 48.5t42 111.5l270 1016q15 57 15 92q0 48 -27 66t-84 18h-29q-54 0 -84.5 -14z" />
    <glyph glyph-name="uni041C" unicode="&#x41c;" horiz-adv-x="1878" 
d="M2030 1450l-11 -41q-75 -3 -111.5 -16t-58 -48t-41.5 -112l-270 -1016q-17 -65 -17 -98q0 -31 14 -47t42.5 -22.5t81.5 -8.5l-8 -41q-129 6 -328 6q-223 0 -328 -6l9 41q75 3 111.5 16t57.5 48t41 112l297 1104l-849 -1331h-46l-165 1257l-258 -983q-17 -65 -17 -102
q0 -57 38.5 -87.5t131.5 -33.5l-8 -41q-73 6 -229 6q-125 0 -195 -6l10 41q68 3 111 30t67.5 74t42.5 119l261 969q17 65 17 98q0 31 -13.5 47t-42.5 22.5t-82 8.5l10 41q92 -6 280 -6q108 0 185 6l117 -1047l663 1041h160q198 0 330 6z" />
    <glyph glyph-name="uni041D" unicode="&#x41d;" horiz-adv-x="1659" 
d="M1473 1444q224 0 337 6l-10 -41q-75 -3 -111.5 -16t-58 -48t-41.5 -112l-270 -1016q-18 -70 -18 -100t13.5 -45.5t42.5 -22t83 -8.5l-8 -41q-111 6 -336 6q-208 0 -322 -6l8 41q74 3 111 16t58.5 48t41.5 112l131 492h-534l-131 -492q-18 -70 -18 -100t13.5 -45.5
t42.5 -22t83 -8.5l-9 -41q-113 6 -321 6q-223 0 -334 -6l10 41q71 3 107 16t58 48.5t42 111.5l270 1016q17 65 17 99q0 30 -13.5 46t-42 22.5t-81.5 8.5l10 41q103 -6 334 -6q197 0 323 6l-10 -41q-75 -3 -111.5 -16t-58 -48t-41.5 -112l-128 -483h534l129 483q18 63 18 98
q0 31 -14 47t-43 22.5t-82 8.5l10 41q111 -6 320 -6z" />
    <glyph glyph-name="uni041E" unicode="&#x41e;" horiz-adv-x="1591" 
d="M205.5 932q118.5 237 330.5 392t479 155q174 0 299 -58t191.5 -169t66.5 -267q0 -231 -119 -467.5t-332 -391.5t-479 -155q-173 0 -298 58t-191 168.5t-66 265.5q0 232 118.5 469zM727.5 1294.5q-129.5 -147.5 -209 -381.5t-79.5 -477q0 -131 28 -228t78 -148.5
t115 -51.5q140 0 269 147.5t209 381.5t80 477q0 131 -28.5 228t-78.5 148.5t-115 51.5q-139 0 -268.5 -147.5z" />
    <glyph glyph-name="uni041F" unicode="&#x41f;" horiz-adv-x="1659" 
d="M627 1444q44 0 172.5 3t253.5 3q116 0 245.5 -3t174.5 -3q227 0 337 6l-10 -41q-75 -3 -111.5 -16t-58 -48t-41.5 -112l-270 -1016q-18 -70 -18 -100t13.5 -45.5t42.5 -22t83 -8.5l-8 -41q-108 6 -336 6q-208 0 -322 -6l8 41q74 3 111 16t58.5 48t41.5 112l271 1016
q18 63 18 99q0 46 -31 61.5t-108 15.5h-207q-71 0 -107.5 -13.5t-58 -49.5t-41.5 -113l-270 -1016q-18 -70 -18 -100t13.5 -45.5t42.5 -22t83 -8.5l-9 -41q-112 6 -321 6q-223 0 -334 -6l10 41q71 3 107 16t58 48.5t42 111.5l270 1016q17 65 17 99q0 30 -13.5 46t-42 22.5
t-81.5 8.5l10 41q103 -6 334 -6z" />
    <glyph glyph-name="uni0420" unicode="&#x420;" horiz-adv-x="1317" 
d="M441 127q0 -43 30.5 -63t106.5 -23l-9 -41q-123 6 -315 6q-232 0 -340 -6l8 41q74 3 110.5 16t58.5 48t42 112l270 1016q15 65 15 96q0 41 -29 59t-106 21l10 41q104 -6 325 -6q49 0 148.5 2t151.5 2q241 0 361 -78.5t120 -230.5q0 -160 -106.5 -286.5t-298.5 -198.5
t-440 -72l-97 -365q-16 -64 -16 -90zM573 623q170 0 278.5 82t157 209.5t48.5 271.5q0 111 -47.5 167t-151.5 56q-42 0 -63 -14.5t-34 -47.5t-34 -114l-162 -610h8z" />
    <glyph glyph-name="uni0421" unicode="&#x421;" horiz-adv-x="1419" 
d="M1398 979h-45q15 89 15 160q0 96 -34 157q-72 134 -241 134q-164 0 -312 -144t-237.5 -374.5t-89.5 -473.5q0 -203 72.5 -304t203.5 -101q78 0 162 35.5t145 99.5q54 56 93.5 127.5t91.5 196.5h45q-97 -355 -121 -492h-45q6 44 6 70q0 52 -26 52q-16 0 -42 -18
q-93 -64 -188 -98.5t-213 -34.5q-274 0 -411.5 131t-137.5 377q0 242 128 474t353 379t498 147q80 0 137 -18t94.5 -46t73.5 -69q15 -18 30 -18q38 0 83 122h43q-68 -177 -131 -471z" />
    <glyph glyph-name="uni0422" unicode="&#x422;" horiz-adv-x="1395" 
d="M593 1409q-170 0 -232 -35q54 -15 88.5 -60t34.5 -106q0 -47 -20.5 -86.5t-56.5 -62.5t-82 -23q-69 0 -108.5 46.5t-39.5 115.5q0 57 31.5 111t101.5 88q101 49 275 49q87 0 172 -6t258.5 -22.5t277.5 -16.5q137 0 217 27q-31 29 -51 70.5t-20 90.5q0 75 44 121.5
t117 46.5q49 0 84.5 -20t54.5 -52.5t19 -70.5q0 -126 -141 -195q-124 -59 -342 -59q-52 0 -120 4l-300 -1126q-15 -57 -15 -94t16.5 -58.5t53 -31.5t99.5 -13l-9 -41q-129 6 -378 6q-244 0 -361 -6l8 41q88 3 136 21t75.5 58t48.5 118l309 1156q-155 15 -245 15z" />
    <glyph glyph-name="uni0423" unicode="&#x423;" horiz-adv-x="1354" 
d="M1456 1444q84 0 146 6l-11 -41q-61 -15 -113.5 -57.5t-117.5 -141.5l-642 -977q-57 -90 -103 -144t-107 -86t-143 -32q-111 0 -175.5 46.5t-66.5 125.5q0 50 24.5 90.5t66 63t91.5 22.5q65 0 105 -33t41 -89q0 -69 -44.5 -115.5t-115.5 -63.5q23 -10 69 -10
q66 0 117 24.5t93.5 70.5t91.5 120l-343 1034q-24 73 -56.5 105.5t-80.5 46.5l11 41q104 -6 305 -6q168 0 276 6l-10 -41q-51 -3 -79 -9.5t-41.5 -21t-13.5 -41.5q0 -35 21 -98l226 -692l432 657q47 72 47 118q0 79 -160 87l10 41q58 -6 250 -6z" />
    <glyph glyph-name="uni040E" unicode="&#x40e;" horiz-adv-x="1354" 
d="M1457 1444q84 0 146 6l-11 -41q-61 -15 -113.5 -57.5t-117.5 -141.5l-642 -977q-57 -90 -103 -144t-107 -86t-143 -32q-111 0 -175.5 46.5t-66.5 125.5q0 50 24.5 90.5t66 63t91.5 22.5q65 0 105 -33t41 -89q0 -69 -44.5 -115.5t-115.5 -63.5q23 -10 69 -10
q66 0 117 24.5t93.5 70.5t91.5 120l-343 1034q-24 73 -56.5 105.5t-80.5 46.5l11 41q104 -6 305 -6q168 0 276 6l-10 -41q-51 -3 -79 -9.5t-41.5 -21t-13.5 -41.5q0 -35 21 -98l226 -692l432 657q47 72 47 118q0 79 -160 87l10 41q58 -6 250 -6zM1194.5 1615
q-154.5 -71 -315.5 -71q-105 0 -189.5 22t-134 66t-49.5 107q0 45 23.5 81.5t65.5 57t93 20.5q152 0 152 -122q0 -52 -39.5 -95.5t-99.5 -60.5q56 -33 190 -33q161 1 300.5 72t244.5 194l29 -22q-116 -145 -270.5 -216z" />
    <glyph glyph-name="uni0424" unicode="&#x424;" horiz-adv-x="1997" 
d="M441.5 1265q-40.5 52 -40.5 121q0 63 32.5 112t92.5 76.5t140 27.5q108 0 235 -57.5t205 -87.5t186 -30q54 0 129 13.5t140 34.5q76 119 127 119q14 0 28 -11q13 -11 13 -25q0 -50 -150 -106q-148 -117 -242 -313q204 -18 348.5 -71.5t219.5 -140t75 -200.5
q0 -143 -111.5 -275t-325.5 -222.5t-504 -109.5q-62 -227 -208 -366t-401 -139q-124 0 -202.5 37.5t-80.5 120.5q0 42 21 76t60.5 54.5t93.5 20.5q70 0 113.5 -32.5t43.5 -90.5q1 -46 -28.5 -83.5t-83.5 -61.5q20 -6 57 -6q76 0 125.5 57t80 144t81.5 270q-211 16 -360 69.5
t-226.5 141t-77.5 203.5q0 154 129.5 294.5t375.5 228.5t578 89q75 76 170 143t230 146q-62 -22 -190.5 -74t-211 -76t-161.5 -24q-78 0 -133 20t-130.5 63.5t-123.5 43.5q-39 0 -61.5 -19t-22.5 -53q0 -30 21 -53.5t65 -44.5l-25 -35q-75 29 -115.5 81zM1094 1110
q-233 -6 -394 -81t-242 -206.5t-81 -306.5q0 -296 346 -351l133 488q78 278 238 457zM1381 259q135 78 202.5 202t67.5 284q0 291 -334 350q-59 -134 -115 -350l-153 -585q197 21 332 99z" />
    <glyph glyph-name="uni0425" unicode="&#x425;" horiz-adv-x="1518" 
d="M1108.5 1197q91.5 137 171.5 208q92 74 186 74q86 0 134.5 -52.5t48.5 -133.5q0 -56 -23.5 -101.5t-65.5 -71.5t-94 -26q-63 0 -98 37t-35 100q1 67 44.5 122.5t111.5 78.5q-11 8 -35 8q-69 0 -133 -47q-79 -63 -178 -207t-192 -349l69 -581q20 -139 117 -139
q49 0 81.5 30t57.5 97l35 104h41l-54 -158q-42 -115 -112 -167t-172 -52q-109 0 -175 40.5t-98 110t-45 169.5l-29 238q-78 -150 -181 -283t-197 -205q-92 -70 -191 -70q-86 0 -133 52.5t-47 133.5q0 56 23 101.5t64.5 71.5t94.5 26q62 0 96.5 -36t34.5 -96
q0 -69 -42 -125.5t-111 -80.5q8 -8 35 -8q63 0 135 47q88 61 199.5 200.5t211.5 336.5l-73 606q-9 69 -35.5 106t-79.5 37q-47 0 -80.5 -33t-58.5 -104l-35 -104h-41l53 158q41 115 115.5 167t183.5 52q148 0 216.5 -82t88.5 -238l30 -256q74 157 165.5 294z" />
    <glyph glyph-name="uni0427" unicode="&#x427;" horiz-adv-x="1513" 
d="M1335 1444q217 0 334 6l-10 -41q-75 -3 -111.5 -16t-58.5 -48t-43 -112l-272 -1016q-19 -68 -19 -100q0 -30 14 -45.5t42.5 -22t80.5 -8.5l-10 -41q-108 6 -336 6q-236 0 -362 -6l10 41q92 3 137 16t70.5 48t46.5 112l107 401q-76 -34 -178 -57.5t-208 -23.5
q-203 0 -299 96q-64 65 -64 163q0 56 23 148l78 316q12 46 12 75q0 39 -21.5 54.5t-68.5 17.5l11 43q220 -8 290 -8q69 0 289 8l-10 -43q-54 0 -86.5 -14t-53 -45.5t-36.5 -87.5l-92 -351q-26 -89 -26 -151q0 -78 46.5 -117t151.5 -39q63 0 133.5 13.5t117.5 36.5l156 581
q18 65 18 100q0 30 -13.5 45.5t-42 22t-81.5 8.5l11 41q103 -6 323 -6z" />
    <glyph glyph-name="uni0426" unicode="&#x426;" horiz-adv-x="1669" 
d="M1348 -281q0 105 -33 167.5t-98.5 90t-169.5 27.5q-56 0 -161 -2t-216 -2q-116 0 -245.5 3t-174.5 3q-227 0 -338 -6l10 41q75 3 111.5 16t58 48t41.5 112l270 1016q18 70 18 100t-13.5 45.5t-42.5 22t-82 8.5l8 41q106 -6 336 -6q207 0 321 6l-8 -41q-74 -3 -110.5 -16
t-58.5 -48t-42 -112l-270 -1016q-18 -63 -18 -100q0 -31 14 -47t43.5 -22.5t81.5 -6.5h206q71 0 107.5 13.5t58 49.5t41.5 113l271 1016q17 66 17 99q0 30 -13.5 46t-42.5 22.5t-82 8.5l8 41q114 -6 322 -6q223 0 333 6l-10 -41q-71 -3 -107 -16t-58 -48.5t-42 -111.5
l-270 -1016q-17 -65 -17 -99q0 -46 30.5 -61.5t107.5 -15.5h63q-23 -59 -41 -120.5t-31.5 -114t-17.5 -68.5q-19 -87 -27 -127h-45q7 56 7 108z" />
    </font>
</defs>
</svg>
